<?xml version="1.0" encoding="UTF-8" standalone="no"?>
<svg
   xmlns:dc="http://purl.org/dc/elements/1.1/"
   xmlns:cc="http://creativecommons.org/ns#"
   xmlns:rdf="http://www.w3.org/1999/02/22-rdf-syntax-ns#"
   xmlns:svg="http://www.w3.org/2000/svg"
   xmlns="http://www.w3.org/2000/svg"
   xmlns:sodipodi="http://sodipodi.sourceforge.net/DTD/sodipodi-0.dtd"
   xmlns:inkscape="http://www.inkscape.org/namespaces/inkscape"
   id="svg"
   width="70"
   height="31.315928"
   viewBox="0 0 70 31.315927"
   version="1.1"
   sodipodi:docname="about_button.svg"
   inkscape:version="0.92.4 (5da689c313, 2019-01-14)">
  <metadata
     id="metadata9">
    <rdf:RDF>
      <cc:Work
         rdf:about="">
        <dc:format>image/svg+xml</dc:format>
        <dc:type
           rdf:resource="http://purl.org/dc/dcmitype/StillImage" />
        <dc:title />
      </cc:Work>
    </rdf:RDF>
  </metadata>
  <defs
     id="defs7" />
  <sodipodi:namedview
     pagecolor="#ffffff"
     bordercolor="#666666"
     borderopacity="1"
     objecttolerance="10"
     gridtolerance="10"
     guidetolerance="10"
     inkscape:pageopacity="0"
     inkscape:pageshadow="2"
     inkscape:window-width="1920"
     inkscape:window-height="1017"
     id="namedview5"
     showgrid="false"
     inkscape:zoom="11.36"
     inkscape:cx="26.180379"
     inkscape:cy="2.6787075"
     inkscape:window-x="-8"
     inkscape:window-y="-8"
     inkscape:window-maximized="1"
     inkscape:current-layer="svg" />
  <g
     transform="matrix(3.7795276,0,0,3.7795276,-1.2626906,-1091.2602)"
     id="layer1"
     inkscape:label="Layer 1">
    <rect
       y="288.73135"
       x="0.33408689"
       height="8.2814579"
       width="18.520834"
       id="rect815"
       style="opacity:1;fill:#f00090;fill-opacity:1;fill-rule:nonzero;stroke-width:1;stroke-miterlimit:4;stroke-dasharray:none" />
  </g>
  <g
     id="svgg"
     transform="matrix(0.09617492,0,0,0.09617492,13.913509,-8.6810853)">
    <path
       id="path0"
       d="m 86.641108,165.60045 v 171.1762 h 11.1475 11.147502 l 0.0533,-13.845 0.052,-13.845 1.3338,3.7505 c 6.8744,19.3362 20.0759,28.8587 33.722,24.3256 37.4998,-12.4553 39.1638,-154.8248 2.0267,-173.3316 -13.0598,-6.5078 -26.9139,1.8434 -34.5553,20.8286 l -2.6052,6.474 -0.013,-98.3541 -0.0143,-98.3541023 H 97.788608 86.641108 V 165.60045 m 348.823802,-24.5297 c 0,25.7283 0.9659,23.2479 -8.9726,23.0256 l -6.4909,-0.1456 -0.2197,4.212 c -0.3952,7.5426 -0.5161,7.4256 7.9586,7.6622 l 7.3645,0.2041 0.1833,80.3738 0.1833,80.3738 h 10.7822 10.7822 l 0.182,-80.3738 0.1833,-80.3738 7.2943,-0.2041 c 8.2329,-0.2301 8.151,-0.1625 8.1484,-6.6274 -0.001,-5.0102 -0.3783,-5.265 -7.5088,-5.0934 -8.9726,0.2158 -8.294,2.1307 -8.294,-23.4052 v -21.8478 h -10.7874 -10.7887 v 22.2196 m -437.6112068,21.4071 c -12.2733002,3.7661 -22.0051002,18.278 -27.3936002,40.8512 -8.7724,36.7432 -5.1246,91.4966 7.6908,115.4673 15.2126002,28.4531 39.4641,26.403 48.9177,-4.1366 1.9903,-6.4311 2.7534,-3.7908 2.7534,9.5303 v 12.5866 h 10.7887 10.7874 v -86.307 -86.307 h -10.7874 -10.7887 v 12.2265 c 0,13.91 -0.7683,15.5714 -3.5737,7.7324 -6.3011,-17.6085 -16.4176998,-25.3188 -28.3945998,-21.6437 m 239.0518068,-0.1651 c -18.7889,4.1236 -30.3914,23.1686 -35.3028,57.9488 -1.3013,9.2131 -1.3273,51.1901 -0.0377,59.696 1.1752,7.7506 2.9419,16.9858 3.7843,19.7795 8.2316,27.2896 20.1344,39.1976 39.182,39.1976 22.0935,0 35.8501,-18.3313 41.8353,-55.7466 1.6016,-10.0126 1.8434,-53.9331 0.3484,-63.2853 -7.0655,-44.1987 -23.6184,-63.3373 -49.8095,-57.59 m 81.666,3.4684 c -1.1752,4.6839 0.0845,146.1967 1.3494,151.5761 3.4957,14.8694 10.2544,20.8286 24.3126,21.4383 10.4819,0.4537 18.0648,-2.7235 23.0438,-9.6564 2.7651,-3.8519 3.3176,-3.4528 3.5997,2.6026 l 0.2171,4.6748 h 10.7887 10.7887 l 0.182,-86.1263 0.1833,-86.1276 h -11.1228 -11.1215 l -0.2093,73.1809 c -0.2327,81.8038 0.1586,75.6613 -5.2195,82.0235 -4.6956,5.5562 -14.6796,7.6986 -18.9878,4.0742 -5.7824,-4.8659 -5.8461,-5.8344 -5.8474,-88.2557 l -10e-4,-71.0229 h -10.7744 c -10.5742,0 -10.7822,0.0299 -11.1813,1.6185 m -69.6735,8.8166 c 5.6563,5.6563 6.0359,10.1998 6.0385,72.3307 0.004,63.9704 -0.6578,73.3148 -5.5523,78.4849 -6.3752,6.7353 -13.0364,0.9165 -15.808,-13.8099 -3.3098,-17.5812 -1.2246,-120.835 2.6442,-130.9594 2.9783,-7.7922 8.3629,-10.3597 12.6776,-6.0463 m -234.431607,1.4651 c 14.235,10.8576 19.9472,84.136 9.9203,127.27 -5.9059,25.4098 -19.1242998,31.6316 -24.51539976,11.5388 -4.83470004,-18.0206 -4.70470004,-109.8591 0.182,-128.7182 2.87559996,-11.1007 8.20169996,-14.8278 14.41309976,-10.0906 m 119.974407,-1.3832 c 5.2663,2.0215 5.7824,8.5228 5.7824,72.9131 0,72.6765 -0.5239,76.8937 -9.5589,76.947 -16.5295,0.0988 -26.4524,-53.6614 -19.9758,-108.2341 3.4281,-28.8821 13.0442,-45.7353 23.7523,-41.626"
       inkscape:connector-curvature="0"
       style="fill:#151621;fill-opacity:1;fill-rule:evenodd;stroke:none;stroke-width:1.29999995" />
  </g>
</svg>
