<?xml version="1.0" encoding="UTF-8" standalone="no"?>
<svg
   xmlns:dc="http://purl.org/dc/elements/1.1/"
   xmlns:cc="http://creativecommons.org/ns#"
   xmlns:rdf="http://www.w3.org/1999/02/22-rdf-syntax-ns#"
   xmlns:svg="http://www.w3.org/2000/svg"
   xmlns="http://www.w3.org/2000/svg"
   xmlns:sodipodi="http://sodipodi.sourceforge.net/DTD/sodipodi-0.dtd"
   xmlns:inkscape="http://www.inkscape.org/namespaces/inkscape"
   id="thelick"
   version="1.2"
   viewBox="0 0 96.664147 96.664147"
   height="96.664146"
   width="96.664146"
   sodipodi:docname="note4.svg"
   inkscape:version="0.92.4 (5da689c313, 2019-01-14)">
  <sodipodi:namedview
     pagecolor="#ffffff"
     bordercolor="#666666"
     borderopacity="1"
     objecttolerance="10"
     gridtolerance="10"
     guidetolerance="10"
     inkscape:pageopacity="0"
     inkscape:pageshadow="2"
     inkscape:window-width="1920"
     inkscape:window-height="1001"
     id="namedview48"
     showgrid="false"
     inkscape:zoom="0.86318044"
     inkscape:cx="-42.505962"
     inkscape:cy="147.79381"
     inkscape:window-x="-9"
     inkscape:window-y="-9"
     inkscape:window-maximized="1"
     inkscape:current-layer="thelick" />
  <metadata
     id="metadata46">
    <rdf:RDF>
      <cc:Work
         rdf:about="">
        <dc:format>image/svg+xml</dc:format>
        <dc:type
           rdf:resource="http://purl.org/dc/dcmitype/StillImage" />
        <dc:title></dc:title>
      </cc:Work>
    </rdf:RDF>
  </metadata>
  <defs
     id="defs1313">
    <clipPath
       id="clipPath1129"
       clipPathUnits="userSpaceOnUse">
      <rect
         y="575.13452"
         x="357.98965"
         height="39.488243"
         width="78.976486"
         id="rect1131"
         style="opacity:1;fill:#fb0000;fill-opacity:0.63636361;stroke:none;stroke-width:3.18000007;stroke-linecap:round;stroke-linejoin:round;stroke-miterlimit:4;stroke-dasharray:none;stroke-dashoffset:0;stroke-opacity:1;paint-order:markers stroke fill" />
    </clipPath>
  </defs>
  <g
     id="staff"
     style="fill:#23201b;fill-opacity:1;stroke:#23201b;stroke-opacity:1"
     transform="translate(12.50589,-241.12739)">
    <g
       style="fill:#23201b;fill-opacity:1;stroke:#23201b;stroke-opacity:1"
       id="g1202"
       transform="matrix(0.79785196,0,0,1,-113.08115,-525.123)">
      <polyline
         style="fill:#23201b;fill-opacity:1;stroke:#23201b;stroke-width:2;stroke-linejoin:bevel;stroke-opacity:1"
         transform="matrix(0.3419331,0,0,1,93.269139,0)"
         id="polyline6"
         points="141.732,566.732 2918.27,566.732"
         class="StaffLines" />
      <polyline
         style="fill:#23201b;fill-opacity:1;stroke:#23201b;stroke-width:2;stroke-linejoin:bevel;stroke-opacity:1"
         transform="matrix(0.3419331,0,0,1,93.269139,0)"
         id="polyline8"
         points="141.732,591.732 2918.27,591.732"
         class="StaffLines" />
      <polyline
         style="fill:#23201b;fill-opacity:1;stroke:#23201b;stroke-width:2;stroke-linejoin:bevel;stroke-opacity:1"
         transform="matrix(0.3419331,0,0,1,93.269139,0)"
         id="polyline10"
         points="141.732,616.732 2918.27,616.732"
         class="StaffLines" />
      <polyline
         style="fill:#23201b;fill-opacity:1;stroke:#23201b;stroke-width:2;stroke-linejoin:bevel;stroke-opacity:1"
         transform="matrix(0.3419331,0,0,1,93.269139,0)"
         id="polyline12"
         points="141.732,641.732 2918.27,641.732"
         class="StaffLines" />
      <polyline
         style="fill:#23201b;fill-opacity:1;stroke:#23201b;stroke-width:2;stroke-linejoin:bevel;stroke-opacity:1"
         transform="matrix(0.3419331,0,0,1,93.269139,0)"
         id="polyline14"
         points="141.732,666.732 2918.27,666.732"
         class="StaffLines" />
    </g>
    <polyline
       class="BarLine"
       points="828.014,565.732 828.014,667.732"
       id="polyline108"
       style="fill:#23201b;fill-opacity:1;stroke:#23201b;stroke-width:4;stroke-linejoin:bevel;stroke-opacity:1"
       transform="translate(-245.732,-525.123)" />
    <polyline
       style="fill:#23201b;fill-opacity:1;stroke:#23201b;stroke-width:4;stroke-linecap:square;stroke-linejoin:bevel;stroke-opacity:1"
       class="LedgerLine"
       points="690.59,691.732 738.504,691.732"
       id="polyline184"
       transform="translate(-245.732,-525.123)" />
  </g>
  <path
     id="clef"
     style="fill:#197bbd;fill-opacity:1"
     d="m 69.22489,-150.1114 c 0,0 0.198,0 0.594,0 0.26,-0.063 0.484,-0.094 0.672,-0.094 7.291,0 13.281,2.573 17.968,7.719 4.688,5.072 7.032,10.994 7.032,17.765 0,8.40601 -3.48,15.24501 -10.438,20.51601 -1.823,1.437 -4.203,2.609 -7.14,3.515 0.333,4.230004 0.5,7.646004 0.5,10.250004 0,0.521 -0.068,2.412 -0.204,5.672 -0.26,6.052 -2.343,11.292 -6.25,15.719 -3.77,4.365 -8.458,6.547 -14.062,6.547 -5.271,0 -9.761,-1.854 -13.469,-5.563 -3.719,-3.781 -5.578,-8.338 -5.578,-13.671 0,-2.803 1.078,-5.183 3.234,-7.141 2.209,-1.948 4.776,-2.922 7.704,-2.922 2.604,0 4.786,1.01 6.546,3.031 1.823,1.886 2.735,4.229 2.735,7.032 0,2.531 -0.912,4.708 -2.735,6.531 -1.823,1.823 -4.005,2.734 -6.546,2.734 -1.042,0 -2.047,-0.193 -3.016,-0.578 2.864,4.229 6.672,6.344 11.422,6.344 4.489,0 8.166,-1.823 11.031,-5.469 3,-3.771 4.63,-8.167 4.891,-13.187 0.125,-3.125 0.187,-4.912 0.187,-5.36 0,-3.646 -0.13,-6.64 -0.39,-8.984 -3.25,0.521 -6.146,0.781 -8.688,0.781 -9.052,0 -16.766,-3.583004 -23.141,-10.750004 -6.25,-7.229 -9.375,-15.82301 -9.375,-25.78101 0,-2.084 0.193,-4.198 0.579,-6.344 0.395,-1.76 0.885,-3.682 1.468,-5.766 0.323,-1.177 1.203,-3.067 2.641,-5.671 0.521,-0.782 1.107,-1.758 1.758,-2.93 0.651,-1.172 1.106,-1.951 1.367,-2.336 0.646,-1.302 1.911,-3.063 3.797,-5.281 0.521,-0.584 1.06,-1.232 1.617,-1.946 0.557,-0.713 1.031,-1.299 1.422,-1.757 0.39,-0.459 0.682,-0.818 0.875,-1.079 0.193,-0.26 1.659,-1.984 4.398,-5.171 0.646,-0.657 1.279,-1.357 1.899,-2.102 0.62,-0.745 1.125,-1.331 1.515,-1.758 0.391,-0.427 0.685,-0.734 0.883,-0.922 -2.344,-7.75 -3.812,-13.937 -4.406,-18.562 -0.448,-3.709 -0.672,-8.787 -0.672,-15.235 0,-5.666 1.302,-10.974 3.906,-15.921 2.532,-5.136 6.078,-9.334 10.641,-12.594 0.26,-0.198 0.583,-0.297 0.969,-0.297 0.458,0 0.786,0.099 0.984,0.297 3.51,4.229 6.536,9.729 9.078,16.5 2.604,6.771 3.906,12.927 3.906,18.469 0,6.25 -1.494,12.109 -4.484,17.578 -3.385,5.791 -7.75,11.781 -13.094,17.968 1.365,4.292 3.188,11.026 5.469,20.204 m 8.297,45.42101 c 3.385,-1.239 6.026,-3.354 7.922,-6.343 2.083,-2.865 3.125,-6.089 3.125,-9.67201 0,-4.625 -1.563,-8.729 -4.688,-12.313 -3.198,-3.708 -7.271,-5.791 -12.218,-6.25 2.802,13.74 4.755,25.26601 5.859,34.57801 m -37.781,-22.56201 c 0,6.448 2.604,12.11401 7.812,17.00001 5.333,4.75 11.323,7.125 17.969,7.125 2.729,0 5.396,-0.198 8,-0.594 -1.042,-9.896 -3.094,-21.74501 -6.156,-35.54701 -3.709,0.396 -6.667,1.698 -8.875,3.907 -2.157,2.281 -3.235,4.854 -3.235,7.718 0,4.948 2.641,8.953 7.922,12.01601 0.448,0.458 0.672,0.948 0.672,1.469 0,0.52 -0.224,1.005 -0.672,1.453 -0.396,0.458 -0.885,0.687 -1.469,0.687 -0.062,0 -0.354,-0.062 -0.875,-0.187 -3.718,-2.021 -6.583,-4.625 -8.593,-7.81301 -1.896,-3.396 -2.844,-6.817 -2.844,-10.265 0,-4.49 1.401,-8.558 4.203,-12.203 2.927,-3.646 6.734,-5.99 11.422,-7.032 -1.823,-7.291 -3.318,-12.989 -4.484,-17.093 -1.042,1.177 -2.295,2.593 -3.758,4.25 -1.464,1.656 -2.326,2.651 -2.586,2.984 -2.344,3.052 -4.136,5.427 -5.375,7.125 -2.219,3.062 -3.849,5.698 -4.891,7.906 -1.104,2.479 -2.078,5.182 -2.922,8.11 -0.843,2.802 -1.265,5.796 -1.265,8.984 m 32.609,-99.313 c -4.885,2.407 -8.724,5.855 -11.516,10.344 -2.864,4.625 -4.296,9.604 -4.296,14.938 0,4.687 1.171,11.005 3.515,18.953 4.688,-5.667 8.203,-10.906 10.547,-15.719 2.469,-5.083 3.703,-10.391 3.703,-15.922 0,-4.167 -0.651,-8.364 -1.953,-12.594"
     class="Clef"
     inkscape:connector-curvature="0" />
  <g
     id="one"
     transform="translate(12.50589,-241.12739)">
    <polyline
       style="fill:#e3b23c;fill-opacity:1;stroke:#e3b23c;stroke-width:3.25;stroke-linecap:round;stroke-linejoin:bevel;stroke-opacity:1"
       class="Stem"
       points="371.193,674.537 371.193,597.982"
       id="polyline186"
       transform="translate(-225.732,-525.123)" />
    <path
       style="fill:#e3b23c;fill-opacity:1;stroke:none;stroke-opacity:1"
       class="Note"
       d="m 136.141,140.344 c 3.125,0 5.766,0.812 7.922,2.437 2.01,1.761 3.015,3.974 3.015,6.641 0,4.489 -2.307,8.687 -6.921,12.594 -4.688,3.906 -9.704,5.859 -15.047,5.859 -3.125,0 -5.761,-0.813 -7.907,-2.438 -2.02,-1.76 -3.031,-3.974 -3.031,-6.64 0,-4.49 2.344,-8.688 7.031,-12.594 4.563,-3.906 9.542,-5.859 14.938,-5.859"
       id="path200"
       inkscape:connector-curvature="0" />
    <path
       class="Beam"
       d="M 369.568,592.179 564.704,560.4 v 12.665 l -195.136,31.779 v -12.665"
       id="path306"
       style="fill:#e3b23c;fill-opacity:1;fill-rule:evenodd;stroke:none;stroke-opacity:1"
       clip-path="url(#clipPath1129)"
       transform="translate(-225.732,-525.123)"
       inkscape:connector-curvature="0" />
  </g>
  <g
     id="two"
     transform="translate(12.50589,-241.12739)">
    <polyline
       style="fill:#e3b23c;fill-opacity:1;stroke:#e3b23c;stroke-width:3.25;stroke-linecap:round;stroke-linejoin:bevel;stroke-opacity:1"
       id="polyline1138"
       points="371.193,674.537 371.193,597.982"
       class="Stem"
       transform="translate(-158.43513,-536.06106)" />
    <path
       style="fill:#e3b23c;fill-opacity:1"
       id="path1140"
       d="m 203.43787,129.40594 c 3.125,0 5.766,0.812 7.922,2.437 2.01,1.761 3.015,3.974 3.015,6.641 0,4.489 -2.307,8.687 -6.921,12.594 -4.688,3.906 -9.704,5.859 -15.047,5.859 -3.125,0 -5.761,-0.813 -7.907,-2.438 -2.02,-1.76 -3.031,-3.974 -3.031,-6.64 0,-4.49 2.344,-8.688 7.031,-12.594 4.563,-3.906 9.542,-5.859 14.938,-5.859"
       class="Note"
       inkscape:connector-curvature="0" />
    <path
       clip-path="url(#clipPath1129)"
       style="fill:#e3b23c;fill-opacity:1;fill-rule:evenodd;stroke:none"
       id="path1142"
       d="M 369.568,592.179 564.704,560.4 v 12.665 l -195.136,31.779 v -12.665"
       class="Beam"
       transform="translate(-158.43513,-536.06106)"
       inkscape:connector-curvature="0" />
  </g>
  <g
     id="g927"
     transform="translate(12.50589,-241.12739)">
    <polyline
       class="Stem"
       points="371.193,674.537 371.193,597.982"
       id="polyline1154"
       style="fill:#e3b23c;fill-opacity:1;stroke:#6a8d73;stroke-width:3.25;stroke-linecap:round;stroke-linejoin:bevel;stroke-opacity:1"
       transform="translate(-226.72303,-364.14419)" />
    <path
       style="fill:#6a8d73;fill-opacity:1"
       class="Note"
       d="m 135.14997,301.32281 c 3.125,0 5.766,0.812 7.922,2.437 2.01,1.761 3.015,3.974 3.015,6.641 0,4.489 -2.307,8.687 -6.921,12.594 -4.688,3.906 -9.704,5.859 -15.047,5.859 -3.125,0 -5.761,-0.813 -7.907,-2.438 -2.02,-1.76 -3.031,-3.974 -3.031,-6.64 0,-4.49 2.344,-8.688 7.031,-12.594 4.563,-3.906 9.542,-5.859 14.938,-5.859"
       id="path1156"
       inkscape:connector-curvature="0" />
    <path
       class="Beam"
       d="M 369.568,592.179 564.704,560.4 v 12.665 l -195.136,31.779 v -12.665"
       id="path1158"
       style="fill:#6a8d73;fill-opacity:1;fill-rule:evenodd;stroke:none"
       clip-path="url(#clipPath1129)"
       transform="translate(-226.72303,-361.22655)"
       inkscape:connector-curvature="0" />
    <polyline
       transform="matrix(1,0,0,0.95820938,-162.49216,-347.00944)"
       style="stroke:#6a8d73;stroke-width:3.25;stroke-linecap:round;stroke-linejoin:bevel;stroke-opacity:1"
       id="polyline1170"
       points="371.193,674.537 371.193,597.982"
       class="Stem" />
    <path
       id="path1172"
       d="m 199.38084,290.19936 c 3.125,0 5.766,0.812 7.922,2.437 2.01,1.761 3.015,3.974 3.015,6.641 0,4.489 -2.307,8.687 -6.921,12.594 -4.688,3.906 -9.704,5.859 -15.047,5.859 -3.125,0 -5.761,-0.813 -7.907,-2.438 -2.02,-1.76 -3.031,-3.974 -3.031,-6.64 0,-4.49 2.344,-8.688 7.031,-12.594 4.563,-3.906 9.542,-5.859 14.938,-5.859"
       class="Note"
       style="fill:#6a8d73;fill-opacity:1"
       inkscape:connector-curvature="0" />
  </g>
  <polyline
     transform="translate(-213.22611,-766.25039)"
     id="polyline194"
     points="627.04,662.037 627.04,579.232"
     class="Stem"
     style="stroke:#fd5e53;stroke-width:3.25;stroke-linecap:round;stroke-linejoin:bevel;stroke-opacity:1" />
  <path
     style="fill:#fd5e53;fill-opacity:1"
     id="path208"
     d="m 404.49389,-113.28339 c 3.125,0 5.766,0.812 7.922,2.437 2.01,1.761 3.016,3.974 3.016,6.641 0,4.489004 -2.308,8.687004 -6.922,12.594004 -4.688,3.906 -9.703,5.859 -15.047,5.859 -3.125,0 -5.761,-0.813 -7.906,-2.438 -2.021,-1.76 -3.032,-3.974 -3.032,-6.64 0,-4.49 2.344,-8.688004 7.032,-12.594004 4.562,-3.906 9.541,-5.859 14.937,-5.859"
     class="Note"
     inkscape:connector-curvature="0" />
  <polyline
     transform="translate(-233.22611,-766.25039)"
     id="polyline196"
     points="729.379,687.037 729.379,616.732"
     class="Stem"
     style="stroke:#6a8d73;stroke-width:3.25;stroke-linecap:round;stroke-linejoin:bevel;stroke-opacity:1" />
  <path
     style="fill:#6a8d73;fill-opacity:1"
     id="path210"
     d="m 486.83289,-88.283386 c 3.125,0 5.765,0.812 7.922,2.437 2.01,1.761 3.015,3.974 3.015,6.641 0,4.489 -2.307,8.687 -6.922,12.594 -4.687,3.906 -9.703,5.859 -15.046,5.859 -3.125,0 -5.761,-0.813 -7.907,-2.438 -2.02,-1.76 -3.031,-3.974 -3.031,-6.64 0,-4.49 2.344,-8.688 7.031,-12.594 4.563,-3.906 9.542,-5.859 14.938,-5.859"
     class="Note"
     inkscape:connector-curvature="0" />
  <path
     id="path308"
     d="m 494.52789,-155.48039 67.212,-6.567 v 12.559 l -67.212,6.568 v -12.56"
     class="Beam"
     style="fill:#6a8d73;fill-opacity:1;fill-rule:evenodd"
     inkscape:connector-curvature="0" />
  <g
     id="seven"
     transform="translate(12.50589,-241.12739)">
    <polyline
       style="stroke:#6a8d73;stroke-width:3.25;stroke-linecap:round;stroke-linejoin:bevel;stroke-opacity:1"
       class="Stem"
       points="793.341,674.537 793.341,610.482"
       id="polyline198"
       transform="translate(-245.732,-525.123)" />
    <path
       class="Note"
       d="m 538.289,140.344 c 3.125,0 5.765,0.812 7.922,2.437 2.01,1.761 3.015,3.974 3.015,6.641 0,4.489 -2.307,8.687 -6.922,12.594 -4.687,3.906 -9.703,5.859 -15.047,5.859 -3.125,0 -5.76,-0.813 -7.906,-2.438 -2.021,-1.76 -3.031,-3.974 -3.031,-6.64 0,-4.49 2.344,-8.688 7.031,-12.594 4.563,-3.906 9.542,-5.859 14.938,-5.859"
       id="path212"
       style="fill:#6a8d73;fill-opacity:1;stroke:none;stroke-opacity:1"
       inkscape:connector-curvature="0" />
  </g>
  <g
     id="eight"
     style="fill:#6a8d73;fill-opacity:1;stroke:#6a8d73;stroke-opacity:1"
     transform="translate(-233.22611,-766.25039)">
    <path
       style="fill:#6a8d73;fill-opacity:1;fill-rule:evenodd;stroke:#6a8d73;stroke-width:1.75;stroke-linecap:round;stroke-linejoin:round;stroke-opacity:1"
       class="TieSegment"
       d="m 783.446,697.982 c 17.78,11.513 71.118,11.513 88.898,0 -17.78,15.513 -71.118,15.513 -88.898,0"
       id="path106"
       inkscape:connector-curvature="0" />
    <path
       style="fill:#6a8d73;fill-opacity:1;stroke:#6a8d73;stroke-opacity:1"
       class="Note"
       d="m 876.498,667.998 c -2.344,0 -4.036,0.812 -5.078,2.437 -1.167,1.563 -1.75,3.683 -1.75,6.36 0,3.062 0.812,5.698 2.437,7.906 1.625,2.146 3.417,3.646 5.375,4.5 1.75,0.844 3.605,1.266 5.563,1.266 2.281,0 4.005,-0.813 5.172,-2.438 1.104,-1.635 1.656,-3.755 1.656,-6.359 0,-3.063 -0.812,-5.698 -2.437,-7.906 -1.625,-2.084 -3.381,-3.584 -5.266,-4.5 -1.896,-0.844 -3.787,-1.266 -5.672,-1.266 m 3.328,-2.531 c 7.031,0 12.891,1.364 17.578,4.093 4.75,2.74 7.125,5.964 7.125,9.672 0,3.969 -2.442,7.224 -7.328,9.766 -4.885,2.667 -10.677,4 -17.375,4 -6.906,0 -12.765,-1.365 -17.578,-4.094 -4.823,-2.739 -7.234,-5.963 -7.234,-9.672 0,-3.968 2.474,-7.224 7.422,-9.765 4.885,-2.667 10.682,-4 17.39,-4"
       id="path214"
       inkscape:connector-curvature="0" />
  </g>
  <g
     id="g939"
     transform="translate(12.50589,-241.12739)">
    <polyline
       transform="translate(-209.19503,-370.51855)"
       style="fill:none;stroke:#fd5e53;stroke-width:3.25;stroke-linecap:round;stroke-linejoin:bevel;stroke-opacity:1"
       id="polyline172"
       points="548.801,637.037 548.801,557.357"
       class="Stem" />
    <path
       style="fill:#fd5e53;fill-opacity:1"
       id="path178"
       d="m 330.28597,257.44845 c 3.125,0 5.766,0.812 7.922,2.437 2.01,1.761 3.016,3.974 3.016,6.641 0,4.489 -2.308,8.687 -6.922,12.594 -4.688,3.906 -9.703,5.859 -15.047,5.859 -3.125,0 -5.761,-0.813 -7.906,-2.438 -2.021,-1.76 -3.032,-3.974 -3.032,-6.64 0,-4.49 2.344,-8.688 7.032,-12.594 4.562,-3.906 9.541,-5.859 14.937,-5.859"
       class="Note"
       inkscape:connector-curvature="0" />
    <path
       style="fill:#fd5e53;fill-opacity:1"
       id="path268"
       d="m 337.98097,211.83845 v -25 h 3.125 c 0,3.709 0.719,7.422 2.157,11.141 1.562,4.031 3.286,7.547 5.171,10.547 1.365,2.146 3.417,5.432 6.157,9.859 2.083,3.386 3.841,6.932 5.273,10.641 1.432,3.708 2.149,7.422 2.149,11.14 0,6.771 -1.401,13.672 -4.204,20.704 -0.52,0.781 -1.14,1.171 -1.859,1.171 -0.646,0 -1.229,-0.26 -1.75,-0.781 -0.396,-0.396 -0.594,-0.885 -0.594,-1.469 v -0.484 c 2.802,-6.448 4.203,-12.828 4.203,-19.141 0,-3.26 -0.979,-6.776 -2.937,-10.546 -1.948,-3.844 -3.932,-6.907 -5.953,-9.188 -2.281,-2.667 -4.886,-5.531 -7.813,-8.594 h -3.125"
       class="Hook"
       inkscape:connector-curvature="0" />
  </g>
  <g
     id="g860"
     transform="translate(31.874992)">
    <polyline
       transform="translate(-339.904,-596.33385)"
       style="fill:#197bbd;fill-opacity:1;stroke:#197bbd;stroke-width:3.25;stroke-linecap:round;stroke-linejoin:bevel;stroke-opacity:1"
       id="polyline72"
       points="371.193,674.537 371.193,597.982"
       class="Stem" />
    <path
       inkscape:connector-curvature="0"
       id="path74"
       d="m 21.969,69.133152 c 3.125,0 5.766,0.812 7.922,2.437 2.01,1.761 3.015,3.974 3.015,6.641 0,4.489 -2.307,8.687 -6.921,12.594 -4.688,3.906 -9.704,5.859 -15.047,5.859 -3.125,0 -5.761,-0.813 -7.907,-2.438 -2.02,-1.76 -3.031,-3.974 -3.031,-6.64 0,-4.49 2.344,-8.688 7.031,-12.594 4.563,-3.906 9.542,-5.859 14.938,-5.859"
       class="Note"
       style="fill:#197bbd;fill-opacity:1" />
  </g>
</svg>
