<svg id="svg" xmlns="http://www.w3.org/2000/svg" xmlns:xlink="http://www.w3.org/1999/xlink" width="400" height="308.6548488008342" viewBox="0, 0, 400,308.6548488008342"><g id="svgg"><path id="path0" d="M4.171 101.773 L 4.171 201.043 10.636 201.043 L 17.101 201.043 17.123 193.014 L 17.145 184.984 18.083 187.507 C 23.088 200.968,33.684 205.950,41.770 198.645 C 58.570 183.467,58.521 118.053,41.698 102.854 C 33.726 95.652,23.806 100.085,18.472 113.235 L 17.115 116.580 17.108 59.541 L 17.101 2.503 10.636 2.503 L 4.171 2.503 4.171 101.773 M244.130 67.067 C 243.601 67.403,243.168 68.413,236.503 84.880 C 234.182 90.615,232.115 95.683,231.910 96.142 C 231.542 96.967,225.303 112.294,218.921 128.050 C 217.109 132.523,215.301 136.829,214.904 137.617 L 214.181 139.051 213.918 134.906 C 213.772 132.626,213.630 124.286,213.600 116.371 C 213.571 108.457,213.430 101.277,213.288 100.417 L 213.030 98.853 206.768 98.853 L 200.506 98.853 200.744 118.352 C 201.380 170.434,202.003 200.425,202.455 200.730 C 202.711 200.902,205.547 200.996,208.759 200.938 L 214.599 200.834 214.449 180.327 L 214.300 159.821 216.920 153.633 C 219.625 147.245,220.030 146.482,220.480 146.931 C 220.712 147.164,221.999 152.583,223.126 158.081 C 223.892 161.813,226.948 175.866,227.525 178.311 C 228.326 181.700,231.974 198.465,232.221 199.896 L 232.420 201.043 239.927 201.043 L 247.434 201.043 247.175 199.665 C 247.033 198.907,246.468 196.889,245.919 195.181 C 243.346 187.175,239.728 175.699,238.167 170.594 C 237.220 167.497,236.281 164.494,236.079 163.921 C 235.759 163.009,234.992 160.545,231.470 149.114 C 231.046 147.737,229.656 143.267,228.381 139.180 L 226.064 131.750 230.611 121.036 C 233.112 115.144,235.665 109.103,236.284 107.612 C 236.903 106.121,237.662 104.338,237.971 103.650 C 238.279 102.961,240.344 98.081,242.559 92.805 C 244.774 87.529,248.071 79.710,249.884 75.429 C 251.697 71.149,253.180 67.442,253.180 67.192 C 253.180 66.665,244.940 66.552,244.130 67.067 M89.230 99.840 C 81.169 102.014,74.814 112.266,72.004 127.633 C 70.344 136.714,70.284 137.501,70.283 150.574 C 70.281 165.104,70.824 170.563,73.154 179.427 C 79.774 204.621,96.850 210.404,104.886 190.173 C 106.970 184.929,107.195 185.273,107.195 193.709 L 107.195 201.043 113.448 201.043 L 119.701 201.043 119.809 150.991 L 119.917 100.938 113.556 100.938 L 107.195 100.938 107.195 108.029 C 107.195 115.592,106.709 117.134,105.521 113.347 C 102.307 103.107,96.125 97.981,89.230 99.840 M160.235 99.932 C 149.981 102.177,142.572 112.445,139.794 128.259 C 138.366 136.388,138.269 137.838,138.269 150.991 C 138.269 164.514,138.371 165.894,139.995 174.348 C 142.402 186.887,147.719 195.926,155.012 199.882 C 165.319 205.473,182.172 201.168,185.574 192.076 C 187.138 187.896,186.997 187.564,182.739 185.426 C 178.827 183.461,178.522 183.442,178.515 185.158 C 178.504 188.182,175.203 192.417,171.625 194.000 C 160.491 198.926,154.581 190.316,152.440 166.052 C 150.677 146.070,152.536 124.039,156.861 113.650 C 161.702 102.022,176.110 104.114,178.541 116.799 C 178.826 118.284,179.095 119.548,179.140 119.607 C 179.659 120.293,186.443 116.222,186.438 115.228 C 186.378 104.039,174.131 96.891,160.235 99.932 M371.718 100.741 C 367.540 102.639,363.723 107.736,361.238 114.737 L 360.436 116.997 360.406 108.759 L 360.375 100.521 353.979 100.521 L 347.583 100.521 347.306 167.535 C 347.153 204.393,347.028 249.628,347.028 268.057 L 347.028 301.564 353.425 301.564 L 359.821 301.564 360.098 265.833 C 360.251 246.181,360.390 219.857,360.408 207.335 C 360.426 194.813,360.542 184.849,360.666 185.193 C 364.941 197.094,369.506 201.679,377.059 201.659 C 389.943 201.626,397.255 183.303,397.279 150.991 C 397.306 114.295,386.902 93.842,371.718 100.741 M284.478 143.379 C 284.495 193.641,284.551 194.257,289.561 198.783 C 296.005 204.605,309.388 202.983,313.081 195.933 C 314.049 194.085,314.450 194.587,314.580 197.810 L 314.703 200.834 320.959 200.834 L 327.216 200.834 327.322 150.886 L 327.428 100.938 320.961 100.938 L 314.494 100.938 314.494 142.781 C 314.494 190.699,314.715 187.643,310.991 191.275 C 307.707 194.477,302.866 195.411,300.382 193.321 C 297.172 190.619,296.920 186.501,297.067 138.999 L 297.185 100.938 290.824 100.938 L 284.463 100.938 284.478 143.379 M31.892 107.038 C 34.952 108.212,35.245 111.939,35.245 149.739 C 35.245 191.275,34.932 193.929,30.031 193.944 C 22.379 193.966,17.943 180.512,17.252 155.189 C 16.408 124.285,22.722 103.519,31.892 107.038 M99.077 108.604 C 106.793 116.657,109.667 157.021,104.247 181.230 C 100.681 197.157,92.148 200.166,89.515 186.425 C 87.159 174.132,87.180 128.842,89.548 115.954 C 91.174 107.103,94.892 104.236,99.077 108.604 M375.166 107.038 C 376.097 107.395,377.268 109.830,377.950 112.826 C 378.778 116.464,378.787 185.485,377.960 189.092 C 375.819 198.425,368.224 195.765,364.320 184.315 C 359.446 170.015,359.354 132.231,364.159 117.625 C 366.706 109.883,371.233 105.529,375.166 107.038 " stroke="none" fill="#000000" fill-rule="evenodd"></path></g></svg>