<?xml version="1.0" encoding="UTF-8" standalone="no"?>
<svg
   xmlns:dc="http://purl.org/dc/elements/1.1/"
   xmlns:cc="http://creativecommons.org/ns#"
   xmlns:rdf="http://www.w3.org/1999/02/22-rdf-syntax-ns#"
   xmlns:svg="http://www.w3.org/2000/svg"
   xmlns="http://www.w3.org/2000/svg"
   xmlns:sodipodi="http://sodipodi.sourceforge.net/DTD/sodipodi-0.dtd"
   xmlns:inkscape="http://www.inkscape.org/namespaces/inkscape"
   id="svg"
   width="86.021133"
   height="31.299999"
   viewBox="0 0 86.021133 31.299999"
   version="1.1"
   sodipodi:docname="backup_button.svg"
   inkscape:version="0.92.4 (5da689c313, 2019-01-14)">
  <metadata
     id="metadata9">
    <rdf:RDF>
      <cc:Work
         rdf:about="">
        <dc:format>image/svg+xml</dc:format>
        <dc:type
           rdf:resource="http://purl.org/dc/dcmitype/StillImage" />
        <dc:title />
      </cc:Work>
    </rdf:RDF>
  </metadata>
  <defs
     id="defs7" />
  <sodipodi:namedview
     pagecolor="#ffffff"
     bordercolor="#666666"
     borderopacity="1"
     objecttolerance="10"
     gridtolerance="10"
     guidetolerance="10"
     inkscape:pageopacity="0"
     inkscape:pageshadow="2"
     inkscape:window-width="1920"
     inkscape:window-height="1017"
     id="namedview5"
     showgrid="false"
     inkscape:zoom="11.36"
     inkscape:cx="32.977222"
     inkscape:cy="14.883026"
     inkscape:window-x="-8"
     inkscape:window-y="-8"
     inkscape:window-maximized="1"
     inkscape:current-layer="svg" />
  <g
     id="svgg"
     transform="matrix(0.09617492,0,0,0.09617492,-37.001983,-7.0251065)" />
  <g
     id="g4606"
     transform="translate(8.0105633,-2.0520398e-5)">
    <g
       inkscape:label="Layer 1"
       id="layer1-2"
       transform="matrix(3.7795276,0,0,3.7795276,-1.2626906,-1091.2681)">
      <rect
         style="opacity:1;fill:#f00090;fill-opacity:1;fill-rule:nonzero;stroke-width:1.10854554;stroke-miterlimit:4;stroke-dasharray:none"
         id="rect815-6"
         width="22.759758"
         height="8.2814579"
         x="-1.7853746"
         y="288.73135" />
    </g>
    <g
       transform="matrix(0.09617492,0,0,0.09617492,-44.273111,-6.6920243)"
       id="svgg-7" />
    <g
       transform="matrix(0.12849077,0,0,0.12849077,9.2622049,-3.8182429)"
       id="svgg-0" />
  </g>
  <g
     id="svgg-9"
     transform="matrix(0.19562523,0,0,0.19562523,9.2940514,-9.128601)">
    <path
       d="m 4.171,87.455294 v 84.952296 h 5.5325535 5.5325535 l 0.01883,-6.87098 0.01883,-6.87183 0.802712,2.15911 c 4.283129,11.51952 13.350869,15.78296 20.270626,9.53156 C 50.724042,157.36657 50.682109,101.38723 36.285485,88.380382 29.463286,82.217126 20.974047,86.010754 16.40937,97.264131 L 15.24809,100.12668 15.24209,51.314413 15.236107,2.503 H 9.7035535 4.171 V 87.455294 M 209.52073,57.754938 c -0.4527,0.287539 -0.82325,1.151867 -6.52696,15.243833 -1.98624,4.907841 -3.75512,9.244884 -3.93055,9.637682 -0.31492,0.70601 -5.65407,13.822398 -11.1156,27.305907 -1.55065,3.82786 -3.09789,7.51281 -3.43763,8.18716 l -0.61872,1.22717 -0.22507,-3.54717 c -0.12494,-1.95115 -0.24646,-9.08827 -0.27213,-15.861694 -0.0248,-6.772565 -0.14548,-12.916994 -0.267,-13.652956 l -0.22079,-1.338424 h -5.35883 -5.35883 l 0.20367,16.686664 c 0.54427,44.57021 1.07741,70.23561 1.46422,70.49662 0.21908,0.1472 2.64604,0.22764 5.39478,0.178 l 4.99769,-0.089 -0.12836,-17.54927 -0.12751,-17.54842 2.24212,-5.29551 c 2.31485,-5.46666 2.66144,-6.11961 3.04654,-5.73537 0.19854,0.19939 1.29991,4.83681 2.26436,9.54184 0.65552,3.19373 3.27076,15.21987 3.76454,17.31222 0.68547,2.90021 3.80732,17.24719 4.01869,18.4718 l 0.1703,0.98157 h 6.42427 6.42426 l -0.22164,-1.17925 c -0.12152,-0.64868 -0.60503,-2.37562 -1.07485,-3.83728 -2.20189,-6.85129 -5.29807,-16.67211 -6.63393,-21.04081 -0.81041,-2.65032 -1.61398,-5.2202 -1.78685,-5.71056 -0.27384,-0.78046 -0.93022,-2.88908 -3.94424,-12.67139 -0.36285,-1.17839 -1.55237,-5.00368 -2.64347,-8.50121 l -1.98282,-6.35838 3.89118,-9.16872 c 2.14028,-5.042194 4.32507,-10.211901 4.85479,-11.487854 0.52972,-1.275953 1.17925,-2.801791 1.44368,-3.390561 0.26358,-0.589626 2.03074,-4.765784 3.92627,-9.280827 1.89553,-4.515042 4.71701,-11.206309 6.26852,-14.86986 1.55151,-3.662696 2.82062,-6.835036 2.82062,-7.048978 0,-0.450991 -7.05155,-0.547693 -7.74472,-0.106972 M 76.961946,85.801091 c -6.898363,1.860444 -12.336781,10.633799 -14.741495,23.784419 -1.420578,7.77125 -1.471925,8.44474 -1.47278,19.63222 -0.0017,12.43434 0.462971,17.10599 2.456915,24.69153 5.665198,21.56027 20.278328,26.50919 27.155296,9.19611 1.783425,-4.48766 1.975973,-4.19328 1.975973,3.026 v 6.27622 h 5.35113 5.351135 l 0.0924,-42.833 0.0924,-42.833864 h -5.443551 -5.443554 v 6.068266 c 0,6.472189 -0.415904,7.791788 -1.432559,4.550985 -2.750445,-8.763085 -8.040815,-13.149763 -13.94135,-11.558886 m 60.763954,0.07873 c -8.77507,1.921203 -15.11547,10.70825 -17.4928,24.241399 -1.22204,6.95656 -1.30505,8.19742 -1.30505,19.45337 0,11.57257 0.0873,12.75354 1.47706,19.98822 2.05984,10.7305 6.60997,18.4658 12.8511,21.85123 8.82042,4.78461 23.24272,1.10052 26.15405,-6.68014 1.33842,-3.57712 1.21776,-3.86124 -2.42611,-5.69087 -3.34777,-1.68159 -3.60878,-1.69785 -3.61477,-0.22935 -0.009,2.58785 -2.83431,6.21204 -5.89626,7.56672 -9.52814,4.21552 -14.58574,-3.15266 -16.41795,-23.91706 -1.50872,-17.1 0.0822,-35.95347 3.78336,-44.844066 4.14278,-9.950894 16.47272,-8.160623 18.5531,2.694826 0.24389,1.27081 0.47409,2.35251 0.5126,2.403 0.44415,0.58706 6.24969,-2.896785 6.24541,-3.74742 -0.0513,-9.575212 -10.53196,-15.692256 -22.42374,-13.089859 m 180.98082,0.692318 c -3.57541,1.624251 -6.84188,5.986111 -8.96847,11.977357 l -0.68633,1.934044 -0.0257,-7.049837 -0.0265,-7.049834 h -5.47351 -5.4735 l -0.23705,57.348581 c -0.13093,31.54197 -0.2379,70.25273 -0.2379,86.02371 v 28.67429 h 5.47436 5.4735 l 0.23705,-30.57752 c 0.13093,-16.81759 0.24989,-39.34488 0.26529,-50.06084 0.0154,-10.71595 0.11467,-19.24284 0.22079,-18.94846 3.65842,10.18452 7.56501,14.10823 14.02864,14.09111 11.02574,-0.0282 17.28313,-15.70851 17.30367,-43.36015 0.0231,-31.403344 -8.88033,-48.906409 -21.87434,-43.002451 M 244.0493,123.06046 c 0.0145,43.01272 0.0625,43.53987 4.34988,47.41309 5.51458,4.98229 16.96735,3.59423 20.12771,-2.43895 0.82839,-1.58146 1.17155,-1.15186 1.2828,1.60628 l 0.10526,2.58785 h 5.3537 5.35455 l 0.0907,-42.744 0.0907,-42.744005 h -5.53426 -5.53427 v 35.807985 c 0,41.00679 0.18913,38.39156 -2.99776,41.49972 -2.81035,2.74017 -6.95313,3.53946 -9.07886,1.7509 -2.74703,-2.31229 -2.96268,-5.83635 -2.83688,-46.48714 l 0.10098,-32.571465 H 249.48 244.03644 l 0.0128,36.319735 M 27.893802,91.960924 c 2.618656,1.004674 2.869397,4.194129 2.869397,36.542236 0,35.54527 -0.267856,37.81648 -4.461985,37.82932 -6.548353,0.0188 -10.344549,-11.49471 -10.935886,-33.16537 -0.72227,-26.44672 4.681062,-44.217641 12.528474,-41.206186 m 57.494912,1.340136 c 6.603122,6.89152 9.062605,41.43382 4.424331,62.15116 -3.051676,13.62985 -10.353962,16.20486 -12.607205,4.44572 -2.016194,-10.51998 -1.998223,-49.27781 0.02824,-60.30697 1.391482,-7.574421 4.573235,-10.027914 8.154633,-6.28991 M 321.65742,91.960924 c 0.79672,0.30551 1.79882,2.38931 2.38246,4.953197 0.70858,3.113289 0.71628,62.179399 0.009,65.266159 -1.83221,7.9869 -8.33178,5.71055 -11.67271,-4.08801 -4.17102,-12.23751 -4.24975,-44.57193 -0.13778,-57.07131 2.17965,-6.62537 6.05372,-10.351393 9.41947,-9.060036"
       id="path0"
       inkscape:connector-curvature="0"
       style="fill:#151621;fill-opacity:1;fill-rule:evenodd;stroke:none;stroke-width:0.85577005" />
  </g>
</svg>
