<?xml version="1.0" encoding="UTF-8" standalone="no"?>
<svg
   xmlns:dc="http://purl.org/dc/elements/1.1/"
   xmlns:cc="http://creativecommons.org/ns#"
   xmlns:rdf="http://www.w3.org/1999/02/22-rdf-syntax-ns#"
   xmlns:svg="http://www.w3.org/2000/svg"
   xmlns="http://www.w3.org/2000/svg"
   xmlns:sodipodi="http://sodipodi.sourceforge.net/DTD/sodipodi-0.dtd"
   xmlns:inkscape="http://www.inkscape.org/namespaces/inkscape"
   id="svg"
   width="85.140846"
   height="31.299999"
   viewBox="0 0 85.140846 31.299999"
   version="1.1"
   sodipodi:docname="contact_button.svg"
   inkscape:version="0.92.4 (5da689c313, 2019-01-14)">
  <metadata
     id="metadata9">
    <rdf:RDF>
      <cc:Work
         rdf:about="">
        <dc:format>image/svg+xml</dc:format>
        <dc:type
           rdf:resource="http://purl.org/dc/dcmitype/StillImage" />
        <dc:title />
      </cc:Work>
    </rdf:RDF>
  </metadata>
  <defs
     id="defs7" />
  <sodipodi:namedview
     pagecolor="#ffffff"
     bordercolor="#666666"
     borderopacity="1"
     objecttolerance="10"
     gridtolerance="10"
     guidetolerance="10"
     inkscape:pageopacity="0"
     inkscape:pageshadow="2"
     inkscape:window-width="1920"
     inkscape:window-height="1017"
     id="namedview5"
     showgrid="false"
     inkscape:zoom="11.36"
     inkscape:cx="41.439745"
     inkscape:cy="18.84328"
     inkscape:window-x="-8"
     inkscape:window-y="-8"
     inkscape:window-maximized="1"
     inkscape:current-layer="svg" />
  <g
     transform="matrix(4.597031,0,0,3.7795276,-1.5358078,-1091.2681)"
     id="layer1"
     inkscape:label="Layer 1">
    <rect
       y="288.73135"
       x="0.33408689"
       height="8.2814579"
       width="18.520834"
       id="rect815"
       style="opacity:1;fill:#f00090;fill-opacity:1;fill-rule:nonzero;stroke-width:1;stroke-miterlimit:4;stroke-dasharray:none" />
  </g>
  <g
     id="svgg"
     transform="matrix(0.09617492,0,0,0.09617492,-36.702688,-6.6920448)" />
  <g
     id="svgg-8"
     transform="matrix(0.16640924,0,0,0.16640924,9.1302736,2.5189974)">
    <path
       d="m 202.914,3.03 c -0.107,0.288 -0.242,6.165 -0.3,13.062 l -0.106,12.539 -4.302,0.119 -4.301,0.12 0.122,3.224 0.121,3.225 4.283,0.119 4.282,0.119 0.107,46.694 0.106,46.694 6.374,0.115 6.374,0.115 V 82.366 35.557 l 4.284,-0.119 4.284,-0.119 0.122,-3.225 0.122,-3.224 -4.301,-0.12 -4.302,-0.119 -0.11,-13.062 -0.111,-13.061 h -6.277 c -4.639,0 -6.327,0.136 -6.471,0.522 m 171.909,12.539 -0.11,13.062 -4.285,0.119 -4.284,0.119 v 3.33 3.329 h 4.387 4.387 l 0.106,46.708 0.107,46.709 6.374,0.115 6.374,0.115 V 82.352 35.528 h 4.135 c 4.768,0 4.642,0.108 4.642,-4.005 V 28.84 h -4.388 -4.389 V 15.674 2.508 h -6.473 -6.472 l -0.111,13.061 M 26.75,27.945 C 11.916,31.782 5.231,47.52 5.241,78.579 c 0.009,27.925 5.106,43.218 16.414,49.245 12.659,6.747 31.846,-0.222 31.846,-11.567 0,-0.92 -7.257,-5.027 -7.664,-4.339 -0.1,0.169 -0.315,1.112 -0.477,2.094 -0.908,5.487 -7.315,9.799 -13.654,9.19 -8.253,-0.793 -12.875,-16.596 -12.892,-44.075 -0.021,-34.189 6.026,-48.564 18.68,-44.41 4.349,1.428 6.754,4.334 7.895,9.54 0.384,1.751 0.737,3.232 0.786,3.291 0.048,0.059 1.727,-0.649 3.731,-1.575 L 53.549,44.29 53.283,42.312 C 52.648,37.594 50.92,33.897 48.308,31.669 44.008,28.001 33.529,26.191 26.75,27.945 M 88.097,27.818 C 79.098,30 72.74,38.178 69.643,51.556 c -4.298,18.563 -3.589,44.498 1.648,60.316 7.357,22.223 29.992,25.374 40.071,5.578 9.661,-18.975 9.068,-62.256 -1.087,-79.299 C 105.224,29.674 96.743,25.722 88.097,27.818 m 168.754,0.047 c -11.189,3.433 -17.881,20.374 -18.548,46.952 -0.846,33.702 7.865,55.591 22.123,55.591 5.273,0 11.646,-6.919 13.572,-14.734 0.661,-2.685 1.028,-0.721 1.028,5.504 0,8.801 -0.697,7.976 6.732,7.976 h 6.225 V 78.986 28.818 l -6.374,0.116 -6.374,0.115 -0.114,7.001 c -0.13,7.893 -0.296,8.23 -1.956,3.971 -4.02,-10.315 -9.356,-14.29 -16.314,-12.156 m 71.258,0.086 c -14.33,3.738 -22.147,21.685 -22.144,50.837 0.005,33.267 9.997,51.62 28.105,51.62 11.251,0 19.321,-5.201 20.614,-13.285 l 0.272,-1.704 -3.383,-1.701 c -4.167,-2.095 -4.487,-2.106 -4.851,-0.164 -2.047,10.911 -15.886,13.291 -21.006,3.613 -7.713,-14.579 -7.49,-62.776 0.359,-77.501 5.307,-9.957 19.631,-6.088 20.734,5.599 0.261,2.769 0.021,2.73 4.424,0.712 3.802,-1.743 3.77,-1.682 3.001,-5.703 -1.892,-9.884 -13.851,-15.526 -26.125,-12.323 m -168.861,0.694 c -3.732,1.161 -6.653,3.235 -8.834,6.271 -1.692,2.357 -1.811,2.204 -1.818,-2.365 l -0.007,-3.756 -6.269,-0.002 -6.27,-0.002 v 50.077 50.077 h 6.27 6.269 l 0.209,-41.589 0.209,-41.588 1.171,-2.508 c 3.406,-7.293 10.961,-9.693 13.688,-4.349 1.956,3.835 2.054,6.198 2.062,49.595 l 0.007,40.648 h 6.279 6.279 l -0.118,-43.156 c -0.11,-40.052 -0.172,-43.336 -0.867,-45.664 -2.906,-9.742 -9.974,-14.266 -18.26,-11.689 M 95.043,34.73 c 3.432,2.7 3.655,5.31 3.612,42.235 -0.049,41.364 -0.407,45.014 -4.59,46.746 -3.845,1.593 -6.523,-1.893 -7.776,-10.118 -0.712,-4.682 -0.869,-57.663 -0.19,-64.75 1.224,-12.798 4.348,-17.727 8.944,-14.113 m 171.801,1.421 c 11.046,11.046 11.094,74.757 0.065,85.447 -3.374,3.27 -6.743,1.69 -8.537,-4.004 -3.055,-9.693 -3.279,-63.912 -0.313,-75.797 1.743,-6.986 5.214,-9.217 8.785,-5.646"
       id="path0"
       inkscape:connector-curvature="0"
       style="fill:#151621;fill-opacity:1;fill-rule:evenodd;stroke:none" />
  </g>
</svg>
