<svg id="svg" xmlns="http://www.w3.org/2000/svg" xmlns:xlink="http://www.w3.org/1999/xlink" width="400" height="135.00522466039706" viewBox="0, 0, 400,135.00522466039706"><g id="svgg"><path id="path0" d="M202.914 3.030 C 202.807 3.318,202.672 9.195,202.614 16.092 L 202.508 28.631 198.206 28.750 L 193.905 28.870 194.027 32.094 L 194.148 35.319 198.431 35.438 L 202.713 35.557 202.820 82.251 L 202.926 128.945 209.300 129.060 L 215.674 129.175 215.674 82.366 L 215.674 35.557 219.958 35.438 L 224.242 35.319 224.364 32.094 L 224.486 28.870 220.185 28.750 L 215.883 28.631 215.773 15.569 L 215.662 2.508 209.385 2.508 C 204.746 2.508,203.058 2.644,202.914 3.030 M374.823 15.569 L 374.713 28.631 370.428 28.750 L 366.144 28.869 366.144 32.199 L 366.144 35.528 370.531 35.528 L 374.918 35.528 375.024 82.236 L 375.131 128.945 381.505 129.060 L 387.879 129.175 387.879 82.352 L 387.879 35.528 392.014 35.528 C 396.782 35.528,396.656 35.636,396.656 31.523 L 396.656 28.840 392.268 28.840 L 387.879 28.840 387.879 15.674 L 387.879 2.508 381.406 2.508 L 374.934 2.508 374.823 15.569 M26.750 27.945 C 11.916 31.782,5.231 47.520,5.241 78.579 C 5.250 106.504,10.347 121.797,21.655 127.824 C 34.314 134.571,53.501 127.602,53.501 116.257 C 53.501 115.337,46.244 111.230,45.837 111.918 C 45.737 112.087,45.522 113.030,45.360 114.012 C 44.452 119.499,38.045 123.811,31.706 123.202 C 23.453 122.409,18.831 106.606,18.814 79.127 C 18.793 44.938,24.840 30.563,37.494 34.717 C 41.843 36.145,44.248 39.051,45.389 44.257 C 45.773 46.008,46.126 47.489,46.175 47.548 C 46.223 47.607,47.902 46.899,49.906 45.973 L 53.549 44.290 53.283 42.312 C 52.648 37.594,50.920 33.897,48.308 31.669 C 44.008 28.001,33.529 26.191,26.750 27.945 M88.097 27.818 C 79.098 30.000,72.740 38.178,69.643 51.556 C 65.345 70.119,66.054 96.054,71.291 111.872 C 78.648 134.095,101.283 137.246,111.362 117.450 C 121.023 98.475,120.430 55.194,110.275 38.151 C 105.224 29.674,96.743 25.722,88.097 27.818 M256.851 27.865 C 245.662 31.298,238.970 48.239,238.303 74.817 C 237.457 108.519,246.168 130.408,260.426 130.408 C 265.699 130.408,272.072 123.489,273.998 115.674 C 274.659 112.989,275.026 114.953,275.026 121.178 C 275.026 129.979,274.329 129.154,281.758 129.154 L 287.983 129.154 287.983 78.986 L 287.983 28.818 281.609 28.934 L 275.235 29.049 275.121 36.050 C 274.991 43.943,274.825 44.280,273.165 40.021 C 269.145 29.706,263.809 25.731,256.851 27.865 M328.109 27.951 C 313.779 31.689,305.962 49.636,305.965 78.788 C 305.970 112.055,315.962 130.408,334.070 130.408 C 345.321 130.408,353.391 125.207,354.684 117.123 L 354.956 115.419 351.573 113.718 C 347.406 111.623,347.086 111.612,346.722 113.554 C 344.675 124.465,330.836 126.845,325.716 117.167 C 318.003 102.588,318.226 54.391,326.075 39.666 C 331.382 29.709,345.706 33.578,346.809 45.265 C 347.070 48.034,346.830 47.995,351.233 45.977 C 355.035 44.234,355.003 44.295,354.234 40.274 C 352.342 30.390,340.383 24.748,328.109 27.951 M159.248 28.645 C 155.516 29.806,152.595 31.880,150.414 34.916 C 148.722 37.273,148.603 37.120,148.596 32.551 L 148.589 28.795 142.320 28.793 L 136.050 28.791 136.050 78.868 L 136.050 128.945 142.320 128.945 L 148.589 128.945 148.798 87.356 L 149.007 45.768 150.178 43.260 C 153.584 35.967,161.139 33.567,163.866 38.911 C 165.822 42.746,165.920 45.109,165.928 88.506 L 165.935 129.154 172.214 129.154 L 178.493 129.154 178.375 85.998 C 178.265 45.946,178.203 42.662,177.508 40.334 C 174.602 30.592,167.534 26.068,159.248 28.645 M95.043 34.730 C 98.475 37.430,98.698 40.040,98.655 76.965 C 98.606 118.329,98.248 121.979,94.065 123.711 C 90.220 125.304,87.542 121.818,86.289 113.593 C 85.577 108.911,85.420 55.930,86.099 48.843 C 87.323 36.045,90.447 31.116,95.043 34.730 M266.844 36.151 C 277.890 47.197,277.938 110.908,266.909 121.598 C 263.535 124.868,260.166 123.288,258.372 117.594 C 255.317 107.901,255.093 53.682,258.059 41.797 C 259.802 34.811,263.273 32.580,266.844 36.151 " stroke="none" fill="#000000" fill-rule="evenodd"></path></g></svg>