<?xml version="1.0" encoding="UTF-8" standalone="no"?>
<svg
   xmlns:dc="http://purl.org/dc/elements/1.1/"
   xmlns:cc="http://creativecommons.org/ns#"
   xmlns:rdf="http://www.w3.org/1999/02/22-rdf-syntax-ns#"
   xmlns:svg="http://www.w3.org/2000/svg"
   xmlns="http://www.w3.org/2000/svg"
   xmlns:sodipodi="http://sodipodi.sourceforge.net/DTD/sodipodi-0.dtd"
   xmlns:inkscape="http://www.inkscape.org/namespaces/inkscape"
   id="svg"
   width="70.8853"
   height="31.195976"
   viewBox="0 0 70.8853 31.195976"
   version="1.1"
   sodipodi:docname="nav_handle.svg"
   inkscape:version="0.92.4 (5da689c313, 2019-01-14)">
  <metadata
     id="metadata9">
    <rdf:RDF>
      <cc:Work
         rdf:about="">
        <dc:format>image/svg+xml</dc:format>
        <dc:type
           rdf:resource="http://purl.org/dc/dcmitype/StillImage" />
        <dc:title></dc:title>
      </cc:Work>
    </rdf:RDF>
  </metadata>
  <defs
     id="defs7" />
  <sodipodi:namedview
     pagecolor="#ffffff"
     bordercolor="#666666"
     borderopacity="1"
     objecttolerance="10"
     gridtolerance="10"
     guidetolerance="10"
     inkscape:pageopacity="0"
     inkscape:pageshadow="2"
     inkscape:window-width="1920"
     inkscape:window-height="1017"
     id="namedview5"
     showgrid="false"
     inkscape:zoom="11.36"
     inkscape:cx="48.606191"
     inkscape:cy="0.90646912"
     inkscape:window-x="-8"
     inkscape:window-y="-8"
     inkscape:window-maximized="1"
     inkscape:current-layer="svg" />
  <g
     id="g1075"
     transform="matrix(0.17207959,0,0,0.17207959,1.0871893,1.8200522)"
     style="fill:#151621;fill-opacity:1">
    <path
       d="m 169.047,5.288 c -13.114,3.206 -22.699,15.606 -27.217,35.21 -2.025,8.786 -2.31,10.645 -3.199,20.873 -3.639,41.848 3.542,78.019 17.941,90.359 5.89,5.05 9.61,6.216 19.752,6.196 19.483,-0.04 33.66,-8.151 34.406,-19.684 l 0.173,-2.689 -5.607,-2.264 c -6.128,-2.474 -6.542,-2.487 -6.542,-0.206 0,3.243 -3.723,8.273 -8.1,10.946 -5.468,3.339 -17.78,4.584 -20.556,2.078 -5.787,-5.224 -9.728,-21.118 -10.929,-44.082 l -0.416,-7.944 h 27.062 c 14.884,0 27.178,-0.116 27.321,-0.258 1.176,-1.171 -1.217,-35.428 -3.202,-45.848 C 203.761,15.576 189.191,0.364 169.047,5.288 M 38.808,6.853 c -4.561,1.622 -8.616,4.585 -11.204,8.187 -2.744,3.82 -2.945,3.62 -2.972,-2.954 L 24.611,6.787 15.265,6.784 5.919,6.78 v 74.648 74.647 h 9.346 9.346 L 24.922,94.081 C 25.164,45.918 25.41,31.67 26.025,30.218 29.4,22.25 33.149,18.66 39.087,17.711 c 4.372,-0.699 6.715,1.792 8.361,8.888 0.472,2.036 0.817,23.256 1.078,66.236 l 0.384,63.24 h 9.345 9.346 l 0.316,-61.682 c 0.22,-42.909 0.526,-62.257 1.007,-63.57 3.646,-9.947 13.866,-16.593 18.631,-12.117 4.862,4.568 5.277,10.937 5.278,81.138 l 0.002,56.542 h 9.346 9.345 L 111.513,93.925 C 111.498,24.335 111.566,25.54 107.188,16.867 99.057,0.759 76.572,2.279 68.025,19.515 66.502,22.587 65.592,23.147 65.062,21.34 61.424,8.926 50.278,2.775 38.808,6.853 M 268.257,6.64 c -4.78,1.467 -9.389,4.894 -12.618,9.383 -2.427,3.373 -2.68,3.013 -2.679,-3.822 V 6.542 l -9.038,0.121 c -4.97,0.066 -9.316,0.293 -9.657,0.504 -0.677,0.418 -0.915,146.48 -0.242,148.234 0.321,0.837 1.771,0.985 9.657,0.985 h 9.28 V 96.507 c 0,-64.325 -0.036,-63.539 3.167,-69.818 3.635,-7.126 13.43,-11.525 17.619,-7.914 4.559,3.928 4.4,1.487 4.753,73.125 l 0.317,64.175 h 9.346 9.346 l 0.177,-59.502 C 297.869,34.908 297.668,28.511 295.332,21.585 290.97,8.656 280.509,2.881 268.257,6.64 m 58.386,65.167 c 0.245,71.962 0.055,68.612 4.35,76.67 6.538,12.266 26.632,13.506 36.8,2.27 3.92,-4.332 4.17,-4.248 4.17,1.398 v 4.275 l 9.19,-0.173 9.19,-0.172 0.158,-74.611 0.158,-74.61 h -9.323 -9.323 l -0.187,63.084 c -0.204,69.376 0.014,65.467 -3.947,70.66 -5.041,6.609 -16.326,7.794 -19.309,2.028 -2.662,-5.149 -2.776,-8.152 -2.776,-73.522 V 6.854 h -9.686 -9.687 l 0.222,64.953 M 180.535,16.302 c 3.527,2.174 7.284,10.13 9.16,19.399 2.285,11.282 4.331,33.833 3.968,43.738 l -0.205,5.608 -15.888,0.175 c -8.738,0.096 -16.562,0.01 -17.387,-0.192 l -1.498,-0.367 0.392,-15.385 c 1.044,-40.865 9.048,-60.626 21.458,-52.976"
       id="path1073"
       inkscape:connector-curvature="0"
       style="fill:#151621;fill-opacity:1;fill-rule:evenodd;stroke:none" />
  </g>
  <g
     transform="matrix(0.17207959,0,0,0.17207959,-0.08265979,2.9899028)"
     id="g1079"
     style="fill:#151621;fill-opacity:1">
    <path
       style="fill:#151621;fill-opacity:1;fill-rule:evenodd;stroke:none"
       inkscape:connector-curvature="0"
       id="path1077"
       d="m 169.047,5.288 c -13.114,3.206 -22.699,15.606 -27.217,35.21 -2.025,8.786 -2.31,10.645 -3.199,20.873 -3.639,41.848 3.542,78.019 17.941,90.359 5.89,5.05 9.61,6.216 19.752,6.196 19.483,-0.04 33.66,-8.151 34.406,-19.684 l 0.173,-2.689 -5.607,-2.264 c -6.128,-2.474 -6.542,-2.487 -6.542,-0.206 0,3.243 -3.723,8.273 -8.1,10.946 -5.468,3.339 -17.78,4.584 -20.556,2.078 -5.787,-5.224 -9.728,-21.118 -10.929,-44.082 l -0.416,-7.944 h 27.062 c 14.884,0 27.178,-0.116 27.321,-0.258 1.176,-1.171 -1.217,-35.428 -3.202,-45.848 C 203.761,15.576 189.191,0.364 169.047,5.288 M 38.808,6.853 c -4.561,1.622 -8.616,4.585 -11.204,8.187 -2.744,3.82 -2.945,3.62 -2.972,-2.954 L 24.611,6.787 15.265,6.784 5.919,6.78 v 74.648 74.647 h 9.346 9.346 L 24.922,94.081 C 25.164,45.918 25.41,31.67 26.025,30.218 29.4,22.25 33.149,18.66 39.087,17.711 c 4.372,-0.699 6.715,1.792 8.361,8.888 0.472,2.036 0.817,23.256 1.078,66.236 l 0.384,63.24 h 9.345 9.346 l 0.316,-61.682 c 0.22,-42.909 0.526,-62.257 1.007,-63.57 3.646,-9.947 13.866,-16.593 18.631,-12.117 4.862,4.568 5.277,10.937 5.278,81.138 l 0.002,56.542 h 9.346 9.345 L 111.513,93.925 C 111.498,24.335 111.566,25.54 107.188,16.867 99.057,0.759 76.572,2.279 68.025,19.515 66.502,22.587 65.592,23.147 65.062,21.34 61.424,8.926 50.278,2.775 38.808,6.853 M 268.257,6.64 c -4.78,1.467 -9.389,4.894 -12.618,9.383 -2.427,3.373 -2.68,3.013 -2.679,-3.822 V 6.542 l -9.038,0.121 c -4.97,0.066 -9.316,0.293 -9.657,0.504 -0.677,0.418 -0.915,146.48 -0.242,148.234 0.321,0.837 1.771,0.985 9.657,0.985 h 9.28 V 96.507 c 0,-64.325 -0.036,-63.539 3.167,-69.818 3.635,-7.126 13.43,-11.525 17.619,-7.914 4.559,3.928 4.4,1.487 4.753,73.125 l 0.317,64.175 h 9.346 9.346 l 0.177,-59.502 C 297.869,34.908 297.668,28.511 295.332,21.585 290.97,8.656 280.509,2.881 268.257,6.64 m 58.386,65.167 c 0.245,71.962 0.055,68.612 4.35,76.67 6.538,12.266 26.632,13.506 36.8,2.27 3.92,-4.332 4.17,-4.248 4.17,1.398 v 4.275 l 9.19,-0.173 9.19,-0.172 0.158,-74.611 0.158,-74.61 h -9.323 -9.323 l -0.187,63.084 c -0.204,69.376 0.014,65.467 -3.947,70.66 -5.041,6.609 -16.326,7.794 -19.309,2.028 -2.662,-5.149 -2.776,-8.152 -2.776,-73.522 V 6.854 h -9.686 -9.687 l 0.222,64.953 M 180.535,16.302 c 3.527,2.174 7.284,10.13 9.16,19.399 2.285,11.282 4.331,33.833 3.968,43.738 l -0.205,5.608 -15.888,0.175 c -8.738,0.096 -16.562,0.01 -17.387,-0.192 l -1.498,-0.367 0.392,-15.385 c 1.044,-40.865 9.048,-60.626 21.458,-52.976" />
  </g>
  <g
     id="g1083"
     transform="matrix(0.17207959,0,0,0.17207959,-0.55059943,3.457844)"
     style="fill:#151621;fill-opacity:1">
    <path
       d="m 169.047,5.288 c -13.114,3.206 -22.699,15.606 -27.217,35.21 -2.025,8.786 -2.31,10.645 -3.199,20.873 -3.639,41.848 3.542,78.019 17.941,90.359 5.89,5.05 9.61,6.216 19.752,6.196 19.483,-0.04 33.66,-8.151 34.406,-19.684 l 0.173,-2.689 -5.607,-2.264 c -6.128,-2.474 -6.542,-2.487 -6.542,-0.206 0,3.243 -3.723,8.273 -8.1,10.946 -5.468,3.339 -17.78,4.584 -20.556,2.078 -5.787,-5.224 -9.728,-21.118 -10.929,-44.082 l -0.416,-7.944 h 27.062 c 14.884,0 27.178,-0.116 27.321,-0.258 1.176,-1.171 -1.217,-35.428 -3.202,-45.848 C 203.761,15.576 189.191,0.364 169.047,5.288 M 38.808,6.853 c -4.561,1.622 -8.616,4.585 -11.204,8.187 -2.744,3.82 -2.945,3.62 -2.972,-2.954 L 24.611,6.787 15.265,6.784 5.919,6.78 v 74.648 74.647 h 9.346 9.346 L 24.922,94.081 C 25.164,45.918 25.41,31.67 26.025,30.218 29.4,22.25 33.149,18.66 39.087,17.711 c 4.372,-0.699 6.715,1.792 8.361,8.888 0.472,2.036 0.817,23.256 1.078,66.236 l 0.384,63.24 h 9.345 9.346 l 0.316,-61.682 c 0.22,-42.909 0.526,-62.257 1.007,-63.57 3.646,-9.947 13.866,-16.593 18.631,-12.117 4.862,4.568 5.277,10.937 5.278,81.138 l 0.002,56.542 h 9.346 9.345 L 111.513,93.925 C 111.498,24.335 111.566,25.54 107.188,16.867 99.057,0.759 76.572,2.279 68.025,19.515 66.502,22.587 65.592,23.147 65.062,21.34 61.424,8.926 50.278,2.775 38.808,6.853 M 268.257,6.64 c -4.78,1.467 -9.389,4.894 -12.618,9.383 -2.427,3.373 -2.68,3.013 -2.679,-3.822 V 6.542 l -9.038,0.121 c -4.97,0.066 -9.316,0.293 -9.657,0.504 -0.677,0.418 -0.915,146.48 -0.242,148.234 0.321,0.837 1.771,0.985 9.657,0.985 h 9.28 V 96.507 c 0,-64.325 -0.036,-63.539 3.167,-69.818 3.635,-7.126 13.43,-11.525 17.619,-7.914 4.559,3.928 4.4,1.487 4.753,73.125 l 0.317,64.175 h 9.346 9.346 l 0.177,-59.502 C 297.869,34.908 297.668,28.511 295.332,21.585 290.97,8.656 280.509,2.881 268.257,6.64 m 58.386,65.167 c 0.245,71.962 0.055,68.612 4.35,76.67 6.538,12.266 26.632,13.506 36.8,2.27 3.92,-4.332 4.17,-4.248 4.17,1.398 v 4.275 l 9.19,-0.173 9.19,-0.172 0.158,-74.611 0.158,-74.61 h -9.323 -9.323 l -0.187,63.084 c -0.204,69.376 0.014,65.467 -3.947,70.66 -5.041,6.609 -16.326,7.794 -19.309,2.028 -2.662,-5.149 -2.776,-8.152 -2.776,-73.522 V 6.854 h -9.686 -9.687 l 0.222,64.953 M 180.535,16.302 c 3.527,2.174 7.284,10.13 9.16,19.399 2.285,11.282 4.331,33.833 3.968,43.738 l -0.205,5.608 -15.888,0.175 c -8.738,0.096 -16.562,0.01 -17.387,-0.192 l -1.498,-0.367 0.392,-15.385 c 1.044,-40.865 9.048,-60.626 21.458,-52.976"
       id="path1081"
       inkscape:connector-curvature="0"
       style="fill:#151621;fill-opacity:1;fill-rule:evenodd;stroke:none" />
  </g>
  <g
     transform="matrix(0.17207959,0,0,0.17207959,-1.0185391,3.9257805)"
     id="g1087"
     style="fill:#151621;fill-opacity:1">
    <path
       style="fill:#151621;fill-opacity:1;fill-rule:evenodd;stroke:none"
       inkscape:connector-curvature="0"
       id="path1085"
       d="m 169.047,5.288 c -13.114,3.206 -22.699,15.606 -27.217,35.21 -2.025,8.786 -2.31,10.645 -3.199,20.873 -3.639,41.848 3.542,78.019 17.941,90.359 5.89,5.05 9.61,6.216 19.752,6.196 19.483,-0.04 33.66,-8.151 34.406,-19.684 l 0.173,-2.689 -5.607,-2.264 c -6.128,-2.474 -6.542,-2.487 -6.542,-0.206 0,3.243 -3.723,8.273 -8.1,10.946 -5.468,3.339 -17.78,4.584 -20.556,2.078 -5.787,-5.224 -9.728,-21.118 -10.929,-44.082 l -0.416,-7.944 h 27.062 c 14.884,0 27.178,-0.116 27.321,-0.258 1.176,-1.171 -1.217,-35.428 -3.202,-45.848 C 203.761,15.576 189.191,0.364 169.047,5.288 M 38.808,6.853 c -4.561,1.622 -8.616,4.585 -11.204,8.187 -2.744,3.82 -2.945,3.62 -2.972,-2.954 L 24.611,6.787 15.265,6.784 5.919,6.78 v 74.648 74.647 h 9.346 9.346 L 24.922,94.081 C 25.164,45.918 25.41,31.67 26.025,30.218 29.4,22.25 33.149,18.66 39.087,17.711 c 4.372,-0.699 6.715,1.792 8.361,8.888 0.472,2.036 0.817,23.256 1.078,66.236 l 0.384,63.24 h 9.345 9.346 l 0.316,-61.682 c 0.22,-42.909 0.526,-62.257 1.007,-63.57 3.646,-9.947 13.866,-16.593 18.631,-12.117 4.862,4.568 5.277,10.937 5.278,81.138 l 0.002,56.542 h 9.346 9.345 L 111.513,93.925 C 111.498,24.335 111.566,25.54 107.188,16.867 99.057,0.759 76.572,2.279 68.025,19.515 66.502,22.587 65.592,23.147 65.062,21.34 61.424,8.926 50.278,2.775 38.808,6.853 M 268.257,6.64 c -4.78,1.467 -9.389,4.894 -12.618,9.383 -2.427,3.373 -2.68,3.013 -2.679,-3.822 V 6.542 l -9.038,0.121 c -4.97,0.066 -9.316,0.293 -9.657,0.504 -0.677,0.418 -0.915,146.48 -0.242,148.234 0.321,0.837 1.771,0.985 9.657,0.985 h 9.28 V 96.507 c 0,-64.325 -0.036,-63.539 3.167,-69.818 3.635,-7.126 13.43,-11.525 17.619,-7.914 4.559,3.928 4.4,1.487 4.753,73.125 l 0.317,64.175 h 9.346 9.346 l 0.177,-59.502 C 297.869,34.908 297.668,28.511 295.332,21.585 290.97,8.656 280.509,2.881 268.257,6.64 m 58.386,65.167 c 0.245,71.962 0.055,68.612 4.35,76.67 6.538,12.266 26.632,13.506 36.8,2.27 3.92,-4.332 4.17,-4.248 4.17,1.398 v 4.275 l 9.19,-0.173 9.19,-0.172 0.158,-74.611 0.158,-74.61 h -9.323 -9.323 l -0.187,63.084 c -0.204,69.376 0.014,65.467 -3.947,70.66 -5.041,6.609 -16.326,7.794 -19.309,2.028 -2.662,-5.149 -2.776,-8.152 -2.776,-73.522 V 6.854 h -9.686 -9.687 l 0.222,64.953 M 180.535,16.302 c 3.527,2.174 7.284,10.13 9.16,19.399 2.285,11.282 4.331,33.833 3.968,43.738 l -0.205,5.608 -15.888,0.175 c -8.738,0.096 -16.562,0.01 -17.387,-0.192 l -1.498,-0.367 0.392,-15.385 c 1.044,-40.865 9.048,-60.626 21.458,-52.976" />
  </g>
  <g
     style="fill:#151621;fill-opacity:1"
     id="g1107"
     transform="matrix(0.17207959,0,0,0.17207959,2.7249781,0.18226508)">
    <path
       d="m 169.047,5.288 c -13.114,3.206 -22.699,15.606 -27.217,35.21 -2.025,8.786 -2.31,10.645 -3.199,20.873 -3.639,41.848 3.542,78.019 17.941,90.359 5.89,5.05 9.61,6.216 19.752,6.196 19.483,-0.04 33.66,-8.151 34.406,-19.684 l 0.173,-2.689 -5.607,-2.264 c -6.128,-2.474 -6.542,-2.487 -6.542,-0.206 0,3.243 -3.723,8.273 -8.1,10.946 -5.468,3.339 -17.78,4.584 -20.556,2.078 -5.787,-5.224 -9.728,-21.118 -10.929,-44.082 l -0.416,-7.944 h 27.062 c 14.884,0 27.178,-0.116 27.321,-0.258 1.176,-1.171 -1.217,-35.428 -3.202,-45.848 C 203.761,15.576 189.191,0.364 169.047,5.288 M 38.808,6.853 c -4.561,1.622 -8.616,4.585 -11.204,8.187 -2.744,3.82 -2.945,3.62 -2.972,-2.954 L 24.611,6.787 15.265,6.784 5.919,6.78 v 74.648 74.647 h 9.346 9.346 L 24.922,94.081 C 25.164,45.918 25.41,31.67 26.025,30.218 29.4,22.25 33.149,18.66 39.087,17.711 c 4.372,-0.699 6.715,1.792 8.361,8.888 0.472,2.036 0.817,23.256 1.078,66.236 l 0.384,63.24 h 9.345 9.346 l 0.316,-61.682 c 0.22,-42.909 0.526,-62.257 1.007,-63.57 3.646,-9.947 13.866,-16.593 18.631,-12.117 4.862,4.568 5.277,10.937 5.278,81.138 l 0.002,56.542 h 9.346 9.345 L 111.513,93.925 C 111.498,24.335 111.566,25.54 107.188,16.867 99.057,0.759 76.572,2.279 68.025,19.515 66.502,22.587 65.592,23.147 65.062,21.34 61.424,8.926 50.278,2.775 38.808,6.853 M 268.257,6.64 c -4.78,1.467 -9.389,4.894 -12.618,9.383 -2.427,3.373 -2.68,3.013 -2.679,-3.822 V 6.542 l -9.038,0.121 c -4.97,0.066 -9.316,0.293 -9.657,0.504 -0.677,0.418 -0.915,146.48 -0.242,148.234 0.321,0.837 1.771,0.985 9.657,0.985 h 9.28 V 96.507 c 0,-64.325 -0.036,-63.539 3.167,-69.818 3.635,-7.126 13.43,-11.525 17.619,-7.914 4.559,3.928 4.4,1.487 4.753,73.125 l 0.317,64.175 h 9.346 9.346 l 0.177,-59.502 C 297.869,34.908 297.668,28.511 295.332,21.585 290.97,8.656 280.509,2.881 268.257,6.64 m 58.386,65.167 c 0.245,71.962 0.055,68.612 4.35,76.67 6.538,12.266 26.632,13.506 36.8,2.27 3.92,-4.332 4.17,-4.248 4.17,1.398 v 4.275 l 9.19,-0.173 9.19,-0.172 0.158,-74.611 0.158,-74.61 h -9.323 -9.323 l -0.187,63.084 c -0.204,69.376 0.014,65.467 -3.947,70.66 -5.041,6.609 -16.326,7.794 -19.309,2.028 -2.662,-5.149 -2.776,-8.152 -2.776,-73.522 V 6.854 h -9.686 -9.687 l 0.222,64.953 M 180.535,16.302 c 3.527,2.174 7.284,10.13 9.16,19.399 2.285,11.282 4.331,33.833 3.968,43.738 l -0.205,5.608 -15.888,0.175 c -8.738,0.096 -16.562,0.01 -17.387,-0.192 l -1.498,-0.367 0.392,-15.385 c 1.044,-40.865 9.048,-60.626 21.458,-52.976"
       id="path1105"
       inkscape:connector-curvature="0"
       style="fill:#151621;fill-opacity:1;fill-rule:evenodd;stroke:none" />
  </g>
  <g
     transform="matrix(0.17207959,0,0,0.17207959,3.1929175,-0.2856761)"
     id="g1111"
     style="fill:#151621;fill-opacity:1">
    <path
       style="fill:#151621;fill-opacity:1;fill-rule:evenodd;stroke:none"
       inkscape:connector-curvature="0"
       id="path1109"
       d="m 169.047,5.288 c -13.114,3.206 -22.699,15.606 -27.217,35.21 -2.025,8.786 -2.31,10.645 -3.199,20.873 -3.639,41.848 3.542,78.019 17.941,90.359 5.89,5.05 9.61,6.216 19.752,6.196 19.483,-0.04 33.66,-8.151 34.406,-19.684 l 0.173,-2.689 -5.607,-2.264 c -6.128,-2.474 -6.542,-2.487 -6.542,-0.206 0,3.243 -3.723,8.273 -8.1,10.946 -5.468,3.339 -17.78,4.584 -20.556,2.078 -5.787,-5.224 -9.728,-21.118 -10.929,-44.082 l -0.416,-7.944 h 27.062 c 14.884,0 27.178,-0.116 27.321,-0.258 1.176,-1.171 -1.217,-35.428 -3.202,-45.848 C 203.761,15.576 189.191,0.364 169.047,5.288 M 38.808,6.853 c -4.561,1.622 -8.616,4.585 -11.204,8.187 -2.744,3.82 -2.945,3.62 -2.972,-2.954 L 24.611,6.787 15.265,6.784 5.919,6.78 v 74.648 74.647 h 9.346 9.346 L 24.922,94.081 C 25.164,45.918 25.41,31.67 26.025,30.218 29.4,22.25 33.149,18.66 39.087,17.711 c 4.372,-0.699 6.715,1.792 8.361,8.888 0.472,2.036 0.817,23.256 1.078,66.236 l 0.384,63.24 h 9.345 9.346 l 0.316,-61.682 c 0.22,-42.909 0.526,-62.257 1.007,-63.57 3.646,-9.947 13.866,-16.593 18.631,-12.117 4.862,4.568 5.277,10.937 5.278,81.138 l 0.002,56.542 h 9.346 9.345 L 111.513,93.925 C 111.498,24.335 111.566,25.54 107.188,16.867 99.057,0.759 76.572,2.279 68.025,19.515 66.502,22.587 65.592,23.147 65.062,21.34 61.424,8.926 50.278,2.775 38.808,6.853 M 268.257,6.64 c -4.78,1.467 -9.389,4.894 -12.618,9.383 -2.427,3.373 -2.68,3.013 -2.679,-3.822 V 6.542 l -9.038,0.121 c -4.97,0.066 -9.316,0.293 -9.657,0.504 -0.677,0.418 -0.915,146.48 -0.242,148.234 0.321,0.837 1.771,0.985 9.657,0.985 h 9.28 V 96.507 c 0,-64.325 -0.036,-63.539 3.167,-69.818 3.635,-7.126 13.43,-11.525 17.619,-7.914 4.559,3.928 4.4,1.487 4.753,73.125 l 0.317,64.175 h 9.346 9.346 l 0.177,-59.502 C 297.869,34.908 297.668,28.511 295.332,21.585 290.97,8.656 280.509,2.881 268.257,6.64 m 58.386,65.167 c 0.245,71.962 0.055,68.612 4.35,76.67 6.538,12.266 26.632,13.506 36.8,2.27 3.92,-4.332 4.17,-4.248 4.17,1.398 v 4.275 l 9.19,-0.173 9.19,-0.172 0.158,-74.611 0.158,-74.61 h -9.323 -9.323 l -0.187,63.084 c -0.204,69.376 0.014,65.467 -3.947,70.66 -5.041,6.609 -16.326,7.794 -19.309,2.028 -2.662,-5.149 -2.776,-8.152 -2.776,-73.522 V 6.854 h -9.686 -9.687 l 0.222,64.953 M 180.535,16.302 c 3.527,2.174 7.284,10.13 9.16,19.399 2.285,11.282 4.331,33.833 3.968,43.738 l -0.205,5.608 -15.888,0.175 c -8.738,0.096 -16.562,0.01 -17.387,-0.192 l -1.498,-0.367 0.392,-15.385 c 1.044,-40.865 9.048,-60.626 21.458,-52.976" />
  </g>
  <g
     style="fill:#151621;fill-opacity:1"
     id="g1115"
     transform="matrix(0.17207959,0,0,0.17207959,0.38527986,2.5219647)">
    <path
       d="m 169.047,5.288 c -13.114,3.206 -22.699,15.606 -27.217,35.21 -2.025,8.786 -2.31,10.645 -3.199,20.873 -3.639,41.848 3.542,78.019 17.941,90.359 5.89,5.05 9.61,6.216 19.752,6.196 19.483,-0.04 33.66,-8.151 34.406,-19.684 l 0.173,-2.689 -5.607,-2.264 c -6.128,-2.474 -6.542,-2.487 -6.542,-0.206 0,3.243 -3.723,8.273 -8.1,10.946 -5.468,3.339 -17.78,4.584 -20.556,2.078 -5.787,-5.224 -9.728,-21.118 -10.929,-44.082 l -0.416,-7.944 h 27.062 c 14.884,0 27.178,-0.116 27.321,-0.258 1.176,-1.171 -1.217,-35.428 -3.202,-45.848 C 203.761,15.576 189.191,0.364 169.047,5.288 M 38.808,6.853 c -4.561,1.622 -8.616,4.585 -11.204,8.187 -2.744,3.82 -2.945,3.62 -2.972,-2.954 L 24.611,6.787 15.265,6.784 5.919,6.78 v 74.648 74.647 h 9.346 9.346 L 24.922,94.081 C 25.164,45.918 25.41,31.67 26.025,30.218 29.4,22.25 33.149,18.66 39.087,17.711 c 4.372,-0.699 6.715,1.792 8.361,8.888 0.472,2.036 0.817,23.256 1.078,66.236 l 0.384,63.24 h 9.345 9.346 l 0.316,-61.682 c 0.22,-42.909 0.526,-62.257 1.007,-63.57 3.646,-9.947 13.866,-16.593 18.631,-12.117 4.862,4.568 5.277,10.937 5.278,81.138 l 0.002,56.542 h 9.346 9.345 L 111.513,93.925 C 111.498,24.335 111.566,25.54 107.188,16.867 99.057,0.759 76.572,2.279 68.025,19.515 66.502,22.587 65.592,23.147 65.062,21.34 61.424,8.926 50.278,2.775 38.808,6.853 M 268.257,6.64 c -4.78,1.467 -9.389,4.894 -12.618,9.383 -2.427,3.373 -2.68,3.013 -2.679,-3.822 V 6.542 l -9.038,0.121 c -4.97,0.066 -9.316,0.293 -9.657,0.504 -0.677,0.418 -0.915,146.48 -0.242,148.234 0.321,0.837 1.771,0.985 9.657,0.985 h 9.28 V 96.507 c 0,-64.325 -0.036,-63.539 3.167,-69.818 3.635,-7.126 13.43,-11.525 17.619,-7.914 4.559,3.928 4.4,1.487 4.753,73.125 l 0.317,64.175 h 9.346 9.346 l 0.177,-59.502 C 297.869,34.908 297.668,28.511 295.332,21.585 290.97,8.656 280.509,2.881 268.257,6.64 m 58.386,65.167 c 0.245,71.962 0.055,68.612 4.35,76.67 6.538,12.266 26.632,13.506 36.8,2.27 3.92,-4.332 4.17,-4.248 4.17,1.398 v 4.275 l 9.19,-0.173 9.19,-0.172 0.158,-74.611 0.158,-74.61 h -9.323 -9.323 l -0.187,63.084 c -0.204,69.376 0.014,65.467 -3.947,70.66 -5.041,6.609 -16.326,7.794 -19.309,2.028 -2.662,-5.149 -2.776,-8.152 -2.776,-73.522 V 6.854 h -9.686 -9.687 l 0.222,64.953 M 180.535,16.302 c 3.527,2.174 7.284,10.13 9.16,19.399 2.285,11.282 4.331,33.833 3.968,43.738 l -0.205,5.608 -15.888,0.175 c -8.738,0.096 -16.562,0.01 -17.387,-0.192 l -1.498,-0.367 0.392,-15.385 c 1.044,-40.865 9.048,-60.626 21.458,-52.976"
       id="path1113"
       inkscape:connector-curvature="0"
       style="fill:#151621;fill-opacity:1;fill-rule:evenodd;stroke:none" />
  </g>
  <g
     transform="matrix(0.17207959,0,0,0.17207959,2.2570385,0.65020315)"
     id="g1119"
     style="fill:#151621;fill-opacity:1">
    <path
       style="fill:#151621;fill-opacity:1;fill-rule:evenodd;stroke:none"
       inkscape:connector-curvature="0"
       id="path1117"
       d="m 169.047,5.288 c -13.114,3.206 -22.699,15.606 -27.217,35.21 -2.025,8.786 -2.31,10.645 -3.199,20.873 -3.639,41.848 3.542,78.019 17.941,90.359 5.89,5.05 9.61,6.216 19.752,6.196 19.483,-0.04 33.66,-8.151 34.406,-19.684 l 0.173,-2.689 -5.607,-2.264 c -6.128,-2.474 -6.542,-2.487 -6.542,-0.206 0,3.243 -3.723,8.273 -8.1,10.946 -5.468,3.339 -17.78,4.584 -20.556,2.078 -5.787,-5.224 -9.728,-21.118 -10.929,-44.082 l -0.416,-7.944 h 27.062 c 14.884,0 27.178,-0.116 27.321,-0.258 1.176,-1.171 -1.217,-35.428 -3.202,-45.848 C 203.761,15.576 189.191,0.364 169.047,5.288 M 38.808,6.853 c -4.561,1.622 -8.616,4.585 -11.204,8.187 -2.744,3.82 -2.945,3.62 -2.972,-2.954 L 24.611,6.787 15.265,6.784 5.919,6.78 v 74.648 74.647 h 9.346 9.346 L 24.922,94.081 C 25.164,45.918 25.41,31.67 26.025,30.218 29.4,22.25 33.149,18.66 39.087,17.711 c 4.372,-0.699 6.715,1.792 8.361,8.888 0.472,2.036 0.817,23.256 1.078,66.236 l 0.384,63.24 h 9.345 9.346 l 0.316,-61.682 c 0.22,-42.909 0.526,-62.257 1.007,-63.57 3.646,-9.947 13.866,-16.593 18.631,-12.117 4.862,4.568 5.277,10.937 5.278,81.138 l 0.002,56.542 h 9.346 9.345 L 111.513,93.925 C 111.498,24.335 111.566,25.54 107.188,16.867 99.057,0.759 76.572,2.279 68.025,19.515 66.502,22.587 65.592,23.147 65.062,21.34 61.424,8.926 50.278,2.775 38.808,6.853 M 268.257,6.64 c -4.78,1.467 -9.389,4.894 -12.618,9.383 -2.427,3.373 -2.68,3.013 -2.679,-3.822 V 6.542 l -9.038,0.121 c -4.97,0.066 -9.316,0.293 -9.657,0.504 -0.677,0.418 -0.915,146.48 -0.242,148.234 0.321,0.837 1.771,0.985 9.657,0.985 h 9.28 V 96.507 c 0,-64.325 -0.036,-63.539 3.167,-69.818 3.635,-7.126 13.43,-11.525 17.619,-7.914 4.559,3.928 4.4,1.487 4.753,73.125 l 0.317,64.175 h 9.346 9.346 l 0.177,-59.502 C 297.869,34.908 297.668,28.511 295.332,21.585 290.97,8.656 280.509,2.881 268.257,6.64 m 58.386,65.167 c 0.245,71.962 0.055,68.612 4.35,76.67 6.538,12.266 26.632,13.506 36.8,2.27 3.92,-4.332 4.17,-4.248 4.17,1.398 v 4.275 l 9.19,-0.173 9.19,-0.172 0.158,-74.611 0.158,-74.61 h -9.323 -9.323 l -0.187,63.084 c -0.204,69.376 0.014,65.467 -3.947,70.66 -5.041,6.609 -16.326,7.794 -19.309,2.028 -2.662,-5.149 -2.776,-8.152 -2.776,-73.522 V 6.854 h -9.686 -9.687 l 0.222,64.953 M 180.535,16.302 c 3.527,2.174 7.284,10.13 9.16,19.399 2.285,11.282 4.331,33.833 3.968,43.738 l -0.205,5.608 -15.888,0.175 c -8.738,0.096 -16.562,0.01 -17.387,-0.192 l -1.498,-0.367 0.392,-15.385 c 1.044,-40.865 9.048,-60.626 21.458,-52.976" />
  </g>
  <g
     style="fill:#151621;fill-opacity:1"
     id="g1123"
     transform="matrix(0.17207959,0,0,0.17207959,1.7890988,1.1181443)">
    <path
       d="m 169.047,5.288 c -13.114,3.206 -22.699,15.606 -27.217,35.21 -2.025,8.786 -2.31,10.645 -3.199,20.873 -3.639,41.848 3.542,78.019 17.941,90.359 5.89,5.05 9.61,6.216 19.752,6.196 19.483,-0.04 33.66,-8.151 34.406,-19.684 l 0.173,-2.689 -5.607,-2.264 c -6.128,-2.474 -6.542,-2.487 -6.542,-0.206 0,3.243 -3.723,8.273 -8.1,10.946 -5.468,3.339 -17.78,4.584 -20.556,2.078 -5.787,-5.224 -9.728,-21.118 -10.929,-44.082 l -0.416,-7.944 h 27.062 c 14.884,0 27.178,-0.116 27.321,-0.258 1.176,-1.171 -1.217,-35.428 -3.202,-45.848 C 203.761,15.576 189.191,0.364 169.047,5.288 M 38.808,6.853 c -4.561,1.622 -8.616,4.585 -11.204,8.187 -2.744,3.82 -2.945,3.62 -2.972,-2.954 L 24.611,6.787 15.265,6.784 5.919,6.78 v 74.648 74.647 h 9.346 9.346 L 24.922,94.081 C 25.164,45.918 25.41,31.67 26.025,30.218 29.4,22.25 33.149,18.66 39.087,17.711 c 4.372,-0.699 6.715,1.792 8.361,8.888 0.472,2.036 0.817,23.256 1.078,66.236 l 0.384,63.24 h 9.345 9.346 l 0.316,-61.682 c 0.22,-42.909 0.526,-62.257 1.007,-63.57 3.646,-9.947 13.866,-16.593 18.631,-12.117 4.862,4.568 5.277,10.937 5.278,81.138 l 0.002,56.542 h 9.346 9.345 L 111.513,93.925 C 111.498,24.335 111.566,25.54 107.188,16.867 99.057,0.759 76.572,2.279 68.025,19.515 66.502,22.587 65.592,23.147 65.062,21.34 61.424,8.926 50.278,2.775 38.808,6.853 M 268.257,6.64 c -4.78,1.467 -9.389,4.894 -12.618,9.383 -2.427,3.373 -2.68,3.013 -2.679,-3.822 V 6.542 l -9.038,0.121 c -4.97,0.066 -9.316,0.293 -9.657,0.504 -0.677,0.418 -0.915,146.48 -0.242,148.234 0.321,0.837 1.771,0.985 9.657,0.985 h 9.28 V 96.507 c 0,-64.325 -0.036,-63.539 3.167,-69.818 3.635,-7.126 13.43,-11.525 17.619,-7.914 4.559,3.928 4.4,1.487 4.753,73.125 l 0.317,64.175 h 9.346 9.346 l 0.177,-59.502 C 297.869,34.908 297.668,28.511 295.332,21.585 290.97,8.656 280.509,2.881 268.257,6.64 m 58.386,65.167 c 0.245,71.962 0.055,68.612 4.35,76.67 6.538,12.266 26.632,13.506 36.8,2.27 3.92,-4.332 4.17,-4.248 4.17,1.398 v 4.275 l 9.19,-0.173 9.19,-0.172 0.158,-74.611 0.158,-74.61 h -9.323 -9.323 l -0.187,63.084 c -0.204,69.376 0.014,65.467 -3.947,70.66 -5.041,6.609 -16.326,7.794 -19.309,2.028 -2.662,-5.149 -2.776,-8.152 -2.776,-73.522 V 6.854 h -9.686 -9.687 l 0.222,64.953 M 180.535,16.302 c 3.527,2.174 7.284,10.13 9.16,19.399 2.285,11.282 4.331,33.833 3.968,43.738 l -0.205,5.608 -15.888,0.175 c -8.738,0.096 -16.562,0.01 -17.387,-0.192 l -1.498,-0.367 0.392,-15.385 c 1.044,-40.865 9.048,-60.626 21.458,-52.976"
       id="path1121"
       inkscape:connector-curvature="0"
       style="fill:#151621;fill-opacity:1;fill-rule:evenodd;stroke:none" />
  </g>
  <g
     transform="matrix(0.17207959,0,0,0.17207959,1.321159,1.5860839)"
     id="g1127"
     style="fill:#151621;fill-opacity:1">
    <path
       style="fill:#151621;fill-opacity:1;fill-rule:evenodd;stroke:none"
       inkscape:connector-curvature="0"
       id="path1125"
       d="m 169.047,5.288 c -13.114,3.206 -22.699,15.606 -27.217,35.21 -2.025,8.786 -2.31,10.645 -3.199,20.873 -3.639,41.848 3.542,78.019 17.941,90.359 5.89,5.05 9.61,6.216 19.752,6.196 19.483,-0.04 33.66,-8.151 34.406,-19.684 l 0.173,-2.689 -5.607,-2.264 c -6.128,-2.474 -6.542,-2.487 -6.542,-0.206 0,3.243 -3.723,8.273 -8.1,10.946 -5.468,3.339 -17.78,4.584 -20.556,2.078 -5.787,-5.224 -9.728,-21.118 -10.929,-44.082 l -0.416,-7.944 h 27.062 c 14.884,0 27.178,-0.116 27.321,-0.258 1.176,-1.171 -1.217,-35.428 -3.202,-45.848 C 203.761,15.576 189.191,0.364 169.047,5.288 M 38.808,6.853 c -4.561,1.622 -8.616,4.585 -11.204,8.187 -2.744,3.82 -2.945,3.62 -2.972,-2.954 L 24.611,6.787 15.265,6.784 5.919,6.78 v 74.648 74.647 h 9.346 9.346 L 24.922,94.081 C 25.164,45.918 25.41,31.67 26.025,30.218 29.4,22.25 33.149,18.66 39.087,17.711 c 4.372,-0.699 6.715,1.792 8.361,8.888 0.472,2.036 0.817,23.256 1.078,66.236 l 0.384,63.24 h 9.345 9.346 l 0.316,-61.682 c 0.22,-42.909 0.526,-62.257 1.007,-63.57 3.646,-9.947 13.866,-16.593 18.631,-12.117 4.862,4.568 5.277,10.937 5.278,81.138 l 0.002,56.542 h 9.346 9.345 L 111.513,93.925 C 111.498,24.335 111.566,25.54 107.188,16.867 99.057,0.759 76.572,2.279 68.025,19.515 66.502,22.587 65.592,23.147 65.062,21.34 61.424,8.926 50.278,2.775 38.808,6.853 M 268.257,6.64 c -4.78,1.467 -9.389,4.894 -12.618,9.383 -2.427,3.373 -2.68,3.013 -2.679,-3.822 V 6.542 l -9.038,0.121 c -4.97,0.066 -9.316,0.293 -9.657,0.504 -0.677,0.418 -0.915,146.48 -0.242,148.234 0.321,0.837 1.771,0.985 9.657,0.985 h 9.28 V 96.507 c 0,-64.325 -0.036,-63.539 3.167,-69.818 3.635,-7.126 13.43,-11.525 17.619,-7.914 4.559,3.928 4.4,1.487 4.753,73.125 l 0.317,64.175 h 9.346 9.346 l 0.177,-59.502 C 297.869,34.908 297.668,28.511 295.332,21.585 290.97,8.656 280.509,2.881 268.257,6.64 m 58.386,65.167 c 0.245,71.962 0.055,68.612 4.35,76.67 6.538,12.266 26.632,13.506 36.8,2.27 3.92,-4.332 4.17,-4.248 4.17,1.398 v 4.275 l 9.19,-0.173 9.19,-0.172 0.158,-74.611 0.158,-74.61 h -9.323 -9.323 l -0.187,63.084 c -0.204,69.376 0.014,65.467 -3.947,70.66 -5.041,6.609 -16.326,7.794 -19.309,2.028 -2.662,-5.149 -2.776,-8.152 -2.776,-73.522 V 6.854 h -9.686 -9.687 l 0.222,64.953 M 180.535,16.302 c 3.527,2.174 7.284,10.13 9.16,19.399 2.285,11.282 4.331,33.833 3.968,43.738 l -0.205,5.608 -15.888,0.175 c -8.738,0.096 -16.562,0.01 -17.387,-0.192 l -1.498,-0.367 0.392,-15.385 c 1.044,-40.865 9.048,-60.626 21.458,-52.976" />
  </g>
  <g
     style="fill:#151621;fill-opacity:1"
     transform="matrix(0.17207959,0,0,0.17207959,0.8532195,2.054022)"
     id="g1131">
    <path
       style="fill:#151621;fill-opacity:1;fill-rule:evenodd;stroke:none"
       inkscape:connector-curvature="0"
       id="path1129"
       d="m 169.047,5.288 c -13.114,3.206 -22.699,15.606 -27.217,35.21 -2.025,8.786 -2.31,10.645 -3.199,20.873 -3.639,41.848 3.542,78.019 17.941,90.359 5.89,5.05 9.61,6.216 19.752,6.196 19.483,-0.04 33.66,-8.151 34.406,-19.684 l 0.173,-2.689 -5.607,-2.264 c -6.128,-2.474 -6.542,-2.487 -6.542,-0.206 0,3.243 -3.723,8.273 -8.1,10.946 -5.468,3.339 -17.78,4.584 -20.556,2.078 -5.787,-5.224 -9.728,-21.118 -10.929,-44.082 l -0.416,-7.944 h 27.062 c 14.884,0 27.178,-0.116 27.321,-0.258 1.176,-1.171 -1.217,-35.428 -3.202,-45.848 C 203.761,15.576 189.191,0.364 169.047,5.288 M 38.808,6.853 c -4.561,1.622 -8.616,4.585 -11.204,8.187 -2.744,3.82 -2.945,3.62 -2.972,-2.954 L 24.611,6.787 15.265,6.784 5.919,6.78 v 74.648 74.647 h 9.346 9.346 L 24.922,94.081 C 25.164,45.918 25.41,31.67 26.025,30.218 29.4,22.25 33.149,18.66 39.087,17.711 c 4.372,-0.699 6.715,1.792 8.361,8.888 0.472,2.036 0.817,23.256 1.078,66.236 l 0.384,63.24 h 9.345 9.346 l 0.316,-61.682 c 0.22,-42.909 0.526,-62.257 1.007,-63.57 3.646,-9.947 13.866,-16.593 18.631,-12.117 4.862,4.568 5.277,10.937 5.278,81.138 l 0.002,56.542 h 9.346 9.345 L 111.513,93.925 C 111.498,24.335 111.566,25.54 107.188,16.867 99.057,0.759 76.572,2.279 68.025,19.515 66.502,22.587 65.592,23.147 65.062,21.34 61.424,8.926 50.278,2.775 38.808,6.853 M 268.257,6.64 c -4.78,1.467 -9.389,4.894 -12.618,9.383 -2.427,3.373 -2.68,3.013 -2.679,-3.822 V 6.542 l -9.038,0.121 c -4.97,0.066 -9.316,0.293 -9.657,0.504 -0.677,0.418 -0.915,146.48 -0.242,148.234 0.321,0.837 1.771,0.985 9.657,0.985 h 9.28 V 96.507 c 0,-64.325 -0.036,-63.539 3.167,-69.818 3.635,-7.126 13.43,-11.525 17.619,-7.914 4.559,3.928 4.4,1.487 4.753,73.125 l 0.317,64.175 h 9.346 9.346 l 0.177,-59.502 C 297.869,34.908 297.668,28.511 295.332,21.585 290.97,8.656 280.509,2.881 268.257,6.64 m 58.386,65.167 c 0.245,71.962 0.055,68.612 4.35,76.67 6.538,12.266 26.632,13.506 36.8,2.27 3.92,-4.332 4.17,-4.248 4.17,1.398 v 4.275 l 9.19,-0.173 9.19,-0.172 0.158,-74.611 0.158,-74.61 h -9.323 -9.323 l -0.187,63.084 c -0.204,69.376 0.014,65.467 -3.947,70.66 -5.041,6.609 -16.326,7.794 -19.309,2.028 -2.662,-5.149 -2.776,-8.152 -2.776,-73.522 V 6.854 h -9.686 -9.687 l 0.222,64.953 M 180.535,16.302 c 3.527,2.174 7.284,10.13 9.16,19.399 2.285,11.282 4.331,33.833 3.968,43.738 l -0.205,5.608 -15.888,0.175 c -8.738,0.096 -16.562,0.01 -17.387,-0.192 l -1.498,-0.367 0.392,-15.385 c 1.044,-40.865 9.048,-60.626 21.458,-52.976" />
  </g>
  <g
     style="fill:#151621;fill-opacity:1"
     id="g1135"
     transform="matrix(0.17207959,0,0,0.17207959,0.61924972,2.2879965)">
    <path
       d="m 169.047,5.288 c -13.114,3.206 -22.699,15.606 -27.217,35.21 -2.025,8.786 -2.31,10.645 -3.199,20.873 -3.639,41.848 3.542,78.019 17.941,90.359 5.89,5.05 9.61,6.216 19.752,6.196 19.483,-0.04 33.66,-8.151 34.406,-19.684 l 0.173,-2.689 -5.607,-2.264 c -6.128,-2.474 -6.542,-2.487 -6.542,-0.206 0,3.243 -3.723,8.273 -8.1,10.946 -5.468,3.339 -17.78,4.584 -20.556,2.078 -5.787,-5.224 -9.728,-21.118 -10.929,-44.082 l -0.416,-7.944 h 27.062 c 14.884,0 27.178,-0.116 27.321,-0.258 1.176,-1.171 -1.217,-35.428 -3.202,-45.848 C 203.761,15.576 189.191,0.364 169.047,5.288 M 38.808,6.853 c -4.561,1.622 -8.616,4.585 -11.204,8.187 -2.744,3.82 -2.945,3.62 -2.972,-2.954 L 24.611,6.787 15.265,6.784 5.919,6.78 v 74.648 74.647 h 9.346 9.346 L 24.922,94.081 C 25.164,45.918 25.41,31.67 26.025,30.218 29.4,22.25 33.149,18.66 39.087,17.711 c 4.372,-0.699 6.715,1.792 8.361,8.888 0.472,2.036 0.817,23.256 1.078,66.236 l 0.384,63.24 h 9.345 9.346 l 0.316,-61.682 c 0.22,-42.909 0.526,-62.257 1.007,-63.57 3.646,-9.947 13.866,-16.593 18.631,-12.117 4.862,4.568 5.277,10.937 5.278,81.138 l 0.002,56.542 h 9.346 9.345 L 111.513,93.925 C 111.498,24.335 111.566,25.54 107.188,16.867 99.057,0.759 76.572,2.279 68.025,19.515 66.502,22.587 65.592,23.147 65.062,21.34 61.424,8.926 50.278,2.775 38.808,6.853 M 268.257,6.64 c -4.78,1.467 -9.389,4.894 -12.618,9.383 -2.427,3.373 -2.68,3.013 -2.679,-3.822 V 6.542 l -9.038,0.121 c -4.97,0.066 -9.316,0.293 -9.657,0.504 -0.677,0.418 -0.915,146.48 -0.242,148.234 0.321,0.837 1.771,0.985 9.657,0.985 h 9.28 V 96.507 c 0,-64.325 -0.036,-63.539 3.167,-69.818 3.635,-7.126 13.43,-11.525 17.619,-7.914 4.559,3.928 4.4,1.487 4.753,73.125 l 0.317,64.175 h 9.346 9.346 l 0.177,-59.502 C 297.869,34.908 297.668,28.511 295.332,21.585 290.97,8.656 280.509,2.881 268.257,6.64 m 58.386,65.167 c 0.245,71.962 0.055,68.612 4.35,76.67 6.538,12.266 26.632,13.506 36.8,2.27 3.92,-4.332 4.17,-4.248 4.17,1.398 v 4.275 l 9.19,-0.173 9.19,-0.172 0.158,-74.611 0.158,-74.61 h -9.323 -9.323 l -0.187,63.084 c -0.204,69.376 0.014,65.467 -3.947,70.66 -5.041,6.609 -16.326,7.794 -19.309,2.028 -2.662,-5.149 -2.776,-8.152 -2.776,-73.522 V 6.854 h -9.686 -9.687 l 0.222,64.953 M 180.535,16.302 c 3.527,2.174 7.284,10.13 9.16,19.399 2.285,11.282 4.331,33.833 3.968,43.738 l -0.205,5.608 -15.888,0.175 c -8.738,0.096 -16.562,0.01 -17.387,-0.192 l -1.498,-0.367 0.392,-15.385 c 1.044,-40.865 9.048,-60.626 21.458,-52.976"
       id="path1133"
       inkscape:connector-curvature="0"
       style="fill:#151621;fill-opacity:1;fill-rule:evenodd;stroke:none" />
  </g>
  <g
     style="fill:#151621;fill-opacity:1"
     transform="matrix(0.17207959,0,0,0.17207959,-0.31662962,3.2238711)"
     id="g1139">
    <path
       style="fill:#151621;fill-opacity:1;fill-rule:evenodd;stroke:none"
       inkscape:connector-curvature="0"
       id="path1137"
       d="m 169.047,5.288 c -13.114,3.206 -22.699,15.606 -27.217,35.21 -2.025,8.786 -2.31,10.645 -3.199,20.873 -3.639,41.848 3.542,78.019 17.941,90.359 5.89,5.05 9.61,6.216 19.752,6.196 19.483,-0.04 33.66,-8.151 34.406,-19.684 l 0.173,-2.689 -5.607,-2.264 c -6.128,-2.474 -6.542,-2.487 -6.542,-0.206 0,3.243 -3.723,8.273 -8.1,10.946 -5.468,3.339 -17.78,4.584 -20.556,2.078 -5.787,-5.224 -9.728,-21.118 -10.929,-44.082 l -0.416,-7.944 h 27.062 c 14.884,0 27.178,-0.116 27.321,-0.258 1.176,-1.171 -1.217,-35.428 -3.202,-45.848 C 203.761,15.576 189.191,0.364 169.047,5.288 M 38.808,6.853 c -4.561,1.622 -8.616,4.585 -11.204,8.187 -2.744,3.82 -2.945,3.62 -2.972,-2.954 L 24.611,6.787 15.265,6.784 5.919,6.78 v 74.648 74.647 h 9.346 9.346 L 24.922,94.081 C 25.164,45.918 25.41,31.67 26.025,30.218 29.4,22.25 33.149,18.66 39.087,17.711 c 4.372,-0.699 6.715,1.792 8.361,8.888 0.472,2.036 0.817,23.256 1.078,66.236 l 0.384,63.24 h 9.345 9.346 l 0.316,-61.682 c 0.22,-42.909 0.526,-62.257 1.007,-63.57 3.646,-9.947 13.866,-16.593 18.631,-12.117 4.862,4.568 5.277,10.937 5.278,81.138 l 0.002,56.542 h 9.346 9.345 L 111.513,93.925 C 111.498,24.335 111.566,25.54 107.188,16.867 99.057,0.759 76.572,2.279 68.025,19.515 66.502,22.587 65.592,23.147 65.062,21.34 61.424,8.926 50.278,2.775 38.808,6.853 M 268.257,6.64 c -4.78,1.467 -9.389,4.894 -12.618,9.383 -2.427,3.373 -2.68,3.013 -2.679,-3.822 V 6.542 l -9.038,0.121 c -4.97,0.066 -9.316,0.293 -9.657,0.504 -0.677,0.418 -0.915,146.48 -0.242,148.234 0.321,0.837 1.771,0.985 9.657,0.985 h 9.28 V 96.507 c 0,-64.325 -0.036,-63.539 3.167,-69.818 3.635,-7.126 13.43,-11.525 17.619,-7.914 4.559,3.928 4.4,1.487 4.753,73.125 l 0.317,64.175 h 9.346 9.346 l 0.177,-59.502 C 297.869,34.908 297.668,28.511 295.332,21.585 290.97,8.656 280.509,2.881 268.257,6.64 m 58.386,65.167 c 0.245,71.962 0.055,68.612 4.35,76.67 6.538,12.266 26.632,13.506 36.8,2.27 3.92,-4.332 4.17,-4.248 4.17,1.398 v 4.275 l 9.19,-0.173 9.19,-0.172 0.158,-74.611 0.158,-74.61 h -9.323 -9.323 l -0.187,63.084 c -0.204,69.376 0.014,65.467 -3.947,70.66 -5.041,6.609 -16.326,7.794 -19.309,2.028 -2.662,-5.149 -2.776,-8.152 -2.776,-73.522 V 6.854 h -9.686 -9.687 l 0.222,64.953 M 180.535,16.302 c 3.527,2.174 7.284,10.13 9.16,19.399 2.285,11.282 4.331,33.833 3.968,43.738 l -0.205,5.608 -15.888,0.175 c -8.738,0.096 -16.562,0.01 -17.387,-0.192 l -1.498,-0.367 0.392,-15.385 c 1.044,-40.865 9.048,-60.626 21.458,-52.976" />
  </g>
  <g
     style="fill:#151621;fill-opacity:1"
     id="g1143"
     transform="matrix(0.17207959,0,0,0.17207959,-0.78456924,3.6918107)">
    <path
       d="m 169.047,5.288 c -13.114,3.206 -22.699,15.606 -27.217,35.21 -2.025,8.786 -2.31,10.645 -3.199,20.873 -3.639,41.848 3.542,78.019 17.941,90.359 5.89,5.05 9.61,6.216 19.752,6.196 19.483,-0.04 33.66,-8.151 34.406,-19.684 l 0.173,-2.689 -5.607,-2.264 c -6.128,-2.474 -6.542,-2.487 -6.542,-0.206 0,3.243 -3.723,8.273 -8.1,10.946 -5.468,3.339 -17.78,4.584 -20.556,2.078 -5.787,-5.224 -9.728,-21.118 -10.929,-44.082 l -0.416,-7.944 h 27.062 c 14.884,0 27.178,-0.116 27.321,-0.258 1.176,-1.171 -1.217,-35.428 -3.202,-45.848 C 203.761,15.576 189.191,0.364 169.047,5.288 M 38.808,6.853 c -4.561,1.622 -8.616,4.585 -11.204,8.187 -2.744,3.82 -2.945,3.62 -2.972,-2.954 L 24.611,6.787 15.265,6.784 5.919,6.78 v 74.648 74.647 h 9.346 9.346 L 24.922,94.081 C 25.164,45.918 25.41,31.67 26.025,30.218 29.4,22.25 33.149,18.66 39.087,17.711 c 4.372,-0.699 6.715,1.792 8.361,8.888 0.472,2.036 0.817,23.256 1.078,66.236 l 0.384,63.24 h 9.345 9.346 l 0.316,-61.682 c 0.22,-42.909 0.526,-62.257 1.007,-63.57 3.646,-9.947 13.866,-16.593 18.631,-12.117 4.862,4.568 5.277,10.937 5.278,81.138 l 0.002,56.542 h 9.346 9.345 L 111.513,93.925 C 111.498,24.335 111.566,25.54 107.188,16.867 99.057,0.759 76.572,2.279 68.025,19.515 66.502,22.587 65.592,23.147 65.062,21.34 61.424,8.926 50.278,2.775 38.808,6.853 M 268.257,6.64 c -4.78,1.467 -9.389,4.894 -12.618,9.383 -2.427,3.373 -2.68,3.013 -2.679,-3.822 V 6.542 l -9.038,0.121 c -4.97,0.066 -9.316,0.293 -9.657,0.504 -0.677,0.418 -0.915,146.48 -0.242,148.234 0.321,0.837 1.771,0.985 9.657,0.985 h 9.28 V 96.507 c 0,-64.325 -0.036,-63.539 3.167,-69.818 3.635,-7.126 13.43,-11.525 17.619,-7.914 4.559,3.928 4.4,1.487 4.753,73.125 l 0.317,64.175 h 9.346 9.346 l 0.177,-59.502 C 297.869,34.908 297.668,28.511 295.332,21.585 290.97,8.656 280.509,2.881 268.257,6.64 m 58.386,65.167 c 0.245,71.962 0.055,68.612 4.35,76.67 6.538,12.266 26.632,13.506 36.8,2.27 3.92,-4.332 4.17,-4.248 4.17,1.398 v 4.275 l 9.19,-0.173 9.19,-0.172 0.158,-74.611 0.158,-74.61 h -9.323 -9.323 l -0.187,63.084 c -0.204,69.376 0.014,65.467 -3.947,70.66 -5.041,6.609 -16.326,7.794 -19.309,2.028 -2.662,-5.149 -2.776,-8.152 -2.776,-73.522 V 6.854 h -9.686 -9.687 l 0.222,64.953 M 180.535,16.302 c 3.527,2.174 7.284,10.13 9.16,19.399 2.285,11.282 4.331,33.833 3.968,43.738 l -0.205,5.608 -15.888,0.175 c -8.738,0.096 -16.562,0.01 -17.387,-0.192 l -1.498,-0.367 0.392,-15.385 c 1.044,-40.865 9.048,-60.626 21.458,-52.976"
       id="path1141"
       inkscape:connector-curvature="0"
       style="fill:#151621;fill-opacity:1;fill-rule:evenodd;stroke:none" />
  </g>
  <g
     transform="matrix(0.17207959,0,0,0.17207959,2.4910081,0.41623334)"
     id="g1147"
     style="fill:#151621;fill-opacity:1">
    <path
       style="fill:#151621;fill-opacity:1;fill-rule:evenodd;stroke:none"
       inkscape:connector-curvature="0"
       id="path1145"
       d="m 169.047,5.288 c -13.114,3.206 -22.699,15.606 -27.217,35.21 -2.025,8.786 -2.31,10.645 -3.199,20.873 -3.639,41.848 3.542,78.019 17.941,90.359 5.89,5.05 9.61,6.216 19.752,6.196 19.483,-0.04 33.66,-8.151 34.406,-19.684 l 0.173,-2.689 -5.607,-2.264 c -6.128,-2.474 -6.542,-2.487 -6.542,-0.206 0,3.243 -3.723,8.273 -8.1,10.946 -5.468,3.339 -17.78,4.584 -20.556,2.078 -5.787,-5.224 -9.728,-21.118 -10.929,-44.082 l -0.416,-7.944 h 27.062 c 14.884,0 27.178,-0.116 27.321,-0.258 1.176,-1.171 -1.217,-35.428 -3.202,-45.848 C 203.761,15.576 189.191,0.364 169.047,5.288 M 38.808,6.853 c -4.561,1.622 -8.616,4.585 -11.204,8.187 -2.744,3.82 -2.945,3.62 -2.972,-2.954 L 24.611,6.787 15.265,6.784 5.919,6.78 v 74.648 74.647 h 9.346 9.346 L 24.922,94.081 C 25.164,45.918 25.41,31.67 26.025,30.218 29.4,22.25 33.149,18.66 39.087,17.711 c 4.372,-0.699 6.715,1.792 8.361,8.888 0.472,2.036 0.817,23.256 1.078,66.236 l 0.384,63.24 h 9.345 9.346 l 0.316,-61.682 c 0.22,-42.909 0.526,-62.257 1.007,-63.57 3.646,-9.947 13.866,-16.593 18.631,-12.117 4.862,4.568 5.277,10.937 5.278,81.138 l 0.002,56.542 h 9.346 9.345 L 111.513,93.925 C 111.498,24.335 111.566,25.54 107.188,16.867 99.057,0.759 76.572,2.279 68.025,19.515 66.502,22.587 65.592,23.147 65.062,21.34 61.424,8.926 50.278,2.775 38.808,6.853 M 268.257,6.64 c -4.78,1.467 -9.389,4.894 -12.618,9.383 -2.427,3.373 -2.68,3.013 -2.679,-3.822 V 6.542 l -9.038,0.121 c -4.97,0.066 -9.316,0.293 -9.657,0.504 -0.677,0.418 -0.915,146.48 -0.242,148.234 0.321,0.837 1.771,0.985 9.657,0.985 h 9.28 V 96.507 c 0,-64.325 -0.036,-63.539 3.167,-69.818 3.635,-7.126 13.43,-11.525 17.619,-7.914 4.559,3.928 4.4,1.487 4.753,73.125 l 0.317,64.175 h 9.346 9.346 l 0.177,-59.502 C 297.869,34.908 297.668,28.511 295.332,21.585 290.97,8.656 280.509,2.881 268.257,6.64 m 58.386,65.167 c 0.245,71.962 0.055,68.612 4.35,76.67 6.538,12.266 26.632,13.506 36.8,2.27 3.92,-4.332 4.17,-4.248 4.17,1.398 v 4.275 l 9.19,-0.173 9.19,-0.172 0.158,-74.611 0.158,-74.61 h -9.323 -9.323 l -0.187,63.084 c -0.204,69.376 0.014,65.467 -3.947,70.66 -5.041,6.609 -16.326,7.794 -19.309,2.028 -2.662,-5.149 -2.776,-8.152 -2.776,-73.522 V 6.854 h -9.686 -9.687 l 0.222,64.953 M 180.535,16.302 c 3.527,2.174 7.284,10.13 9.16,19.399 2.285,11.282 4.331,33.833 3.968,43.738 l -0.205,5.608 -15.888,0.175 c -8.738,0.096 -16.562,0.01 -17.387,-0.192 l -1.498,-0.367 0.392,-15.385 c 1.044,-40.865 9.048,-60.626 21.458,-52.976" />
  </g>
  <g
     style="fill:#151621;fill-opacity:1"
     id="g1151"
     transform="matrix(0.17207959,0,0,0.17207959,3.4268875,-0.51964435)">
    <path
       d="m 169.047,5.288 c -13.114,3.206 -22.699,15.606 -27.217,35.21 -2.025,8.786 -2.31,10.645 -3.199,20.873 -3.639,41.848 3.542,78.019 17.941,90.359 5.89,5.05 9.61,6.216 19.752,6.196 19.483,-0.04 33.66,-8.151 34.406,-19.684 l 0.173,-2.689 -5.607,-2.264 c -6.128,-2.474 -6.542,-2.487 -6.542,-0.206 0,3.243 -3.723,8.273 -8.1,10.946 -5.468,3.339 -17.78,4.584 -20.556,2.078 -5.787,-5.224 -9.728,-21.118 -10.929,-44.082 l -0.416,-7.944 h 27.062 c 14.884,0 27.178,-0.116 27.321,-0.258 1.176,-1.171 -1.217,-35.428 -3.202,-45.848 C 203.761,15.576 189.191,0.364 169.047,5.288 M 38.808,6.853 c -4.561,1.622 -8.616,4.585 -11.204,8.187 -2.744,3.82 -2.945,3.62 -2.972,-2.954 L 24.611,6.787 15.265,6.784 5.919,6.78 v 74.648 74.647 h 9.346 9.346 L 24.922,94.081 C 25.164,45.918 25.41,31.67 26.025,30.218 29.4,22.25 33.149,18.66 39.087,17.711 c 4.372,-0.699 6.715,1.792 8.361,8.888 0.472,2.036 0.817,23.256 1.078,66.236 l 0.384,63.24 h 9.345 9.346 l 0.316,-61.682 c 0.22,-42.909 0.526,-62.257 1.007,-63.57 3.646,-9.947 13.866,-16.593 18.631,-12.117 4.862,4.568 5.277,10.937 5.278,81.138 l 0.002,56.542 h 9.346 9.345 L 111.513,93.925 C 111.498,24.335 111.566,25.54 107.188,16.867 99.057,0.759 76.572,2.279 68.025,19.515 66.502,22.587 65.592,23.147 65.062,21.34 61.424,8.926 50.278,2.775 38.808,6.853 M 268.257,6.64 c -4.78,1.467 -9.389,4.894 -12.618,9.383 -2.427,3.373 -2.68,3.013 -2.679,-3.822 V 6.542 l -9.038,0.121 c -4.97,0.066 -9.316,0.293 -9.657,0.504 -0.677,0.418 -0.915,146.48 -0.242,148.234 0.321,0.837 1.771,0.985 9.657,0.985 h 9.28 V 96.507 c 0,-64.325 -0.036,-63.539 3.167,-69.818 3.635,-7.126 13.43,-11.525 17.619,-7.914 4.559,3.928 4.4,1.487 4.753,73.125 l 0.317,64.175 h 9.346 9.346 l 0.177,-59.502 C 297.869,34.908 297.668,28.511 295.332,21.585 290.97,8.656 280.509,2.881 268.257,6.64 m 58.386,65.167 c 0.245,71.962 0.055,68.612 4.35,76.67 6.538,12.266 26.632,13.506 36.8,2.27 3.92,-4.332 4.17,-4.248 4.17,1.398 v 4.275 l 9.19,-0.173 9.19,-0.172 0.158,-74.611 0.158,-74.61 h -9.323 -9.323 l -0.187,63.084 c -0.204,69.376 0.014,65.467 -3.947,70.66 -5.041,6.609 -16.326,7.794 -19.309,2.028 -2.662,-5.149 -2.776,-8.152 -2.776,-73.522 V 6.854 h -9.686 -9.687 l 0.222,64.953 M 180.535,16.302 c 3.527,2.174 7.284,10.13 9.16,19.399 2.285,11.282 4.331,33.833 3.968,43.738 l -0.205,5.608 -15.888,0.175 c -8.738,0.096 -16.562,0.01 -17.387,-0.192 l -1.498,-0.367 0.392,-15.385 c 1.044,-40.865 9.048,-60.626 21.458,-52.976"
       id="path1149"
       inkscape:connector-curvature="0"
       style="fill:#151621;fill-opacity:1;fill-rule:evenodd;stroke:none" />
  </g>
  <g
     transform="matrix(0.17207959,0,0,0.17207959,0.15130999,2.7559346)"
     id="g1155"
     style="fill:#151621;fill-opacity:1">
    <path
       style="fill:#151621;fill-opacity:1;fill-rule:evenodd;stroke:none"
       inkscape:connector-curvature="0"
       id="path1153"
       d="m 169.047,5.288 c -13.114,3.206 -22.699,15.606 -27.217,35.21 -2.025,8.786 -2.31,10.645 -3.199,20.873 -3.639,41.848 3.542,78.019 17.941,90.359 5.89,5.05 9.61,6.216 19.752,6.196 19.483,-0.04 33.66,-8.151 34.406,-19.684 l 0.173,-2.689 -5.607,-2.264 c -6.128,-2.474 -6.542,-2.487 -6.542,-0.206 0,3.243 -3.723,8.273 -8.1,10.946 -5.468,3.339 -17.78,4.584 -20.556,2.078 -5.787,-5.224 -9.728,-21.118 -10.929,-44.082 l -0.416,-7.944 h 27.062 c 14.884,0 27.178,-0.116 27.321,-0.258 1.176,-1.171 -1.217,-35.428 -3.202,-45.848 C 203.761,15.576 189.191,0.364 169.047,5.288 M 38.808,6.853 c -4.561,1.622 -8.616,4.585 -11.204,8.187 -2.744,3.82 -2.945,3.62 -2.972,-2.954 L 24.611,6.787 15.265,6.784 5.919,6.78 v 74.648 74.647 h 9.346 9.346 L 24.922,94.081 C 25.164,45.918 25.41,31.67 26.025,30.218 29.4,22.25 33.149,18.66 39.087,17.711 c 4.372,-0.699 6.715,1.792 8.361,8.888 0.472,2.036 0.817,23.256 1.078,66.236 l 0.384,63.24 h 9.345 9.346 l 0.316,-61.682 c 0.22,-42.909 0.526,-62.257 1.007,-63.57 3.646,-9.947 13.866,-16.593 18.631,-12.117 4.862,4.568 5.277,10.937 5.278,81.138 l 0.002,56.542 h 9.346 9.345 L 111.513,93.925 C 111.498,24.335 111.566,25.54 107.188,16.867 99.057,0.759 76.572,2.279 68.025,19.515 66.502,22.587 65.592,23.147 65.062,21.34 61.424,8.926 50.278,2.775 38.808,6.853 M 268.257,6.64 c -4.78,1.467 -9.389,4.894 -12.618,9.383 -2.427,3.373 -2.68,3.013 -2.679,-3.822 V 6.542 l -9.038,0.121 c -4.97,0.066 -9.316,0.293 -9.657,0.504 -0.677,0.418 -0.915,146.48 -0.242,148.234 0.321,0.837 1.771,0.985 9.657,0.985 h 9.28 V 96.507 c 0,-64.325 -0.036,-63.539 3.167,-69.818 3.635,-7.126 13.43,-11.525 17.619,-7.914 4.559,3.928 4.4,1.487 4.753,73.125 l 0.317,64.175 h 9.346 9.346 l 0.177,-59.502 C 297.869,34.908 297.668,28.511 295.332,21.585 290.97,8.656 280.509,2.881 268.257,6.64 m 58.386,65.167 c 0.245,71.962 0.055,68.612 4.35,76.67 6.538,12.266 26.632,13.506 36.8,2.27 3.92,-4.332 4.17,-4.248 4.17,1.398 v 4.275 l 9.19,-0.173 9.19,-0.172 0.158,-74.611 0.158,-74.61 h -9.323 -9.323 l -0.187,63.084 c -0.204,69.376 0.014,65.467 -3.947,70.66 -5.041,6.609 -16.326,7.794 -19.309,2.028 -2.662,-5.149 -2.776,-8.152 -2.776,-73.522 V 6.854 h -9.686 -9.687 l 0.222,64.953 M 180.535,16.302 c 3.527,2.174 7.284,10.13 9.16,19.399 2.285,11.282 4.331,33.833 3.968,43.738 l -0.205,5.608 -15.888,0.175 c -8.738,0.096 -16.562,0.01 -17.387,-0.192 l -1.498,-0.367 0.392,-15.385 c 1.044,-40.865 9.048,-60.626 21.458,-52.976" />
  </g>
  <g
     style="fill:#151621;fill-opacity:1"
     id="g1159"
     transform="matrix(0.17207959,0,0,0.17207959,2.958948,-0.05170473)">
    <path
       d="m 169.047,5.288 c -13.114,3.206 -22.699,15.606 -27.217,35.21 -2.025,8.786 -2.31,10.645 -3.199,20.873 -3.639,41.848 3.542,78.019 17.941,90.359 5.89,5.05 9.61,6.216 19.752,6.196 19.483,-0.04 33.66,-8.151 34.406,-19.684 l 0.173,-2.689 -5.607,-2.264 c -6.128,-2.474 -6.542,-2.487 -6.542,-0.206 0,3.243 -3.723,8.273 -8.1,10.946 -5.468,3.339 -17.78,4.584 -20.556,2.078 -5.787,-5.224 -9.728,-21.118 -10.929,-44.082 l -0.416,-7.944 h 27.062 c 14.884,0 27.178,-0.116 27.321,-0.258 1.176,-1.171 -1.217,-35.428 -3.202,-45.848 C 203.761,15.576 189.191,0.364 169.047,5.288 M 38.808,6.853 c -4.561,1.622 -8.616,4.585 -11.204,8.187 -2.744,3.82 -2.945,3.62 -2.972,-2.954 L 24.611,6.787 15.265,6.784 5.919,6.78 v 74.648 74.647 h 9.346 9.346 L 24.922,94.081 C 25.164,45.918 25.41,31.67 26.025,30.218 29.4,22.25 33.149,18.66 39.087,17.711 c 4.372,-0.699 6.715,1.792 8.361,8.888 0.472,2.036 0.817,23.256 1.078,66.236 l 0.384,63.24 h 9.345 9.346 l 0.316,-61.682 c 0.22,-42.909 0.526,-62.257 1.007,-63.57 3.646,-9.947 13.866,-16.593 18.631,-12.117 4.862,4.568 5.277,10.937 5.278,81.138 l 0.002,56.542 h 9.346 9.345 L 111.513,93.925 C 111.498,24.335 111.566,25.54 107.188,16.867 99.057,0.759 76.572,2.279 68.025,19.515 66.502,22.587 65.592,23.147 65.062,21.34 61.424,8.926 50.278,2.775 38.808,6.853 M 268.257,6.64 c -4.78,1.467 -9.389,4.894 -12.618,9.383 -2.427,3.373 -2.68,3.013 -2.679,-3.822 V 6.542 l -9.038,0.121 c -4.97,0.066 -9.316,0.293 -9.657,0.504 -0.677,0.418 -0.915,146.48 -0.242,148.234 0.321,0.837 1.771,0.985 9.657,0.985 h 9.28 V 96.507 c 0,-64.325 -0.036,-63.539 3.167,-69.818 3.635,-7.126 13.43,-11.525 17.619,-7.914 4.559,3.928 4.4,1.487 4.753,73.125 l 0.317,64.175 h 9.346 9.346 l 0.177,-59.502 C 297.869,34.908 297.668,28.511 295.332,21.585 290.97,8.656 280.509,2.881 268.257,6.64 m 58.386,65.167 c 0.245,71.962 0.055,68.612 4.35,76.67 6.538,12.266 26.632,13.506 36.8,2.27 3.92,-4.332 4.17,-4.248 4.17,1.398 v 4.275 l 9.19,-0.173 9.19,-0.172 0.158,-74.611 0.158,-74.61 h -9.323 -9.323 l -0.187,63.084 c -0.204,69.376 0.014,65.467 -3.947,70.66 -5.041,6.609 -16.326,7.794 -19.309,2.028 -2.662,-5.149 -2.776,-8.152 -2.776,-73.522 V 6.854 h -9.686 -9.687 l 0.222,64.953 M 180.535,16.302 c 3.527,2.174 7.284,10.13 9.16,19.399 2.285,11.282 4.331,33.833 3.968,43.738 l -0.205,5.608 -15.888,0.175 c -8.738,0.096 -16.562,0.01 -17.387,-0.192 l -1.498,-0.367 0.392,-15.385 c 1.044,-40.865 9.048,-60.626 21.458,-52.976"
       id="path1157"
       inkscape:connector-curvature="0"
       style="fill:#151621;fill-opacity:1;fill-rule:evenodd;stroke:none" />
  </g>
  <g
     transform="matrix(0.17207959,0,0,0.17207959,2.0230685,0.88417296)"
     id="g1163"
     style="fill:#151621;fill-opacity:1">
    <path
       style="fill:#151621;fill-opacity:1;fill-rule:evenodd;stroke:none"
       inkscape:connector-curvature="0"
       id="path1161"
       d="m 169.047,5.288 c -13.114,3.206 -22.699,15.606 -27.217,35.21 -2.025,8.786 -2.31,10.645 -3.199,20.873 -3.639,41.848 3.542,78.019 17.941,90.359 5.89,5.05 9.61,6.216 19.752,6.196 19.483,-0.04 33.66,-8.151 34.406,-19.684 l 0.173,-2.689 -5.607,-2.264 c -6.128,-2.474 -6.542,-2.487 -6.542,-0.206 0,3.243 -3.723,8.273 -8.1,10.946 -5.468,3.339 -17.78,4.584 -20.556,2.078 -5.787,-5.224 -9.728,-21.118 -10.929,-44.082 l -0.416,-7.944 h 27.062 c 14.884,0 27.178,-0.116 27.321,-0.258 1.176,-1.171 -1.217,-35.428 -3.202,-45.848 C 203.761,15.576 189.191,0.364 169.047,5.288 M 38.808,6.853 c -4.561,1.622 -8.616,4.585 -11.204,8.187 -2.744,3.82 -2.945,3.62 -2.972,-2.954 L 24.611,6.787 15.265,6.784 5.919,6.78 v 74.648 74.647 h 9.346 9.346 L 24.922,94.081 C 25.164,45.918 25.41,31.67 26.025,30.218 29.4,22.25 33.149,18.66 39.087,17.711 c 4.372,-0.699 6.715,1.792 8.361,8.888 0.472,2.036 0.817,23.256 1.078,66.236 l 0.384,63.24 h 9.345 9.346 l 0.316,-61.682 c 0.22,-42.909 0.526,-62.257 1.007,-63.57 3.646,-9.947 13.866,-16.593 18.631,-12.117 4.862,4.568 5.277,10.937 5.278,81.138 l 0.002,56.542 h 9.346 9.345 L 111.513,93.925 C 111.498,24.335 111.566,25.54 107.188,16.867 99.057,0.759 76.572,2.279 68.025,19.515 66.502,22.587 65.592,23.147 65.062,21.34 61.424,8.926 50.278,2.775 38.808,6.853 M 268.257,6.64 c -4.78,1.467 -9.389,4.894 -12.618,9.383 -2.427,3.373 -2.68,3.013 -2.679,-3.822 V 6.542 l -9.038,0.121 c -4.97,0.066 -9.316,0.293 -9.657,0.504 -0.677,0.418 -0.915,146.48 -0.242,148.234 0.321,0.837 1.771,0.985 9.657,0.985 h 9.28 V 96.507 c 0,-64.325 -0.036,-63.539 3.167,-69.818 3.635,-7.126 13.43,-11.525 17.619,-7.914 4.559,3.928 4.4,1.487 4.753,73.125 l 0.317,64.175 h 9.346 9.346 l 0.177,-59.502 C 297.869,34.908 297.668,28.511 295.332,21.585 290.97,8.656 280.509,2.881 268.257,6.64 m 58.386,65.167 c 0.245,71.962 0.055,68.612 4.35,76.67 6.538,12.266 26.632,13.506 36.8,2.27 3.92,-4.332 4.17,-4.248 4.17,1.398 v 4.275 l 9.19,-0.173 9.19,-0.172 0.158,-74.611 0.158,-74.61 h -9.323 -9.323 l -0.187,63.084 c -0.204,69.376 0.014,65.467 -3.947,70.66 -5.041,6.609 -16.326,7.794 -19.309,2.028 -2.662,-5.149 -2.776,-8.152 -2.776,-73.522 V 6.854 h -9.686 -9.687 l 0.222,64.953 M 180.535,16.302 c 3.527,2.174 7.284,10.13 9.16,19.399 2.285,11.282 4.331,33.833 3.968,43.738 l -0.205,5.608 -15.888,0.175 c -8.738,0.096 -16.562,0.01 -17.387,-0.192 l -1.498,-0.367 0.392,-15.385 c 1.044,-40.865 9.048,-60.626 21.458,-52.976" />
  </g>
  <g
     style="fill:#151621;fill-opacity:1"
     id="g1167"
     transform="matrix(0.17207959,0,0,0.17207959,1.555129,1.3521141)">
    <path
       d="m 169.047,5.288 c -13.114,3.206 -22.699,15.606 -27.217,35.21 -2.025,8.786 -2.31,10.645 -3.199,20.873 -3.639,41.848 3.542,78.019 17.941,90.359 5.89,5.05 9.61,6.216 19.752,6.196 19.483,-0.04 33.66,-8.151 34.406,-19.684 l 0.173,-2.689 -5.607,-2.264 c -6.128,-2.474 -6.542,-2.487 -6.542,-0.206 0,3.243 -3.723,8.273 -8.1,10.946 -5.468,3.339 -17.78,4.584 -20.556,2.078 -5.787,-5.224 -9.728,-21.118 -10.929,-44.082 l -0.416,-7.944 h 27.062 c 14.884,0 27.178,-0.116 27.321,-0.258 1.176,-1.171 -1.217,-35.428 -3.202,-45.848 C 203.761,15.576 189.191,0.364 169.047,5.288 M 38.808,6.853 c -4.561,1.622 -8.616,4.585 -11.204,8.187 -2.744,3.82 -2.945,3.62 -2.972,-2.954 L 24.611,6.787 15.265,6.784 5.919,6.78 v 74.648 74.647 h 9.346 9.346 L 24.922,94.081 C 25.164,45.918 25.41,31.67 26.025,30.218 29.4,22.25 33.149,18.66 39.087,17.711 c 4.372,-0.699 6.715,1.792 8.361,8.888 0.472,2.036 0.817,23.256 1.078,66.236 l 0.384,63.24 h 9.345 9.346 l 0.316,-61.682 c 0.22,-42.909 0.526,-62.257 1.007,-63.57 3.646,-9.947 13.866,-16.593 18.631,-12.117 4.862,4.568 5.277,10.937 5.278,81.138 l 0.002,56.542 h 9.346 9.345 L 111.513,93.925 C 111.498,24.335 111.566,25.54 107.188,16.867 99.057,0.759 76.572,2.279 68.025,19.515 66.502,22.587 65.592,23.147 65.062,21.34 61.424,8.926 50.278,2.775 38.808,6.853 M 268.257,6.64 c -4.78,1.467 -9.389,4.894 -12.618,9.383 -2.427,3.373 -2.68,3.013 -2.679,-3.822 V 6.542 l -9.038,0.121 c -4.97,0.066 -9.316,0.293 -9.657,0.504 -0.677,0.418 -0.915,146.48 -0.242,148.234 0.321,0.837 1.771,0.985 9.657,0.985 h 9.28 V 96.507 c 0,-64.325 -0.036,-63.539 3.167,-69.818 3.635,-7.126 13.43,-11.525 17.619,-7.914 4.559,3.928 4.4,1.487 4.753,73.125 l 0.317,64.175 h 9.346 9.346 l 0.177,-59.502 C 297.869,34.908 297.668,28.511 295.332,21.585 290.97,8.656 280.509,2.881 268.257,6.64 m 58.386,65.167 c 0.245,71.962 0.055,68.612 4.35,76.67 6.538,12.266 26.632,13.506 36.8,2.27 3.92,-4.332 4.17,-4.248 4.17,1.398 v 4.275 l 9.19,-0.173 9.19,-0.172 0.158,-74.611 0.158,-74.61 h -9.323 -9.323 l -0.187,63.084 c -0.204,69.376 0.014,65.467 -3.947,70.66 -5.041,6.609 -16.326,7.794 -19.309,2.028 -2.662,-5.149 -2.776,-8.152 -2.776,-73.522 V 6.854 h -9.686 -9.687 l 0.222,64.953 M 180.535,16.302 c 3.527,2.174 7.284,10.13 9.16,19.399 2.285,11.282 4.331,33.833 3.968,43.738 l -0.205,5.608 -15.888,0.175 c -8.738,0.096 -16.562,0.01 -17.387,-0.192 l -1.498,-0.367 0.392,-15.385 c 1.044,-40.865 9.048,-60.626 21.458,-52.976"
       id="path1165"
       inkscape:connector-curvature="0"
       style="fill:#151621;fill-opacity:1;fill-rule:evenodd;stroke:none" />
  </g>
  <g
     transform="matrix(0.17207959,0,0,0.17207959,3.6608572,-0.75361572)"
     id="g997"
     style="fill:#d60080;fill-opacity:1">
    <path
       style="fill:#f00090;fill-opacity:1;fill-rule:evenodd;stroke:none"
       inkscape:connector-curvature="0"
       id="path995"
       d="m 169.047,5.288 c -13.114,3.206 -22.699,15.606 -27.217,35.21 -2.025,8.786 -2.31,10.645 -3.199,20.873 -3.639,41.848 3.542,78.019 17.941,90.359 5.89,5.05 9.61,6.216 19.752,6.196 19.483,-0.04 33.66,-8.151 34.406,-19.684 l 0.173,-2.689 -5.607,-2.264 c -6.128,-2.474 -6.542,-2.487 -6.542,-0.206 0,3.243 -3.723,8.273 -8.1,10.946 -5.468,3.339 -17.78,4.584 -20.556,2.078 -5.787,-5.224 -9.728,-21.118 -10.929,-44.082 l -0.416,-7.944 h 27.062 c 14.884,0 27.178,-0.116 27.321,-0.258 1.176,-1.171 -1.217,-35.428 -3.202,-45.848 C 203.761,15.576 189.191,0.364 169.047,5.288 M 38.808,6.853 c -4.561,1.622 -8.616,4.585 -11.204,8.187 -2.744,3.82 -2.945,3.62 -2.972,-2.954 L 24.611,6.787 15.265,6.784 5.919,6.78 v 74.648 74.647 h 9.346 9.346 L 24.922,94.081 C 25.164,45.918 25.41,31.67 26.025,30.218 29.4,22.25 33.149,18.66 39.087,17.711 c 4.372,-0.699 6.715,1.792 8.361,8.888 0.472,2.036 0.817,23.256 1.078,66.236 l 0.384,63.24 h 9.345 9.346 l 0.316,-61.682 c 0.22,-42.909 0.526,-62.257 1.007,-63.57 3.646,-9.947 13.866,-16.593 18.631,-12.117 4.862,4.568 5.277,10.937 5.278,81.138 l 0.002,56.542 h 9.346 9.345 L 111.513,93.925 C 111.498,24.335 111.566,25.54 107.188,16.867 99.057,0.759 76.572,2.279 68.025,19.515 66.502,22.587 65.592,23.147 65.062,21.34 61.424,8.926 50.278,2.775 38.808,6.853 M 268.257,6.64 c -4.78,1.467 -9.389,4.894 -12.618,9.383 -2.427,3.373 -2.68,3.013 -2.679,-3.822 V 6.542 l -9.038,0.121 c -4.97,0.066 -9.316,0.293 -9.657,0.504 -0.677,0.418 -0.915,146.48 -0.242,148.234 0.321,0.837 1.771,0.985 9.657,0.985 h 9.28 V 96.507 c 0,-64.325 -0.036,-63.539 3.167,-69.818 3.635,-7.126 13.43,-11.525 17.619,-7.914 4.559,3.928 4.4,1.487 4.753,73.125 l 0.317,64.175 h 9.346 9.346 l 0.177,-59.502 C 297.869,34.908 297.668,28.511 295.332,21.585 290.97,8.656 280.509,2.881 268.257,6.64 m 58.386,65.167 c 0.245,71.962 0.055,68.612 4.35,76.67 6.538,12.266 26.632,13.506 36.8,2.27 3.92,-4.332 4.17,-4.248 4.17,1.398 v 4.275 l 9.19,-0.173 9.19,-0.172 0.158,-74.611 0.158,-74.61 h -9.323 -9.323 l -0.187,63.084 c -0.204,69.376 0.014,65.467 -3.947,70.66 -5.041,6.609 -16.326,7.794 -19.309,2.028 -2.662,-5.149 -2.776,-8.152 -2.776,-73.522 V 6.854 h -9.686 -9.687 l 0.222,64.953 M 180.535,16.302 c 3.527,2.174 7.284,10.13 9.16,19.399 2.285,11.282 4.331,33.833 3.968,43.738 l -0.205,5.608 -15.888,0.175 c -8.738,0.096 -16.562,0.01 -17.387,-0.192 l -1.498,-0.367 0.392,-15.385 c 1.044,-40.865 9.048,-60.626 21.458,-52.976" />
  </g>
</svg>
