<?xml version="1.0" encoding="UTF-8" standalone="no"?>
<!-- Created with Inkscape (http://www.inkscape.org/) -->

<svg
   xmlns:dc="http://purl.org/dc/elements/1.1/"
   xmlns:cc="http://creativecommons.org/ns#"
   xmlns:rdf="http://www.w3.org/1999/02/22-rdf-syntax-ns#"
   xmlns:svg="http://www.w3.org/2000/svg"
   xmlns="http://www.w3.org/2000/svg"
   xmlns:sodipodi="http://sodipodi.sourceforge.net/DTD/sodipodi-0.dtd"
   xmlns:inkscape="http://www.inkscape.org/namespaces/inkscape"
   width="146.58627mm"
   height="98.714973mm"
   viewBox="0 0 146.58627 98.714973"
   version="1.1"
   id="svg8"
   inkscape:version="0.92.4 (5da689c313, 2019-01-14)"
   sodipodi:docname="title_shadow_lighter.svg">
  <defs
     id="defs2" />
  <sodipodi:namedview
     id="base"
     pagecolor="#3f5d69"
     bordercolor="#666666"
     borderopacity="1.0"
     inkscape:pageopacity="0"
     inkscape:pageshadow="2"
     inkscape:zoom="5.6"
     inkscape:cx="3.2923978"
     inkscape:cy="299.13431"
     inkscape:document-units="mm"
     inkscape:current-layer="layer1"
     showgrid="true"
     inkscape:snap-grids="true"
     inkscape:window-width="1920"
     inkscape:window-height="1017"
     inkscape:window-x="-8"
     inkscape:window-y="-8"
     inkscape:window-maximized="1">
    <inkscape:grid
       type="xygrid"
       id="grid837"
       originx="-128.28848"
       originy="-56.445517" />
  </sodipodi:namedview>
  <metadata
     id="metadata5">
    <rdf:RDF>
      <cc:Work
         rdf:about="">
        <dc:format>image/svg+xml</dc:format>
        <dc:type
           rdf:resource="http://purl.org/dc/dcmitype/StillImage" />
        <dc:title></dc:title>
      </cc:Work>
    </rdf:RDF>
  </metadata>
  <g
     inkscape:label="Layer 1"
     inkscape:groupmode="layer"
     id="layer1"
     transform="translate(-128.28848,-141.83951)">
    <g
       style="fill:#151621;fill-opacity:1;stroke:#151621;stroke-opacity:1"
       id="g848"
       transform="matrix(0.36651827,0,0,0.36651827,128.69065,141.44453)">
      <g
         style="fill:#151621;fill-opacity:1;stroke:#151621;stroke-opacity:1"
         id="g846">
        <path
           transform="matrix(0.81205919,0,0,0.72188306,-328.46566,-3.0382387)"
           d="m 361.197,10.261 c -0.916,2.161 -11.844,29.952 -16.588,42.182 -16.163,41.677 -18.695,47.883 -19.536,47.883 -0.41,0 -0.643,-7.684 -0.643,-21.173 V 57.98 h -15.528 -15.528 l -0.446,77.764 c -0.245,42.77 -0.262,78.242 -0.037,78.827 0.361,0.943 2.15,1.064 15.648,1.064 h 15.24 v -30.906 c 0,-16.998 0.248,-31.06 0.552,-31.248 0.777,-0.48 2.207,6.475 7.626,37.073 0.889,5.016 2.052,11.466 2.586,14.332 0.534,2.866 1.155,6.458 1.381,7.98 l 0.409,2.769 h 15.294 15.293 l -0.436,-2.323 c -0.239,-1.278 -1.622,-6.481 -3.073,-11.564 -1.45,-5.082 -7.267,-25.803 -12.926,-46.048 l -10.289,-36.807 3.442,-7.492 c 1.893,-4.121 6.441,-13.942 10.105,-21.824 3.665,-7.883 7.474,-16.092 8.466,-18.241 0.992,-2.15 6.129,-13.144 11.416,-24.43 14.79,-31.572 17.819,-38.307 17.412,-38.713 -0.206,-0.207 -6.771,-0.375 -14.59,-0.375 h -14.215 l -1.035,2.443 M 120.521,27.351 V 44.3 h 16.775 16.776 l -0.149,-16.775 -0.149,-16.776 -16.627,-0.174 -16.626,-0.174 v 16.95 M 58.116,59.012 c -3.94,1.964 -7.975,6.285 -10.596,11.346 l -1.855,3.583 -0.031,-7.654 -0.031,-7.655 H 30.075 14.547 l -0.433,71.824 c -0.238,39.503 -0.433,110.155 -0.433,157.003 v 85.179 h 15.635 15.635 l 0.019,-86.807 0.019,-86.808 2.395,4.491 c 6.027,11.302 15.701,16.029 24.797,12.116 C 103.253,202.263 103.63,73.324 72.638,58.862 68.041,56.716 62.61,56.773 58.116,59.012 m 166.792,0.055 c -1.529,0.541 -4.377,2.443 -6.329,4.227 -3.903,3.567 -4.68,3.192 -4.136,-1.999 l 0.215,-2.047 -15.309,-0.008 -15.31,-0.008 v 78.039 78.038 h 15.161 15.16 l -0.017,-57.329 c -0.01,-34.365 0.251,-60.14 0.652,-64.346 1.377,-14.447 6.223,-20.246 11.838,-14.167 3.505,3.796 3.41,2.012 3.774,71.347 l 0.338,64.495 h 15.309 15.31 v -64.495 c 0,-69.998 0.098,-67.932 -3.637,-76.353 C 252.542,62.316 236.655,54.91 224.908,59.067 m -102.924,78.229 0.166,78.013 h 14.984 14.983 l 0.166,-78.013 0.165,-78.013 h -15.314 -15.315 l 0.165,78.013 M 61.064,78.984 c 1.721,5.101 4.244,17.629 5.48,27.205 1.169,9.059 1.185,48.64 0.024,57.329 -3.615,27.036 -6.101,36.9 -9.021,35.79 -16.975,-6.454 -15.59,-128.951 1.411,-124.794 0.358,0.087 1.306,2.099 2.106,4.47"
           id="path842"
           inkscape:connector-curvature="0"
           style="fill:#151621;fill-opacity:1;fill-rule:evenodd;stroke:#151621;stroke-opacity:1" />
        <path
           d="m 3.734,77.467 v 75.158 h 7.003 7.002 L 17.621,77.596 17.503,2.567 10.618,2.438 3.734,2.309 V 77.467 M 159.275,2.712 c -0.465,0.301 -0.561,15.62 -0.467,75.029 l 0.118,74.651 h 7.002 7.001 l 0.253,-45.741 c 0.266,-47.983 0.223,-47.02 2.325,-51.108 2.902,-5.644 11.003,-8.864 13.725,-5.456 3.234,4.051 3.524,8.986 3.518,59.831 l -0.005,42.474 7.011,0.129 7.012,0.129 -0.009,-46.103 c -0.011,-54.175 -0.031,-54.409 -5.137,-61.172 -6.092,-8.07 -19.746,-7.281 -26.056,1.506 -0.841,1.17 -1.723,2.127 -1.962,2.127 -0.259,0 -0.482,-9.33 -0.554,-23.22 L 172.929,2.567 166.394,2.451 c -3.594,-0.065 -6.797,0.053 -7.119,0.261 m 75.251,9.073 c -0.12,0.321 -0.271,6.885 -0.336,14.586 l -0.118,14.002 -4.803,0.134 -4.804,0.133 0.136,3.601 0.136,3.6 4.783,0.133 4.782,0.133 0.118,52.143 0.119,52.142 7.118,0.129 7.118,0.129 V 100.379 48.107 l 4.784,-0.133 4.784,-0.133 0.136,-3.6 0.136,-3.601 -4.803,-0.133 -4.804,-0.134 -0.123,-14.585 -0.124,-14.586 h -7.009 c -5.18,0 -7.066,0.152 -7.226,0.583 M 44.341,22.17 v 7.702 h 7.934 7.935 V 22.17 14.469 h -7.935 -7.934 v 7.701 m 252.275,17.448 c -16.153,4.684 -23.441,24.515 -22.575,61.432 0.666,28.401 6.53,44.486 18.374,50.409 4.464,2.231 16.442,2.055 23.338,-0.343 7.454,-2.594 12.204,-7.442 12.487,-12.746 l 0.115,-2.149 -4.201,-1.596 c -2.31,-0.878 -4.253,-1.598 -4.317,-1.599 -0.065,-0.002 -0.117,0.419 -0.117,0.935 0,7.353 -16.223,14.766 -21.886,10.001 -4.29,-3.61 -7.623,-17.474 -8.072,-33.577 l -0.117,-4.201 20.405,-0.121 20.405,-0.122 -0.004,-4.079 c -0.04,-44.017 -13.2,-68.227 -33.835,-62.244 M 97.439,39.913 c -7.732,2.84 -13.11,12.281 -15.684,27.532 -3.163,18.745 -2.544,48.532 1.326,63.721 6.839,26.846 27.984,29.042 37.336,3.876 l 1.358,-3.653 0.023,67.094 0.022,67.095 h 7.235 7.234 V 152.859 40.14 h -7.234 -7.235 l -0.022,10.152 -0.023,10.151 -1.306,-3.5 C 115.14,42.658 106.784,36.48 97.439,39.913 m 249.467,0.146 c -0.465,0.295 -0.561,11.876 -0.467,56.352 l 0.119,55.981 h 7.001 7.001 l 0.274,-42.707 c 0.267,-41.563 0.377,-44.606 1.81,-49.895 4.998,-18.445 24.444,-15.859 26.372,3.507 l 0.331,3.32 3.809,0.265 c 4.87,0.339 4.782,0.463 4.178,-5.847 -1.354,-14.166 -8.217,-21.173 -20.671,-21.104 -6.956,0.038 -11.466,2.741 -14.243,8.533 -1.387,2.895 -1.627,2.432 -1.627,-3.14 0,-4.205 -0.127,-5.133 -0.738,-5.367 -1.092,-0.419 -12.467,-0.331 -13.149,0.102 m -301.517,56.44 0.119,55.893 h 7.001 7.001 L 59.628,96.499 59.747,40.607 H 52.509 45.27 l 0.119,55.892 M 306.152,48.026 c 5.445,4.304 8.891,20.157 9.06,41.683 l 0.074,9.474 -11.902,0.131 c -6.546,0.073 -12.408,0.008 -13.026,-0.144 l -1.123,-0.275 0.31,-10.124 c 0.984,-32.122 7.449,-47.982 16.607,-40.745 M 109.195,47.829 c 16.443,8.503 16.618,87.9 0.21,95.686 -8.715,4.135 -9.719,-1.44 -9.387,-52.131 0.27,-41.026 0.702,-43.947 6.54,-44.189 0.718,-0.029 1.905,0.256 2.637,0.634"
           id="path844"
           inkscape:connector-curvature="0"
           style="fill:#151621;fill-opacity:1;fill-rule:evenodd;stroke:#151621;stroke-opacity:1" />
      </g>
    </g>
    <g
       id="svgg"
       transform="matrix(0.29763454,0,0,0.26458333,6.5656742,142.05075)" />
    <g
       id="g888"
       style="fill:#151621;fill-opacity:1;stroke:#151621;stroke-opacity:1"
       transform="matrix(0.36651827,0,0,0.36651827,128.42607,141.70911)">
      <g
         id="g886"
         style="fill:#151621;fill-opacity:1;stroke:#151621;stroke-opacity:1">
        <path
           style="fill:#151621;fill-opacity:1;fill-rule:evenodd;stroke:#151621;stroke-opacity:1"
           inkscape:connector-curvature="0"
           id="path882"
           d="m 361.197,10.261 c -0.916,2.161 -11.844,29.952 -16.588,42.182 -16.163,41.677 -18.695,47.883 -19.536,47.883 -0.41,0 -0.643,-7.684 -0.643,-21.173 V 57.98 h -15.528 -15.528 l -0.446,77.764 c -0.245,42.77 -0.262,78.242 -0.037,78.827 0.361,0.943 2.15,1.064 15.648,1.064 h 15.24 v -30.906 c 0,-16.998 0.248,-31.06 0.552,-31.248 0.777,-0.48 2.207,6.475 7.626,37.073 0.889,5.016 2.052,11.466 2.586,14.332 0.534,2.866 1.155,6.458 1.381,7.98 l 0.409,2.769 h 15.294 15.293 l -0.436,-2.323 c -0.239,-1.278 -1.622,-6.481 -3.073,-11.564 -1.45,-5.082 -7.267,-25.803 -12.926,-46.048 l -10.289,-36.807 3.442,-7.492 c 1.893,-4.121 6.441,-13.942 10.105,-21.824 3.665,-7.883 7.474,-16.092 8.466,-18.241 0.992,-2.15 6.129,-13.144 11.416,-24.43 14.79,-31.572 17.819,-38.307 17.412,-38.713 -0.206,-0.207 -6.771,-0.375 -14.59,-0.375 h -14.215 l -1.035,2.443 M 120.521,27.351 V 44.3 h 16.775 16.776 l -0.149,-16.775 -0.149,-16.776 -16.627,-0.174 -16.626,-0.174 v 16.95 M 58.116,59.012 c -3.94,1.964 -7.975,6.285 -10.596,11.346 l -1.855,3.583 -0.031,-7.654 -0.031,-7.655 H 30.075 14.547 l -0.433,71.824 c -0.238,39.503 -0.433,110.155 -0.433,157.003 v 85.179 h 15.635 15.635 l 0.019,-86.807 0.019,-86.808 2.395,4.491 c 6.027,11.302 15.701,16.029 24.797,12.116 C 103.253,202.263 103.63,73.324 72.638,58.862 68.041,56.716 62.61,56.773 58.116,59.012 m 166.792,0.055 c -1.529,0.541 -4.377,2.443 -6.329,4.227 -3.903,3.567 -4.68,3.192 -4.136,-1.999 l 0.215,-2.047 -15.309,-0.008 -15.31,-0.008 v 78.039 78.038 h 15.161 15.16 l -0.017,-57.329 c -0.01,-34.365 0.251,-60.14 0.652,-64.346 1.377,-14.447 6.223,-20.246 11.838,-14.167 3.505,3.796 3.41,2.012 3.774,71.347 l 0.338,64.495 h 15.309 15.31 v -64.495 c 0,-69.998 0.098,-67.932 -3.637,-76.353 C 252.542,62.316 236.655,54.91 224.908,59.067 m -102.924,78.229 0.166,78.013 h 14.984 14.983 l 0.166,-78.013 0.165,-78.013 h -15.314 -15.315 l 0.165,78.013 M 61.064,78.984 c 1.721,5.101 4.244,17.629 5.48,27.205 1.169,9.059 1.185,48.64 0.024,57.329 -3.615,27.036 -6.101,36.9 -9.021,35.79 -16.975,-6.454 -15.59,-128.951 1.411,-124.794 0.358,0.087 1.306,2.099 2.106,4.47"
           transform="matrix(0.81205919,0,0,0.72188306,-328.46566,-3.0382387)" />
        <path
           style="fill:#151621;fill-opacity:1;fill-rule:evenodd;stroke:#151621;stroke-opacity:1"
           inkscape:connector-curvature="0"
           id="path884"
           d="m 3.734,77.467 v 75.158 h 7.003 7.002 L 17.621,77.596 17.503,2.567 10.618,2.438 3.734,2.309 V 77.467 M 159.275,2.712 c -0.465,0.301 -0.561,15.62 -0.467,75.029 l 0.118,74.651 h 7.002 7.001 l 0.253,-45.741 c 0.266,-47.983 0.223,-47.02 2.325,-51.108 2.902,-5.644 11.003,-8.864 13.725,-5.456 3.234,4.051 3.524,8.986 3.518,59.831 l -0.005,42.474 7.011,0.129 7.012,0.129 -0.009,-46.103 c -0.011,-54.175 -0.031,-54.409 -5.137,-61.172 -6.092,-8.07 -19.746,-7.281 -26.056,1.506 -0.841,1.17 -1.723,2.127 -1.962,2.127 -0.259,0 -0.482,-9.33 -0.554,-23.22 L 172.929,2.567 166.394,2.451 c -3.594,-0.065 -6.797,0.053 -7.119,0.261 m 75.251,9.073 c -0.12,0.321 -0.271,6.885 -0.336,14.586 l -0.118,14.002 -4.803,0.134 -4.804,0.133 0.136,3.601 0.136,3.6 4.783,0.133 4.782,0.133 0.118,52.143 0.119,52.142 7.118,0.129 7.118,0.129 V 100.379 48.107 l 4.784,-0.133 4.784,-0.133 0.136,-3.6 0.136,-3.601 -4.803,-0.133 -4.804,-0.134 -0.123,-14.585 -0.124,-14.586 h -7.009 c -5.18,0 -7.066,0.152 -7.226,0.583 M 44.341,22.17 v 7.702 h 7.934 7.935 V 22.17 14.469 h -7.935 -7.934 v 7.701 m 252.275,17.448 c -16.153,4.684 -23.441,24.515 -22.575,61.432 0.666,28.401 6.53,44.486 18.374,50.409 4.464,2.231 16.442,2.055 23.338,-0.343 7.454,-2.594 12.204,-7.442 12.487,-12.746 l 0.115,-2.149 -4.201,-1.596 c -2.31,-0.878 -4.253,-1.598 -4.317,-1.599 -0.065,-0.002 -0.117,0.419 -0.117,0.935 0,7.353 -16.223,14.766 -21.886,10.001 -4.29,-3.61 -7.623,-17.474 -8.072,-33.577 l -0.117,-4.201 20.405,-0.121 20.405,-0.122 -0.004,-4.079 c -0.04,-44.017 -13.2,-68.227 -33.835,-62.244 M 97.439,39.913 c -7.732,2.84 -13.11,12.281 -15.684,27.532 -3.163,18.745 -2.544,48.532 1.326,63.721 6.839,26.846 27.984,29.042 37.336,3.876 l 1.358,-3.653 0.023,67.094 0.022,67.095 h 7.235 7.234 V 152.859 40.14 h -7.234 -7.235 l -0.022,10.152 -0.023,10.151 -1.306,-3.5 C 115.14,42.658 106.784,36.48 97.439,39.913 m 249.467,0.146 c -0.465,0.295 -0.561,11.876 -0.467,56.352 l 0.119,55.981 h 7.001 7.001 l 0.274,-42.707 c 0.267,-41.563 0.377,-44.606 1.81,-49.895 4.998,-18.445 24.444,-15.859 26.372,3.507 l 0.331,3.32 3.809,0.265 c 4.87,0.339 4.782,0.463 4.178,-5.847 -1.354,-14.166 -8.217,-21.173 -20.671,-21.104 -6.956,0.038 -11.466,2.741 -14.243,8.533 -1.387,2.895 -1.627,2.432 -1.627,-3.14 0,-4.205 -0.127,-5.133 -0.738,-5.367 -1.092,-0.419 -12.467,-0.331 -13.149,0.102 m -301.517,56.44 0.119,55.893 h 7.001 7.001 L 59.628,96.499 59.747,40.607 H 52.509 45.27 l 0.119,55.892 M 306.152,48.026 c 5.445,4.304 8.891,20.157 9.06,41.683 l 0.074,9.474 -11.902,0.131 c -6.546,0.073 -12.408,0.008 -13.026,-0.144 l -1.123,-0.275 0.31,-10.124 c 0.984,-32.122 7.449,-47.982 16.607,-40.745 M 109.195,47.829 c 16.443,8.503 16.618,87.9 0.21,95.686 -8.715,4.135 -9.719,-1.44 -9.387,-52.131 0.27,-41.026 0.702,-43.947 6.54,-44.189 0.718,-0.029 1.905,0.256 2.637,0.634" />
      </g>
    </g>
    <g
       style="fill:#151621;fill-opacity:1;stroke:#151621;stroke-opacity:1"
       id="g898"
       transform="matrix(0.36651827,0,0,0.36651827,128.16149,141.97369)">
      <g
         style="fill:#151621;fill-opacity:1;stroke:#151621;stroke-opacity:1"
         id="g896">
        <path
           transform="matrix(0.81205919,0,0,0.72188306,-328.46566,-3.0382387)"
           d="m 361.197,10.261 c -0.916,2.161 -11.844,29.952 -16.588,42.182 -16.163,41.677 -18.695,47.883 -19.536,47.883 -0.41,0 -0.643,-7.684 -0.643,-21.173 V 57.98 h -15.528 -15.528 l -0.446,77.764 c -0.245,42.77 -0.262,78.242 -0.037,78.827 0.361,0.943 2.15,1.064 15.648,1.064 h 15.24 v -30.906 c 0,-16.998 0.248,-31.06 0.552,-31.248 0.777,-0.48 2.207,6.475 7.626,37.073 0.889,5.016 2.052,11.466 2.586,14.332 0.534,2.866 1.155,6.458 1.381,7.98 l 0.409,2.769 h 15.294 15.293 l -0.436,-2.323 c -0.239,-1.278 -1.622,-6.481 -3.073,-11.564 -1.45,-5.082 -7.267,-25.803 -12.926,-46.048 l -10.289,-36.807 3.442,-7.492 c 1.893,-4.121 6.441,-13.942 10.105,-21.824 3.665,-7.883 7.474,-16.092 8.466,-18.241 0.992,-2.15 6.129,-13.144 11.416,-24.43 14.79,-31.572 17.819,-38.307 17.412,-38.713 -0.206,-0.207 -6.771,-0.375 -14.59,-0.375 h -14.215 l -1.035,2.443 M 120.521,27.351 V 44.3 h 16.775 16.776 l -0.149,-16.775 -0.149,-16.776 -16.627,-0.174 -16.626,-0.174 v 16.95 M 58.116,59.012 c -3.94,1.964 -7.975,6.285 -10.596,11.346 l -1.855,3.583 -0.031,-7.654 -0.031,-7.655 H 30.075 14.547 l -0.433,71.824 c -0.238,39.503 -0.433,110.155 -0.433,157.003 v 85.179 h 15.635 15.635 l 0.019,-86.807 0.019,-86.808 2.395,4.491 c 6.027,11.302 15.701,16.029 24.797,12.116 C 103.253,202.263 103.63,73.324 72.638,58.862 68.041,56.716 62.61,56.773 58.116,59.012 m 166.792,0.055 c -1.529,0.541 -4.377,2.443 -6.329,4.227 -3.903,3.567 -4.68,3.192 -4.136,-1.999 l 0.215,-2.047 -15.309,-0.008 -15.31,-0.008 v 78.039 78.038 h 15.161 15.16 l -0.017,-57.329 c -0.01,-34.365 0.251,-60.14 0.652,-64.346 1.377,-14.447 6.223,-20.246 11.838,-14.167 3.505,3.796 3.41,2.012 3.774,71.347 l 0.338,64.495 h 15.309 15.31 v -64.495 c 0,-69.998 0.098,-67.932 -3.637,-76.353 C 252.542,62.316 236.655,54.91 224.908,59.067 m -102.924,78.229 0.166,78.013 h 14.984 14.983 l 0.166,-78.013 0.165,-78.013 h -15.314 -15.315 l 0.165,78.013 M 61.064,78.984 c 1.721,5.101 4.244,17.629 5.48,27.205 1.169,9.059 1.185,48.64 0.024,57.329 -3.615,27.036 -6.101,36.9 -9.021,35.79 -16.975,-6.454 -15.59,-128.951 1.411,-124.794 0.358,0.087 1.306,2.099 2.106,4.47"
           id="path892"
           inkscape:connector-curvature="0"
           style="fill:#151621;fill-opacity:1;fill-rule:evenodd;stroke:#151621;stroke-opacity:1" />
        <path
           d="m 3.734,77.467 v 75.158 h 7.003 7.002 L 17.621,77.596 17.503,2.567 10.618,2.438 3.734,2.309 V 77.467 M 159.275,2.712 c -0.465,0.301 -0.561,15.62 -0.467,75.029 l 0.118,74.651 h 7.002 7.001 l 0.253,-45.741 c 0.266,-47.983 0.223,-47.02 2.325,-51.108 2.902,-5.644 11.003,-8.864 13.725,-5.456 3.234,4.051 3.524,8.986 3.518,59.831 l -0.005,42.474 7.011,0.129 7.012,0.129 -0.009,-46.103 c -0.011,-54.175 -0.031,-54.409 -5.137,-61.172 -6.092,-8.07 -19.746,-7.281 -26.056,1.506 -0.841,1.17 -1.723,2.127 -1.962,2.127 -0.259,0 -0.482,-9.33 -0.554,-23.22 L 172.929,2.567 166.394,2.451 c -3.594,-0.065 -6.797,0.053 -7.119,0.261 m 75.251,9.073 c -0.12,0.321 -0.271,6.885 -0.336,14.586 l -0.118,14.002 -4.803,0.134 -4.804,0.133 0.136,3.601 0.136,3.6 4.783,0.133 4.782,0.133 0.118,52.143 0.119,52.142 7.118,0.129 7.118,0.129 V 100.379 48.107 l 4.784,-0.133 4.784,-0.133 0.136,-3.6 0.136,-3.601 -4.803,-0.133 -4.804,-0.134 -0.123,-14.585 -0.124,-14.586 h -7.009 c -5.18,0 -7.066,0.152 -7.226,0.583 M 44.341,22.17 v 7.702 h 7.934 7.935 V 22.17 14.469 h -7.935 -7.934 v 7.701 m 252.275,17.448 c -16.153,4.684 -23.441,24.515 -22.575,61.432 0.666,28.401 6.53,44.486 18.374,50.409 4.464,2.231 16.442,2.055 23.338,-0.343 7.454,-2.594 12.204,-7.442 12.487,-12.746 l 0.115,-2.149 -4.201,-1.596 c -2.31,-0.878 -4.253,-1.598 -4.317,-1.599 -0.065,-0.002 -0.117,0.419 -0.117,0.935 0,7.353 -16.223,14.766 -21.886,10.001 -4.29,-3.61 -7.623,-17.474 -8.072,-33.577 l -0.117,-4.201 20.405,-0.121 20.405,-0.122 -0.004,-4.079 c -0.04,-44.017 -13.2,-68.227 -33.835,-62.244 M 97.439,39.913 c -7.732,2.84 -13.11,12.281 -15.684,27.532 -3.163,18.745 -2.544,48.532 1.326,63.721 6.839,26.846 27.984,29.042 37.336,3.876 l 1.358,-3.653 0.023,67.094 0.022,67.095 h 7.235 7.234 V 152.859 40.14 h -7.234 -7.235 l -0.022,10.152 -0.023,10.151 -1.306,-3.5 C 115.14,42.658 106.784,36.48 97.439,39.913 m 249.467,0.146 c -0.465,0.295 -0.561,11.876 -0.467,56.352 l 0.119,55.981 h 7.001 7.001 l 0.274,-42.707 c 0.267,-41.563 0.377,-44.606 1.81,-49.895 4.998,-18.445 24.444,-15.859 26.372,3.507 l 0.331,3.32 3.809,0.265 c 4.87,0.339 4.782,0.463 4.178,-5.847 -1.354,-14.166 -8.217,-21.173 -20.671,-21.104 -6.956,0.038 -11.466,2.741 -14.243,8.533 -1.387,2.895 -1.627,2.432 -1.627,-3.14 0,-4.205 -0.127,-5.133 -0.738,-5.367 -1.092,-0.419 -12.467,-0.331 -13.149,0.102 m -301.517,56.44 0.119,55.893 h 7.001 7.001 L 59.628,96.499 59.747,40.607 H 52.509 45.27 l 0.119,55.892 M 306.152,48.026 c 5.445,4.304 8.891,20.157 9.06,41.683 l 0.074,9.474 -11.902,0.131 c -6.546,0.073 -12.408,0.008 -13.026,-0.144 l -1.123,-0.275 0.31,-10.124 c 0.984,-32.122 7.449,-47.982 16.607,-40.745 M 109.195,47.829 c 16.443,8.503 16.618,87.9 0.21,95.686 -8.715,4.135 -9.719,-1.44 -9.387,-52.131 0.27,-41.026 0.702,-43.947 6.54,-44.189 0.718,-0.029 1.905,0.256 2.637,0.634"
           id="path894"
           inkscape:connector-curvature="0"
           style="fill:#151621;fill-opacity:1;fill-rule:evenodd;stroke:#151621;stroke-opacity:1" />
      </g>
    </g>
    <g
       id="g908"
       style="fill:#151621;fill-opacity:1;stroke:#151621;stroke-opacity:1"
       transform="matrix(0.36651827,0,0,0.36651827,127.89691,142.23828)">
      <g
         id="g906"
         style="fill:#151621;fill-opacity:1;stroke:#151621;stroke-opacity:1">
        <path
           style="fill:#151621;fill-opacity:1;fill-rule:evenodd;stroke:#151621;stroke-opacity:1"
           inkscape:connector-curvature="0"
           id="path902"
           d="m 361.197,10.261 c -0.916,2.161 -11.844,29.952 -16.588,42.182 -16.163,41.677 -18.695,47.883 -19.536,47.883 -0.41,0 -0.643,-7.684 -0.643,-21.173 V 57.98 h -15.528 -15.528 l -0.446,77.764 c -0.245,42.77 -0.262,78.242 -0.037,78.827 0.361,0.943 2.15,1.064 15.648,1.064 h 15.24 v -30.906 c 0,-16.998 0.248,-31.06 0.552,-31.248 0.777,-0.48 2.207,6.475 7.626,37.073 0.889,5.016 2.052,11.466 2.586,14.332 0.534,2.866 1.155,6.458 1.381,7.98 l 0.409,2.769 h 15.294 15.293 l -0.436,-2.323 c -0.239,-1.278 -1.622,-6.481 -3.073,-11.564 -1.45,-5.082 -7.267,-25.803 -12.926,-46.048 l -10.289,-36.807 3.442,-7.492 c 1.893,-4.121 6.441,-13.942 10.105,-21.824 3.665,-7.883 7.474,-16.092 8.466,-18.241 0.992,-2.15 6.129,-13.144 11.416,-24.43 14.79,-31.572 17.819,-38.307 17.412,-38.713 -0.206,-0.207 -6.771,-0.375 -14.59,-0.375 h -14.215 l -1.035,2.443 M 120.521,27.351 V 44.3 h 16.775 16.776 l -0.149,-16.775 -0.149,-16.776 -16.627,-0.174 -16.626,-0.174 v 16.95 M 58.116,59.012 c -3.94,1.964 -7.975,6.285 -10.596,11.346 l -1.855,3.583 -0.031,-7.654 -0.031,-7.655 H 30.075 14.547 l -0.433,71.824 c -0.238,39.503 -0.433,110.155 -0.433,157.003 v 85.179 h 15.635 15.635 l 0.019,-86.807 0.019,-86.808 2.395,4.491 c 6.027,11.302 15.701,16.029 24.797,12.116 C 103.253,202.263 103.63,73.324 72.638,58.862 68.041,56.716 62.61,56.773 58.116,59.012 m 166.792,0.055 c -1.529,0.541 -4.377,2.443 -6.329,4.227 -3.903,3.567 -4.68,3.192 -4.136,-1.999 l 0.215,-2.047 -15.309,-0.008 -15.31,-0.008 v 78.039 78.038 h 15.161 15.16 l -0.017,-57.329 c -0.01,-34.365 0.251,-60.14 0.652,-64.346 1.377,-14.447 6.223,-20.246 11.838,-14.167 3.505,3.796 3.41,2.012 3.774,71.347 l 0.338,64.495 h 15.309 15.31 v -64.495 c 0,-69.998 0.098,-67.932 -3.637,-76.353 C 252.542,62.316 236.655,54.91 224.908,59.067 m -102.924,78.229 0.166,78.013 h 14.984 14.983 l 0.166,-78.013 0.165,-78.013 h -15.314 -15.315 l 0.165,78.013 M 61.064,78.984 c 1.721,5.101 4.244,17.629 5.48,27.205 1.169,9.059 1.185,48.64 0.024,57.329 -3.615,27.036 -6.101,36.9 -9.021,35.79 -16.975,-6.454 -15.59,-128.951 1.411,-124.794 0.358,0.087 1.306,2.099 2.106,4.47"
           transform="matrix(0.81205919,0,0,0.72188306,-328.46566,-3.0382387)" />
        <path
           style="fill:#151621;fill-opacity:1;fill-rule:evenodd;stroke:#151621;stroke-opacity:1"
           inkscape:connector-curvature="0"
           id="path904"
           d="m 3.734,77.467 v 75.158 h 7.003 7.002 L 17.621,77.596 17.503,2.567 10.618,2.438 3.734,2.309 V 77.467 M 159.275,2.712 c -0.465,0.301 -0.561,15.62 -0.467,75.029 l 0.118,74.651 h 7.002 7.001 l 0.253,-45.741 c 0.266,-47.983 0.223,-47.02 2.325,-51.108 2.902,-5.644 11.003,-8.864 13.725,-5.456 3.234,4.051 3.524,8.986 3.518,59.831 l -0.005,42.474 7.011,0.129 7.012,0.129 -0.009,-46.103 c -0.011,-54.175 -0.031,-54.409 -5.137,-61.172 -6.092,-8.07 -19.746,-7.281 -26.056,1.506 -0.841,1.17 -1.723,2.127 -1.962,2.127 -0.259,0 -0.482,-9.33 -0.554,-23.22 L 172.929,2.567 166.394,2.451 c -3.594,-0.065 -6.797,0.053 -7.119,0.261 m 75.251,9.073 c -0.12,0.321 -0.271,6.885 -0.336,14.586 l -0.118,14.002 -4.803,0.134 -4.804,0.133 0.136,3.601 0.136,3.6 4.783,0.133 4.782,0.133 0.118,52.143 0.119,52.142 7.118,0.129 7.118,0.129 V 100.379 48.107 l 4.784,-0.133 4.784,-0.133 0.136,-3.6 0.136,-3.601 -4.803,-0.133 -4.804,-0.134 -0.123,-14.585 -0.124,-14.586 h -7.009 c -5.18,0 -7.066,0.152 -7.226,0.583 M 44.341,22.17 v 7.702 h 7.934 7.935 V 22.17 14.469 h -7.935 -7.934 v 7.701 m 252.275,17.448 c -16.153,4.684 -23.441,24.515 -22.575,61.432 0.666,28.401 6.53,44.486 18.374,50.409 4.464,2.231 16.442,2.055 23.338,-0.343 7.454,-2.594 12.204,-7.442 12.487,-12.746 l 0.115,-2.149 -4.201,-1.596 c -2.31,-0.878 -4.253,-1.598 -4.317,-1.599 -0.065,-0.002 -0.117,0.419 -0.117,0.935 0,7.353 -16.223,14.766 -21.886,10.001 -4.29,-3.61 -7.623,-17.474 -8.072,-33.577 l -0.117,-4.201 20.405,-0.121 20.405,-0.122 -0.004,-4.079 c -0.04,-44.017 -13.2,-68.227 -33.835,-62.244 M 97.439,39.913 c -7.732,2.84 -13.11,12.281 -15.684,27.532 -3.163,18.745 -2.544,48.532 1.326,63.721 6.839,26.846 27.984,29.042 37.336,3.876 l 1.358,-3.653 0.023,67.094 0.022,67.095 h 7.235 7.234 V 152.859 40.14 h -7.234 -7.235 l -0.022,10.152 -0.023,10.151 -1.306,-3.5 C 115.14,42.658 106.784,36.48 97.439,39.913 m 249.467,0.146 c -0.465,0.295 -0.561,11.876 -0.467,56.352 l 0.119,55.981 h 7.001 7.001 l 0.274,-42.707 c 0.267,-41.563 0.377,-44.606 1.81,-49.895 4.998,-18.445 24.444,-15.859 26.372,3.507 l 0.331,3.32 3.809,0.265 c 4.87,0.339 4.782,0.463 4.178,-5.847 -1.354,-14.166 -8.217,-21.173 -20.671,-21.104 -6.956,0.038 -11.466,2.741 -14.243,8.533 -1.387,2.895 -1.627,2.432 -1.627,-3.14 0,-4.205 -0.127,-5.133 -0.738,-5.367 -1.092,-0.419 -12.467,-0.331 -13.149,0.102 m -301.517,56.44 0.119,55.893 h 7.001 7.001 L 59.628,96.499 59.747,40.607 H 52.509 45.27 l 0.119,55.892 M 306.152,48.026 c 5.445,4.304 8.891,20.157 9.06,41.683 l 0.074,9.474 -11.902,0.131 c -6.546,0.073 -12.408,0.008 -13.026,-0.144 l -1.123,-0.275 0.31,-10.124 c 0.984,-32.122 7.449,-47.982 16.607,-40.745 M 109.195,47.829 c 16.443,8.503 16.618,87.9 0.21,95.686 -8.715,4.135 -9.719,-1.44 -9.387,-52.131 0.27,-41.026 0.702,-43.947 6.54,-44.189 0.718,-0.029 1.905,0.256 2.637,0.634" />
      </g>
    </g>
    <g
       style="fill:#151621;fill-opacity:1;stroke:#151621;stroke-opacity:1"
       id="g918"
       transform="matrix(0.36651827,0,0,0.36651827,127.63233,142.50286)">
      <g
         style="fill:#151621;fill-opacity:1;stroke:#151621;stroke-opacity:1"
         id="g916">
        <path
           transform="matrix(0.81205919,0,0,0.72188306,-328.46566,-3.0382387)"
           d="m 361.197,10.261 c -0.916,2.161 -11.844,29.952 -16.588,42.182 -16.163,41.677 -18.695,47.883 -19.536,47.883 -0.41,0 -0.643,-7.684 -0.643,-21.173 V 57.98 h -15.528 -15.528 l -0.446,77.764 c -0.245,42.77 -0.262,78.242 -0.037,78.827 0.361,0.943 2.15,1.064 15.648,1.064 h 15.24 v -30.906 c 0,-16.998 0.248,-31.06 0.552,-31.248 0.777,-0.48 2.207,6.475 7.626,37.073 0.889,5.016 2.052,11.466 2.586,14.332 0.534,2.866 1.155,6.458 1.381,7.98 l 0.409,2.769 h 15.294 15.293 l -0.436,-2.323 c -0.239,-1.278 -1.622,-6.481 -3.073,-11.564 -1.45,-5.082 -7.267,-25.803 -12.926,-46.048 l -10.289,-36.807 3.442,-7.492 c 1.893,-4.121 6.441,-13.942 10.105,-21.824 3.665,-7.883 7.474,-16.092 8.466,-18.241 0.992,-2.15 6.129,-13.144 11.416,-24.43 14.79,-31.572 17.819,-38.307 17.412,-38.713 -0.206,-0.207 -6.771,-0.375 -14.59,-0.375 h -14.215 l -1.035,2.443 M 120.521,27.351 V 44.3 h 16.775 16.776 l -0.149,-16.775 -0.149,-16.776 -16.627,-0.174 -16.626,-0.174 v 16.95 M 58.116,59.012 c -3.94,1.964 -7.975,6.285 -10.596,11.346 l -1.855,3.583 -0.031,-7.654 -0.031,-7.655 H 30.075 14.547 l -0.433,71.824 c -0.238,39.503 -0.433,110.155 -0.433,157.003 v 85.179 h 15.635 15.635 l 0.019,-86.807 0.019,-86.808 2.395,4.491 c 6.027,11.302 15.701,16.029 24.797,12.116 C 103.253,202.263 103.63,73.324 72.638,58.862 68.041,56.716 62.61,56.773 58.116,59.012 m 166.792,0.055 c -1.529,0.541 -4.377,2.443 -6.329,4.227 -3.903,3.567 -4.68,3.192 -4.136,-1.999 l 0.215,-2.047 -15.309,-0.008 -15.31,-0.008 v 78.039 78.038 h 15.161 15.16 l -0.017,-57.329 c -0.01,-34.365 0.251,-60.14 0.652,-64.346 1.377,-14.447 6.223,-20.246 11.838,-14.167 3.505,3.796 3.41,2.012 3.774,71.347 l 0.338,64.495 h 15.309 15.31 v -64.495 c 0,-69.998 0.098,-67.932 -3.637,-76.353 C 252.542,62.316 236.655,54.91 224.908,59.067 m -102.924,78.229 0.166,78.013 h 14.984 14.983 l 0.166,-78.013 0.165,-78.013 h -15.314 -15.315 l 0.165,78.013 M 61.064,78.984 c 1.721,5.101 4.244,17.629 5.48,27.205 1.169,9.059 1.185,48.64 0.024,57.329 -3.615,27.036 -6.101,36.9 -9.021,35.79 -16.975,-6.454 -15.59,-128.951 1.411,-124.794 0.358,0.087 1.306,2.099 2.106,4.47"
           id="path912"
           inkscape:connector-curvature="0"
           style="fill:#151621;fill-opacity:1;fill-rule:evenodd;stroke:#151621;stroke-opacity:1" />
        <path
           d="m 3.734,77.467 v 75.158 h 7.003 7.002 L 17.621,77.596 17.503,2.567 10.618,2.438 3.734,2.309 V 77.467 M 159.275,2.712 c -0.465,0.301 -0.561,15.62 -0.467,75.029 l 0.118,74.651 h 7.002 7.001 l 0.253,-45.741 c 0.266,-47.983 0.223,-47.02 2.325,-51.108 2.902,-5.644 11.003,-8.864 13.725,-5.456 3.234,4.051 3.524,8.986 3.518,59.831 l -0.005,42.474 7.011,0.129 7.012,0.129 -0.009,-46.103 c -0.011,-54.175 -0.031,-54.409 -5.137,-61.172 -6.092,-8.07 -19.746,-7.281 -26.056,1.506 -0.841,1.17 -1.723,2.127 -1.962,2.127 -0.259,0 -0.482,-9.33 -0.554,-23.22 L 172.929,2.567 166.394,2.451 c -3.594,-0.065 -6.797,0.053 -7.119,0.261 m 75.251,9.073 c -0.12,0.321 -0.271,6.885 -0.336,14.586 l -0.118,14.002 -4.803,0.134 -4.804,0.133 0.136,3.601 0.136,3.6 4.783,0.133 4.782,0.133 0.118,52.143 0.119,52.142 7.118,0.129 7.118,0.129 V 100.379 48.107 l 4.784,-0.133 4.784,-0.133 0.136,-3.6 0.136,-3.601 -4.803,-0.133 -4.804,-0.134 -0.123,-14.585 -0.124,-14.586 h -7.009 c -5.18,0 -7.066,0.152 -7.226,0.583 M 44.341,22.17 v 7.702 h 7.934 7.935 V 22.17 14.469 h -7.935 -7.934 v 7.701 m 252.275,17.448 c -16.153,4.684 -23.441,24.515 -22.575,61.432 0.666,28.401 6.53,44.486 18.374,50.409 4.464,2.231 16.442,2.055 23.338,-0.343 7.454,-2.594 12.204,-7.442 12.487,-12.746 l 0.115,-2.149 -4.201,-1.596 c -2.31,-0.878 -4.253,-1.598 -4.317,-1.599 -0.065,-0.002 -0.117,0.419 -0.117,0.935 0,7.353 -16.223,14.766 -21.886,10.001 -4.29,-3.61 -7.623,-17.474 -8.072,-33.577 l -0.117,-4.201 20.405,-0.121 20.405,-0.122 -0.004,-4.079 c -0.04,-44.017 -13.2,-68.227 -33.835,-62.244 M 97.439,39.913 c -7.732,2.84 -13.11,12.281 -15.684,27.532 -3.163,18.745 -2.544,48.532 1.326,63.721 6.839,26.846 27.984,29.042 37.336,3.876 l 1.358,-3.653 0.023,67.094 0.022,67.095 h 7.235 7.234 V 152.859 40.14 h -7.234 -7.235 l -0.022,10.152 -0.023,10.151 -1.306,-3.5 C 115.14,42.658 106.784,36.48 97.439,39.913 m 249.467,0.146 c -0.465,0.295 -0.561,11.876 -0.467,56.352 l 0.119,55.981 h 7.001 7.001 l 0.274,-42.707 c 0.267,-41.563 0.377,-44.606 1.81,-49.895 4.998,-18.445 24.444,-15.859 26.372,3.507 l 0.331,3.32 3.809,0.265 c 4.87,0.339 4.782,0.463 4.178,-5.847 -1.354,-14.166 -8.217,-21.173 -20.671,-21.104 -6.956,0.038 -11.466,2.741 -14.243,8.533 -1.387,2.895 -1.627,2.432 -1.627,-3.14 0,-4.205 -0.127,-5.133 -0.738,-5.367 -1.092,-0.419 -12.467,-0.331 -13.149,0.102 m -301.517,56.44 0.119,55.893 h 7.001 7.001 L 59.628,96.499 59.747,40.607 H 52.509 45.27 l 0.119,55.892 M 306.152,48.026 c 5.445,4.304 8.891,20.157 9.06,41.683 l 0.074,9.474 -11.902,0.131 c -6.546,0.073 -12.408,0.008 -13.026,-0.144 l -1.123,-0.275 0.31,-10.124 c 0.984,-32.122 7.449,-47.982 16.607,-40.745 M 109.195,47.829 c 16.443,8.503 16.618,87.9 0.21,95.686 -8.715,4.135 -9.719,-1.44 -9.387,-52.131 0.27,-41.026 0.702,-43.947 6.54,-44.189 0.718,-0.029 1.905,0.256 2.637,0.634"
           id="path914"
           inkscape:connector-curvature="0"
           style="fill:#151621;fill-opacity:1;fill-rule:evenodd;stroke:#151621;stroke-opacity:1" />
      </g>
    </g>
    <g
       id="g928"
       style="fill:#151621;fill-opacity:1;stroke:#151621;stroke-opacity:1"
       transform="matrix(0.36651827,0,0,0.36651827,127.36774,142.76745)">
      <g
         id="g926"
         style="fill:#151621;fill-opacity:1;stroke:#151621;stroke-opacity:1">
        <path
           style="fill:#151621;fill-opacity:1;fill-rule:evenodd;stroke:#151621;stroke-opacity:1"
           inkscape:connector-curvature="0"
           id="path922"
           d="m 361.197,10.261 c -0.916,2.161 -11.844,29.952 -16.588,42.182 -16.163,41.677 -18.695,47.883 -19.536,47.883 -0.41,0 -0.643,-7.684 -0.643,-21.173 V 57.98 h -15.528 -15.528 l -0.446,77.764 c -0.245,42.77 -0.262,78.242 -0.037,78.827 0.361,0.943 2.15,1.064 15.648,1.064 h 15.24 v -30.906 c 0,-16.998 0.248,-31.06 0.552,-31.248 0.777,-0.48 2.207,6.475 7.626,37.073 0.889,5.016 2.052,11.466 2.586,14.332 0.534,2.866 1.155,6.458 1.381,7.98 l 0.409,2.769 h 15.294 15.293 l -0.436,-2.323 c -0.239,-1.278 -1.622,-6.481 -3.073,-11.564 -1.45,-5.082 -7.267,-25.803 -12.926,-46.048 l -10.289,-36.807 3.442,-7.492 c 1.893,-4.121 6.441,-13.942 10.105,-21.824 3.665,-7.883 7.474,-16.092 8.466,-18.241 0.992,-2.15 6.129,-13.144 11.416,-24.43 14.79,-31.572 17.819,-38.307 17.412,-38.713 -0.206,-0.207 -6.771,-0.375 -14.59,-0.375 h -14.215 l -1.035,2.443 M 120.521,27.351 V 44.3 h 16.775 16.776 l -0.149,-16.775 -0.149,-16.776 -16.627,-0.174 -16.626,-0.174 v 16.95 M 58.116,59.012 c -3.94,1.964 -7.975,6.285 -10.596,11.346 l -1.855,3.583 -0.031,-7.654 -0.031,-7.655 H 30.075 14.547 l -0.433,71.824 c -0.238,39.503 -0.433,110.155 -0.433,157.003 v 85.179 h 15.635 15.635 l 0.019,-86.807 0.019,-86.808 2.395,4.491 c 6.027,11.302 15.701,16.029 24.797,12.116 C 103.253,202.263 103.63,73.324 72.638,58.862 68.041,56.716 62.61,56.773 58.116,59.012 m 166.792,0.055 c -1.529,0.541 -4.377,2.443 -6.329,4.227 -3.903,3.567 -4.68,3.192 -4.136,-1.999 l 0.215,-2.047 -15.309,-0.008 -15.31,-0.008 v 78.039 78.038 h 15.161 15.16 l -0.017,-57.329 c -0.01,-34.365 0.251,-60.14 0.652,-64.346 1.377,-14.447 6.223,-20.246 11.838,-14.167 3.505,3.796 3.41,2.012 3.774,71.347 l 0.338,64.495 h 15.309 15.31 v -64.495 c 0,-69.998 0.098,-67.932 -3.637,-76.353 C 252.542,62.316 236.655,54.91 224.908,59.067 m -102.924,78.229 0.166,78.013 h 14.984 14.983 l 0.166,-78.013 0.165,-78.013 h -15.314 -15.315 l 0.165,78.013 M 61.064,78.984 c 1.721,5.101 4.244,17.629 5.48,27.205 1.169,9.059 1.185,48.64 0.024,57.329 -3.615,27.036 -6.101,36.9 -9.021,35.79 -16.975,-6.454 -15.59,-128.951 1.411,-124.794 0.358,0.087 1.306,2.099 2.106,4.47"
           transform="matrix(0.81205919,0,0,0.72188306,-328.46566,-3.0382387)" />
        <path
           style="fill:#151621;fill-opacity:1;fill-rule:evenodd;stroke:#151621;stroke-opacity:1"
           inkscape:connector-curvature="0"
           id="path924"
           d="m 3.734,77.467 v 75.158 h 7.003 7.002 L 17.621,77.596 17.503,2.567 10.618,2.438 3.734,2.309 V 77.467 M 159.275,2.712 c -0.465,0.301 -0.561,15.62 -0.467,75.029 l 0.118,74.651 h 7.002 7.001 l 0.253,-45.741 c 0.266,-47.983 0.223,-47.02 2.325,-51.108 2.902,-5.644 11.003,-8.864 13.725,-5.456 3.234,4.051 3.524,8.986 3.518,59.831 l -0.005,42.474 7.011,0.129 7.012,0.129 -0.009,-46.103 c -0.011,-54.175 -0.031,-54.409 -5.137,-61.172 -6.092,-8.07 -19.746,-7.281 -26.056,1.506 -0.841,1.17 -1.723,2.127 -1.962,2.127 -0.259,0 -0.482,-9.33 -0.554,-23.22 L 172.929,2.567 166.394,2.451 c -3.594,-0.065 -6.797,0.053 -7.119,0.261 m 75.251,9.073 c -0.12,0.321 -0.271,6.885 -0.336,14.586 l -0.118,14.002 -4.803,0.134 -4.804,0.133 0.136,3.601 0.136,3.6 4.783,0.133 4.782,0.133 0.118,52.143 0.119,52.142 7.118,0.129 7.118,0.129 V 100.379 48.107 l 4.784,-0.133 4.784,-0.133 0.136,-3.6 0.136,-3.601 -4.803,-0.133 -4.804,-0.134 -0.123,-14.585 -0.124,-14.586 h -7.009 c -5.18,0 -7.066,0.152 -7.226,0.583 M 44.341,22.17 v 7.702 h 7.934 7.935 V 22.17 14.469 h -7.935 -7.934 v 7.701 m 252.275,17.448 c -16.153,4.684 -23.441,24.515 -22.575,61.432 0.666,28.401 6.53,44.486 18.374,50.409 4.464,2.231 16.442,2.055 23.338,-0.343 7.454,-2.594 12.204,-7.442 12.487,-12.746 l 0.115,-2.149 -4.201,-1.596 c -2.31,-0.878 -4.253,-1.598 -4.317,-1.599 -0.065,-0.002 -0.117,0.419 -0.117,0.935 0,7.353 -16.223,14.766 -21.886,10.001 -4.29,-3.61 -7.623,-17.474 -8.072,-33.577 l -0.117,-4.201 20.405,-0.121 20.405,-0.122 -0.004,-4.079 c -0.04,-44.017 -13.2,-68.227 -33.835,-62.244 M 97.439,39.913 c -7.732,2.84 -13.11,12.281 -15.684,27.532 -3.163,18.745 -2.544,48.532 1.326,63.721 6.839,26.846 27.984,29.042 37.336,3.876 l 1.358,-3.653 0.023,67.094 0.022,67.095 h 7.235 7.234 V 152.859 40.14 h -7.234 -7.235 l -0.022,10.152 -0.023,10.151 -1.306,-3.5 C 115.14,42.658 106.784,36.48 97.439,39.913 m 249.467,0.146 c -0.465,0.295 -0.561,11.876 -0.467,56.352 l 0.119,55.981 h 7.001 7.001 l 0.274,-42.707 c 0.267,-41.563 0.377,-44.606 1.81,-49.895 4.998,-18.445 24.444,-15.859 26.372,3.507 l 0.331,3.32 3.809,0.265 c 4.87,0.339 4.782,0.463 4.178,-5.847 -1.354,-14.166 -8.217,-21.173 -20.671,-21.104 -6.956,0.038 -11.466,2.741 -14.243,8.533 -1.387,2.895 -1.627,2.432 -1.627,-3.14 0,-4.205 -0.127,-5.133 -0.738,-5.367 -1.092,-0.419 -12.467,-0.331 -13.149,0.102 m -301.517,56.44 0.119,55.893 h 7.001 7.001 L 59.628,96.499 59.747,40.607 H 52.509 45.27 l 0.119,55.892 M 306.152,48.026 c 5.445,4.304 8.891,20.157 9.06,41.683 l 0.074,9.474 -11.902,0.131 c -6.546,0.073 -12.408,0.008 -13.026,-0.144 l -1.123,-0.275 0.31,-10.124 c 0.984,-32.122 7.449,-47.982 16.607,-40.745 M 109.195,47.829 c 16.443,8.503 16.618,87.9 0.21,95.686 -8.715,4.135 -9.719,-1.44 -9.387,-52.131 0.27,-41.026 0.702,-43.947 6.54,-44.189 0.718,-0.029 1.905,0.256 2.637,0.634" />
      </g>
    </g>
    <g
       style="fill:#151621;fill-opacity:1;stroke:#151621;stroke-opacity:1"
       id="g938"
       transform="matrix(0.36651827,0,0,0.36651827,127.10316,143.03203)">
      <g
         style="fill:#151621;fill-opacity:1;stroke:#151621;stroke-opacity:1"
         id="g936">
        <path
           transform="matrix(0.81205919,0,0,0.72188306,-328.46566,-3.0382387)"
           d="m 361.197,10.261 c -0.916,2.161 -11.844,29.952 -16.588,42.182 -16.163,41.677 -18.695,47.883 -19.536,47.883 -0.41,0 -0.643,-7.684 -0.643,-21.173 V 57.98 h -15.528 -15.528 l -0.446,77.764 c -0.245,42.77 -0.262,78.242 -0.037,78.827 0.361,0.943 2.15,1.064 15.648,1.064 h 15.24 v -30.906 c 0,-16.998 0.248,-31.06 0.552,-31.248 0.777,-0.48 2.207,6.475 7.626,37.073 0.889,5.016 2.052,11.466 2.586,14.332 0.534,2.866 1.155,6.458 1.381,7.98 l 0.409,2.769 h 15.294 15.293 l -0.436,-2.323 c -0.239,-1.278 -1.622,-6.481 -3.073,-11.564 -1.45,-5.082 -7.267,-25.803 -12.926,-46.048 l -10.289,-36.807 3.442,-7.492 c 1.893,-4.121 6.441,-13.942 10.105,-21.824 3.665,-7.883 7.474,-16.092 8.466,-18.241 0.992,-2.15 6.129,-13.144 11.416,-24.43 14.79,-31.572 17.819,-38.307 17.412,-38.713 -0.206,-0.207 -6.771,-0.375 -14.59,-0.375 h -14.215 l -1.035,2.443 M 120.521,27.351 V 44.3 h 16.775 16.776 l -0.149,-16.775 -0.149,-16.776 -16.627,-0.174 -16.626,-0.174 v 16.95 M 58.116,59.012 c -3.94,1.964 -7.975,6.285 -10.596,11.346 l -1.855,3.583 -0.031,-7.654 -0.031,-7.655 H 30.075 14.547 l -0.433,71.824 c -0.238,39.503 -0.433,110.155 -0.433,157.003 v 85.179 h 15.635 15.635 l 0.019,-86.807 0.019,-86.808 2.395,4.491 c 6.027,11.302 15.701,16.029 24.797,12.116 C 103.253,202.263 103.63,73.324 72.638,58.862 68.041,56.716 62.61,56.773 58.116,59.012 m 166.792,0.055 c -1.529,0.541 -4.377,2.443 -6.329,4.227 -3.903,3.567 -4.68,3.192 -4.136,-1.999 l 0.215,-2.047 -15.309,-0.008 -15.31,-0.008 v 78.039 78.038 h 15.161 15.16 l -0.017,-57.329 c -0.01,-34.365 0.251,-60.14 0.652,-64.346 1.377,-14.447 6.223,-20.246 11.838,-14.167 3.505,3.796 3.41,2.012 3.774,71.347 l 0.338,64.495 h 15.309 15.31 v -64.495 c 0,-69.998 0.098,-67.932 -3.637,-76.353 C 252.542,62.316 236.655,54.91 224.908,59.067 m -102.924,78.229 0.166,78.013 h 14.984 14.983 l 0.166,-78.013 0.165,-78.013 h -15.314 -15.315 l 0.165,78.013 M 61.064,78.984 c 1.721,5.101 4.244,17.629 5.48,27.205 1.169,9.059 1.185,48.64 0.024,57.329 -3.615,27.036 -6.101,36.9 -9.021,35.79 -16.975,-6.454 -15.59,-128.951 1.411,-124.794 0.358,0.087 1.306,2.099 2.106,4.47"
           id="path932"
           inkscape:connector-curvature="0"
           style="fill:#151621;fill-opacity:1;fill-rule:evenodd;stroke:#151621;stroke-opacity:1" />
        <path
           d="m 3.734,77.467 v 75.158 h 7.003 7.002 L 17.621,77.596 17.503,2.567 10.618,2.438 3.734,2.309 V 77.467 M 159.275,2.712 c -0.465,0.301 -0.561,15.62 -0.467,75.029 l 0.118,74.651 h 7.002 7.001 l 0.253,-45.741 c 0.266,-47.983 0.223,-47.02 2.325,-51.108 2.902,-5.644 11.003,-8.864 13.725,-5.456 3.234,4.051 3.524,8.986 3.518,59.831 l -0.005,42.474 7.011,0.129 7.012,0.129 -0.009,-46.103 c -0.011,-54.175 -0.031,-54.409 -5.137,-61.172 -6.092,-8.07 -19.746,-7.281 -26.056,1.506 -0.841,1.17 -1.723,2.127 -1.962,2.127 -0.259,0 -0.482,-9.33 -0.554,-23.22 L 172.929,2.567 166.394,2.451 c -3.594,-0.065 -6.797,0.053 -7.119,0.261 m 75.251,9.073 c -0.12,0.321 -0.271,6.885 -0.336,14.586 l -0.118,14.002 -4.803,0.134 -4.804,0.133 0.136,3.601 0.136,3.6 4.783,0.133 4.782,0.133 0.118,52.143 0.119,52.142 7.118,0.129 7.118,0.129 V 100.379 48.107 l 4.784,-0.133 4.784,-0.133 0.136,-3.6 0.136,-3.601 -4.803,-0.133 -4.804,-0.134 -0.123,-14.585 -0.124,-14.586 h -7.009 c -5.18,0 -7.066,0.152 -7.226,0.583 M 44.341,22.17 v 7.702 h 7.934 7.935 V 22.17 14.469 h -7.935 -7.934 v 7.701 m 252.275,17.448 c -16.153,4.684 -23.441,24.515 -22.575,61.432 0.666,28.401 6.53,44.486 18.374,50.409 4.464,2.231 16.442,2.055 23.338,-0.343 7.454,-2.594 12.204,-7.442 12.487,-12.746 l 0.115,-2.149 -4.201,-1.596 c -2.31,-0.878 -4.253,-1.598 -4.317,-1.599 -0.065,-0.002 -0.117,0.419 -0.117,0.935 0,7.353 -16.223,14.766 -21.886,10.001 -4.29,-3.61 -7.623,-17.474 -8.072,-33.577 l -0.117,-4.201 20.405,-0.121 20.405,-0.122 -0.004,-4.079 c -0.04,-44.017 -13.2,-68.227 -33.835,-62.244 M 97.439,39.913 c -7.732,2.84 -13.11,12.281 -15.684,27.532 -3.163,18.745 -2.544,48.532 1.326,63.721 6.839,26.846 27.984,29.042 37.336,3.876 l 1.358,-3.653 0.023,67.094 0.022,67.095 h 7.235 7.234 V 152.859 40.14 h -7.234 -7.235 l -0.022,10.152 -0.023,10.151 -1.306,-3.5 C 115.14,42.658 106.784,36.48 97.439,39.913 m 249.467,0.146 c -0.465,0.295 -0.561,11.876 -0.467,56.352 l 0.119,55.981 h 7.001 7.001 l 0.274,-42.707 c 0.267,-41.563 0.377,-44.606 1.81,-49.895 4.998,-18.445 24.444,-15.859 26.372,3.507 l 0.331,3.32 3.809,0.265 c 4.87,0.339 4.782,0.463 4.178,-5.847 -1.354,-14.166 -8.217,-21.173 -20.671,-21.104 -6.956,0.038 -11.466,2.741 -14.243,8.533 -1.387,2.895 -1.627,2.432 -1.627,-3.14 0,-4.205 -0.127,-5.133 -0.738,-5.367 -1.092,-0.419 -12.467,-0.331 -13.149,0.102 m -301.517,56.44 0.119,55.893 h 7.001 7.001 L 59.628,96.499 59.747,40.607 H 52.509 45.27 l 0.119,55.892 M 306.152,48.026 c 5.445,4.304 8.891,20.157 9.06,41.683 l 0.074,9.474 -11.902,0.131 c -6.546,0.073 -12.408,0.008 -13.026,-0.144 l -1.123,-0.275 0.31,-10.124 c 0.984,-32.122 7.449,-47.982 16.607,-40.745 M 109.195,47.829 c 16.443,8.503 16.618,87.9 0.21,95.686 -8.715,4.135 -9.719,-1.44 -9.387,-52.131 0.27,-41.026 0.702,-43.947 6.54,-44.189 0.718,-0.029 1.905,0.256 2.637,0.634"
           id="path934"
           inkscape:connector-curvature="0"
           style="fill:#151621;fill-opacity:1;fill-rule:evenodd;stroke:#151621;stroke-opacity:1" />
      </g>
    </g>
    <g
       id="g948"
       style="fill:#151621;fill-opacity:1;stroke:#151621;stroke-opacity:1"
       transform="matrix(0.36651827,0,0,0.36651827,128.95524,141.17994)">
      <g
         id="g946"
         style="fill:#151621;fill-opacity:1;stroke:#151621;stroke-opacity:1">
        <path
           style="fill:#151621;fill-opacity:1;fill-rule:evenodd;stroke:#151621;stroke-opacity:1"
           inkscape:connector-curvature="0"
           id="path942"
           d="m 361.197,10.261 c -0.916,2.161 -11.844,29.952 -16.588,42.182 -16.163,41.677 -18.695,47.883 -19.536,47.883 -0.41,0 -0.643,-7.684 -0.643,-21.173 V 57.98 h -15.528 -15.528 l -0.446,77.764 c -0.245,42.77 -0.262,78.242 -0.037,78.827 0.361,0.943 2.15,1.064 15.648,1.064 h 15.24 v -30.906 c 0,-16.998 0.248,-31.06 0.552,-31.248 0.777,-0.48 2.207,6.475 7.626,37.073 0.889,5.016 2.052,11.466 2.586,14.332 0.534,2.866 1.155,6.458 1.381,7.98 l 0.409,2.769 h 15.294 15.293 l -0.436,-2.323 c -0.239,-1.278 -1.622,-6.481 -3.073,-11.564 -1.45,-5.082 -7.267,-25.803 -12.926,-46.048 l -10.289,-36.807 3.442,-7.492 c 1.893,-4.121 6.441,-13.942 10.105,-21.824 3.665,-7.883 7.474,-16.092 8.466,-18.241 0.992,-2.15 6.129,-13.144 11.416,-24.43 14.79,-31.572 17.819,-38.307 17.412,-38.713 -0.206,-0.207 -6.771,-0.375 -14.59,-0.375 h -14.215 l -1.035,2.443 M 120.521,27.351 V 44.3 h 16.775 16.776 l -0.149,-16.775 -0.149,-16.776 -16.627,-0.174 -16.626,-0.174 v 16.95 M 58.116,59.012 c -3.94,1.964 -7.975,6.285 -10.596,11.346 l -1.855,3.583 -0.031,-7.654 -0.031,-7.655 H 30.075 14.547 l -0.433,71.824 c -0.238,39.503 -0.433,110.155 -0.433,157.003 v 85.179 h 15.635 15.635 l 0.019,-86.807 0.019,-86.808 2.395,4.491 c 6.027,11.302 15.701,16.029 24.797,12.116 C 103.253,202.263 103.63,73.324 72.638,58.862 68.041,56.716 62.61,56.773 58.116,59.012 m 166.792,0.055 c -1.529,0.541 -4.377,2.443 -6.329,4.227 -3.903,3.567 -4.68,3.192 -4.136,-1.999 l 0.215,-2.047 -15.309,-0.008 -15.31,-0.008 v 78.039 78.038 h 15.161 15.16 l -0.017,-57.329 c -0.01,-34.365 0.251,-60.14 0.652,-64.346 1.377,-14.447 6.223,-20.246 11.838,-14.167 3.505,3.796 3.41,2.012 3.774,71.347 l 0.338,64.495 h 15.309 15.31 v -64.495 c 0,-69.998 0.098,-67.932 -3.637,-76.353 C 252.542,62.316 236.655,54.91 224.908,59.067 m -102.924,78.229 0.166,78.013 h 14.984 14.983 l 0.166,-78.013 0.165,-78.013 h -15.314 -15.315 l 0.165,78.013 M 61.064,78.984 c 1.721,5.101 4.244,17.629 5.48,27.205 1.169,9.059 1.185,48.64 0.024,57.329 -3.615,27.036 -6.101,36.9 -9.021,35.79 -16.975,-6.454 -15.59,-128.951 1.411,-124.794 0.358,0.087 1.306,2.099 2.106,4.47"
           transform="matrix(0.81205919,0,0,0.72188306,-328.46566,-3.0382387)" />
        <path
           style="fill:#151621;fill-opacity:1;fill-rule:evenodd;stroke:#151621;stroke-opacity:1"
           inkscape:connector-curvature="0"
           id="path944"
           d="m 3.734,77.467 v 75.158 h 7.003 7.002 L 17.621,77.596 17.503,2.567 10.618,2.438 3.734,2.309 V 77.467 M 159.275,2.712 c -0.465,0.301 -0.561,15.62 -0.467,75.029 l 0.118,74.651 h 7.002 7.001 l 0.253,-45.741 c 0.266,-47.983 0.223,-47.02 2.325,-51.108 2.902,-5.644 11.003,-8.864 13.725,-5.456 3.234,4.051 3.524,8.986 3.518,59.831 l -0.005,42.474 7.011,0.129 7.012,0.129 -0.009,-46.103 c -0.011,-54.175 -0.031,-54.409 -5.137,-61.172 -6.092,-8.07 -19.746,-7.281 -26.056,1.506 -0.841,1.17 -1.723,2.127 -1.962,2.127 -0.259,0 -0.482,-9.33 -0.554,-23.22 L 172.929,2.567 166.394,2.451 c -3.594,-0.065 -6.797,0.053 -7.119,0.261 m 75.251,9.073 c -0.12,0.321 -0.271,6.885 -0.336,14.586 l -0.118,14.002 -4.803,0.134 -4.804,0.133 0.136,3.601 0.136,3.6 4.783,0.133 4.782,0.133 0.118,52.143 0.119,52.142 7.118,0.129 7.118,0.129 V 100.379 48.107 l 4.784,-0.133 4.784,-0.133 0.136,-3.6 0.136,-3.601 -4.803,-0.133 -4.804,-0.134 -0.123,-14.585 -0.124,-14.586 h -7.009 c -5.18,0 -7.066,0.152 -7.226,0.583 M 44.341,22.17 v 7.702 h 7.934 7.935 V 22.17 14.469 h -7.935 -7.934 v 7.701 m 252.275,17.448 c -16.153,4.684 -23.441,24.515 -22.575,61.432 0.666,28.401 6.53,44.486 18.374,50.409 4.464,2.231 16.442,2.055 23.338,-0.343 7.454,-2.594 12.204,-7.442 12.487,-12.746 l 0.115,-2.149 -4.201,-1.596 c -2.31,-0.878 -4.253,-1.598 -4.317,-1.599 -0.065,-0.002 -0.117,0.419 -0.117,0.935 0,7.353 -16.223,14.766 -21.886,10.001 -4.29,-3.61 -7.623,-17.474 -8.072,-33.577 l -0.117,-4.201 20.405,-0.121 20.405,-0.122 -0.004,-4.079 c -0.04,-44.017 -13.2,-68.227 -33.835,-62.244 M 97.439,39.913 c -7.732,2.84 -13.11,12.281 -15.684,27.532 -3.163,18.745 -2.544,48.532 1.326,63.721 6.839,26.846 27.984,29.042 37.336,3.876 l 1.358,-3.653 0.023,67.094 0.022,67.095 h 7.235 7.234 V 152.859 40.14 h -7.234 -7.235 l -0.022,10.152 -0.023,10.151 -1.306,-3.5 C 115.14,42.658 106.784,36.48 97.439,39.913 m 249.467,0.146 c -0.465,0.295 -0.561,11.876 -0.467,56.352 l 0.119,55.981 h 7.001 7.001 l 0.274,-42.707 c 0.267,-41.563 0.377,-44.606 1.81,-49.895 4.998,-18.445 24.444,-15.859 26.372,3.507 l 0.331,3.32 3.809,0.265 c 4.87,0.339 4.782,0.463 4.178,-5.847 -1.354,-14.166 -8.217,-21.173 -20.671,-21.104 -6.956,0.038 -11.466,2.741 -14.243,8.533 -1.387,2.895 -1.627,2.432 -1.627,-3.14 0,-4.205 -0.127,-5.133 -0.738,-5.367 -1.092,-0.419 -12.467,-0.331 -13.149,0.102 m -301.517,56.44 0.119,55.893 h 7.001 7.001 L 59.628,96.499 59.747,40.607 H 52.509 45.27 l 0.119,55.892 M 306.152,48.026 c 5.445,4.304 8.891,20.157 9.06,41.683 l 0.074,9.474 -11.902,0.131 c -6.546,0.073 -12.408,0.008 -13.026,-0.144 l -1.123,-0.275 0.31,-10.124 c 0.984,-32.122 7.449,-47.982 16.607,-40.745 M 109.195,47.829 c 16.443,8.503 16.618,87.9 0.21,95.686 -8.715,4.135 -9.719,-1.44 -9.387,-52.131 0.27,-41.026 0.702,-43.947 6.54,-44.189 0.718,-0.029 1.905,0.256 2.637,0.634" />
      </g>
    </g>
    <g
       id="g958"
       style="fill:#151621;fill-opacity:1;stroke:#151621;stroke-opacity:1"
       transform="matrix(0.36651827,0,0,0.36651827,128.69065,141.44453)">
      <g
         id="g956"
         style="fill:#151621;fill-opacity:1;stroke:#151621;stroke-opacity:1">
        <path
           style="fill:#151621;fill-opacity:1;fill-rule:evenodd;stroke:#151621;stroke-opacity:1"
           inkscape:connector-curvature="0"
           id="path952"
           d="m 361.197,10.261 c -0.916,2.161 -11.844,29.952 -16.588,42.182 -16.163,41.677 -18.695,47.883 -19.536,47.883 -0.41,0 -0.643,-7.684 -0.643,-21.173 V 57.98 h -15.528 -15.528 l -0.446,77.764 c -0.245,42.77 -0.262,78.242 -0.037,78.827 0.361,0.943 2.15,1.064 15.648,1.064 h 15.24 v -30.906 c 0,-16.998 0.248,-31.06 0.552,-31.248 0.777,-0.48 2.207,6.475 7.626,37.073 0.889,5.016 2.052,11.466 2.586,14.332 0.534,2.866 1.155,6.458 1.381,7.98 l 0.409,2.769 h 15.294 15.293 l -0.436,-2.323 c -0.239,-1.278 -1.622,-6.481 -3.073,-11.564 -1.45,-5.082 -7.267,-25.803 -12.926,-46.048 l -10.289,-36.807 3.442,-7.492 c 1.893,-4.121 6.441,-13.942 10.105,-21.824 3.665,-7.883 7.474,-16.092 8.466,-18.241 0.992,-2.15 6.129,-13.144 11.416,-24.43 14.79,-31.572 17.819,-38.307 17.412,-38.713 -0.206,-0.207 -6.771,-0.375 -14.59,-0.375 h -14.215 l -1.035,2.443 M 120.521,27.351 V 44.3 h 16.775 16.776 l -0.149,-16.775 -0.149,-16.776 -16.627,-0.174 -16.626,-0.174 v 16.95 M 58.116,59.012 c -3.94,1.964 -7.975,6.285 -10.596,11.346 l -1.855,3.583 -0.031,-7.654 -0.031,-7.655 H 30.075 14.547 l -0.433,71.824 c -0.238,39.503 -0.433,110.155 -0.433,157.003 v 85.179 h 15.635 15.635 l 0.019,-86.807 0.019,-86.808 2.395,4.491 c 6.027,11.302 15.701,16.029 24.797,12.116 C 103.253,202.263 103.63,73.324 72.638,58.862 68.041,56.716 62.61,56.773 58.116,59.012 m 166.792,0.055 c -1.529,0.541 -4.377,2.443 -6.329,4.227 -3.903,3.567 -4.68,3.192 -4.136,-1.999 l 0.215,-2.047 -15.309,-0.008 -15.31,-0.008 v 78.039 78.038 h 15.161 15.16 l -0.017,-57.329 c -0.01,-34.365 0.251,-60.14 0.652,-64.346 1.377,-14.447 6.223,-20.246 11.838,-14.167 3.505,3.796 3.41,2.012 3.774,71.347 l 0.338,64.495 h 15.309 15.31 v -64.495 c 0,-69.998 0.098,-67.932 -3.637,-76.353 C 252.542,62.316 236.655,54.91 224.908,59.067 m -102.924,78.229 0.166,78.013 h 14.984 14.983 l 0.166,-78.013 0.165,-78.013 h -15.314 -15.315 l 0.165,78.013 M 61.064,78.984 c 1.721,5.101 4.244,17.629 5.48,27.205 1.169,9.059 1.185,48.64 0.024,57.329 -3.615,27.036 -6.101,36.9 -9.021,35.79 -16.975,-6.454 -15.59,-128.951 1.411,-124.794 0.358,0.087 1.306,2.099 2.106,4.47"
           transform="matrix(0.81205919,0,0,0.72188306,-328.46566,-3.0382387)" />
        <path
           style="fill:#151621;fill-opacity:1;fill-rule:evenodd;stroke:#151621;stroke-opacity:1"
           inkscape:connector-curvature="0"
           id="path954"
           d="m 3.734,77.467 v 75.158 h 7.003 7.002 L 17.621,77.596 17.503,2.567 10.618,2.438 3.734,2.309 V 77.467 M 159.275,2.712 c -0.465,0.301 -0.561,15.62 -0.467,75.029 l 0.118,74.651 h 7.002 7.001 l 0.253,-45.741 c 0.266,-47.983 0.223,-47.02 2.325,-51.108 2.902,-5.644 11.003,-8.864 13.725,-5.456 3.234,4.051 3.524,8.986 3.518,59.831 l -0.005,42.474 7.011,0.129 7.012,0.129 -0.009,-46.103 c -0.011,-54.175 -0.031,-54.409 -5.137,-61.172 -6.092,-8.07 -19.746,-7.281 -26.056,1.506 -0.841,1.17 -1.723,2.127 -1.962,2.127 -0.259,0 -0.482,-9.33 -0.554,-23.22 L 172.929,2.567 166.394,2.451 c -3.594,-0.065 -6.797,0.053 -7.119,0.261 m 75.251,9.073 c -0.12,0.321 -0.271,6.885 -0.336,14.586 l -0.118,14.002 -4.803,0.134 -4.804,0.133 0.136,3.601 0.136,3.6 4.783,0.133 4.782,0.133 0.118,52.143 0.119,52.142 7.118,0.129 7.118,0.129 V 100.379 48.107 l 4.784,-0.133 4.784,-0.133 0.136,-3.6 0.136,-3.601 -4.803,-0.133 -4.804,-0.134 -0.123,-14.585 -0.124,-14.586 h -7.009 c -5.18,0 -7.066,0.152 -7.226,0.583 M 44.341,22.17 v 7.702 h 7.934 7.935 V 22.17 14.469 h -7.935 -7.934 v 7.701 m 252.275,17.448 c -16.153,4.684 -23.441,24.515 -22.575,61.432 0.666,28.401 6.53,44.486 18.374,50.409 4.464,2.231 16.442,2.055 23.338,-0.343 7.454,-2.594 12.204,-7.442 12.487,-12.746 l 0.115,-2.149 -4.201,-1.596 c -2.31,-0.878 -4.253,-1.598 -4.317,-1.599 -0.065,-0.002 -0.117,0.419 -0.117,0.935 0,7.353 -16.223,14.766 -21.886,10.001 -4.29,-3.61 -7.623,-17.474 -8.072,-33.577 l -0.117,-4.201 20.405,-0.121 20.405,-0.122 -0.004,-4.079 c -0.04,-44.017 -13.2,-68.227 -33.835,-62.244 M 97.439,39.913 c -7.732,2.84 -13.11,12.281 -15.684,27.532 -3.163,18.745 -2.544,48.532 1.326,63.721 6.839,26.846 27.984,29.042 37.336,3.876 l 1.358,-3.653 0.023,67.094 0.022,67.095 h 7.235 7.234 V 152.859 40.14 h -7.234 -7.235 l -0.022,10.152 -0.023,10.151 -1.306,-3.5 C 115.14,42.658 106.784,36.48 97.439,39.913 m 249.467,0.146 c -0.465,0.295 -0.561,11.876 -0.467,56.352 l 0.119,55.981 h 7.001 7.001 l 0.274,-42.707 c 0.267,-41.563 0.377,-44.606 1.81,-49.895 4.998,-18.445 24.444,-15.859 26.372,3.507 l 0.331,3.32 3.809,0.265 c 4.87,0.339 4.782,0.463 4.178,-5.847 -1.354,-14.166 -8.217,-21.173 -20.671,-21.104 -6.956,0.038 -11.466,2.741 -14.243,8.533 -1.387,2.895 -1.627,2.432 -1.627,-3.14 0,-4.205 -0.127,-5.133 -0.738,-5.367 -1.092,-0.419 -12.467,-0.331 -13.149,0.102 m -301.517,56.44 0.119,55.893 h 7.001 7.001 L 59.628,96.499 59.747,40.607 H 52.509 45.27 l 0.119,55.892 M 306.152,48.026 c 5.445,4.304 8.891,20.157 9.06,41.683 l 0.074,9.474 -11.902,0.131 c -6.546,0.073 -12.408,0.008 -13.026,-0.144 l -1.123,-0.275 0.31,-10.124 c 0.984,-32.122 7.449,-47.982 16.607,-40.745 M 109.195,47.829 c 16.443,8.503 16.618,87.9 0.21,95.686 -8.715,4.135 -9.719,-1.44 -9.387,-52.131 0.27,-41.026 0.702,-43.947 6.54,-44.189 0.718,-0.029 1.905,0.256 2.637,0.634" />
      </g>
    </g>
    <g
       style="fill:#151621;fill-opacity:1;stroke:#151621;stroke-opacity:1"
       id="g968"
       transform="matrix(0.36651827,0,0,0.36651827,128.42607,141.70911)">
      <g
         style="fill:#151621;fill-opacity:1;stroke:#151621;stroke-opacity:1"
         id="g966">
        <path
           transform="matrix(0.81205919,0,0,0.72188306,-328.46566,-3.0382387)"
           d="m 361.197,10.261 c -0.916,2.161 -11.844,29.952 -16.588,42.182 -16.163,41.677 -18.695,47.883 -19.536,47.883 -0.41,0 -0.643,-7.684 -0.643,-21.173 V 57.98 h -15.528 -15.528 l -0.446,77.764 c -0.245,42.77 -0.262,78.242 -0.037,78.827 0.361,0.943 2.15,1.064 15.648,1.064 h 15.24 v -30.906 c 0,-16.998 0.248,-31.06 0.552,-31.248 0.777,-0.48 2.207,6.475 7.626,37.073 0.889,5.016 2.052,11.466 2.586,14.332 0.534,2.866 1.155,6.458 1.381,7.98 l 0.409,2.769 h 15.294 15.293 l -0.436,-2.323 c -0.239,-1.278 -1.622,-6.481 -3.073,-11.564 -1.45,-5.082 -7.267,-25.803 -12.926,-46.048 l -10.289,-36.807 3.442,-7.492 c 1.893,-4.121 6.441,-13.942 10.105,-21.824 3.665,-7.883 7.474,-16.092 8.466,-18.241 0.992,-2.15 6.129,-13.144 11.416,-24.43 14.79,-31.572 17.819,-38.307 17.412,-38.713 -0.206,-0.207 -6.771,-0.375 -14.59,-0.375 h -14.215 l -1.035,2.443 M 120.521,27.351 V 44.3 h 16.775 16.776 l -0.149,-16.775 -0.149,-16.776 -16.627,-0.174 -16.626,-0.174 v 16.95 M 58.116,59.012 c -3.94,1.964 -7.975,6.285 -10.596,11.346 l -1.855,3.583 -0.031,-7.654 -0.031,-7.655 H 30.075 14.547 l -0.433,71.824 c -0.238,39.503 -0.433,110.155 -0.433,157.003 v 85.179 h 15.635 15.635 l 0.019,-86.807 0.019,-86.808 2.395,4.491 c 6.027,11.302 15.701,16.029 24.797,12.116 C 103.253,202.263 103.63,73.324 72.638,58.862 68.041,56.716 62.61,56.773 58.116,59.012 m 166.792,0.055 c -1.529,0.541 -4.377,2.443 -6.329,4.227 -3.903,3.567 -4.68,3.192 -4.136,-1.999 l 0.215,-2.047 -15.309,-0.008 -15.31,-0.008 v 78.039 78.038 h 15.161 15.16 l -0.017,-57.329 c -0.01,-34.365 0.251,-60.14 0.652,-64.346 1.377,-14.447 6.223,-20.246 11.838,-14.167 3.505,3.796 3.41,2.012 3.774,71.347 l 0.338,64.495 h 15.309 15.31 v -64.495 c 0,-69.998 0.098,-67.932 -3.637,-76.353 C 252.542,62.316 236.655,54.91 224.908,59.067 m -102.924,78.229 0.166,78.013 h 14.984 14.983 l 0.166,-78.013 0.165,-78.013 h -15.314 -15.315 l 0.165,78.013 M 61.064,78.984 c 1.721,5.101 4.244,17.629 5.48,27.205 1.169,9.059 1.185,48.64 0.024,57.329 -3.615,27.036 -6.101,36.9 -9.021,35.79 -16.975,-6.454 -15.59,-128.951 1.411,-124.794 0.358,0.087 1.306,2.099 2.106,4.47"
           id="path962"
           inkscape:connector-curvature="0"
           style="fill:#151621;fill-opacity:1;fill-rule:evenodd;stroke:#151621;stroke-opacity:1" />
        <path
           d="m 3.734,77.467 v 75.158 h 7.003 7.002 L 17.621,77.596 17.503,2.567 10.618,2.438 3.734,2.309 V 77.467 M 159.275,2.712 c -0.465,0.301 -0.561,15.62 -0.467,75.029 l 0.118,74.651 h 7.002 7.001 l 0.253,-45.741 c 0.266,-47.983 0.223,-47.02 2.325,-51.108 2.902,-5.644 11.003,-8.864 13.725,-5.456 3.234,4.051 3.524,8.986 3.518,59.831 l -0.005,42.474 7.011,0.129 7.012,0.129 -0.009,-46.103 c -0.011,-54.175 -0.031,-54.409 -5.137,-61.172 -6.092,-8.07 -19.746,-7.281 -26.056,1.506 -0.841,1.17 -1.723,2.127 -1.962,2.127 -0.259,0 -0.482,-9.33 -0.554,-23.22 L 172.929,2.567 166.394,2.451 c -3.594,-0.065 -6.797,0.053 -7.119,0.261 m 75.251,9.073 c -0.12,0.321 -0.271,6.885 -0.336,14.586 l -0.118,14.002 -4.803,0.134 -4.804,0.133 0.136,3.601 0.136,3.6 4.783,0.133 4.782,0.133 0.118,52.143 0.119,52.142 7.118,0.129 7.118,0.129 V 100.379 48.107 l 4.784,-0.133 4.784,-0.133 0.136,-3.6 0.136,-3.601 -4.803,-0.133 -4.804,-0.134 -0.123,-14.585 -0.124,-14.586 h -7.009 c -5.18,0 -7.066,0.152 -7.226,0.583 M 44.341,22.17 v 7.702 h 7.934 7.935 V 22.17 14.469 h -7.935 -7.934 v 7.701 m 252.275,17.448 c -16.153,4.684 -23.441,24.515 -22.575,61.432 0.666,28.401 6.53,44.486 18.374,50.409 4.464,2.231 16.442,2.055 23.338,-0.343 7.454,-2.594 12.204,-7.442 12.487,-12.746 l 0.115,-2.149 -4.201,-1.596 c -2.31,-0.878 -4.253,-1.598 -4.317,-1.599 -0.065,-0.002 -0.117,0.419 -0.117,0.935 0,7.353 -16.223,14.766 -21.886,10.001 -4.29,-3.61 -7.623,-17.474 -8.072,-33.577 l -0.117,-4.201 20.405,-0.121 20.405,-0.122 -0.004,-4.079 c -0.04,-44.017 -13.2,-68.227 -33.835,-62.244 M 97.439,39.913 c -7.732,2.84 -13.11,12.281 -15.684,27.532 -3.163,18.745 -2.544,48.532 1.326,63.721 6.839,26.846 27.984,29.042 37.336,3.876 l 1.358,-3.653 0.023,67.094 0.022,67.095 h 7.235 7.234 V 152.859 40.14 h -7.234 -7.235 l -0.022,10.152 -0.023,10.151 -1.306,-3.5 C 115.14,42.658 106.784,36.48 97.439,39.913 m 249.467,0.146 c -0.465,0.295 -0.561,11.876 -0.467,56.352 l 0.119,55.981 h 7.001 7.001 l 0.274,-42.707 c 0.267,-41.563 0.377,-44.606 1.81,-49.895 4.998,-18.445 24.444,-15.859 26.372,3.507 l 0.331,3.32 3.809,0.265 c 4.87,0.339 4.782,0.463 4.178,-5.847 -1.354,-14.166 -8.217,-21.173 -20.671,-21.104 -6.956,0.038 -11.466,2.741 -14.243,8.533 -1.387,2.895 -1.627,2.432 -1.627,-3.14 0,-4.205 -0.127,-5.133 -0.738,-5.367 -1.092,-0.419 -12.467,-0.331 -13.149,0.102 m -301.517,56.44 0.119,55.893 h 7.001 7.001 L 59.628,96.499 59.747,40.607 H 52.509 45.27 l 0.119,55.892 M 306.152,48.026 c 5.445,4.304 8.891,20.157 9.06,41.683 l 0.074,9.474 -11.902,0.131 c -6.546,0.073 -12.408,0.008 -13.026,-0.144 l -1.123,-0.275 0.31,-10.124 c 0.984,-32.122 7.449,-47.982 16.607,-40.745 M 109.195,47.829 c 16.443,8.503 16.618,87.9 0.21,95.686 -8.715,4.135 -9.719,-1.44 -9.387,-52.131 0.27,-41.026 0.702,-43.947 6.54,-44.189 0.718,-0.029 1.905,0.256 2.637,0.634"
           id="path964"
           inkscape:connector-curvature="0"
           style="fill:#151621;fill-opacity:1;fill-rule:evenodd;stroke:#151621;stroke-opacity:1" />
      </g>
    </g>
    <g
       id="g978"
       style="fill:#151621;fill-opacity:1;stroke:#151621;stroke-opacity:1"
       transform="matrix(0.36651827,0,0,0.36651827,128.16149,141.97369)">
      <g
         id="g976"
         style="fill:#151621;fill-opacity:1;stroke:#151621;stroke-opacity:1">
        <path
           style="fill:#151621;fill-opacity:1;fill-rule:evenodd;stroke:#151621;stroke-opacity:1"
           inkscape:connector-curvature="0"
           id="path972"
           d="m 361.197,10.261 c -0.916,2.161 -11.844,29.952 -16.588,42.182 -16.163,41.677 -18.695,47.883 -19.536,47.883 -0.41,0 -0.643,-7.684 -0.643,-21.173 V 57.98 h -15.528 -15.528 l -0.446,77.764 c -0.245,42.77 -0.262,78.242 -0.037,78.827 0.361,0.943 2.15,1.064 15.648,1.064 h 15.24 v -30.906 c 0,-16.998 0.248,-31.06 0.552,-31.248 0.777,-0.48 2.207,6.475 7.626,37.073 0.889,5.016 2.052,11.466 2.586,14.332 0.534,2.866 1.155,6.458 1.381,7.98 l 0.409,2.769 h 15.294 15.293 l -0.436,-2.323 c -0.239,-1.278 -1.622,-6.481 -3.073,-11.564 -1.45,-5.082 -7.267,-25.803 -12.926,-46.048 l -10.289,-36.807 3.442,-7.492 c 1.893,-4.121 6.441,-13.942 10.105,-21.824 3.665,-7.883 7.474,-16.092 8.466,-18.241 0.992,-2.15 6.129,-13.144 11.416,-24.43 14.79,-31.572 17.819,-38.307 17.412,-38.713 -0.206,-0.207 -6.771,-0.375 -14.59,-0.375 h -14.215 l -1.035,2.443 M 120.521,27.351 V 44.3 h 16.775 16.776 l -0.149,-16.775 -0.149,-16.776 -16.627,-0.174 -16.626,-0.174 v 16.95 M 58.116,59.012 c -3.94,1.964 -7.975,6.285 -10.596,11.346 l -1.855,3.583 -0.031,-7.654 -0.031,-7.655 H 30.075 14.547 l -0.433,71.824 c -0.238,39.503 -0.433,110.155 -0.433,157.003 v 85.179 h 15.635 15.635 l 0.019,-86.807 0.019,-86.808 2.395,4.491 c 6.027,11.302 15.701,16.029 24.797,12.116 C 103.253,202.263 103.63,73.324 72.638,58.862 68.041,56.716 62.61,56.773 58.116,59.012 m 166.792,0.055 c -1.529,0.541 -4.377,2.443 -6.329,4.227 -3.903,3.567 -4.68,3.192 -4.136,-1.999 l 0.215,-2.047 -15.309,-0.008 -15.31,-0.008 v 78.039 78.038 h 15.161 15.16 l -0.017,-57.329 c -0.01,-34.365 0.251,-60.14 0.652,-64.346 1.377,-14.447 6.223,-20.246 11.838,-14.167 3.505,3.796 3.41,2.012 3.774,71.347 l 0.338,64.495 h 15.309 15.31 v -64.495 c 0,-69.998 0.098,-67.932 -3.637,-76.353 C 252.542,62.316 236.655,54.91 224.908,59.067 m -102.924,78.229 0.166,78.013 h 14.984 14.983 l 0.166,-78.013 0.165,-78.013 h -15.314 -15.315 l 0.165,78.013 M 61.064,78.984 c 1.721,5.101 4.244,17.629 5.48,27.205 1.169,9.059 1.185,48.64 0.024,57.329 -3.615,27.036 -6.101,36.9 -9.021,35.79 -16.975,-6.454 -15.59,-128.951 1.411,-124.794 0.358,0.087 1.306,2.099 2.106,4.47"
           transform="matrix(0.81205919,0,0,0.72188306,-328.46566,-3.0382387)" />
        <path
           style="fill:#151621;fill-opacity:1;fill-rule:evenodd;stroke:#151621;stroke-opacity:1"
           inkscape:connector-curvature="0"
           id="path974"
           d="m 3.734,77.467 v 75.158 h 7.003 7.002 L 17.621,77.596 17.503,2.567 10.618,2.438 3.734,2.309 V 77.467 M 159.275,2.712 c -0.465,0.301 -0.561,15.62 -0.467,75.029 l 0.118,74.651 h 7.002 7.001 l 0.253,-45.741 c 0.266,-47.983 0.223,-47.02 2.325,-51.108 2.902,-5.644 11.003,-8.864 13.725,-5.456 3.234,4.051 3.524,8.986 3.518,59.831 l -0.005,42.474 7.011,0.129 7.012,0.129 -0.009,-46.103 c -0.011,-54.175 -0.031,-54.409 -5.137,-61.172 -6.092,-8.07 -19.746,-7.281 -26.056,1.506 -0.841,1.17 -1.723,2.127 -1.962,2.127 -0.259,0 -0.482,-9.33 -0.554,-23.22 L 172.929,2.567 166.394,2.451 c -3.594,-0.065 -6.797,0.053 -7.119,0.261 m 75.251,9.073 c -0.12,0.321 -0.271,6.885 -0.336,14.586 l -0.118,14.002 -4.803,0.134 -4.804,0.133 0.136,3.601 0.136,3.6 4.783,0.133 4.782,0.133 0.118,52.143 0.119,52.142 7.118,0.129 7.118,0.129 V 100.379 48.107 l 4.784,-0.133 4.784,-0.133 0.136,-3.6 0.136,-3.601 -4.803,-0.133 -4.804,-0.134 -0.123,-14.585 -0.124,-14.586 h -7.009 c -5.18,0 -7.066,0.152 -7.226,0.583 M 44.341,22.17 v 7.702 h 7.934 7.935 V 22.17 14.469 h -7.935 -7.934 v 7.701 m 252.275,17.448 c -16.153,4.684 -23.441,24.515 -22.575,61.432 0.666,28.401 6.53,44.486 18.374,50.409 4.464,2.231 16.442,2.055 23.338,-0.343 7.454,-2.594 12.204,-7.442 12.487,-12.746 l 0.115,-2.149 -4.201,-1.596 c -2.31,-0.878 -4.253,-1.598 -4.317,-1.599 -0.065,-0.002 -0.117,0.419 -0.117,0.935 0,7.353 -16.223,14.766 -21.886,10.001 -4.29,-3.61 -7.623,-17.474 -8.072,-33.577 l -0.117,-4.201 20.405,-0.121 20.405,-0.122 -0.004,-4.079 c -0.04,-44.017 -13.2,-68.227 -33.835,-62.244 M 97.439,39.913 c -7.732,2.84 -13.11,12.281 -15.684,27.532 -3.163,18.745 -2.544,48.532 1.326,63.721 6.839,26.846 27.984,29.042 37.336,3.876 l 1.358,-3.653 0.023,67.094 0.022,67.095 h 7.235 7.234 V 152.859 40.14 h -7.234 -7.235 l -0.022,10.152 -0.023,10.151 -1.306,-3.5 C 115.14,42.658 106.784,36.48 97.439,39.913 m 249.467,0.146 c -0.465,0.295 -0.561,11.876 -0.467,56.352 l 0.119,55.981 h 7.001 7.001 l 0.274,-42.707 c 0.267,-41.563 0.377,-44.606 1.81,-49.895 4.998,-18.445 24.444,-15.859 26.372,3.507 l 0.331,3.32 3.809,0.265 c 4.87,0.339 4.782,0.463 4.178,-5.847 -1.354,-14.166 -8.217,-21.173 -20.671,-21.104 -6.956,0.038 -11.466,2.741 -14.243,8.533 -1.387,2.895 -1.627,2.432 -1.627,-3.14 0,-4.205 -0.127,-5.133 -0.738,-5.367 -1.092,-0.419 -12.467,-0.331 -13.149,0.102 m -301.517,56.44 0.119,55.893 h 7.001 7.001 L 59.628,96.499 59.747,40.607 H 52.509 45.27 l 0.119,55.892 M 306.152,48.026 c 5.445,4.304 8.891,20.157 9.06,41.683 l 0.074,9.474 -11.902,0.131 c -6.546,0.073 -12.408,0.008 -13.026,-0.144 l -1.123,-0.275 0.31,-10.124 c 0.984,-32.122 7.449,-47.982 16.607,-40.745 M 109.195,47.829 c 16.443,8.503 16.618,87.9 0.21,95.686 -8.715,4.135 -9.719,-1.44 -9.387,-52.131 0.27,-41.026 0.702,-43.947 6.54,-44.189 0.718,-0.029 1.905,0.256 2.637,0.634" />
      </g>
    </g>
    <g
       style="fill:#151621;fill-opacity:1;stroke:#151621;stroke-opacity:1"
       id="g988"
       transform="matrix(0.36651827,0,0,0.36651827,127.89691,142.23828)">
      <g
         style="fill:#151621;fill-opacity:1;stroke:#151621;stroke-opacity:1"
         id="g986">
        <path
           transform="matrix(0.81205919,0,0,0.72188306,-328.46566,-3.0382387)"
           d="m 361.197,10.261 c -0.916,2.161 -11.844,29.952 -16.588,42.182 -16.163,41.677 -18.695,47.883 -19.536,47.883 -0.41,0 -0.643,-7.684 -0.643,-21.173 V 57.98 h -15.528 -15.528 l -0.446,77.764 c -0.245,42.77 -0.262,78.242 -0.037,78.827 0.361,0.943 2.15,1.064 15.648,1.064 h 15.24 v -30.906 c 0,-16.998 0.248,-31.06 0.552,-31.248 0.777,-0.48 2.207,6.475 7.626,37.073 0.889,5.016 2.052,11.466 2.586,14.332 0.534,2.866 1.155,6.458 1.381,7.98 l 0.409,2.769 h 15.294 15.293 l -0.436,-2.323 c -0.239,-1.278 -1.622,-6.481 -3.073,-11.564 -1.45,-5.082 -7.267,-25.803 -12.926,-46.048 l -10.289,-36.807 3.442,-7.492 c 1.893,-4.121 6.441,-13.942 10.105,-21.824 3.665,-7.883 7.474,-16.092 8.466,-18.241 0.992,-2.15 6.129,-13.144 11.416,-24.43 14.79,-31.572 17.819,-38.307 17.412,-38.713 -0.206,-0.207 -6.771,-0.375 -14.59,-0.375 h -14.215 l -1.035,2.443 M 120.521,27.351 V 44.3 h 16.775 16.776 l -0.149,-16.775 -0.149,-16.776 -16.627,-0.174 -16.626,-0.174 v 16.95 M 58.116,59.012 c -3.94,1.964 -7.975,6.285 -10.596,11.346 l -1.855,3.583 -0.031,-7.654 -0.031,-7.655 H 30.075 14.547 l -0.433,71.824 c -0.238,39.503 -0.433,110.155 -0.433,157.003 v 85.179 h 15.635 15.635 l 0.019,-86.807 0.019,-86.808 2.395,4.491 c 6.027,11.302 15.701,16.029 24.797,12.116 C 103.253,202.263 103.63,73.324 72.638,58.862 68.041,56.716 62.61,56.773 58.116,59.012 m 166.792,0.055 c -1.529,0.541 -4.377,2.443 -6.329,4.227 -3.903,3.567 -4.68,3.192 -4.136,-1.999 l 0.215,-2.047 -15.309,-0.008 -15.31,-0.008 v 78.039 78.038 h 15.161 15.16 l -0.017,-57.329 c -0.01,-34.365 0.251,-60.14 0.652,-64.346 1.377,-14.447 6.223,-20.246 11.838,-14.167 3.505,3.796 3.41,2.012 3.774,71.347 l 0.338,64.495 h 15.309 15.31 v -64.495 c 0,-69.998 0.098,-67.932 -3.637,-76.353 C 252.542,62.316 236.655,54.91 224.908,59.067 m -102.924,78.229 0.166,78.013 h 14.984 14.983 l 0.166,-78.013 0.165,-78.013 h -15.314 -15.315 l 0.165,78.013 M 61.064,78.984 c 1.721,5.101 4.244,17.629 5.48,27.205 1.169,9.059 1.185,48.64 0.024,57.329 -3.615,27.036 -6.101,36.9 -9.021,35.79 -16.975,-6.454 -15.59,-128.951 1.411,-124.794 0.358,0.087 1.306,2.099 2.106,4.47"
           id="path982"
           inkscape:connector-curvature="0"
           style="fill:#151621;fill-opacity:1;fill-rule:evenodd;stroke:#151621;stroke-opacity:1" />
        <path
           d="m 3.734,77.467 v 75.158 h 7.003 7.002 L 17.621,77.596 17.503,2.567 10.618,2.438 3.734,2.309 V 77.467 M 159.275,2.712 c -0.465,0.301 -0.561,15.62 -0.467,75.029 l 0.118,74.651 h 7.002 7.001 l 0.253,-45.741 c 0.266,-47.983 0.223,-47.02 2.325,-51.108 2.902,-5.644 11.003,-8.864 13.725,-5.456 3.234,4.051 3.524,8.986 3.518,59.831 l -0.005,42.474 7.011,0.129 7.012,0.129 -0.009,-46.103 c -0.011,-54.175 -0.031,-54.409 -5.137,-61.172 -6.092,-8.07 -19.746,-7.281 -26.056,1.506 -0.841,1.17 -1.723,2.127 -1.962,2.127 -0.259,0 -0.482,-9.33 -0.554,-23.22 L 172.929,2.567 166.394,2.451 c -3.594,-0.065 -6.797,0.053 -7.119,0.261 m 75.251,9.073 c -0.12,0.321 -0.271,6.885 -0.336,14.586 l -0.118,14.002 -4.803,0.134 -4.804,0.133 0.136,3.601 0.136,3.6 4.783,0.133 4.782,0.133 0.118,52.143 0.119,52.142 7.118,0.129 7.118,0.129 V 100.379 48.107 l 4.784,-0.133 4.784,-0.133 0.136,-3.6 0.136,-3.601 -4.803,-0.133 -4.804,-0.134 -0.123,-14.585 -0.124,-14.586 h -7.009 c -5.18,0 -7.066,0.152 -7.226,0.583 M 44.341,22.17 v 7.702 h 7.934 7.935 V 22.17 14.469 h -7.935 -7.934 v 7.701 m 252.275,17.448 c -16.153,4.684 -23.441,24.515 -22.575,61.432 0.666,28.401 6.53,44.486 18.374,50.409 4.464,2.231 16.442,2.055 23.338,-0.343 7.454,-2.594 12.204,-7.442 12.487,-12.746 l 0.115,-2.149 -4.201,-1.596 c -2.31,-0.878 -4.253,-1.598 -4.317,-1.599 -0.065,-0.002 -0.117,0.419 -0.117,0.935 0,7.353 -16.223,14.766 -21.886,10.001 -4.29,-3.61 -7.623,-17.474 -8.072,-33.577 l -0.117,-4.201 20.405,-0.121 20.405,-0.122 -0.004,-4.079 c -0.04,-44.017 -13.2,-68.227 -33.835,-62.244 M 97.439,39.913 c -7.732,2.84 -13.11,12.281 -15.684,27.532 -3.163,18.745 -2.544,48.532 1.326,63.721 6.839,26.846 27.984,29.042 37.336,3.876 l 1.358,-3.653 0.023,67.094 0.022,67.095 h 7.235 7.234 V 152.859 40.14 h -7.234 -7.235 l -0.022,10.152 -0.023,10.151 -1.306,-3.5 C 115.14,42.658 106.784,36.48 97.439,39.913 m 249.467,0.146 c -0.465,0.295 -0.561,11.876 -0.467,56.352 l 0.119,55.981 h 7.001 7.001 l 0.274,-42.707 c 0.267,-41.563 0.377,-44.606 1.81,-49.895 4.998,-18.445 24.444,-15.859 26.372,3.507 l 0.331,3.32 3.809,0.265 c 4.87,0.339 4.782,0.463 4.178,-5.847 -1.354,-14.166 -8.217,-21.173 -20.671,-21.104 -6.956,0.038 -11.466,2.741 -14.243,8.533 -1.387,2.895 -1.627,2.432 -1.627,-3.14 0,-4.205 -0.127,-5.133 -0.738,-5.367 -1.092,-0.419 -12.467,-0.331 -13.149,0.102 m -301.517,56.44 0.119,55.893 h 7.001 7.001 L 59.628,96.499 59.747,40.607 H 52.509 45.27 l 0.119,55.892 M 306.152,48.026 c 5.445,4.304 8.891,20.157 9.06,41.683 l 0.074,9.474 -11.902,0.131 c -6.546,0.073 -12.408,0.008 -13.026,-0.144 l -1.123,-0.275 0.31,-10.124 c 0.984,-32.122 7.449,-47.982 16.607,-40.745 M 109.195,47.829 c 16.443,8.503 16.618,87.9 0.21,95.686 -8.715,4.135 -9.719,-1.44 -9.387,-52.131 0.27,-41.026 0.702,-43.947 6.54,-44.189 0.718,-0.029 1.905,0.256 2.637,0.634"
           id="path984"
           inkscape:connector-curvature="0"
           style="fill:#151621;fill-opacity:1;fill-rule:evenodd;stroke:#151621;stroke-opacity:1" />
      </g>
    </g>
    <g
       id="g998"
       style="fill:#151621;fill-opacity:1;stroke:#151621;stroke-opacity:1"
       transform="matrix(0.36651827,0,0,0.36651827,127.63233,142.50286)">
      <g
         id="g996"
         style="fill:#151621;fill-opacity:1;stroke:#151621;stroke-opacity:1">
        <path
           style="fill:#151621;fill-opacity:1;fill-rule:evenodd;stroke:#151621;stroke-opacity:1"
           inkscape:connector-curvature="0"
           id="path992"
           d="m 361.197,10.261 c -0.916,2.161 -11.844,29.952 -16.588,42.182 -16.163,41.677 -18.695,47.883 -19.536,47.883 -0.41,0 -0.643,-7.684 -0.643,-21.173 V 57.98 h -15.528 -15.528 l -0.446,77.764 c -0.245,42.77 -0.262,78.242 -0.037,78.827 0.361,0.943 2.15,1.064 15.648,1.064 h 15.24 v -30.906 c 0,-16.998 0.248,-31.06 0.552,-31.248 0.777,-0.48 2.207,6.475 7.626,37.073 0.889,5.016 2.052,11.466 2.586,14.332 0.534,2.866 1.155,6.458 1.381,7.98 l 0.409,2.769 h 15.294 15.293 l -0.436,-2.323 c -0.239,-1.278 -1.622,-6.481 -3.073,-11.564 -1.45,-5.082 -7.267,-25.803 -12.926,-46.048 l -10.289,-36.807 3.442,-7.492 c 1.893,-4.121 6.441,-13.942 10.105,-21.824 3.665,-7.883 7.474,-16.092 8.466,-18.241 0.992,-2.15 6.129,-13.144 11.416,-24.43 14.79,-31.572 17.819,-38.307 17.412,-38.713 -0.206,-0.207 -6.771,-0.375 -14.59,-0.375 h -14.215 l -1.035,2.443 M 120.521,27.351 V 44.3 h 16.775 16.776 l -0.149,-16.775 -0.149,-16.776 -16.627,-0.174 -16.626,-0.174 v 16.95 M 58.116,59.012 c -3.94,1.964 -7.975,6.285 -10.596,11.346 l -1.855,3.583 -0.031,-7.654 -0.031,-7.655 H 30.075 14.547 l -0.433,71.824 c -0.238,39.503 -0.433,110.155 -0.433,157.003 v 85.179 h 15.635 15.635 l 0.019,-86.807 0.019,-86.808 2.395,4.491 c 6.027,11.302 15.701,16.029 24.797,12.116 C 103.253,202.263 103.63,73.324 72.638,58.862 68.041,56.716 62.61,56.773 58.116,59.012 m 166.792,0.055 c -1.529,0.541 -4.377,2.443 -6.329,4.227 -3.903,3.567 -4.68,3.192 -4.136,-1.999 l 0.215,-2.047 -15.309,-0.008 -15.31,-0.008 v 78.039 78.038 h 15.161 15.16 l -0.017,-57.329 c -0.01,-34.365 0.251,-60.14 0.652,-64.346 1.377,-14.447 6.223,-20.246 11.838,-14.167 3.505,3.796 3.41,2.012 3.774,71.347 l 0.338,64.495 h 15.309 15.31 v -64.495 c 0,-69.998 0.098,-67.932 -3.637,-76.353 C 252.542,62.316 236.655,54.91 224.908,59.067 m -102.924,78.229 0.166,78.013 h 14.984 14.983 l 0.166,-78.013 0.165,-78.013 h -15.314 -15.315 l 0.165,78.013 M 61.064,78.984 c 1.721,5.101 4.244,17.629 5.48,27.205 1.169,9.059 1.185,48.64 0.024,57.329 -3.615,27.036 -6.101,36.9 -9.021,35.79 -16.975,-6.454 -15.59,-128.951 1.411,-124.794 0.358,0.087 1.306,2.099 2.106,4.47"
           transform="matrix(0.81205919,0,0,0.72188306,-328.46566,-3.0382387)" />
        <path
           style="fill:#151621;fill-opacity:1;fill-rule:evenodd;stroke:#151621;stroke-opacity:1"
           inkscape:connector-curvature="0"
           id="path994"
           d="m 3.734,77.467 v 75.158 h 7.003 7.002 L 17.621,77.596 17.503,2.567 10.618,2.438 3.734,2.309 V 77.467 M 159.275,2.712 c -0.465,0.301 -0.561,15.62 -0.467,75.029 l 0.118,74.651 h 7.002 7.001 l 0.253,-45.741 c 0.266,-47.983 0.223,-47.02 2.325,-51.108 2.902,-5.644 11.003,-8.864 13.725,-5.456 3.234,4.051 3.524,8.986 3.518,59.831 l -0.005,42.474 7.011,0.129 7.012,0.129 -0.009,-46.103 c -0.011,-54.175 -0.031,-54.409 -5.137,-61.172 -6.092,-8.07 -19.746,-7.281 -26.056,1.506 -0.841,1.17 -1.723,2.127 -1.962,2.127 -0.259,0 -0.482,-9.33 -0.554,-23.22 L 172.929,2.567 166.394,2.451 c -3.594,-0.065 -6.797,0.053 -7.119,0.261 m 75.251,9.073 c -0.12,0.321 -0.271,6.885 -0.336,14.586 l -0.118,14.002 -4.803,0.134 -4.804,0.133 0.136,3.601 0.136,3.6 4.783,0.133 4.782,0.133 0.118,52.143 0.119,52.142 7.118,0.129 7.118,0.129 V 100.379 48.107 l 4.784,-0.133 4.784,-0.133 0.136,-3.6 0.136,-3.601 -4.803,-0.133 -4.804,-0.134 -0.123,-14.585 -0.124,-14.586 h -7.009 c -5.18,0 -7.066,0.152 -7.226,0.583 M 44.341,22.17 v 7.702 h 7.934 7.935 V 22.17 14.469 h -7.935 -7.934 v 7.701 m 252.275,17.448 c -16.153,4.684 -23.441,24.515 -22.575,61.432 0.666,28.401 6.53,44.486 18.374,50.409 4.464,2.231 16.442,2.055 23.338,-0.343 7.454,-2.594 12.204,-7.442 12.487,-12.746 l 0.115,-2.149 -4.201,-1.596 c -2.31,-0.878 -4.253,-1.598 -4.317,-1.599 -0.065,-0.002 -0.117,0.419 -0.117,0.935 0,7.353 -16.223,14.766 -21.886,10.001 -4.29,-3.61 -7.623,-17.474 -8.072,-33.577 l -0.117,-4.201 20.405,-0.121 20.405,-0.122 -0.004,-4.079 c -0.04,-44.017 -13.2,-68.227 -33.835,-62.244 M 97.439,39.913 c -7.732,2.84 -13.11,12.281 -15.684,27.532 -3.163,18.745 -2.544,48.532 1.326,63.721 6.839,26.846 27.984,29.042 37.336,3.876 l 1.358,-3.653 0.023,67.094 0.022,67.095 h 7.235 7.234 V 152.859 40.14 h -7.234 -7.235 l -0.022,10.152 -0.023,10.151 -1.306,-3.5 C 115.14,42.658 106.784,36.48 97.439,39.913 m 249.467,0.146 c -0.465,0.295 -0.561,11.876 -0.467,56.352 l 0.119,55.981 h 7.001 7.001 l 0.274,-42.707 c 0.267,-41.563 0.377,-44.606 1.81,-49.895 4.998,-18.445 24.444,-15.859 26.372,3.507 l 0.331,3.32 3.809,0.265 c 4.87,0.339 4.782,0.463 4.178,-5.847 -1.354,-14.166 -8.217,-21.173 -20.671,-21.104 -6.956,0.038 -11.466,2.741 -14.243,8.533 -1.387,2.895 -1.627,2.432 -1.627,-3.14 0,-4.205 -0.127,-5.133 -0.738,-5.367 -1.092,-0.419 -12.467,-0.331 -13.149,0.102 m -301.517,56.44 0.119,55.893 h 7.001 7.001 L 59.628,96.499 59.747,40.607 H 52.509 45.27 l 0.119,55.892 M 306.152,48.026 c 5.445,4.304 8.891,20.157 9.06,41.683 l 0.074,9.474 -11.902,0.131 c -6.546,0.073 -12.408,0.008 -13.026,-0.144 l -1.123,-0.275 0.31,-10.124 c 0.984,-32.122 7.449,-47.982 16.607,-40.745 M 109.195,47.829 c 16.443,8.503 16.618,87.9 0.21,95.686 -8.715,4.135 -9.719,-1.44 -9.387,-52.131 0.27,-41.026 0.702,-43.947 6.54,-44.189 0.718,-0.029 1.905,0.256 2.637,0.634" />
      </g>
    </g>
    <g
       style="fill:#151621;fill-opacity:1;stroke:#151621;stroke-opacity:1"
       id="g1008"
       transform="matrix(0.36651827,0,0,0.36651827,127.36774,142.76745)">
      <g
         style="fill:#151621;fill-opacity:1;stroke:#151621;stroke-opacity:1"
         id="g1006">
        <path
           transform="matrix(0.81205919,0,0,0.72188306,-328.46566,-3.0382387)"
           d="m 361.197,10.261 c -0.916,2.161 -11.844,29.952 -16.588,42.182 -16.163,41.677 -18.695,47.883 -19.536,47.883 -0.41,0 -0.643,-7.684 -0.643,-21.173 V 57.98 h -15.528 -15.528 l -0.446,77.764 c -0.245,42.77 -0.262,78.242 -0.037,78.827 0.361,0.943 2.15,1.064 15.648,1.064 h 15.24 v -30.906 c 0,-16.998 0.248,-31.06 0.552,-31.248 0.777,-0.48 2.207,6.475 7.626,37.073 0.889,5.016 2.052,11.466 2.586,14.332 0.534,2.866 1.155,6.458 1.381,7.98 l 0.409,2.769 h 15.294 15.293 l -0.436,-2.323 c -0.239,-1.278 -1.622,-6.481 -3.073,-11.564 -1.45,-5.082 -7.267,-25.803 -12.926,-46.048 l -10.289,-36.807 3.442,-7.492 c 1.893,-4.121 6.441,-13.942 10.105,-21.824 3.665,-7.883 7.474,-16.092 8.466,-18.241 0.992,-2.15 6.129,-13.144 11.416,-24.43 14.79,-31.572 17.819,-38.307 17.412,-38.713 -0.206,-0.207 -6.771,-0.375 -14.59,-0.375 h -14.215 l -1.035,2.443 M 120.521,27.351 V 44.3 h 16.775 16.776 l -0.149,-16.775 -0.149,-16.776 -16.627,-0.174 -16.626,-0.174 v 16.95 M 58.116,59.012 c -3.94,1.964 -7.975,6.285 -10.596,11.346 l -1.855,3.583 -0.031,-7.654 -0.031,-7.655 H 30.075 14.547 l -0.433,71.824 c -0.238,39.503 -0.433,110.155 -0.433,157.003 v 85.179 h 15.635 15.635 l 0.019,-86.807 0.019,-86.808 2.395,4.491 c 6.027,11.302 15.701,16.029 24.797,12.116 C 103.253,202.263 103.63,73.324 72.638,58.862 68.041,56.716 62.61,56.773 58.116,59.012 m 166.792,0.055 c -1.529,0.541 -4.377,2.443 -6.329,4.227 -3.903,3.567 -4.68,3.192 -4.136,-1.999 l 0.215,-2.047 -15.309,-0.008 -15.31,-0.008 v 78.039 78.038 h 15.161 15.16 l -0.017,-57.329 c -0.01,-34.365 0.251,-60.14 0.652,-64.346 1.377,-14.447 6.223,-20.246 11.838,-14.167 3.505,3.796 3.41,2.012 3.774,71.347 l 0.338,64.495 h 15.309 15.31 v -64.495 c 0,-69.998 0.098,-67.932 -3.637,-76.353 C 252.542,62.316 236.655,54.91 224.908,59.067 m -102.924,78.229 0.166,78.013 h 14.984 14.983 l 0.166,-78.013 0.165,-78.013 h -15.314 -15.315 l 0.165,78.013 M 61.064,78.984 c 1.721,5.101 4.244,17.629 5.48,27.205 1.169,9.059 1.185,48.64 0.024,57.329 -3.615,27.036 -6.101,36.9 -9.021,35.79 -16.975,-6.454 -15.59,-128.951 1.411,-124.794 0.358,0.087 1.306,2.099 2.106,4.47"
           id="path1002"
           inkscape:connector-curvature="0"
           style="fill:#151621;fill-opacity:1;fill-rule:evenodd;stroke:#151621;stroke-opacity:1" />
        <path
           d="m 3.734,77.467 v 75.158 h 7.003 7.002 L 17.621,77.596 17.503,2.567 10.618,2.438 3.734,2.309 V 77.467 M 159.275,2.712 c -0.465,0.301 -0.561,15.62 -0.467,75.029 l 0.118,74.651 h 7.002 7.001 l 0.253,-45.741 c 0.266,-47.983 0.223,-47.02 2.325,-51.108 2.902,-5.644 11.003,-8.864 13.725,-5.456 3.234,4.051 3.524,8.986 3.518,59.831 l -0.005,42.474 7.011,0.129 7.012,0.129 -0.009,-46.103 c -0.011,-54.175 -0.031,-54.409 -5.137,-61.172 -6.092,-8.07 -19.746,-7.281 -26.056,1.506 -0.841,1.17 -1.723,2.127 -1.962,2.127 -0.259,0 -0.482,-9.33 -0.554,-23.22 L 172.929,2.567 166.394,2.451 c -3.594,-0.065 -6.797,0.053 -7.119,0.261 m 75.251,9.073 c -0.12,0.321 -0.271,6.885 -0.336,14.586 l -0.118,14.002 -4.803,0.134 -4.804,0.133 0.136,3.601 0.136,3.6 4.783,0.133 4.782,0.133 0.118,52.143 0.119,52.142 7.118,0.129 7.118,0.129 V 100.379 48.107 l 4.784,-0.133 4.784,-0.133 0.136,-3.6 0.136,-3.601 -4.803,-0.133 -4.804,-0.134 -0.123,-14.585 -0.124,-14.586 h -7.009 c -5.18,0 -7.066,0.152 -7.226,0.583 M 44.341,22.17 v 7.702 h 7.934 7.935 V 22.17 14.469 h -7.935 -7.934 v 7.701 m 252.275,17.448 c -16.153,4.684 -23.441,24.515 -22.575,61.432 0.666,28.401 6.53,44.486 18.374,50.409 4.464,2.231 16.442,2.055 23.338,-0.343 7.454,-2.594 12.204,-7.442 12.487,-12.746 l 0.115,-2.149 -4.201,-1.596 c -2.31,-0.878 -4.253,-1.598 -4.317,-1.599 -0.065,-0.002 -0.117,0.419 -0.117,0.935 0,7.353 -16.223,14.766 -21.886,10.001 -4.29,-3.61 -7.623,-17.474 -8.072,-33.577 l -0.117,-4.201 20.405,-0.121 20.405,-0.122 -0.004,-4.079 c -0.04,-44.017 -13.2,-68.227 -33.835,-62.244 M 97.439,39.913 c -7.732,2.84 -13.11,12.281 -15.684,27.532 -3.163,18.745 -2.544,48.532 1.326,63.721 6.839,26.846 27.984,29.042 37.336,3.876 l 1.358,-3.653 0.023,67.094 0.022,67.095 h 7.235 7.234 V 152.859 40.14 h -7.234 -7.235 l -0.022,10.152 -0.023,10.151 -1.306,-3.5 C 115.14,42.658 106.784,36.48 97.439,39.913 m 249.467,0.146 c -0.465,0.295 -0.561,11.876 -0.467,56.352 l 0.119,55.981 h 7.001 7.001 l 0.274,-42.707 c 0.267,-41.563 0.377,-44.606 1.81,-49.895 4.998,-18.445 24.444,-15.859 26.372,3.507 l 0.331,3.32 3.809,0.265 c 4.87,0.339 4.782,0.463 4.178,-5.847 -1.354,-14.166 -8.217,-21.173 -20.671,-21.104 -6.956,0.038 -11.466,2.741 -14.243,8.533 -1.387,2.895 -1.627,2.432 -1.627,-3.14 0,-4.205 -0.127,-5.133 -0.738,-5.367 -1.092,-0.419 -12.467,-0.331 -13.149,0.102 m -301.517,56.44 0.119,55.893 h 7.001 7.001 L 59.628,96.499 59.747,40.607 H 52.509 45.27 l 0.119,55.892 M 306.152,48.026 c 5.445,4.304 8.891,20.157 9.06,41.683 l 0.074,9.474 -11.902,0.131 c -6.546,0.073 -12.408,0.008 -13.026,-0.144 l -1.123,-0.275 0.31,-10.124 c 0.984,-32.122 7.449,-47.982 16.607,-40.745 M 109.195,47.829 c 16.443,8.503 16.618,87.9 0.21,95.686 -8.715,4.135 -9.719,-1.44 -9.387,-52.131 0.27,-41.026 0.702,-43.947 6.54,-44.189 0.718,-0.029 1.905,0.256 2.637,0.634"
           id="path1004"
           inkscape:connector-curvature="0"
           style="fill:#151621;fill-opacity:1;fill-rule:evenodd;stroke:#151621;stroke-opacity:1" />
      </g>
    </g>
    <g
       id="g1018"
       style="fill:#151621;fill-opacity:1;stroke:#151621;stroke-opacity:1"
       transform="matrix(0.36651827,0,0,0.36651827,127.10316,143.03203)">
      <g
         id="g1016"
         style="fill:#151621;fill-opacity:1;stroke:#151621;stroke-opacity:1">
        <path
           style="fill:#151621;fill-opacity:1;fill-rule:evenodd;stroke:#151621;stroke-opacity:1"
           inkscape:connector-curvature="0"
           id="path1012"
           d="m 361.197,10.261 c -0.916,2.161 -11.844,29.952 -16.588,42.182 -16.163,41.677 -18.695,47.883 -19.536,47.883 -0.41,0 -0.643,-7.684 -0.643,-21.173 V 57.98 h -15.528 -15.528 l -0.446,77.764 c -0.245,42.77 -0.262,78.242 -0.037,78.827 0.361,0.943 2.15,1.064 15.648,1.064 h 15.24 v -30.906 c 0,-16.998 0.248,-31.06 0.552,-31.248 0.777,-0.48 2.207,6.475 7.626,37.073 0.889,5.016 2.052,11.466 2.586,14.332 0.534,2.866 1.155,6.458 1.381,7.98 l 0.409,2.769 h 15.294 15.293 l -0.436,-2.323 c -0.239,-1.278 -1.622,-6.481 -3.073,-11.564 -1.45,-5.082 -7.267,-25.803 -12.926,-46.048 l -10.289,-36.807 3.442,-7.492 c 1.893,-4.121 6.441,-13.942 10.105,-21.824 3.665,-7.883 7.474,-16.092 8.466,-18.241 0.992,-2.15 6.129,-13.144 11.416,-24.43 14.79,-31.572 17.819,-38.307 17.412,-38.713 -0.206,-0.207 -6.771,-0.375 -14.59,-0.375 h -14.215 l -1.035,2.443 M 120.521,27.351 V 44.3 h 16.775 16.776 l -0.149,-16.775 -0.149,-16.776 -16.627,-0.174 -16.626,-0.174 v 16.95 M 58.116,59.012 c -3.94,1.964 -7.975,6.285 -10.596,11.346 l -1.855,3.583 -0.031,-7.654 -0.031,-7.655 H 30.075 14.547 l -0.433,71.824 c -0.238,39.503 -0.433,110.155 -0.433,157.003 v 85.179 h 15.635 15.635 l 0.019,-86.807 0.019,-86.808 2.395,4.491 c 6.027,11.302 15.701,16.029 24.797,12.116 C 103.253,202.263 103.63,73.324 72.638,58.862 68.041,56.716 62.61,56.773 58.116,59.012 m 166.792,0.055 c -1.529,0.541 -4.377,2.443 -6.329,4.227 -3.903,3.567 -4.68,3.192 -4.136,-1.999 l 0.215,-2.047 -15.309,-0.008 -15.31,-0.008 v 78.039 78.038 h 15.161 15.16 l -0.017,-57.329 c -0.01,-34.365 0.251,-60.14 0.652,-64.346 1.377,-14.447 6.223,-20.246 11.838,-14.167 3.505,3.796 3.41,2.012 3.774,71.347 l 0.338,64.495 h 15.309 15.31 v -64.495 c 0,-69.998 0.098,-67.932 -3.637,-76.353 C 252.542,62.316 236.655,54.91 224.908,59.067 m -102.924,78.229 0.166,78.013 h 14.984 14.983 l 0.166,-78.013 0.165,-78.013 h -15.314 -15.315 l 0.165,78.013 M 61.064,78.984 c 1.721,5.101 4.244,17.629 5.48,27.205 1.169,9.059 1.185,48.64 0.024,57.329 -3.615,27.036 -6.101,36.9 -9.021,35.79 -16.975,-6.454 -15.59,-128.951 1.411,-124.794 0.358,0.087 1.306,2.099 2.106,4.47"
           transform="matrix(0.81205919,0,0,0.72188306,-328.46566,-3.0382387)" />
        <path
           style="fill:#151621;fill-opacity:1;fill-rule:evenodd;stroke:#151621;stroke-opacity:1"
           inkscape:connector-curvature="0"
           id="path1014"
           d="m 3.734,77.467 v 75.158 h 7.003 7.002 L 17.621,77.596 17.503,2.567 10.618,2.438 3.734,2.309 V 77.467 M 159.275,2.712 c -0.465,0.301 -0.561,15.62 -0.467,75.029 l 0.118,74.651 h 7.002 7.001 l 0.253,-45.741 c 0.266,-47.983 0.223,-47.02 2.325,-51.108 2.902,-5.644 11.003,-8.864 13.725,-5.456 3.234,4.051 3.524,8.986 3.518,59.831 l -0.005,42.474 7.011,0.129 7.012,0.129 -0.009,-46.103 c -0.011,-54.175 -0.031,-54.409 -5.137,-61.172 -6.092,-8.07 -19.746,-7.281 -26.056,1.506 -0.841,1.17 -1.723,2.127 -1.962,2.127 -0.259,0 -0.482,-9.33 -0.554,-23.22 L 172.929,2.567 166.394,2.451 c -3.594,-0.065 -6.797,0.053 -7.119,0.261 m 75.251,9.073 c -0.12,0.321 -0.271,6.885 -0.336,14.586 l -0.118,14.002 -4.803,0.134 -4.804,0.133 0.136,3.601 0.136,3.6 4.783,0.133 4.782,0.133 0.118,52.143 0.119,52.142 7.118,0.129 7.118,0.129 V 100.379 48.107 l 4.784,-0.133 4.784,-0.133 0.136,-3.6 0.136,-3.601 -4.803,-0.133 -4.804,-0.134 -0.123,-14.585 -0.124,-14.586 h -7.009 c -5.18,0 -7.066,0.152 -7.226,0.583 M 44.341,22.17 v 7.702 h 7.934 7.935 V 22.17 14.469 h -7.935 -7.934 v 7.701 m 252.275,17.448 c -16.153,4.684 -23.441,24.515 -22.575,61.432 0.666,28.401 6.53,44.486 18.374,50.409 4.464,2.231 16.442,2.055 23.338,-0.343 7.454,-2.594 12.204,-7.442 12.487,-12.746 l 0.115,-2.149 -4.201,-1.596 c -2.31,-0.878 -4.253,-1.598 -4.317,-1.599 -0.065,-0.002 -0.117,0.419 -0.117,0.935 0,7.353 -16.223,14.766 -21.886,10.001 -4.29,-3.61 -7.623,-17.474 -8.072,-33.577 l -0.117,-4.201 20.405,-0.121 20.405,-0.122 -0.004,-4.079 c -0.04,-44.017 -13.2,-68.227 -33.835,-62.244 M 97.439,39.913 c -7.732,2.84 -13.11,12.281 -15.684,27.532 -3.163,18.745 -2.544,48.532 1.326,63.721 6.839,26.846 27.984,29.042 37.336,3.876 l 1.358,-3.653 0.023,67.094 0.022,67.095 h 7.235 7.234 V 152.859 40.14 h -7.234 -7.235 l -0.022,10.152 -0.023,10.151 -1.306,-3.5 C 115.14,42.658 106.784,36.48 97.439,39.913 m 249.467,0.146 c -0.465,0.295 -0.561,11.876 -0.467,56.352 l 0.119,55.981 h 7.001 7.001 l 0.274,-42.707 c 0.267,-41.563 0.377,-44.606 1.81,-49.895 4.998,-18.445 24.444,-15.859 26.372,3.507 l 0.331,3.32 3.809,0.265 c 4.87,0.339 4.782,0.463 4.178,-5.847 -1.354,-14.166 -8.217,-21.173 -20.671,-21.104 -6.956,0.038 -11.466,2.741 -14.243,8.533 -1.387,2.895 -1.627,2.432 -1.627,-3.14 0,-4.205 -0.127,-5.133 -0.738,-5.367 -1.092,-0.419 -12.467,-0.331 -13.149,0.102 m -301.517,56.44 0.119,55.893 h 7.001 7.001 L 59.628,96.499 59.747,40.607 H 52.509 45.27 l 0.119,55.892 M 306.152,48.026 c 5.445,4.304 8.891,20.157 9.06,41.683 l 0.074,9.474 -11.902,0.131 c -6.546,0.073 -12.408,0.008 -13.026,-0.144 l -1.123,-0.275 0.31,-10.124 c 0.984,-32.122 7.449,-47.982 16.607,-40.745 M 109.195,47.829 c 16.443,8.503 16.618,87.9 0.21,95.686 -8.715,4.135 -9.719,-1.44 -9.387,-52.131 0.27,-41.026 0.702,-43.947 6.54,-44.189 0.718,-0.029 1.905,0.256 2.637,0.634" />
      </g>
    </g>
    <g
       style="fill:#151621;fill-opacity:1;stroke:#151621;stroke-opacity:1"
       id="g1028"
       transform="matrix(0.36651827,0,0,0.36651827,128.95524,141.17994)">
      <g
         style="fill:#151621;fill-opacity:1;stroke:#151621;stroke-opacity:1"
         id="g1026">
        <path
           transform="matrix(0.81205919,0,0,0.72188306,-328.46566,-3.0382387)"
           d="m 361.197,10.261 c -0.916,2.161 -11.844,29.952 -16.588,42.182 -16.163,41.677 -18.695,47.883 -19.536,47.883 -0.41,0 -0.643,-7.684 -0.643,-21.173 V 57.98 h -15.528 -15.528 l -0.446,77.764 c -0.245,42.77 -0.262,78.242 -0.037,78.827 0.361,0.943 2.15,1.064 15.648,1.064 h 15.24 v -30.906 c 0,-16.998 0.248,-31.06 0.552,-31.248 0.777,-0.48 2.207,6.475 7.626,37.073 0.889,5.016 2.052,11.466 2.586,14.332 0.534,2.866 1.155,6.458 1.381,7.98 l 0.409,2.769 h 15.294 15.293 l -0.436,-2.323 c -0.239,-1.278 -1.622,-6.481 -3.073,-11.564 -1.45,-5.082 -7.267,-25.803 -12.926,-46.048 l -10.289,-36.807 3.442,-7.492 c 1.893,-4.121 6.441,-13.942 10.105,-21.824 3.665,-7.883 7.474,-16.092 8.466,-18.241 0.992,-2.15 6.129,-13.144 11.416,-24.43 14.79,-31.572 17.819,-38.307 17.412,-38.713 -0.206,-0.207 -6.771,-0.375 -14.59,-0.375 h -14.215 l -1.035,2.443 M 120.521,27.351 V 44.3 h 16.775 16.776 l -0.149,-16.775 -0.149,-16.776 -16.627,-0.174 -16.626,-0.174 v 16.95 M 58.116,59.012 c -3.94,1.964 -7.975,6.285 -10.596,11.346 l -1.855,3.583 -0.031,-7.654 -0.031,-7.655 H 30.075 14.547 l -0.433,71.824 c -0.238,39.503 -0.433,110.155 -0.433,157.003 v 85.179 h 15.635 15.635 l 0.019,-86.807 0.019,-86.808 2.395,4.491 c 6.027,11.302 15.701,16.029 24.797,12.116 C 103.253,202.263 103.63,73.324 72.638,58.862 68.041,56.716 62.61,56.773 58.116,59.012 m 166.792,0.055 c -1.529,0.541 -4.377,2.443 -6.329,4.227 -3.903,3.567 -4.68,3.192 -4.136,-1.999 l 0.215,-2.047 -15.309,-0.008 -15.31,-0.008 v 78.039 78.038 h 15.161 15.16 l -0.017,-57.329 c -0.01,-34.365 0.251,-60.14 0.652,-64.346 1.377,-14.447 6.223,-20.246 11.838,-14.167 3.505,3.796 3.41,2.012 3.774,71.347 l 0.338,64.495 h 15.309 15.31 v -64.495 c 0,-69.998 0.098,-67.932 -3.637,-76.353 C 252.542,62.316 236.655,54.91 224.908,59.067 m -102.924,78.229 0.166,78.013 h 14.984 14.983 l 0.166,-78.013 0.165,-78.013 h -15.314 -15.315 l 0.165,78.013 M 61.064,78.984 c 1.721,5.101 4.244,17.629 5.48,27.205 1.169,9.059 1.185,48.64 0.024,57.329 -3.615,27.036 -6.101,36.9 -9.021,35.79 -16.975,-6.454 -15.59,-128.951 1.411,-124.794 0.358,0.087 1.306,2.099 2.106,4.47"
           id="path1022"
           inkscape:connector-curvature="0"
           style="fill:#151621;fill-opacity:1;fill-rule:evenodd;stroke:#151621;stroke-opacity:1" />
        <path
           d="m 3.734,77.467 v 75.158 h 7.003 7.002 L 17.621,77.596 17.503,2.567 10.618,2.438 3.734,2.309 V 77.467 M 159.275,2.712 c -0.465,0.301 -0.561,15.62 -0.467,75.029 l 0.118,74.651 h 7.002 7.001 l 0.253,-45.741 c 0.266,-47.983 0.223,-47.02 2.325,-51.108 2.902,-5.644 11.003,-8.864 13.725,-5.456 3.234,4.051 3.524,8.986 3.518,59.831 l -0.005,42.474 7.011,0.129 7.012,0.129 -0.009,-46.103 c -0.011,-54.175 -0.031,-54.409 -5.137,-61.172 -6.092,-8.07 -19.746,-7.281 -26.056,1.506 -0.841,1.17 -1.723,2.127 -1.962,2.127 -0.259,0 -0.482,-9.33 -0.554,-23.22 L 172.929,2.567 166.394,2.451 c -3.594,-0.065 -6.797,0.053 -7.119,0.261 m 75.251,9.073 c -0.12,0.321 -0.271,6.885 -0.336,14.586 l -0.118,14.002 -4.803,0.134 -4.804,0.133 0.136,3.601 0.136,3.6 4.783,0.133 4.782,0.133 0.118,52.143 0.119,52.142 7.118,0.129 7.118,0.129 V 100.379 48.107 l 4.784,-0.133 4.784,-0.133 0.136,-3.6 0.136,-3.601 -4.803,-0.133 -4.804,-0.134 -0.123,-14.585 -0.124,-14.586 h -7.009 c -5.18,0 -7.066,0.152 -7.226,0.583 M 44.341,22.17 v 7.702 h 7.934 7.935 V 22.17 14.469 h -7.935 -7.934 v 7.701 m 252.275,17.448 c -16.153,4.684 -23.441,24.515 -22.575,61.432 0.666,28.401 6.53,44.486 18.374,50.409 4.464,2.231 16.442,2.055 23.338,-0.343 7.454,-2.594 12.204,-7.442 12.487,-12.746 l 0.115,-2.149 -4.201,-1.596 c -2.31,-0.878 -4.253,-1.598 -4.317,-1.599 -0.065,-0.002 -0.117,0.419 -0.117,0.935 0,7.353 -16.223,14.766 -21.886,10.001 -4.29,-3.61 -7.623,-17.474 -8.072,-33.577 l -0.117,-4.201 20.405,-0.121 20.405,-0.122 -0.004,-4.079 c -0.04,-44.017 -13.2,-68.227 -33.835,-62.244 M 97.439,39.913 c -7.732,2.84 -13.11,12.281 -15.684,27.532 -3.163,18.745 -2.544,48.532 1.326,63.721 6.839,26.846 27.984,29.042 37.336,3.876 l 1.358,-3.653 0.023,67.094 0.022,67.095 h 7.235 7.234 V 152.859 40.14 h -7.234 -7.235 l -0.022,10.152 -0.023,10.151 -1.306,-3.5 C 115.14,42.658 106.784,36.48 97.439,39.913 m 249.467,0.146 c -0.465,0.295 -0.561,11.876 -0.467,56.352 l 0.119,55.981 h 7.001 7.001 l 0.274,-42.707 c 0.267,-41.563 0.377,-44.606 1.81,-49.895 4.998,-18.445 24.444,-15.859 26.372,3.507 l 0.331,3.32 3.809,0.265 c 4.87,0.339 4.782,0.463 4.178,-5.847 -1.354,-14.166 -8.217,-21.173 -20.671,-21.104 -6.956,0.038 -11.466,2.741 -14.243,8.533 -1.387,2.895 -1.627,2.432 -1.627,-3.14 0,-4.205 -0.127,-5.133 -0.738,-5.367 -1.092,-0.419 -12.467,-0.331 -13.149,0.102 m -301.517,56.44 0.119,55.893 h 7.001 7.001 L 59.628,96.499 59.747,40.607 H 52.509 45.27 l 0.119,55.892 M 306.152,48.026 c 5.445,4.304 8.891,20.157 9.06,41.683 l 0.074,9.474 -11.902,0.131 c -6.546,0.073 -12.408,0.008 -13.026,-0.144 l -1.123,-0.275 0.31,-10.124 c 0.984,-32.122 7.449,-47.982 16.607,-40.745 M 109.195,47.829 c 16.443,8.503 16.618,87.9 0.21,95.686 -8.715,4.135 -9.719,-1.44 -9.387,-52.131 0.27,-41.026 0.702,-43.947 6.54,-44.189 0.718,-0.029 1.905,0.256 2.637,0.634"
           id="path1024"
           inkscape:connector-curvature="0"
           style="fill:#151621;fill-opacity:1;fill-rule:evenodd;stroke:#151621;stroke-opacity:1" />
      </g>
    </g>
  </g>
</svg>
