<?xml version="1.0" encoding="UTF-8" standalone="no"?>
<!-- Created with Inkscape (http://www.inkscape.org/) -->

<svg
   xmlns:dc="http://purl.org/dc/elements/1.1/"
   xmlns:cc="http://creativecommons.org/ns#"
   xmlns:rdf="http://www.w3.org/1999/02/22-rdf-syntax-ns#"
   xmlns:svg="http://www.w3.org/2000/svg"
   xmlns="http://www.w3.org/2000/svg"
   xmlns:sodipodi="http://sodipodi.sourceforge.net/DTD/sodipodi-0.dtd"
   xmlns:inkscape="http://www.inkscape.org/namespaces/inkscape"
   width="8.4666672mm"
   height="8.4666624mm"
   viewBox="0 0 8.4666672 8.4666624"
   version="1.1"
   id="svg8"
   inkscape:version="0.92.4 (5da689c313, 2019-01-14)"
   sodipodi:docname="github.svg">
  <defs
     id="defs2" />
  <sodipodi:namedview
     id="base"
     pagecolor="#ffffff"
     bordercolor="#666666"
     borderopacity="1.0"
     inkscape:pageopacity="0.0"
     inkscape:pageshadow="2"
     inkscape:zoom="7.9195959"
     inkscape:cx="-8.4476197"
     inkscape:cy="-4.6482987"
     inkscape:document-units="mm"
     inkscape:current-layer="layer1"
     showgrid="false"
     inkscape:window-width="1920"
     inkscape:window-height="1001"
     inkscape:window-x="-9"
     inkscape:window-y="-9"
     inkscape:window-maximized="1" />
  <metadata
     id="metadata5">
    <rdf:RDF>
      <cc:Work
         rdf:about="">
        <dc:format>image/svg+xml</dc:format>
        <dc:type
           rdf:resource="http://purl.org/dc/dcmitype/StillImage" />
        <dc:title></dc:title>
      </cc:Work>
    </rdf:RDF>
  </metadata>
  <g
     inkscape:label="Layer 1"
     inkscape:groupmode="layer"
     id="layer1"
     transform="translate(3.06403,-290.1942)">
    <g
       transform="translate(522.64895,-535.28831)"
       id="layer1-0"
       inkscape:label="Layer 1">
      <g
         transform="matrix(0.00253949,0,0,0.00253949,-487.57276,685.93593)"
         id="g4565"
         style="clip-rule:evenodd;fill:#23201b;fill-rule:evenodd;image-rendering:optimizeQuality;shape-rendering:geometricPrecision;text-rendering:geometricPrecision">
        <path
           inkscape:connector-curvature="0"
           d="m 1667,0 c 920,0 1667,746 1667,1667 0,920 -746,1667 -1667,1667 C 747,3334 0,2588 0,1667 0,747 746,0 1667,0 Z m -215,1336 h 342 v 175 h 5 c 48,-86 164,-175 338,-175 361,0 428,225 428,517 v 596 h -357 v -528 c 0,-126 -3,-288 -186,-288 -186,0 -214,137 -214,279 v 537 H 1451 V 1336 Z m -247,-309 c 0,102 -83,186 -186,186 -102,0 -186,-83 -186,-186 0,-102 83,-186 186,-186 102,0 186,83 186,186 z m -371,309 h 371 V 2449 H 834 Z"
           id="path4554" />
      </g>
    </g>
    <g
       transform="translate(43.200254,41.13733)"
       id="layer1-8"
       inkscape:label="Layer 1"
       style="fill:#23201b;fill-opacity:1">
      <g
         transform="matrix(0.00826823,0,0,0.00847736,-46.264284,249.05687)"
         id="g4529"
         style="fill:#23201b;fill-opacity:1">
        <path
           style="clip-rule:evenodd;fill:#23201b;fill-opacity:1;fill-rule:evenodd"
           inkscape:connector-curvature="0"
           d="M 8,0 C 3.58,0 0,3.58 0,8 c 0,3.54 2.29,6.53 5.47,7.59 0.4,0.07 0.55,-0.17 0.55,-0.38 0,-0.19 -0.01,-0.82 -0.01,-1.49 C 4,14.09 3.48,13.23 3.32,12.78 3.23,12.55 2.84,11.84 2.5,11.65 2.22,11.5 1.82,11.13 2.49,11.12 3.12,11.11 3.57,11.7 3.72,11.94 4.44,13.15 5.59,12.81 6.05,12.6 6.12,12.08 6.33,11.73 6.56,11.53 4.78,11.33 2.92,10.64 2.92,7.58 2.92,6.71 3.23,5.99 3.74,5.43 3.66,5.23 3.38,4.41 3.82,3.31 c 0,0 0.67,-0.21 2.2,0.82 0.64,-0.18 1.32,-0.27 2,-0.27 0.68,0 1.36,0.09 2,0.27 1.53,-1.04 2.2,-0.82 2.2,-0.82 0.44,1.1 0.16,1.92 0.08,2.12 0.51,0.56 0.82,1.27 0.82,2.15 0,3.07 -1.87,3.75 -3.65,3.95 0.29,0.25 0.54,0.73 0.54,1.48 0,1.07 -0.01,1.93 -0.01,2.2 0,0.21 0.15,0.46 0.55,0.38 C 13.71,14.53 16,11.53 16,8 16,3.58 12.42,0 8,0 Z"
           transform="scale(64)"
           id="path4518" />
      </g>
    </g>
  </g>
</svg>
