<svg id="svg" xmlns="http://www.w3.org/2000/svg" xmlns:xlink="http://www.w3.org/1999/xlink" width="400" height="274.96542185338865" viewBox="0, 0, 400,274.96542185338865"><g id="svgg"><path id="path0" d="M100.692 135.546 L 100.692 267.220 109.267 267.220 L 117.842 267.220 117.883 256.570 L 117.923 245.920 118.949 248.805 C 124.237 263.679,134.392 271.004,144.889 267.517 C 173.735 257.936,175.015 148.421,146.448 134.185 C 136.402 129.179,125.745 135.603,119.867 150.207 L 117.863 155.187 117.853 79.530 L 117.842 3.873 109.267 3.873 L 100.692 3.873 100.692 135.546 M369.018 116.677 C 369.018 136.468,369.761 134.560,362.116 134.389 L 357.123 134.277 356.954 137.517 C 356.650 143.319,356.557 143.229,363.076 143.411 L 368.741 143.568 368.882 205.394 L 369.023 267.220 377.317 267.220 L 385.611 267.220 385.751 205.394 L 385.892 143.568 391.503 143.411 C 397.836 143.234,397.773 143.286,397.771 138.313 C 397.770 134.459,397.480 134.263,391.995 134.395 C 385.093 134.561,385.615 136.034,385.615 116.391 L 385.615 99.585 377.317 99.585 L 369.018 99.585 369.018 116.677 M32.394 133.144 C 22.953 136.041,15.467 147.204,11.322 164.568 C 4.574 192.832,7.380 234.950,17.238 253.389 C 28.940 275.276,47.595 273.699,54.867 250.207 C 56.398 245.260,56.985 247.291,56.985 257.538 L 56.985 267.220 65.284 267.220 L 73.582 267.220 73.582 200.830 L 73.582 134.440 65.284 134.440 L 56.985 134.440 56.985 143.845 C 56.985 154.545,56.394 155.823,54.236 149.793 C 49.389 136.248,41.607 130.317,32.394 133.144 M216.280 133.017 C 201.827 136.189,192.902 150.839,189.124 177.593 C 188.123 184.680,188.103 216.970,189.095 223.513 C 189.999 229.475,191.358 236.579,192.006 238.728 C 198.338 259.720,207.494 268.880,222.146 268.880 C 239.141 268.880,249.723 254.779,254.327 225.998 C 255.559 218.296,255.745 184.511,254.595 177.317 C 249.160 143.318,236.427 128.596,216.280 133.017 M279.100 135.685 C 278.196 139.288,279.165 248.144,280.138 252.282 C 282.827 263.720,288.026 268.304,298.840 268.773 C 306.903 269.122,312.736 266.678,316.566 261.345 C 318.693 258.382,319.118 258.689,319.335 263.347 L 319.502 266.943 327.801 266.943 L 336.100 266.943 336.240 200.692 L 336.381 134.440 327.825 134.440 L 319.270 134.440 319.109 190.733 C 318.930 253.659,319.231 248.934,315.094 253.828 C 311.482 258.102,303.802 259.750,300.488 256.962 C 296.040 253.219,295.991 252.474,295.990 189.073 L 295.989 134.440 287.701 134.440 C 279.567 134.440,279.407 134.463,279.100 135.685 M225.505 142.467 C 229.856 146.818,230.148 150.313,230.150 198.106 C 230.153 247.314,229.644 254.502,225.879 258.479 C 220.975 263.660,215.851 259.184,213.719 247.856 C 211.173 234.332,212.777 154.906,215.753 147.118 C 218.044 141.124,222.186 139.149,225.505 142.467 M45.173 143.594 C 56.123 151.946,60.517 208.314,52.804 241.494 C 48.261 261.040,38.093 265.826,33.946 250.370 C 30.227 236.508,30.327 165.863,34.086 151.356 C 36.298 142.817,40.395 139.950,45.173 143.594 M137.461 142.530 C 141.512 144.085,141.909 149.086,141.909 198.617 C 141.909 254.522,141.506 257.766,134.556 257.807 C 121.841 257.883,114.208 216.529,119.190 174.550 C 121.827 152.333,129.224 139.369,137.461 142.530 " stroke="none" fill="#000000" fill-rule="evenodd"></path></g></svg>