<?xml version="1.0" encoding="UTF-8" standalone="no"?>
<!-- Created with Inkscape (http://www.inkscape.org/) -->

<svg
   xmlns:osb="http://www.openswatchbook.org/uri/2009/osb"
   xmlns:dc="http://purl.org/dc/elements/1.1/"
   xmlns:cc="http://creativecommons.org/ns#"
   xmlns:rdf="http://www.w3.org/1999/02/22-rdf-syntax-ns#"
   xmlns:svg="http://www.w3.org/2000/svg"
   xmlns="http://www.w3.org/2000/svg"
   xmlns:xlink="http://www.w3.org/1999/xlink"
   xmlns:sodipodi="http://sodipodi.sourceforge.net/DTD/sodipodi-0.dtd"
   xmlns:inkscape="http://www.inkscape.org/namespaces/inkscape"
   width="242.5161mm"
   height="213.48427mm"
   viewBox="0 0 242.5161 213.48427"
   version="1.1"
   id="svg8"
   inkscape:version="0.92.4 (5da689c313, 2019-01-14)"
   sodipodi:docname="logo_2d.svg">
  <defs
     id="defs2">
    <linearGradient
       id="linearGradient981"
       inkscape:collect="always">
      <stop
         id="stop975"
         offset="0"
         style="stop-color:#00aede;stop-opacity:1" />
      <stop
         style="stop-color:#4d87db;stop-opacity:1;"
         offset="0.90180826"
         id="stop977" />
      <stop
         id="stop979"
         offset="1"
         style="stop-color:#a987db;stop-opacity:1" />
    </linearGradient>
    <linearGradient
       id="linearGradient973"
       inkscape:collect="always">
      <stop
         id="stop969"
         offset="0"
         style="stop-color:#f00090;stop-opacity:1" />
      <stop
         id="stop971"
         offset="1"
         style="stop-color:#00aede;stop-opacity:1" />
    </linearGradient>
    <linearGradient
       inkscape:collect="always"
       id="linearGradient967">
      <stop
         style="stop-color:#00aede;stop-opacity:1"
         offset="0"
         id="stop963" />
      <stop
         style="stop-color:#f00090;stop-opacity:1"
         offset="1"
         id="stop965" />
    </linearGradient>
    <linearGradient
       id="linearGradient961"
       inkscape:collect="always">
      <stop
         id="stop957"
         offset="0"
         style="stop-color:#f00090;stop-opacity:1" />
      <stop
         id="stop959"
         offset="1"
         style="stop-color:#00b0e1;stop-opacity:1" />
    </linearGradient>
    <linearGradient
       inkscape:collect="always"
       id="linearGradient1084">
      <stop
         style="stop-color:#00b5e6;stop-opacity:1"
         offset="0"
         id="stop1080" />
      <stop
         id="stop1086"
         offset="0.90180826"
         style="stop-color:#4d87db;stop-opacity:1;" />
      <stop
         style="stop-color:#a987db;stop-opacity:1"
         offset="1"
         id="stop1082" />
    </linearGradient>
    <linearGradient
       inkscape:collect="always"
       id="linearGradient1735-6">
      <stop
         style="stop-color:#f00090;stop-opacity:1"
         offset="0"
         id="stop1764" />
      <stop
         style="stop-color:#00c8ff;stop-opacity:1"
         offset="1"
         id="stop1766" />
    </linearGradient>
    <linearGradient
       id="linearGradient1735-6-6"
       inkscape:collect="always">
      <stop
         id="stop1731"
         offset="0"
         style="stop-color:#00aede;stop-opacity:1" />
      <stop
         id="stop1733"
         offset="1"
         style="stop-color:#f00090;stop-opacity:1" />
    </linearGradient>
    <linearGradient
       osb:paint="solid"
       id="linearGradient9320">
      <stop
         id="stop9318"
         offset="0"
         style="stop-color:#b7bec8;stop-opacity:1;" />
    </linearGradient>
    <linearGradient
       inkscape:collect="always"
       id="linearGradient1500">
      <stop
         style="stop-color:#03e0ff;stop-opacity:0.78039217"
         offset="0"
         id="stop1496" />
      <stop
         style="stop-color:#2cbf87;stop-opacity:0;"
         offset="1"
         id="stop1498" />
    </linearGradient>
    <linearGradient
       id="linearGradient1372"
       inkscape:collect="always">
      <stop
         id="stop1368"
         offset="0"
         style="stop-color:#ff0dff;stop-opacity:1" />
      <stop
         id="stop1370"
         offset="1"
         style="stop-color:#bb56bb;stop-opacity:0;" />
    </linearGradient>
    <radialGradient
       gradientUnits="userSpaceOnUse"
       gradientTransform="matrix(-1.1742492,-1.316062e-7,5.2691718e-7,-4.8351422,239.42861,629.38356)"
       r="38.304626"
       fy="107.88319"
       fx="113.77084"
       cy="107.88319"
       cx="113.77084"
       id="radialGradient892-0"
       xlink:href="#linearGradient1500"
       inkscape:collect="always" />
    <radialGradient
       gradientUnits="userSpaceOnUse"
       gradientTransform="matrix(0.99980782,0.01960412,-0.06325241,3.2258662,-77.551544,-245.03409)"
       r="41.829853"
       fy="153.73059"
       fx="193.14583"
       cy="153.73059"
       cx="193.14583"
       id="radialGradient1374"
       xlink:href="#linearGradient1372"
       inkscape:collect="always" />
    <linearGradient
       gradientTransform="matrix(0.13679767,-0.05324652,0.06870911,0.17501396,-196.87449,61.947684)"
       gradientUnits="userSpaceOnUse"
       y2="365.2887"
       x2="1471.3146"
       y1="365.2887"
       x1="174.36632"
       id="linearGradient1737"
       xlink:href="#linearGradient1735-6-6"
       inkscape:collect="always" />
    <linearGradient
       inkscape:collect="always"
       xlink:href="#linearGradient961"
       id="linearGradient887"
       gradientUnits="userSpaceOnUse"
       x1="-25.482124"
       y1="221.63072"
       x2="332.1286"
       y2="221.63072"
       gradientTransform="matrix(1.7528796,1.4210513,-1.4210513,1.7528796,24.565858,-478.24785)" />
    <linearGradient
       inkscape:collect="always"
       xlink:href="#linearGradient967"
       id="linearGradient889"
       gradientUnits="userSpaceOnUse"
       gradientTransform="matrix(0.16082935,0.13038361,-0.13038361,0.16082935,-124.45574,-92.303889)"
       x1="174.36632"
       y1="365.2887"
       x2="1471.3146"
       y2="365.2887" />
    <clipPath
       clipPathUnits="userSpaceOnUse"
       id="clipPath948">
      <path
         style="fill:none;stroke:#000000;stroke-width:0.26458332px;stroke-linecap:butt;stroke-linejoin:miter;stroke-opacity:1"
         d="m 4.4222861,259.67589 10.7031269,-61.66299 264.799807,11.72278 8.24357,63.64386 -116.71631,42.59874 z"
         id="path950"
         inkscape:connector-curvature="0" />
    </clipPath>
    <linearGradient
       inkscape:collect="always"
       xlink:href="#linearGradient981"
       id="linearGradient966"
       gradientUnits="userSpaceOnUse"
       x1="-25.482124"
       y1="221.63072"
       x2="332.1286"
       y2="221.63072"
       gradientTransform="matrix(-0.00921921,0.55413073,1.1488444,0.02174839,364.23926,151.66724)" />
    <linearGradient
       inkscape:collect="always"
       xlink:href="#linearGradient973"
       id="linearGradient994"
       gradientUnits="userSpaceOnUse"
       x1="-25.482124"
       y1="221.63072"
       x2="332.1286"
       y2="221.63072"
       gradientTransform="matrix(0.51703058,-0.20124668,0.25968797,0.66147008,-178.87235,9.4697165)" />
    <linearGradient
       inkscape:collect="always"
       xlink:href="#linearGradient1735-6"
       id="linearGradient1032"
       x1="-25.469732"
       y1="151.25456"
       x2="332.11206"
       y2="151.25456"
       gradientUnits="userSpaceOnUse" />
    <linearGradient
       inkscape:collect="always"
       xlink:href="#linearGradient1084"
       id="linearGradient1039"
       gradientUnits="userSpaceOnUse"
       x1="-25.469732"
       y1="151.25456"
       x2="332.11206"
       y2="151.25456"
       gradientTransform="matrix(-0.99937029,-0.01604448,-0.07847081,0.99937029,320.1721,2.5693069)" />
  </defs>
  <sodipodi:namedview
     id="base"
     pagecolor="#ffffff"
     bordercolor="#666666"
     borderopacity="1.0"
     inkscape:pageopacity="0.0"
     inkscape:pageshadow="2"
     inkscape:zoom="0.49497475"
     inkscape:cx="445.48259"
     inkscape:cy="192.23787"
     inkscape:document-units="mm"
     inkscape:current-layer="layer1"
     showgrid="false"
     inkscape:window-width="1920"
     inkscape:window-height="1001"
     inkscape:window-x="-9"
     inkscape:window-y="-9"
     inkscape:window-maximized="1" />
  <metadata
     id="metadata5">
    <rdf:RDF>
      <cc:Work
         rdf:about="">
        <dc:format>image/svg+xml</dc:format>
        <dc:type
           rdf:resource="http://purl.org/dc/dcmitype/StillImage" />
        <dc:title></dc:title>
      </cc:Work>
    </rdf:RDF>
  </metadata>
  <g
     inkscape:label="Layer 1"
     inkscape:groupmode="layer"
     id="layer1"
     transform="translate(177.94695,11.575302)">
    <path
       sodipodi:nodetypes="ccccccccccsc"
       inkscape:connector-curvature="0"
       style="fill:url(#linearGradient889);fill-opacity:1;stroke:none;stroke-width:0.20704098;stroke-miterlimit:4;stroke-dasharray:none;stroke-opacity:1"
       d="M -17.513933,47.062323 C -59.767986,12.57783 -105.04397,-10.289204 -133.51374,-11.524398 c -10.63424,-0.450855 -18.442,2.0975839 -22.88433,7.4694083 l -0.008,-0.00624 -6.9e-4,0.00173 c -2.90629,3.66048835 -4.33209,8.4817239 -4.10104,14.4436977 26.59623,-4.7175944 77.774183,18.583813 125.868282,57.254856 48.915988,39.394086 82.858163,85.319096 82.873393,112.076506 5.283674,-1.06979 9.283061,-3.45703 12.076349,-6.77085 l 0.136994,-0.169 C 68.437369,162.83537 64.717415,144.01972 50.103096,120.45398 35.488774,96.888248 11.172716,70.495548 -17.513933,47.062323 Z"
       id="ellipse1686" />
    <path
       sodipodi:nodetypes="cccccccccccc"
       id="path1775"
       d="m -70.419608,52.596221 c -36.094852,13.875801 -65.280352,35.710905 -74.775032,55.942849 -3.53943,7.56239 -4.1977,14.53918 -1.92936,20.44878 l -0.006,0.002 3.5e-4,0.002 c 1.58246,3.93848 4.46295,7.35142 8.55092,10.13153 4.91311,-21.8051 36.12191,-47.730469 76.815106,-63.810826 41.430314,-16.324387 82.730893,-18.444606 100.766881,-5.219422 0.886714,-4.397425 0.469679,-8.51733 -0.913553,-12.2016 L 38.0172,57.70781 C 29.131612,35.290586 -19.368051,33.004405 -70.419482,52.596315 Z"
       style="fill:url(#linearGradient1737);fill-opacity:1;stroke:none;stroke-width:0.16613254;stroke-miterlimit:4;stroke-dasharray:none;stroke-opacity:1"
       inkscape:connector-curvature="0" />
    <g
       id="g1099"
       transform="matrix(0.7825171,0,0,0.7825171,-510.5772,-104.42474)">
      <g
         id="g1092">
        <g
           id="g1037"
           transform="matrix(1,0,0,-1,2.645824,487.93027)">
          <g
             style="fill:url(#linearGradient1032);fill-opacity:1"
             transform="matrix(-0.00921921,0.55413073,1.1488444,0.02174839,364.23926,151.66724)"
             id="g971">
            <path
               sodipodi:nodetypes="ccccccccccc"
               inkscape:connector-curvature="0"
               style="fill:url(#linearGradient1039);fill-opacity:1;stroke:none;stroke-width:0.26458332;stroke-miterlimit:4;stroke-dasharray:none;stroke-opacity:1"
               d="m 157.93695,111.94942 c 69.67146,0.89075 131.90155,15.63537 159.43724,37.77662 10.27606,8.28066 15.28068,17.17985 14.66842,26.08327 l 0.0124,2e-4 -1.6e-4,0.002 c -0.52945,5.96791 -2.97534,12.00653 -8.44939,17.65473 C 303.0613,167.03297 234.89252,142.29082 156.10294,140.70945 75.912045,139.16189 3.6930988,161.6398 -19.925444,187.827 c -3.964365,-5.38113 -5.807181,-10.91446 -5.478586,-16.45024 l 0.02182,-0.27784 c 2.804892,-33.90962 84.796686,-60.36497 183.31916,-59.1495 z"
               id="path962" />
          </g>
          <path
             id="path960"
             d="m 563.15586,141.30799 40.38936,0.7646 0.1413,0.003 -1.1e-4,0.007 c 39.00347,0.77819 70.18333,45.65038 69.69412,100.29962 -0.49265,54.72892 -32.55746,98.55235 -71.6189,97.88257 -0.45718,-0.0243 -0.91416,-0.0548 -1.37091,-0.0915 l -8.2e-4,0.0495 -38.93544,-0.73708 c 38.97139,0.49579 80.62739,-43.84885 81.12484,-98.44958 0.48921,-54.64925 -40.41996,-98.01067 -79.42344,-98.78886 z m -3.29579,198.09751 c 0.34512,0.0266 0.69037,0.0497 1.03574,0.0692 l -1.03657,-0.0196 z"
             style="fill:url(#linearGradient966);fill-opacity:1;stroke:none;stroke-width:0.21113856;stroke-miterlimit:4;stroke-dasharray:none;stroke-opacity:1"
             inkscape:connector-curvature="0"
             sodipodi:nodetypes="cccccccccccccccc" />
        </g>
      </g>
    </g>
    <path
       id="path1773"
       d="m -147.13682,128.99285 9.12971,23.25498 0.0319,0.0814 0.006,-0.002 a 43.746393,99.206815 69.068214 0 0 108.450242,5.13975 43.746393,99.206815 69.068214 0 0 76.749161,-76.315279 43.746393,99.206815 69.068214 0 0 -0.371322,-0.766139 l 0.04625,-0.018 -8.801078,-22.417855 a 43.746393,99.206815 69.068214 0 1 -76.78469,76.181003 43.746393,99.206815 69.068214 0 1 -108.450243,-5.13975 z M 37.697673,57.048688 a 43.746393,99.206815 69.068214 0 1 0.280532,0.578836 l -0.234307,-0.596826 z"
       style="fill:url(#linearGradient994);fill-opacity:1;stroke:none;stroke-width:0.16613254;stroke-miterlimit:4;stroke-dasharray:none;stroke-opacity:1"
       inkscape:connector-curvature="0" />
    <g
       id="g924"
       transform="matrix(0.34677738,0,0,0.34677738,-64.204352,69.224421)">
      <path
         id="ellipse1657-4"
         d="m -265.85851,-211.31543 -49.95921,61.62512 -0.17466,0.2155 0.0226,0.018 c -48.11981,59.613722 52.43434,221.834831 224.761577,362.60139 172.582007,140.96776 351.832563,207.07616 400.368133,147.65754 0.51632,-0.73806 1.01289,-1.49195 1.48963,-2.26155 l 0.13252,-0.17401 48.18488,-59.10571 C 310.00177,358.09654 131.11076,291.93294 -41.07522,151.30356 -213.40246,10.536995 -313.9566,-151.68412 -265.83678,-211.29783 Z m 626.6411,508.01503 c -0.36385,0.57853 -0.73902,1.14807 -1.12547,1.7086 l 1.28217,-1.58156 z"
         style="fill:url(#linearGradient887);fill-opacity:1;stroke:none;stroke-width:0.59704292;stroke-miterlimit:4;stroke-dasharray:none;stroke-opacity:1"
         inkscape:connector-curvature="0"
         sodipodi:nodetypes="cccccccccccccccc" />
    </g>
  </g>
</svg>
