<?xml version="1.0" encoding="UTF-8" standalone="no"?>
<!-- Created with Inkscape (http://www.inkscape.org/) -->

<svg
   xmlns:osb="http://www.openswatchbook.org/uri/2009/osb"
   xmlns:dc="http://purl.org/dc/elements/1.1/"
   xmlns:cc="http://creativecommons.org/ns#"
   xmlns:rdf="http://www.w3.org/1999/02/22-rdf-syntax-ns#"
   xmlns:svg="http://www.w3.org/2000/svg"
   xmlns="http://www.w3.org/2000/svg"
   xmlns:xlink="http://www.w3.org/1999/xlink"
   xmlns:sodipodi="http://sodipodi.sourceforge.net/DTD/sodipodi-0.dtd"
   xmlns:inkscape="http://www.inkscape.org/namespaces/inkscape"
   width="242.50256mm"
   height="213.44716mm"
   viewBox="0 0 242.50256 213.44716"
   version="1.1"
   id="svg8"
   inkscape:version="0.92.4 (5da689c313, 2019-01-14)"
   sodipodi:docname="logo_2d.svg"
   inkscape:export-filename="D:\Code\brc.xyz\img\logo_2d.png"
   inkscape:export-xdpi="96"
   inkscape:export-ydpi="96">
  <defs
     id="defs2">
    <linearGradient
       id="linearGradient1084"
       inkscape:collect="always">
      <stop
         id="stop1080"
         offset="0"
         style="stop-color:#00c8ff;stop-opacity:1" />
      <stop
         style="stop-color:#4d87db;stop-opacity:1;"
         offset="0.90180826"
         id="stop1086" />
      <stop
         id="stop1082"
         offset="1"
         style="stop-color:#a987db;stop-opacity:1" />
    </linearGradient>
    <linearGradient
       id="linearGradient1735-6"
       inkscape:collect="always">
      <stop
         id="stop1764"
         offset="0"
         style="stop-color:#f00090;stop-opacity:1" />
      <stop
         id="stop1766"
         offset="1"
         style="stop-color:#00c8ff;stop-opacity:1" />
    </linearGradient>
    <linearGradient
       inkscape:collect="always"
       id="linearGradient1735-6-6">
      <stop
         style="stop-color:#00c8ff;stop-opacity:1"
         offset="0"
         id="stop1731" />
      <stop
         style="stop-color:#f00090;stop-opacity:1"
         offset="1"
         id="stop1733" />
    </linearGradient>
    <linearGradient
       id="linearGradient9320"
       osb:paint="solid">
      <stop
         style="stop-color:#b7bec8;stop-opacity:1;"
         offset="0"
         id="stop9318" />
    </linearGradient>
    <linearGradient
       id="linearGradient1500"
       inkscape:collect="always">
      <stop
         id="stop1496"
         offset="0"
         style="stop-color:#03e0ff;stop-opacity:0.78039217" />
      <stop
         id="stop1498"
         offset="1"
         style="stop-color:#2cbf87;stop-opacity:0;" />
    </linearGradient>
    <linearGradient
       inkscape:collect="always"
       id="linearGradient1372">
      <stop
         style="stop-color:#ff0dff;stop-opacity:1"
         offset="0"
         id="stop1368" />
      <stop
         style="stop-color:#bb56bb;stop-opacity:0;"
         offset="1"
         id="stop1370" />
    </linearGradient>
    <radialGradient
       inkscape:collect="always"
       xlink:href="#linearGradient1500"
       id="radialGradient892-0"
       cx="113.77084"
       cy="107.88319"
       fx="113.77084"
       fy="107.88319"
       r="38.304626"
       gradientTransform="matrix(-1.1742492,-1.316062e-7,5.2691718e-7,-4.8351422,239.42861,629.38356)"
       gradientUnits="userSpaceOnUse" />
    <radialGradient
       inkscape:collect="always"
       xlink:href="#linearGradient1372"
       id="radialGradient1374"
       cx="193.14583"
       cy="153.73059"
       fx="193.14583"
       fy="153.73059"
       r="41.829853"
       gradientTransform="matrix(0.99980782,0.01960412,-0.06325241,3.2258662,-77.551544,-245.03409)"
       gradientUnits="userSpaceOnUse" />
    <linearGradient
       inkscape:collect="always"
       xlink:href="#linearGradient1735-6-6"
       id="linearGradient1737"
       x1="174.36632"
       y1="365.2887"
       x2="1471.3146"
       y2="365.2887"
       gradientUnits="userSpaceOnUse"
       gradientTransform="matrix(0.39448269,-0.15354668,0.19813608,0.50468677,-382.53664,-20.948648)" />
    <linearGradient
       gradientTransform="matrix(1.7528796,1.4210513,-1.4210513,1.7528796,24.565858,-478.24785)"
       y2="221.63072"
       x2="332.1286"
       y1="221.63072"
       x1="-25.482124"
       gradientUnits="userSpaceOnUse"
       id="linearGradient887"
       xlink:href="#linearGradient1735-6"
       inkscape:collect="always" />
    <linearGradient
       y2="365.2887"
       x2="1471.3146"
       y1="365.2887"
       x1="174.36632"
       gradientTransform="matrix(0.46378271,0.37598649,-0.37598649,0.46378271,-173.7031,-465.76305)"
       gradientUnits="userSpaceOnUse"
       id="linearGradient889"
       xlink:href="#linearGradient1735-6-6"
       inkscape:collect="always" />
    <clipPath
       id="clipPath948"
       clipPathUnits="userSpaceOnUse">
      <path
         inkscape:connector-curvature="0"
         id="path950"
         d="m 4.4222861,259.67589 10.7031269,-61.66299 264.799807,11.72278 8.24357,63.64386 -116.71631,42.59874 z"
         style="fill:none;stroke:#000000;stroke-width:0.26458332px;stroke-linecap:butt;stroke-linejoin:miter;stroke-opacity:1" />
    </clipPath>
    <linearGradient
       gradientTransform="matrix(-0.00921921,0.55413073,1.1488444,0.02174839,364.23926,151.66724)"
       y2="221.63072"
       x2="332.1286"
       y1="221.63072"
       x1="-25.482124"
       gradientUnits="userSpaceOnUse"
       id="linearGradient966"
       xlink:href="#linearGradient1084"
       inkscape:collect="always" />
    <linearGradient
       gradientTransform="matrix(1.4909582,-0.58033394,0.74886076,1.9074776,-330.62397,-172.27907)"
       y2="221.63072"
       x2="332.1286"
       y1="221.63072"
       x1="-25.482124"
       gradientUnits="userSpaceOnUse"
       id="linearGradient994"
       xlink:href="#linearGradient1735-6"
       inkscape:collect="always" />
    <linearGradient
       gradientUnits="userSpaceOnUse"
       y2="151.25456"
       x2="332.11206"
       y1="151.25456"
       x1="-25.469732"
       id="linearGradient1032"
       xlink:href="#linearGradient1735-6"
       inkscape:collect="always" />
    <linearGradient
       gradientTransform="matrix(-0.99937029,-0.01604448,-0.07847081,0.99937029,320.1721,2.5693069)"
       y2="151.25456"
       x2="332.11206"
       y1="151.25456"
       x1="-25.469732"
       gradientUnits="userSpaceOnUse"
       id="linearGradient1039"
       xlink:href="#linearGradient1084"
       inkscape:collect="always" />
  </defs>
  <sodipodi:namedview
     id="base"
     pagecolor="#ffffff"
     bordercolor="#666666"
     borderopacity="1.0"
     inkscape:pageopacity="0.0"
     inkscape:pageshadow="2"
     inkscape:zoom="0.49497475"
     inkscape:cx="153.41712"
     inkscape:cy="432.77408"
     inkscape:document-units="mm"
     inkscape:current-layer="layer1-3"
     showgrid="false"
     inkscape:window-width="1920"
     inkscape:window-height="1001"
     inkscape:window-x="-9"
     inkscape:window-y="-9"
     inkscape:window-maximized="1"
     inkscape:object-nodes="false"
     inkscape:snap-others="false"
     inkscape:snap-nodes="true" />
  <metadata
     id="metadata5">
    <rdf:RDF>
      <cc:Work
         rdf:about="">
        <dc:format>image/svg+xml</dc:format>
        <dc:type
           rdf:resource="http://purl.org/dc/dcmitype/StillImage" />
        <dc:title></dc:title>
      </cc:Work>
    </rdf:RDF>
  </metadata>
  <g
     inkscape:label="Layer 1"
     inkscape:groupmode="layer"
     id="layer1"
     transform="translate(15.520685,-36.8668)">
    <g
       transform="matrix(0.34677738,0,0,0.34677738,98.193506,117.6543)"
       id="layer1-3"
       inkscape:label="Layer 1">
      <g
         id="g937"
         inkscape:export-xdpi="96"
         inkscape:export-ydpi="96">
        <path
           sodipodi:nodetypes="ccccccccccsc"
           inkscape:connector-curvature="0"
           style="fill:url(#linearGradient889);fill-opacity:1;stroke:none;stroke-width:0.59704292;stroke-miterlimit:4;stroke-dasharray:none;stroke-opacity:1"
           d="M 134.68439,-63.873481 C 12.836613,-163.31622 -117.7255,-229.25776 -199.82361,-232.81968 c -30.66589,-1.30013 -53.18109,6.04879 -65.99142,21.53949 l -0.0226,-0.018 -0.002,0.005 c -8.38085,10.55573 -12.49241,24.4587 -11.82614,41.65121 76.69539,-13.6041 224.276982,53.59004 362.965669,165.1055095 C 226.35866,109.06404 324.23752,241.49772 324.28144,318.65793 c 15.2365,-3.08495 26.76951,-9.96902 34.8245,-19.52508 l 0.39505,-0.48733 C 382.54168,269.9806 371.81447,215.72202 329.67124,147.76564 287.528,79.809262 217.40792,3.7007803 134.68439,-63.873481 Z"
           id="ellipse1686" />
        <path
           sodipodi:nodetypes="cccccccccccc"
           id="path1775"
           d="M -17.879409,-47.915409 C -121.96592,-7.9018379 -206.12801,55.063928 -233.50776,113.40668 c -10.20664,21.80762 -12.10487,41.92656 -5.56368,58.96804 l -0.0181,0.007 0.001,0.005 c 4.56334,11.35739 12.86978,21.19926 24.65823,29.21626 C -200.2624,138.72372 -110.26574,63.962879 7.0809947,17.592043 126.55336,-29.4825 245.65161,-35.596563 297.66189,2.5408274 300.2189,-10.140004 299.0163,-22.02055 295.02748,-32.64486 l -0.20827,-0.530287 C 269.19589,-97.819573 129.33768,-104.41222 -17.879048,-47.915139 Z"
           style="fill:url(#linearGradient1737);fill-opacity:1;stroke:none;stroke-width:0.47907549;stroke-miterlimit:4;stroke-dasharray:none;stroke-opacity:1"
           inkscape:connector-curvature="0" />
        <g
           id="g1099"
           transform="matrix(2.2565402,0,0,2.2565402,-1287.1594,-500.71587)">
          <g
             id="g1092">
            <g
               id="g1037"
               transform="matrix(1,0,0,-1,2.645824,487.93027)">
              <g
                 style="fill:url(#linearGradient1032);fill-opacity:1"
                 transform="matrix(-0.00921921,0.55413073,1.1488444,0.02174839,364.23926,151.66724)"
                 id="g971">
                <path
                   sodipodi:nodetypes="ccccccccccc"
                   inkscape:connector-curvature="0"
                   style="fill:url(#linearGradient1039);fill-opacity:1;stroke:none;stroke-width:0.26458332;stroke-miterlimit:4;stroke-dasharray:none;stroke-opacity:1"
                   d="m 157.93695,111.94942 c 69.67146,0.89075 131.90155,15.63537 159.43724,37.77662 10.27606,8.28066 15.28068,17.17985 14.66842,26.08327 l 0.0124,2e-4 -1.6e-4,0.002 c -0.52945,5.96791 -2.97534,12.00653 -8.44939,17.65473 C 303.0613,167.03297 234.89252,142.29082 156.10294,140.70945 75.912045,139.16189 3.6930988,161.6398 -19.925444,187.827 c -3.964365,-5.38113 -5.807181,-10.91446 -5.478586,-16.45024 l 0.02182,-0.27784 c 2.804892,-33.90962 84.796686,-60.36497 183.31916,-59.1495 z"
                   id="path962" />
              </g>
              <path
                 id="path960"
                 d="m 563.15586,141.30799 40.38936,0.7646 0.1413,0.003 -1.1e-4,0.007 c 39.00347,0.77819 70.18333,45.65038 69.69412,100.29962 -0.49265,54.72892 -32.55746,98.55235 -71.6189,97.88257 -0.45718,-0.0243 -0.91416,-0.0548 -1.37091,-0.0915 l -8.2e-4,0.0495 -38.93544,-0.73708 c 38.97139,0.49579 80.62739,-43.84885 81.12484,-98.44958 0.48921,-54.64925 -40.41996,-98.01067 -79.42344,-98.78886 z m -3.29579,198.09751 c 0.34512,0.0266 0.69037,0.0497 1.03574,0.0692 l -1.03657,-0.0196 z"
                 style="fill:url(#linearGradient966);fill-opacity:1;stroke:none;stroke-width:0.21113856;stroke-miterlimit:4;stroke-dasharray:none;stroke-opacity:1"
                 inkscape:connector-curvature="0"
                 sodipodi:nodetypes="cccccccccccccccc" />
            </g>
          </g>
        </g>
        <path
           id="path1773"
           d="m -239.10842,172.38912 26.32732,67.06025 0.0921,0.23461 0.0181,-0.007 a 126.15123,286.08214 69.068214 0 0 312.73736,14.82147 126.15123,286.08214 69.068214 0 0 221.32113,-220.069936 126.15123,286.08214 69.068214 0 0 -1.07078,-2.209311 l 0.13336,-0.0519 -25.37962,-64.646243 A 126.15123,286.08214 69.068214 0 1 73.646967,187.2038 126.15123,286.08214 69.068214 0 1 -239.09037,172.38233 Z M 293.89779,-35.075854 a 126.15123,286.08214 69.068214 0 1 0.80897,1.669186 l -0.67567,-1.721064 z"
           style="fill:url(#linearGradient994);fill-opacity:1;stroke:none;stroke-width:0.47907549;stroke-miterlimit:4;stroke-dasharray:none;stroke-opacity:1"
           inkscape:connector-curvature="0" />
        <g
           id="g924">
          <path
             id="ellipse1657-4"
             d="m -265.85851,-211.31543 -49.95921,61.62512 -0.17466,0.2155 0.0226,0.018 c -48.11981,59.613722 52.43434,221.834831 224.761577,362.60139 172.582007,140.96776 351.832563,207.07616 400.368133,147.65754 0.51632,-0.73806 1.01289,-1.49195 1.48963,-2.26155 l 0.13252,-0.17401 48.18488,-59.10571 C 310.00177,358.09654 131.11076,291.93294 -41.07522,151.30356 -213.40246,10.536995 -313.9566,-151.68412 -265.83678,-211.29783 Z m 626.6411,508.01503 c -0.36385,0.57853 -0.73902,1.14807 -1.12547,1.7086 l 1.28217,-1.58156 z"
             style="fill:url(#linearGradient887);fill-opacity:1;stroke:none;stroke-width:0.59704292;stroke-miterlimit:4;stroke-dasharray:none;stroke-opacity:1"
             inkscape:connector-curvature="0"
             sodipodi:nodetypes="cccccccccccccccc" />
        </g>
      </g>
    </g>
  </g>
</svg>
