<?xml version="1.0" encoding="UTF-8" standalone="no"?>
<!-- Created with Inkscape (http://www.inkscape.org/) -->

<svg
   xmlns:osb="http://www.openswatchbook.org/uri/2009/osb"
   xmlns:dc="http://purl.org/dc/elements/1.1/"
   xmlns:cc="http://creativecommons.org/ns#"
   xmlns:rdf="http://www.w3.org/1999/02/22-rdf-syntax-ns#"
   xmlns:svg="http://www.w3.org/2000/svg"
   xmlns="http://www.w3.org/2000/svg"
   xmlns:xlink="http://www.w3.org/1999/xlink"
   xmlns:sodipodi="http://sodipodi.sourceforge.net/DTD/sodipodi-0.dtd"
   xmlns:inkscape="http://www.inkscape.org/namespaces/inkscape"
   width="242.50256mm"
   height="213.44716mm"
   viewBox="0 0 242.50256 213.44716"
   version="1.1"
   id="svg8"
   inkscape:version="0.92.4 (5da689c313, 2019-01-14)"
   sodipodi:docname="logo.svg">
  <defs
     id="defs2">
    <linearGradient
       id="linearGradient1084"
       inkscape:collect="always">
      <stop
         id="stop1080"
         offset="0"
         style="stop-color:#00c8ff;stop-opacity:1" />
      <stop
         style="stop-color:#4d87db;stop-opacity:1;"
         offset="0.90180826"
         id="stop1086" />
      <stop
         id="stop1082"
         offset="1"
         style="stop-color:#a987db;stop-opacity:1" />
    </linearGradient>
    <linearGradient
       id="linearGradient1735-6"
       inkscape:collect="always">
      <stop
         id="stop1764"
         offset="0"
         style="stop-color:#f00090;stop-opacity:1" />
      <stop
         id="stop1766"
         offset="1"
         style="stop-color:#00c8ff;stop-opacity:1" />
    </linearGradient>
    <linearGradient
       inkscape:collect="always"
       id="linearGradient1735-6-6">
      <stop
         style="stop-color:#00c8ff;stop-opacity:1"
         offset="0"
         id="stop1731" />
      <stop
         style="stop-color:#f00090;stop-opacity:1"
         offset="1"
         id="stop1733" />
    </linearGradient>
    <linearGradient
       id="linearGradient9320"
       osb:paint="solid">
      <stop
         style="stop-color:#b7bec8;stop-opacity:1;"
         offset="0"
         id="stop9318" />
    </linearGradient>
    <linearGradient
       id="linearGradient1500"
       inkscape:collect="always">
      <stop
         id="stop1496"
         offset="0"
         style="stop-color:#03e0ff;stop-opacity:0.78039217" />
      <stop
         id="stop1498"
         offset="1"
         style="stop-color:#2cbf87;stop-opacity:0;" />
    </linearGradient>
    <linearGradient
       inkscape:collect="always"
       id="linearGradient1372">
      <stop
         style="stop-color:#ff0dff;stop-opacity:1"
         offset="0"
         id="stop1368" />
      <stop
         style="stop-color:#bb56bb;stop-opacity:0;"
         offset="1"
         id="stop1370" />
    </linearGradient>
    <radialGradient
       inkscape:collect="always"
       xlink:href="#linearGradient1500"
       id="radialGradient892-0"
       cx="113.77084"
       cy="107.88319"
       fx="113.77084"
       fy="107.88319"
       r="38.304626"
       gradientTransform="matrix(-1.1742492,-1.316062e-7,5.2691718e-7,-4.8351422,239.42861,629.38356)"
       gradientUnits="userSpaceOnUse" />
    <radialGradient
       inkscape:collect="always"
       xlink:href="#linearGradient1372"
       id="radialGradient1374"
       cx="193.14583"
       cy="153.73059"
       fx="193.14583"
       fy="153.73059"
       r="41.829853"
       gradientTransform="matrix(0.99980782,0.01960412,-0.06325241,3.2258662,-77.551544,-245.03409)"
       gradientUnits="userSpaceOnUse" />
    <linearGradient
       inkscape:collect="always"
       xlink:href="#linearGradient1735-6-6"
       id="linearGradient1737"
       x1="174.36632"
       y1="365.2887"
       x2="1471.3146"
       y2="365.2887"
       gradientUnits="userSpaceOnUse"
       gradientTransform="matrix(0.17481749,-0.06804518,0.08780525,0.22365512,98.387491,187.27319)" />
    <linearGradient
       gradientTransform="rotate(39.031522,161.09827,385.61518)"
       y2="221.63072"
       x2="332.1286"
       y1="221.63072"
       x1="-25.482124"
       gradientUnits="userSpaceOnUse"
       id="linearGradient887"
       xlink:href="#linearGradient1735-6"
       inkscape:collect="always" />
    <linearGradient
       y2="365.2887"
       x2="1471.3146"
       y1="365.2887"
       x1="174.36632"
       gradientTransform="matrix(0.20552823,0.16662078,-0.16662078,0.20552823,190.93339,-9.8491129)"
       gradientUnits="userSpaceOnUse"
       id="linearGradient889"
       xlink:href="#linearGradient1735-6-6"
       inkscape:collect="always" />
    <clipPath
       id="clipPath948"
       clipPathUnits="userSpaceOnUse">
      <path
         inkscape:connector-curvature="0"
         id="path950"
         d="m 4.4222861,259.67589 10.7031269,-61.66299 264.799807,11.72278 8.24357,63.64386 -116.71631,42.59874 z"
         style="fill:none;stroke:#000000;stroke-width:0.26458332px;stroke-linecap:butt;stroke-linejoin:miter;stroke-opacity:1" />
    </clipPath>
    <linearGradient
       gradientTransform="matrix(-0.00921921,0.55413073,1.1488444,0.02174839,364.23926,151.66724)"
       y2="221.63072"
       x2="332.1286"
       y1="221.63072"
       x1="-25.482124"
       gradientUnits="userSpaceOnUse"
       id="linearGradient966"
       xlink:href="#linearGradient1084"
       inkscape:collect="always" />
    <linearGradient
       gradientTransform="matrix(0.66072753,-0.25717864,0.33186236,0.8453107,121.39292,120.21016)"
       y2="221.63072"
       x2="332.1286"
       y1="221.63072"
       x1="-25.482124"
       gradientUnits="userSpaceOnUse"
       id="linearGradient994"
       xlink:href="#linearGradient1735-6"
       inkscape:collect="always" />
    <linearGradient
       gradientUnits="userSpaceOnUse"
       y2="151.25456"
       x2="332.11206"
       y1="151.25456"
       x1="-25.469732"
       id="linearGradient1032"
       xlink:href="#linearGradient1735-6"
       inkscape:collect="always" />
    <linearGradient
       gradientTransform="matrix(-0.99937029,-0.01604448,-0.07847081,0.99937029,320.1721,2.5693069)"
       y2="151.25456"
       x2="332.11206"
       y1="151.25456"
       x1="-25.469732"
       gradientUnits="userSpaceOnUse"
       id="linearGradient1039"
       xlink:href="#linearGradient1084"
       inkscape:collect="always" />
  </defs>
  <sodipodi:namedview
     id="base"
     pagecolor="#ffffff"
     bordercolor="#666666"
     borderopacity="1.0"
     inkscape:pageopacity="0.0"
     inkscape:pageshadow="2"
     inkscape:zoom="0.35"
     inkscape:cx="-22.767714"
     inkscape:cy="154.97741"
     inkscape:document-units="mm"
     inkscape:current-layer="layer1"
     showgrid="false"
     inkscape:window-width="1920"
     inkscape:window-height="1001"
     inkscape:window-x="-9"
     inkscape:window-y="-9"
     inkscape:window-maximized="1" />
  <metadata
     id="metadata5">
    <rdf:RDF>
      <cc:Work
         rdf:about="">
        <dc:format>image/svg+xml</dc:format>
        <dc:type
           rdf:resource="http://purl.org/dc/dcmitype/StillImage" />
        <dc:title></dc:title>
      </cc:Work>
    </rdf:RDF>
  </metadata>
  <g
     inkscape:label="Layer 1"
     inkscape:groupmode="layer"
     id="layer1"
     transform="translate(15.520685,-36.8668)">
    <g
       transform="matrix(0.34677738,0,0,0.34677738,98.193506,117.6543)"
       id="layer1-3"
       inkscape:label="Layer 1">
      <g
         transform="matrix(2.2565402,0,0,2.2565402,-604.55197,-443.53813)"
         id="g1137">
        <path
           inkscape:connector-curvature="0"
           style="fill:url(#linearGradient889);fill-opacity:1;stroke:none;stroke-width:0.26458332;stroke-miterlimit:4;stroke-dasharray:none;stroke-opacity:1"
           d="M 327.59725,168.25078 A 178.80656,61.562437 39.242511 0 0 179.35792,93.381206 178.80656,61.562437 38.820533 0 0 150.11341,102.92657 l -0.01,-0.008 a 178.80656,61.562437 39.242511 0 0 -0.001,0.002 178.80656,61.562437 39.242511 0 0 -5.15544,18.54338 178.80656,61.562437 38.820533 0 1 160.76523,73.0824 178.80656,61.562437 38.820533 0 1 105.78542,143.01431 178.80656,61.562437 39.242511 0 0 15.55345,-8.44134 l 0.17507,-0.21596 A 178.80656,61.562437 39.242511 0 0 327.59725,168.25078 Z"
           id="ellipse1686" />
        <path
           id="path1775"
           d="m 259.98764,175.3227 a 55.90471,126.7791 69.068214 0 0 -95.55706,71.4909 55.90639,126.77529 68.476805 0 0 -2.46558,26.13206 l -0.008,0.003 a 55.90471,126.7791 69.068214 0 0 6.6e-4,0.002 55.90471,126.7791 69.068214 0 0 10.92745,12.94737 55.90639,126.77529 68.476805 0 1 98.16389,-81.54529 55.90639,126.77529 68.476805 0 1 128.56143,-6.70023 55.90471,126.7791 69.068214 0 0 -0.95613,-15.56257 l -0.0923,-0.235 a 55.90471,126.7791 69.068214 0 0 -138.5742,-6.53212 z"
           style="fill:url(#linearGradient1737);fill-opacity:1;stroke:none;stroke-width:0.21230532;stroke-miterlimit:4;stroke-dasharray:none;stroke-opacity:1"
           inkscape:connector-curvature="0" />
        <g
           id="g1099"
           transform="translate(-302.50176,-23.630919)">
          <g
             id="g1092">
            <g
               id="g1037"
               transform="matrix(1,0,0,-1,2.645824,487.93027)">
              <path
                 id="path960"
                 d="m 563.15586,141.30799 40.38936,0.7646 0.1413,0.003 -1.1e-4,0.007 c 39.00347,0.77819 70.18333,45.65038 69.69412,100.29962 -0.49265,54.72892 -32.55746,98.55235 -71.6189,97.88257 -0.45718,-0.0243 -0.91416,-0.0548 -1.37091,-0.0915 l -8.2e-4,0.0495 -38.93544,-0.73708 c 38.97139,0.49579 80.62739,-43.84885 81.12484,-98.44958 0.48921,-54.64925 -40.42007,-98.94261 -79.42355,-99.7208 z m -3.29579,198.09751 c 0.34512,0.0266 0.69037,0.0497 1.03574,0.0692 l -1.03657,-0.0196 z"
                 style="fill:url(#linearGradient966);fill-opacity:1;stroke:none;stroke-width:0.21113856;stroke-miterlimit:4;stroke-dasharray:none;stroke-opacity:1"
                 inkscape:connector-curvature="0"
                 sodipodi:nodetypes="cccccccccccccccc" />
              <g
                 style="fill:url(#linearGradient1032);fill-opacity:1"
                 transform="matrix(-0.00921921,0.55413073,1.1488444,0.02174839,364.23926,151.66724)"
                 id="g971">
                <path
                   sodipodi:nodetypes="ccccccccccc"
                   inkscape:connector-curvature="0"
                   style="fill:url(#linearGradient1039);fill-opacity:1;stroke:none;stroke-width:0.26458332;stroke-miterlimit:4;stroke-dasharray:none;stroke-opacity:1"
                   d="m 157.93695,111.94942 c 69.67146,0.89075 131.90155,15.63537 159.43724,37.77662 10.27606,8.28066 15.28068,17.17985 14.66842,26.08327 l 0.0124,2e-4 -1.6e-4,0.002 c -0.52945,5.96791 -3.57913,11.8687 -9.05318,17.5169 C 302.45751,166.89514 234.89252,142.29082 156.10294,140.70945 75.912045,139.16189 3.6930988,161.6398 -19.925444,187.827 c -3.964365,-5.38113 -5.807181,-10.91446 -5.478586,-16.45024 l 0.02182,-0.27784 c 2.804892,-33.90962 84.796686,-60.36497 183.31916,-59.1495 z"
                   id="path962" />
              </g>
            </g>
          </g>
        </g>
        <path
           id="path1773"
           d="m 161.94861,272.95204 11.66712,29.71817 0.0408,0.10397 0.008,-0.003 a 55.90471,126.7791 69.068214 0 0 138.59153,6.56823 55.90471,126.7791 69.068214 0 0 98.07985,-97.52538 55.90471,126.7791 69.068214 0 0 -0.47452,-0.97907 l 0.0591,-0.023 -11.24714,-28.64839 a 55.90471,126.7791 69.068214 0 1 -98.12522,97.35369 55.90471,126.7791 69.068214 0 1 -138.59152,-6.56823 z m 236.20506,-91.93941 a 55.90471,126.7791 69.068214 0 1 0.3585,0.73971 l -0.29943,-0.7627 z"
           style="fill:url(#linearGradient994);fill-opacity:1;stroke:none;stroke-width:0.21230532;stroke-miterlimit:4;stroke-dasharray:none;stroke-opacity:1"
           inkscape:connector-curvature="0" />
        <path
           inkscape:connector-curvature="0"
           style="fill:url(#linearGradient887);fill-opacity:1;stroke:none;stroke-width:0.26458332;stroke-miterlimit:4;stroke-dasharray:none;stroke-opacity:1"
           d="m 150.09414,102.91095 -22.13974,27.30956 -0.0774,0.0955 0.01,0.008 a 178.80656,61.562437 39.242511 0 0 99.60451,160.68909 178.80656,61.562437 39.242511 0 0 177.42566,65.43537 178.80656,61.562437 39.242511 0 0 0.66014,-1.00222 l 0.0694,0.0563 21.34276,-26.32648 a 178.80656,61.562437 39.242511 0 1 -177.2812,-65.56823 178.80656,61.562437 39.242511 0 1 -99.6045,-160.68909 z m 277.69995,225.13006 a 178.80656,61.562437 39.242511 0 1 -0.49876,0.75718 l 0.5682,-0.70088 z"
           id="ellipse1657-4" />
      </g>
    </g>
  </g>
</svg>
