<svg id="svg" xmlns="http://www.w3.org/2000/svg" xmlns:xlink="http://www.w3.org/1999/xlink" width="400" height="163.86292834890963" viewBox="0, 0, 400,163.86292834890963"><g id="svgg"><path id="path0" d="M169.047 5.288 C 155.933 8.494,146.348 20.894,141.830 40.498 C 139.805 49.284,139.520 51.143,138.631 61.371 C 134.992 103.219,142.173 139.390,156.572 151.730 C 162.462 156.780,166.182 157.946,176.324 157.926 C 195.807 157.886,209.984 149.775,210.730 138.242 L 210.903 135.553 205.296 133.289 C 199.168 130.815,198.754 130.802,198.754 133.083 C 198.754 136.326,195.031 141.356,190.654 144.029 C 185.186 147.368,172.874 148.613,170.098 146.107 C 164.311 140.883,160.370 124.989,159.169 102.025 L 158.753 94.081 185.815 94.081 C 200.699 94.081,212.993 93.965,213.136 93.823 C 214.312 92.652,211.919 58.395,209.934 47.975 C 203.761 15.576,189.191 0.364,169.047 5.288 M38.808 6.853 C 34.247 8.475,30.192 11.438,27.604 15.040 C 24.860 18.860,24.659 18.660,24.632 12.086 L 24.611 6.787 15.265 6.784 L 5.919 6.780 5.919 81.428 L 5.919 156.075 15.265 156.075 L 24.611 156.075 24.922 94.081 C 25.164 45.918,25.410 31.670,26.025 30.218 C 29.400 22.250,33.149 18.660,39.087 17.711 C 43.459 17.012,45.802 19.503,47.448 26.599 C 47.920 28.635,48.265 49.855,48.526 92.835 L 48.910 156.075 58.255 156.075 L 67.601 156.075 67.917 94.393 C 68.137 51.484,68.443 32.136,68.924 30.823 C 72.570 20.876,82.790 14.230,87.555 18.706 C 92.417 23.274,92.832 29.643,92.833 99.844 L 92.835 156.386 102.181 156.386 L 111.526 156.386 111.513 93.925 C 111.498 24.335,111.566 25.540,107.188 16.867 C 99.057 0.759,76.572 2.279,68.025 19.515 C 66.502 22.587,65.592 23.147,65.062 21.340 C 61.424 8.926,50.278 2.775,38.808 6.853 M268.257 6.640 C 263.477 8.107,258.868 11.534,255.639 16.023 C 253.212 19.396,252.959 19.036,252.960 12.201 L 252.960 6.542 243.922 6.663 C 238.952 6.729,234.606 6.956,234.265 7.167 C 233.588 7.585,233.350 153.647,234.023 155.401 C 234.344 156.238,235.794 156.386,243.680 156.386 L 252.960 156.386 252.960 96.507 C 252.960 32.182,252.924 32.968,256.127 26.689 C 259.762 19.563,269.557 15.164,273.746 18.775 C 278.305 22.703,278.146 20.262,278.499 91.900 L 278.816 156.075 288.162 156.075 L 297.508 156.075 297.685 96.573 C 297.869 34.908,297.668 28.511,295.332 21.585 C 290.970 8.656,280.509 2.881,268.257 6.640 M326.643 71.807 C 326.888 143.769,326.698 140.419,330.993 148.477 C 337.531 160.743,357.625 161.983,367.793 150.747 C 371.713 146.415,371.963 146.499,371.963 152.145 L 371.963 156.420 381.153 156.247 L 390.343 156.075 390.501 81.464 L 390.659 6.854 381.336 6.854 L 372.013 6.854 371.826 69.938 C 371.622 139.314,371.840 135.405,367.879 140.598 C 362.838 147.207,351.553 148.392,348.570 142.626 C 345.908 137.477,345.794 134.474,345.794 69.104 L 345.794 6.854 336.108 6.854 L 326.421 6.854 326.643 71.807 M180.535 16.302 C 184.062 18.476,187.819 26.432,189.695 35.701 C 191.980 46.983,194.026 69.534,193.663 79.439 L 193.458 85.047 177.570 85.222 C 168.832 85.318,161.008 85.232,160.183 85.030 L 158.685 84.663 159.077 69.278 C 160.121 28.413,168.125 8.652,180.535 16.302 " stroke="none" fill="#000000" fill-rule="evenodd"></path></g></svg>