<?xml version="1.0" encoding="UTF-8" standalone="no"?>
<svg
   xmlns:dc="http://purl.org/dc/elements/1.1/"
   xmlns:cc="http://creativecommons.org/ns#"
   xmlns:rdf="http://www.w3.org/1999/02/22-rdf-syntax-ns#"
   xmlns:svg="http://www.w3.org/2000/svg"
   xmlns="http://www.w3.org/2000/svg"
   xmlns:sodipodi="http://sodipodi.sourceforge.net/DTD/sodipodi-0.dtd"
   xmlns:inkscape="http://www.inkscape.org/namespaces/inkscape"
   id="svg"
   width="85.140846"
   height="31.299999"
   viewBox="0 0 85.140846 31.299999"
   version="1.1"
   sodipodi:docname="nav_placeholder.svg"
   inkscape:version="0.92.4 (5da689c313, 2019-01-14)">
  <metadata
     id="metadata9">
    <rdf:RDF>
      <cc:Work
         rdf:about="">
        <dc:format>image/svg+xml</dc:format>
        <dc:type
           rdf:resource="http://purl.org/dc/dcmitype/StillImage" />
        <dc:title></dc:title>
      </cc:Work>
    </rdf:RDF>
  </metadata>
  <defs
     id="defs7" />
  <sodipodi:namedview
     pagecolor="#ffffff"
     bordercolor="#666666"
     borderopacity="1"
     objecttolerance="10"
     gridtolerance="10"
     guidetolerance="10"
     inkscape:pageopacity="0"
     inkscape:pageshadow="2"
     inkscape:window-width="1920"
     inkscape:window-height="1017"
     id="namedview5"
     showgrid="false"
     inkscape:zoom="11.36"
     inkscape:cx="41.439745"
     inkscape:cy="18.84328"
     inkscape:window-x="-8"
     inkscape:window-y="-8"
     inkscape:window-maximized="1"
     inkscape:current-layer="svg" />
  <g
     transform="matrix(4.597031,0,0,3.7795276,-1.5358078,-1091.2681)"
     id="layer1"
     inkscape:label="Layer 1">
    <rect
       y="288.73135"
       x="0.33408689"
       height="8.2814579"
       width="18.520834"
       id="rect815"
       style="opacity:1;fill:#f00090;fill-opacity:1;fill-rule:nonzero;stroke-width:1;stroke-miterlimit:4;stroke-dasharray:none" />
  </g>
  <g
     id="svgg"
     transform="matrix(0.09617492,0,0,0.09617492,-36.702688,-6.6920448)" />
  <path
     style="fill:#000000;stroke:#000000;stroke-width:1px;stroke-linecap:butt;stroke-linejoin:miter;stroke-opacity:1;fill-opacity:1"
     d="m 40.40493,11.05352 c 0.11737,0.08803 0.234741,0.176057 0.352112,0.264085 0,0.02934 -0.02075,0.06728 0,0.08803 0.02075,0.02075 0.06728,-0.02075 0.08803,0 0.02075,0.02075 -0.02075,0.06728 0,0.08803 0.02075,0.02075 0.06728,-0.02075 0.08803,0 0.0415,0.0415 -0.0415,0.13456 0,0.176057 0.02075,0.02075 0.06728,-0.02075 0.08803,0 0.004,0.004 0,0.398635 0,0.44014 0,0.264085 0,0.528169 0,0.792254 0,0.04603 0.01157,0.328966 0,0.352113 -0.01856,0.03712 -0.06947,0.05091 -0.08803,0.08803 -0.01312,0.02625 0.02075,0.06728 0,0.08803 -0.02075,0.02075 -0.06728,-0.02075 -0.08803,0 -0.02075,0.02075 0.02075,0.06728 0,0.08803 -0.02075,0.02075 -0.06728,-0.02075 -0.08803,0 -0.02075,0.02075 0.02075,0.06728 0,0.08803 -0.05854,0.05854 -0.117519,-0.05854 -0.176056,0 -0.02075,0.02075 0.02075,0.06728 0,0.08803 -0.0415,0.0415 -0.13456,-0.0415 -0.176056,0 -0.02075,0.02075 0.02075,0.06728 0,0.08803 -0.0415,0.0415 -0.13456,-0.0415 -0.176057,0 -0.02075,0.02075 0.02075,0.06728 0,0.08803 -0.02075,0.02075 -0.05868,0 -0.08803,0 -0.02934,0 -0.05868,0 -0.08803,0 -0.264085,0 -0.528169,0 -0.792254,0 -0.02934,0 -0.05868,0 -0.08803,0 -0.02934,0 -0.06728,0.02075 -0.08803,0 -0.02075,-0.02075 0.02075,-0.06728 0,-0.08803 -0.0415,-0.0415 -0.134559,0.0415 -0.176056,0 -0.02075,-0.02075 0.02075,-0.06728 0,-0.08803 -0.05854,-0.05854 -0.11752,0.05854 -0.176057,0 -0.02075,-0.02075 0.02075,-0.06728 0,-0.08803 -0.02075,-0.02075 -0.06728,0.02075 -0.08803,0 -0.02075,-0.02075 0.02075,-0.06728 0,-0.08803 -0.02075,-0.02075 -0.06728,0.02075 -0.08803,0 -0.02075,-0.02075 0.02075,-0.06728 0,-0.08803 -0.02075,-0.02075 -0.06728,0.02075 -0.08803,0 -0.02075,-0.02075 0.02075,-0.06728 0,-0.08803 -0.02075,-0.02075 -0.06728,0.02075 -0.08803,0 -0.02075,-0.02075 0.02075,-0.06728 0,-0.08803 -0.02075,-0.02075 -0.06728,0.02075 -0.08803,0 -0.02075,-0.02075 0.02075,-0.06728 0,-0.08803 -0.02075,-0.02075 -0.06728,0.02075 -0.08803,0 -0.0415,-0.0415 0.0415,-0.134559 0,-0.176056 -0.02075,-0.02075 -0.06728,0.02075 -0.08803,0 -0.0415,-0.0415 0.0415,-0.134559 0,-0.176056 -0.02075,-0.02075 -0.06728,0.02075 -0.08803,0 -0.04401,-0.04401 0.04401,-0.220071 0,-0.264085 -0.02075,-0.02075 -0.06728,0.02075 -0.08803,0 -0.018,-0.018 0.01745,-0.229182 0,-0.264084 -0.01856,-0.03712 -0.06947,-0.05091 -0.08803,-0.08803 -0.01138,-0.02276 0,-0.465775 0,-0.528169 0,-0.02934 0.02075,-0.06728 0,-0.08803 -0.02075,-0.02075 -0.06728,0.02075 -0.08803,0 -0.02075,-0.02075 0,-0.05869 0,-0.08803 0,-0.02934 0,-0.05868 0,-0.08803 0,-0.352113 0,-0.704225 0,-1.056338 0,-0.32277 0,-0.6455399 0,-0.9683098 0,-0.029343 0,-0.058685 0,-0.088028 0,-0.029343 -0.02075,-0.06728 0,-0.088028 0.02075,-0.020748 0.06728,0.020748 0.08803,0 0.04401,-0.044014 -0.04401,-0.2200704 0,-0.2640845 0.02075,-0.020748 0.06728,0.020748 0.08803,0 0.02075,-0.020748 -0.02075,-0.06728 0,-0.088028 0.02075,-0.020748 0.06728,0.020748 0.08803,0 0.0415,-0.041497 -0.0415,-0.1345594 0,-0.1760563 0.02075,-0.020748 0.06728,0.020748 0.08803,0 0.02075,-0.020748 -0.02075,-0.06728 0,-0.088028 0.02075,-0.020748 0.06728,0.020749 0.08803,0 0.05882,-0.058823 -0.05882,-0.1172328 0,-0.1760563 0.02075,-0.020748 0.06728,0.020748 0.08803,0 0.02075,-0.020748 -0.02075,-0.06728 0,-0.088028 0.02075,-0.020748 0.06728,0.020748 0.08803,0 0.0415,-0.041497 -0.0415,-0.1345594 0,-0.1760563 0.02075,-0.020748 0.06728,0.020748 0.08803,0 0.0415,-0.041497 -0.0415,-0.1345595 0,-0.1760564 0.02075,-0.020748 0.06728,0.020748 0.08803,0 0.0415,-0.041497 -0.0415,-0.1345594 0,-0.1760563 0.02075,-0.020748 0.06728,0.020748 0.08803,0 0.0415,-0.041497 -0.0415,-0.1345595 0,-0.1760563 0.02075,-0.020748 0.06728,0.020748 0.08803,0 0.04401,-0.044014 -0.04401,-0.2200705 0,-0.2640845 0.02075,-0.020748 0.06728,0.020748 0.08803,0 0.0415,-0.041497 -0.0415,-0.1345595 0,-0.1760564 0.02075,-0.020748 0.06728,0.020749 0.08803,0 0.0415,-0.041497 -0.0415,-0.1345594 0,-0.1760563 0.02075,-0.020748 0.06728,0.020748 0.08803,0 0.02075,-0.020748 -0.02075,-0.06728 0,-0.088028 0.02075,-0.020748 0.06728,0.020749 0.08803,0 0.0415,-0.041497 -0.0415,-0.1345594 0,-0.1760563 0.02075,-0.020748 0.06728,0.020748 0.08803,0 0.0415,-0.041497 -0.0415,-0.1345595 0,-0.1760564 0.02075,-0.020748 0.06728,0.020748 0.08803,0 0.02075,-0.020748 -0.02075,-0.06728 0,-0.088028 0.02075,-0.020748 0.06728,0.020748 0.08803,0 0.02075,-0.020748 -0.02075,-0.06728 0,-0.088028 0.02075,-0.020748 0.06728,0.020748 0.08803,0 0.0415,-0.041497 -0.0415,-0.1345595 0,-0.1760563 0.02075,-0.020749 0.06728,0.020748 0.08803,0 0.02075,-0.020749 -0.02075,-0.06728 0,-0.088028 0.02075,-0.020748 0.06728,0.020748 0.08803,0 0.02075,-0.020748 -0.02075,-0.06728 0,-0.088028 0.02075,-0.020748 0.06728,0.020748 0.08803,0 0.02075,-0.020748 -0.02075,-0.06728 0,-0.088028 0.02075,-0.020749 0.06728,0.020748 0.08803,0 0.0415,-0.041497 -0.0415,-0.1345595 0,-0.1760564 0.0415,-0.041497 0.13456,0.041497 0.176057,0 0.0415,-0.041497 -0.0415,-0.1345594 0,-0.1760563 0.02075,-0.020748 0.06728,0.020748 0.08803,0 0.02075,-0.020748 -0.02075,-0.06728 0,-0.088028 0.02075,-0.020748 0.06728,0.020748 0.08803,0 0.02075,-0.020748 -0.02075,-0.06728 0,-0.088028 0.02075,-0.020748 0.06728,0.020748 0.08803,0 0.02075,-0.020748 -0.02075,-0.06728 0,-0.088028 0.02075,-0.020748 0.06728,0.020748 0.08803,0 0.02075,-0.020748 -0.01312,-0.061783 0,-0.088028 0.183176,-0.3663521 -0.0061,0.094105 0.176057,-0.088028 0.02075,-0.020748 -0.02075,-0.06728 0,-0.088028 0.02075,-0.020748 0.06728,0.020748 0.08803,0 0.02075,-0.020748 -0.02075,-0.06728 0,-0.088028 0.02075,-0.020748 0.06728,0.020748 0.08803,0 0.02075,-0.020748 -0.02075,-0.06728 0,-0.088028 0.0415,-0.041497 0.13456,0.041497 0.176056,0 0.02075,-0.020748 -0.02075,-0.06728 0,-0.088028 0.02075,-0.020748 0.06728,0.020748 0.08803,0 0.02075,-0.020748 -0.02075,-0.06728 0,-0.088028 0.0415,-0.041497 0.134559,0.041497 0.176056,0 0.02075,-0.020748 -0.02075,-0.06728 0,-0.088028 0.0415,-0.041497 0.123566,0.026245 0.176056,0 0.03712,-0.018558 0.05091,-0.06947 0.08803,-0.088028 0.05249,-0.026245 0.13456,0.041497 0.176057,0 0.02075,-0.020748 -0.02075,-0.06728 0,-0.088028 0.02726,-0.027258 0.412883,0.027258 0.440141,0 0.02075,-0.020748 -0.02075,-0.06728 0,-0.088028 0.05854,-0.058537 0.117519,0.058537 0.176056,0 0.02075,-0.020748 -0.02075,-0.06728 0,-0.088028 0.018,-0.017996 0.229182,0.017451 0.264084,0 0.03712,-0.018558 0.05091,-0.06947 0.08803,-0.088028 0.05249,-0.026245 0.134559,0.041497 0.176056,0 0.02075,-0.020748 -0.02075,-0.06728 0,-0.088028 0.02075,-0.020748 0.05868,0 0.08803,0 0.02934,0 0.05869,0 0.08803,0 0.0624,0 0.50541,0.01138 0.528169,0 0.03712,-0.018558 0.05091,-0.06947 0.08803,-0.088028 0.03183,-0.015917 0.378914,0 0.440141,0 0.352113,0 0.704226,0 1.056338,0 0.234742,0 -0.02934,0.029343 0.08803,-0.088028 0.0035,-0.00354 0.319785,0 0.352112,0 0.762911,0 1.525822,0 2.288733,0 0.146713,0 0.293427,0 0.44014,0 0.02934,0 0.06728,-0.020749 0.08803,0 0.02075,0.020748 -0.02075,0.06728 0,0.088028 0.02075,0.020749 0.05868,0 0.08803,0 0.176056,0 0.352112,0 0.528169,0 0.02934,0 0.06728,-0.020748 0.08803,0 0.02075,0.020749 -0.02625,0.074906 0,0.088028 0.05112,0.02556 0.476278,-0.025945 0.528169,0 0.03712,0.018558 0.05091,0.06947 0.08803,0.088028 0.05533,0.027664 0.296785,-0.027664 0.352113,0 0.03712,0.018558 0.05091,0.06947 0.08803,0.088028 0.0349,0.017451 0.246088,-0.017996 0.264085,0 0.02075,0.020749 -0.02075,0.06728 0,0.088028 0.02118,0.021182 0.33093,-0.021182 0.352112,0 0.02075,0.020748 -0.02075,0.06728 0,0.088028 0.04401,0.044014 0.220071,-0.044014 0.264085,0 0.02075,0.020748 -0.02075,0.06728 0,0.088028 0.0415,0.041497 0.134559,-0.041497 0.176056,0 0.02075,0.020748 -0.02075,0.06728 0,0.088028 0.0415,0.041497 0.123567,-0.026245 0.176056,0 0.03712,0.018558 0.05091,0.06947 0.08803,0.088028 0.02624,0.013122 0.06178,-0.013122 0.08803,0 0.03712,0.018558 0.05091,0.06947 0.08803,0.088028 0.02624,0.013122 0.06178,-0.013122 0.08803,0 0.03712,0.018558 0.05091,0.06947 0.08803,0.088028 0.05249,0.026245 0.13456,-0.041497 0.176057,0 0.02075,0.020748 -0.02075,0.06728 0,0.088028 0.02075,0.020748 0.06178,-0.013122 0.08803,0 0.03712,0.018558 0.05091,0.06947 0.08803,0.088028 0.02625,0.013122 0.06728,-0.020748 0.08803,0 0.02075,0.020748 -0.02075,0.06728 0,0.088028 0.0415,0.041497 0.13456,-0.041497 0.176056,0 0.02075,0.020748 -0.02075,0.06728 0,0.088028 0.02075,0.020748 0.06728,-0.020748 0.08803,0 0.02075,0.020748 -0.02075,0.06728 0,0.088028 0.02075,0.020748 0.06728,-0.020748 0.08803,0 0.02075,0.020748 -0.02075,0.06728 0,0.088028 0.02075,0.020748 0.06178,-0.013122 0.08803,0 0.03712,0.018558 0.05091,0.06947 0.08803,0.088028 0.02625,0.013122 0.06728,-0.020748 0.08803,0 0.02075,0.020748 -0.02075,0.06728 0,0.088028 0.02075,0.020748 0.06728,-0.020748 0.08803,0 0.02075,0.020748 -0.02075,0.06728 0,0.088028 0.02075,0.020748 0.06728,-0.020749 0.08803,0 0.02075,0.020748 -0.02075,0.06728 0,0.088028 0.02075,0.020748 0.05868,0 0.08803,0 0,0.029343 -0.02075,0.06728 0,0.088028 0.02075,0.020748 0.06728,-0.020748 0.08803,0 0.02075,0.020748 -0.02075,0.06728 0,0.088028 0.02075,0.020748 0.06728,-0.020749 0.08803,0 0.02075,0.020748 -0.02075,0.06728 0,0.088028 0.02075,0.020748 0.06728,-0.020748 0.08803,0 0.182134,0.1821334 -0.278324,-0.00712 0.08803,0.1760564 0.234742,0 -0.02934,-0.029343 0.08803,0.088028 0.02075,0.020748 0.06728,-0.020748 0.08803,0 0.02075,0.020748 -0.02075,0.06728 0,0.088028 0.02075,0.020748 0.06728,-0.020748 0.08803,0 0.02075,0.020748 -0.02075,0.06728 0,0.088028 0.02075,0.020748 0.06728,-0.020748 0.08803,0 0.02075,0.020748 -0.01312,0.061783 0,0.088028 0.01856,0.037116 0.06947,0.050912 0.08803,0.088028 0.01312,0.026245 -0.02075,0.06728 0,0.088028 0.02075,0.020748 0.06728,-0.020748 0.08803,0 0.02075,0.020748 -0.01312,0.061783 0,0.088028 0.01856,0.037116 0.06947,0.050912 0.08803,0.088028 0.01312,0.026245 -0.02075,0.06728 0,0.088028 0.02075,0.020748 0.06728,-0.020748 0.08803,0 0.05882,0.058823 -0.05882,0.1172328 0,0.1760563 0.02075,0.020749 0.06728,-0.020748 0.08803,0 0.0415,0.041497 -0.0415,0.1345595 0,0.1760564 0.02075,0.020748 0.06728,-0.020748 0.08803,0 0.02075,0.020748 -0.02075,0.06728 0,0.088028 0.02075,0.020749 0.06728,-0.020748 0.08803,0 0.0415,0.041497 -0.0415,0.1345595 0,0.1760564 0.02075,0.020748 0.06728,-0.020748 0.08803,0 0.0415,0.041497 -0.0415,0.1345594 0,0.1760563 0.02075,0.020748 0.06728,-0.020748 0.08803,0 0.0415,0.041497 -0.0415,0.1345595 0,0.1760563 0.02075,0.020748 0.06728,-0.020748 0.08803,0 0.02075,0.020748 -0.01312,0.061783 0,0.088028 0.01856,0.037116 0.06947,0.050912 0.08803,0.088028 0.01745,0.034902 -0.018,0.2460883 0,0.2640845 0.234742,0.2347418 -0.02934,-0.2640845 0.08803,0.088028 0.02075,0.062245 0.06728,0.113811 0.08803,0.1760563 0.01856,0.055674 -0.0415,0.1345595 0,0.1760563 0.02075,0.020748 0.06728,-0.020748 0.08803,0 0.0415,0.041497 -0.0415,0.1345595 0,0.1760564 0.02075,0.020748 0.06728,-0.020748 0.08803,0 0.02118,0.021182 -0.02118,0.3309303 0,0.3521127 0.02075,0.020748 0.06728,-0.020748 0.08803,0 0.04401,0.044014 -0.04401,0.2200704 0,0.2640845 0.02075,0.020748 0.06728,-0.020748 0.08803,0 0.02118,0.021182 -0.02118,0.3309303 0,0.3521126 0.02075,0.020749 0.06728,-0.020748 0.08803,0 0.02118,0.021183 -0.02118,0.3309307 0,0.3521127 0.02075,0.02075 0.06728,-0.02075 0.08803,0 0.02118,0.02118 -0.02118,0.33093 0,0.352113 0.02075,0.02075 0.06728,-0.02075 0.08803,0 0.02075,0.02075 0,0.05868 0,0.08803 0,0.176056 0,0.352113 0,0.528169 0,0.02934 -0.02075,0.06728 0,0.08803 0.02075,0.02075 0.06728,-0.02075 0.08803,0 0.02075,0.02075 0,0.05869 0,0.08803 0,0.04151 0.004,0.436151 0,0.440141 -0.02075,0.02075 -0.06728,-0.02075 -0.08803,0 -0.018,0.018 0.01745,0.229182 0,0.264085 -0.01856,0.03712 -0.06947,0.05091 -0.08803,0.08803 -0.01745,0.0349 0.018,0.246088 0,0.264084 -0.02075,0.02075 -0.06728,-0.02075 -0.08803,0 -0.0415,0.0415 0.02625,0.123567 0,0.176057 -0.01856,0.03712 -0.06947,0.05091 -0.08803,0.08803 -0.02625,0.05249 0.0415,0.134559 0,0.176056 -0.02075,0.02075 -0.06728,-0.02075 -0.08803,0 -0.04401,0.04401 0.04401,0.220071 0,0.264085 -0.02075,0.02075 -0.06728,-0.02075 -0.08803,0 -0.0415,0.0415 0.0415,0.134559 0,0.176056 -0.02075,0.02075 -0.06728,-0.02075 -0.08803,0 -0.0415,0.0415 0.0415,0.134559 0,0.176056 -0.02075,0.02075 -0.06728,-0.02075 -0.08803,0 -0.0415,0.0415 0.0415,0.13456 0,0.176057 -0.02075,0.02075 -0.06728,-0.02075 -0.08803,0 -0.0415,0.0415 0.0415,0.134559 0,0.176056 -0.02075,0.02075 -0.06728,-0.02075 -0.08803,0 -0.0415,0.0415 0.0415,0.134559 0,0.176056 -0.02075,0.02075 -0.06728,-0.02075 -0.08803,0 -0.02075,0.02075 0.02075,0.06728 0,0.08803 -0.02075,0.02075 -0.06728,-0.02075 -0.08803,0 -0.0415,0.0415 0.0415,0.13456 0,0.176057 -0.0415,0.0415 -0.13456,-0.0415 -0.176057,0 -0.0415,0.0415 0.0415,0.134559 0,0.176056 -0.0415,0.0415 -0.134559,-0.0415 -0.176056,0 -0.02075,0.02075 0.02075,0.06728 0,0.08803 -0.05854,0.05854 -0.11752,-0.05854 -0.176056,0 -0.02075,0.02075 0.02075,0.06728 0,0.08803 -0.02075,0.02075 -0.06728,-0.02075 -0.08803,0 -0.02075,0.02075 0.02075,0.06728 0,0.08803 -0.02075,0.02075 -0.06728,-0.02075 -0.08803,0 -0.02075,0.02075 0.02075,0.06728 0,0.08803 -0.05854,0.05854 -0.117519,-0.05854 -0.176056,0 -0.02075,0.02075 0.02075,0.06728 0,0.08803 -0.0415,0.0415 -0.13456,-0.0415 -0.176056,0 -0.02075,0.02075 0.02075,0.06728 0,0.08803 -0.02118,0.02118 -0.330931,-0.02118 -0.352113,0 -0.02075,0.02075 0.02075,0.06728 0,0.08803 -0.04401,0.04401 -0.220071,-0.04401 -0.264085,0 -0.02075,0.02075 0.02075,0.06728 0,0.08803 -0.04401,0.04401 -0.22007,-0.04401 -0.264084,0 -0.02075,0.02075 0.02075,0.06728 0,0.08803 -0.0415,0.0415 -0.123567,-0.02625 -0.176056,0 -0.03712,0.01856 -0.05091,0.06947 -0.08803,0.08803 -0.05249,0.02624 -0.123566,-0.02624 -0.176056,0 -0.03712,0.01856 -0.05091,0.06947 -0.08803,0.08803 -0.05249,0.02625 -0.13456,-0.0415 -0.176056,0 -0.02075,0.02075 0.02075,0.06728 0,0.08803 -0.0415,0.0415 -0.13456,-0.0415 -0.176057,0 -0.02075,0.02075 0.02075,0.06728 0,0.08803 -0.02118,0.02118 -0.33093,-0.02118 -0.352112,0 -0.02075,0.02075 0.02075,0.06728 0,0.08803 -0.0415,0.0415 -0.123567,-0.02624 -0.176057,0 -0.03712,0.01856 -0.05091,0.06947 -0.08803,0.08803 -0.05249,0.02624 -0.134559,-0.0415 -0.176056,0 -0.02075,0.02075 0.02075,0.06728 0,0.08803 -0.0415,0.0415 -0.13456,-0.0415 -0.176057,0 -0.02075,0.02075 0.02075,0.06728 0,0.08803 -0.05854,0.05854 -0.117519,-0.05854 -0.176056,0 -0.02075,0.02075 0.02075,0.06728 0,0.08803 -0.0415,0.0415 -0.134559,-0.0415 -0.176056,0 -0.02075,0.02075 0.02075,0.06728 0,0.08803 -0.0415,0.0415 -0.13456,-0.0415 -0.176057,0 -0.02075,0.02075 0.02075,0.06728 0,0.08803 -0.0415,0.0415 -0.123566,-0.02624 -0.176056,0 -0.03712,0.01856 -0.05091,0.06947 -0.08803,0.08803 -0.02624,0.01312 -0.06728,-0.02075 -0.08803,0 -0.02075,0.02075 0.02075,0.06728 0,0.08803 -0.0415,0.0415 -0.13456,-0.0415 -0.176057,0 -0.02075,0.02075 0.02075,0.06728 0,0.08803 -0.02075,0.02075 -0.06728,-0.02075 -0.08803,0 -0.02075,0.02075 0.02075,0.06728 0,0.08803 -0.05854,0.05854 -0.11752,-0.05854 -0.176056,0 -0.02075,0.02075 0.02075,0.06728 0,0.08803 -0.02075,0.02075 -0.06728,-0.02075 -0.08803,0 -0.02075,0.02075 0.02075,0.06728 0,0.08803 -0.02075,0.02075 -0.05869,0 -0.08803,0 0,0.02934 0.02075,0.06728 0,0.08803 -0.02075,0.02075 -0.06728,-0.02075 -0.08803,0 -0.0415,0.0415 0.0415,0.134559 0,0.176056 -0.02075,0.02075 -0.06728,-0.02075 -0.08803,0 -0.02075,0.02075 0.02075,0.06728 0,0.08803 -0.02075,0.02075 -0.06728,-0.02075 -0.08803,0 -0.0415,0.0415 0.0415,0.13456 0,0.176057 -0.02075,0.02075 -0.06728,-0.02075 -0.08803,0 -0.0415,0.0415 0.0415,0.134559 0,0.176056 -0.02075,0.02075 -0.06728,-0.02075 -0.08803,0 -0.0415,0.0415 0.0415,0.134559 0,0.176056 -0.02075,0.02075 -0.06728,-0.02075 -0.08803,0 -0.02118,0.02118 0.02118,0.330931 0,0.352113 -0.02075,0.02075 -0.06728,-0.02075 -0.08803,0 -0.02075,0.02075 0,0.05869 0,0.08803 0,0.205399 0,0.410798 0,0.616197 0,0.264085 0,0.528169 0,0.792254 0,0.02934 0,0.05869 0,0.08803 0,0.02934 -0.02075,0.06728 0,0.08803 0.02075,0.02075 0.06728,-0.02075 0.08803,0 0.02726,0.02726 -0.02726,0.412883 0,0.440141 0.02075,0.02075 0.06728,-0.02075 0.08803,0 0.04401,0.04401 -0.04401,0.22007 0,0.264084 0.02075,0.02075 0.06728,-0.02075 0.08803,0 0.02118,0.02118 -0.02118,0.330931 0,0.352113 0.02075,0.02075 0.06728,-0.02075 0.08803,0 0.04401,0.04401 -0.04401,0.220071 0,0.264085 0.02075,0.02075 0.06728,-0.02075 0.08803,0 0.02726,0.02726 -0.02726,0.412883 0,0.44014 0.02075,0.02075 0.06728,-0.02075 0.08803,0 0.02118,0.02118 -0.02118,0.330931 0,0.352113 0.02075,0.02075 0.06728,-0.02075 0.08803,0 0.0028,0.0028 0,0.242735 0,0.264085 0,0.206441 -0.02075,-0.0415 0.08803,0.176056 0.01138,0.02276 0,0.465774 0,0.528169 0,0.02934 0,0.05868 0,0.08803 0,0.02934 -0.02075,0.06728 0,0.08803 0.02075,0.02075 0.06728,-0.02075 0.08803,0 0.0028,0.0028 0,0.242736 0,0.264085 0,0.469483 0,0.938967 0,1.408451 0,0.02135 0.0028,0.261253 0,0.264084 -0.02075,0.02075 -0.06728,-0.02075 -0.08803,0 -0.02075,0.02075 0.02075,0.06728 0,0.08803 -0.02075,0.02075 -0.05869,0 -0.08803,0 0,0.02934 0.02075,0.06728 0,0.08803 -0.0415,0.0415 -0.134559,-0.0415 -0.176056,0 -0.02075,0.02075 0.02075,0.06728 0,0.08803 -0.0415,0.0415 -0.134559,-0.0415 -0.176056,0 -0.02075,0.02075 0.02075,0.06728 0,0.08803 -0.0415,0.0415 -0.13456,-0.0415 -0.176057,0 -0.02075,0.02075 0.02075,0.06728 0,0.08803 -0.02075,0.02075 -0.05869,0 -0.08803,0 -0.02934,0 -0.05869,0 -0.08803,0 -0.176056,0 -0.352113,0 -0.528169,0 -0.02934,0 -0.06728,0.02075 -0.08803,0 0,-0.234742 0.02934,0.02934 -0.08803,-0.08803 -0.02075,-0.02075 0.02075,-0.06728 0,-0.08803 -0.02075,-0.02075 -0.06728,0.02075 -0.08803,0 -0.0309,-0.0309 0.0304,-0.379337 0,-0.440141 -0.01856,-0.03712 -0.06947,-0.05091 -0.08803,-0.08803 -0.01745,-0.0349 0.018,-0.246089 0,-0.264085 -0.02075,-0.02075 -0.06728,0.02075 -0.08803,0 -0.02118,-0.02118 0.02118,-0.33093 0,-0.352113 -0.02075,-0.02075 -0.06728,0.02075 -0.08803,0 -0.0415,-0.0415 0.0415,-0.134559 0,-0.176056 -0.02075,-0.02075 -0.06728,0.02075 -0.08803,0 -0.02118,-0.02118 0.02118,-0.33093 0,-0.352113 -0.02075,-0.02075 -0.06728,0.02075 -0.08803,0 -0.02726,-0.02726 0.02726,-0.412883 0,-0.44014 -0.02075,-0.02075 -0.06728,0.02075 -0.08803,0 -0.004,-0.004 0,-0.398636 0,-0.440141 0,-0.02934 0.02075,-0.06728 0,-0.08803 -0.02075,-0.02075 -0.06728,0.02075 -0.08803,0 -0.02075,-0.02075 0,-0.05869 0,-0.08803 0,-0.02934 0,-0.05868 0,-0.08803 0,-0.234742 0,-0.469483 0,-0.704225 0,-0.528169 0,-1.056338 0,-1.584507 0,-0.264085 0,-0.528169 0,-0.792254 0,-0.02934 0,-0.05869 0,-0.08803 0,-0.02934 -0.02075,-0.06728 0,-0.08803 0.02075,-0.02075 0.06728,0.02075 0.08803,0 0.004,-0.004 0,-0.398636 0,-0.440141 0,-0.02934 -0.02075,-0.06728 0,-0.08803 0.02075,-0.02075 0.06728,0.02075 0.08803,0 0.02118,-0.02118 -0.02118,-0.33093 0,-0.352113 0.02075,-0.02075 0.06728,0.02075 0.08803,0 0.02118,-0.02118 -0.02118,-0.33093 0,-0.352112 0.02075,-0.02075 0.06728,0.02075 0.08803,0 0.02409,-0.02409 -0.02388,-0.304359 0,-0.352113 0.01856,-0.03712 0.06947,-0.05091 0.08803,-0.08803 0.02625,-0.05249 -0.0415,-0.13456 0,-0.176057 0.02075,-0.02075 0.06728,0.02075 0.08803,0 0.018,-0.018 -0.01745,-0.229182 0,-0.264084 0.291953,-0.291953 -0.0415,0.08299 0.08803,-0.176056 0.01856,-0.03712 0.06947,-0.05091 0.08803,-0.08803 0.02625,-0.05249 -0.0415,-0.134559 0,-0.176056 0.02075,-0.02075 0.06728,0.02075 0.08803,0 0.02075,-0.02075 -0.01312,-0.06178 0,-0.08803 0.01856,-0.03712 0.06947,-0.05091 0.08803,-0.08803 0.01312,-0.02624 -0.02075,-0.06728 0,-0.08803 0.02075,-0.02075 0.06728,0.02075 0.08803,0 0.02075,-0.02075 -0.01312,-0.06178 0,-0.08803 0.01856,-0.03712 0.06947,-0.05091 0.08803,-0.08803 0.01312,-0.02624 -0.02075,-0.06728 0,-0.08803 0.02075,-0.02075 0.06728,0.02075 0.08803,0 0.0415,-0.0415 -0.0415,-0.134559 0,-0.176056 0.02075,-0.02075 0.06728,0.02075 0.08803,0 0.02075,-0.02075 -0.02075,-0.06728 0,-0.08803 0.02075,-0.02075 0.06728,0.02075 0.08803,0 0.0415,-0.0415 -0.0415,-0.134559 0,-0.176056 0.02075,-0.02075 0.06728,0.02075 0.08803,0 0.05882,-0.05882 -0.05882,-0.117233 0,-0.176056 0.02075,-0.02075 0.06728,0.02075 0.08803,0 0.02075,-0.02075 -0.02075,-0.06728 0,-0.08803 0.02075,-0.02075 0.06728,0.02075 0.08803,0 0.182134,-0.182134 -0.278324,0.0071 0.08803,-0.176057 0.02624,-0.01312 0.06728,0.02075 0.08803,0 0.0415,-0.0415 -0.0415,-0.134559 0,-0.176056 0.02075,-0.02075 0.06728,0.02075 0.08803,0 0.02075,-0.02075 -0.02075,-0.06728 0,-0.08803 0.02075,-0.02075 0.06728,0.02075 0.08803,0 0.02075,-0.02075 -0.02075,-0.06728 0,-0.08803 0.02075,-0.02075 0.06728,0.02075 0.08803,0 0.02075,-0.02075 -0.02075,-0.06728 0,-0.08803 0.02075,-0.02075 0.06728,0.02075 0.08803,0 0.02075,-0.02075 -0.02075,-0.06728 0,-0.08803 0.02075,-0.02075 0.06728,0.02075 0.08803,0 0.02075,-0.02075 -0.02075,-0.06728 0,-0.08803 0.02075,-0.02075 0.06728,0.02075 0.08803,0 0.02075,-0.02075 -0.02075,-0.06728 0,-0.08803 0.0415,-0.0415 0.134559,0.0415 0.176056,0 0.02075,-0.02075 -0.02075,-0.06728 0,-0.08803 0.02075,-0.02075 0.06728,0.02075 0.08803,0 0.02075,-0.02075 -0.02075,-0.06728 0,-0.08803 0.0415,-0.0415 0.13456,0.0415 0.176057,0 0.02075,-0.02075 -0.02075,-0.06728 0,-0.08803 0.02075,-0.02075 0.06728,0.02075 0.08803,0 0.02075,-0.02075 -0.02075,-0.06728 0,-0.08803 0.0415,-0.0415 0.134559,0.0415 0.176056,0 0.02075,-0.02075 -0.02075,-0.06728 0,-0.08803 0.02075,-0.02075 0.06728,0.02075 0.08803,0 0.02075,-0.02075 -0.02075,-0.06728 0,-0.08803 0.02075,-0.02075 0.06728,0.02075 0.08803,0 0.02075,-0.02075 -0.02075,-0.06728 0,-0.08803 0.02075,-0.02075 0.06728,0.02075 0.08803,0 0.02075,-0.02075 -0.02075,-0.06728 0,-0.08803 0.02075,-0.02075 0.06728,0.02075 0.08803,0 0.02075,-0.02075 -0.02075,-0.06728 0,-0.08803 0.05854,-0.05854 0.11752,0.05854 0.176056,0 0.02075,-0.02075 -0.02075,-0.06728 0,-0.08803 0.02075,-0.02075 0.06728,0.02075 0.08803,0 0.02075,-0.02075 -0.02075,-0.06728 0,-0.08803 0.02075,-0.02075 0.06728,0.02075 0.08803,0 0.02075,-0.02075 -0.02075,-0.06728 0,-0.08803 0.02075,-0.02075 0.06728,0.02075 0.08803,0 0.02075,-0.02075 -0.02075,-0.06728 0,-0.08803 0.02075,-0.02075 0.06728,0.02075 0.08803,0 0.0415,-0.0415 -0.0415,-0.13456 0,-0.176057 0.02075,-0.02075 0.06728,0.02075 0.08803,0 0.02075,-0.02075 -0.02075,-0.06728 0,-0.08803 0.02075,-0.02075 0.06728,0.02075 0.08803,0 0.02075,-0.02075 -0.02075,-0.06728 0,-0.08803 0.02075,-0.02075 0.06728,0.02075 0.08803,0 0.02075,-0.02075 -0.02075,-0.06728 0,-0.08803 0.02075,-0.02075 0.06728,0.02075 0.08803,0 0.02075,-0.02075 -0.01312,-0.06178 0,-0.08803 0.01856,-0.03712 0.06947,-0.05091 0.08803,-0.08803 0.01312,-0.02624 -0.02075,-0.06728 0,-0.08803 0.02075,-0.02075 0.06728,0.02075 0.08803,0 0.0415,-0.0415 -0.0415,-0.134559 0,-0.176056 0.02075,-0.02075 0.06728,0.02075 0.08803,0 0.0415,-0.0415 -0.0415,-0.134559 0,-0.176056 0.02075,-0.02075 0.06728,0.02075 0.08803,0 0.02118,-0.02118 -0.02118,-0.330931 0,-0.352113 0.02075,-0.02075 0.06728,0.02075 0.08803,0 0.0028,-0.0028 0,-0.242735 0,-0.264084 0,-0.440141 0,-0.880282 0,-1.320423 0,-0.02934 0,-0.05869 0,-0.08803 0,-0.02934 0.02075,-0.06728 0,-0.08803 -0.02075,-0.02075 -0.06728,0.02075 -0.08803,0 -0.04401,-0.04401 0.04401,-0.2200707 0,-0.2640848 -0.02075,-0.020748 -0.06728,0.020748 -0.08803,0 -0.04401,-0.044014 0.04401,-0.2200705 0,-0.2640845 -0.02075,-0.020748 -0.06728,0.020748 -0.08803,0 -0.0415,-0.041497 0.02624,-0.1235665 0,-0.1760564 -0.01856,-0.037116 -0.06947,-0.050912 -0.08803,-0.088028 -0.02625,-0.05249 0.0415,-0.1345595 0,-0.1760564 -0.02075,-0.020748 -0.06728,0.020748 -0.08803,0 -0.0415,-0.041497 0.0415,-0.1345594 0,-0.1760563 -0.02075,-0.020748 -0.06728,0.020748 -0.08803,0 -0.0415,-0.041497 0.0415,-0.1345595 0,-0.1760564 -0.02075,-0.020748 -0.06728,0.020748 -0.08803,0 -0.0415,-0.041497 0.0415,-0.1345594 0,-0.1760563 -0.02075,-0.020748 -0.06728,0.020748 -0.08803,0 -0.02075,-0.020748 0.02075,-0.06728 0,-0.088028 -0.02075,-0.020748 -0.06728,0.020749 -0.08803,0 -0.02075,-0.020748 0.01312,-0.061783 0,-0.088028 -0.01856,-0.037116 -0.06947,-0.050912 -0.08803,-0.088028 -0.01312,-0.026245 0.02075,-0.06728 0,-0.088028 -0.02075,-0.020748 -0.06728,0.020748 -0.08803,0 -0.02075,-0.020748 0.01312,-0.061783 0,-0.088028 -0.01856,-0.037116 -0.06947,-0.050912 -0.08803,-0.088028 -0.01312,-0.026245 0.02075,-0.06728 0,-0.088028 -0.02075,-0.020748 -0.06728,0.020748 -0.08803,0 -0.02075,-0.020748 0.02075,-0.06728 0,-0.088028 -0.02075,-0.020748 -0.06728,0.020748 -0.08803,0 -0.0415,-0.041497 0.0415,-0.1345594 0,-0.1760563 -0.02075,-0.020748 -0.06728,0.020748 -0.08803,0 -0.02075,-0.020748 0.02075,-0.06728 0,-0.088028 -0.02075,-0.020748 -0.06728,0.020748 -0.08803,0 -0.02075,-0.020748 0.02075,-0.06728 0,-0.088028 -0.02075,-0.020748 -0.06728,0.020748 -0.08803,0 -0.02075,-0.020748 0.02075,-0.06728 0,-0.088028 -0.02075,-0.020748 -0.06728,0.020748 -0.08803,0 -0.02075,-0.020748 0.02075,-0.06728 0,-0.088028 -0.02075,-0.020748 -0.06728,0.020749 -0.08803,0 -0.02075,-0.020748 0.02075,-0.06728 0,-0.088028 -0.0415,-0.041497 -0.134559,0.041497 -0.176056,0 -0.02075,-0.020748 0.02075,-0.06728 0,-0.088028 -0.02075,-0.020748 -0.06728,0.020748 -0.08803,0 -0.02075,-0.020748 0,-0.058685 0,-0.088028 -0.02934,0 -0.06728,0.020749 -0.08803,0 -0.02075,-0.020748 0.02075,-0.06728 0,-0.088028 -0.0415,-0.041497 -0.134559,0.041497 -0.176056,0 -0.02075,-0.020748 0.02075,-0.06728 0,-0.088028 -0.02075,-0.020748 -0.06178,0.013123 -0.08803,0 -0.03712,-0.018558 -0.05091,-0.06947 -0.08803,-0.088028 -0.02625,-0.013122 -0.06178,0.013123 -0.08803,0 -0.03712,-0.018558 -0.05091,-0.06947 -0.08803,-0.088028 -0.02624,-0.013122 -0.06178,0.013122 -0.08803,0 -0.03712,-0.018558 -0.05091,-0.06947 -0.08803,-0.088028 -0.02624,-0.013122 -0.06728,0.020748 -0.08803,0 -0.02075,-0.020748 0.02075,-0.06728 0,-0.088028 -0.05854,-0.058537 -0.11752,0.058537 -0.176056,0 -0.02075,-0.020748 0.02075,-0.06728 0,-0.088028 -0.0415,-0.041497 -0.123567,0.026245 -0.176057,0 -0.03712,-0.018558 -0.05091,-0.06947 -0.08803,-0.088028 -0.02624,-0.013122 -0.06178,0.013122 -0.08803,0 -0.03712,-0.018558 -0.05091,-0.06947 -0.08803,-0.088028 -0.05249,-0.026245 -0.13456,0.041497 -0.176057,0 -0.02075,-0.020748 0.02075,-0.06728 0,-0.088028 -0.05854,-0.058537 -0.117519,0.058537 -0.176056,0 -0.02075,-0.020748 0.02075,-0.06728 0,-0.088028 -0.02118,-0.021182 -0.33093,0.021182 -0.352113,0 -0.02075,-0.020749 0.02075,-0.06728 0,-0.088028 -0.02075,-0.020748 -0.05868,0 -0.08803,0 -0.02934,0 -0.05868,0 -0.08803,0 -0.440141,0 -0.880282,0 -1.320422,0 -0.586855,0 -1.173709,0 -1.760564,0 -0.264084,0 -0.528169,0 -0.792253,0 -0.02934,0 -0.05869,0 -0.08803,0 -0.02934,0 -0.06728,-0.020748 -0.08803,0 -0.02075,0.020748 0.02075,0.06728 0,0.088028 -0.02118,0.021182 -0.33093,-0.021182 -0.352112,0 -0.02075,0.020748 0.02075,0.06728 0,0.088028 -0.04401,0.044014 -0.220071,-0.044014 -0.264085,0 -0.02075,0.020748 0.02075,0.06728 0,0.088028 -0.02118,0.021182 -0.33093,-0.021182 -0.352113,0 0,0.2347418 0.02934,-0.029343 -0.08803,0.088028 -0.02075,0.020748 0.02075,0.06728 0,0.088028 -0.0415,0.041497 -0.123566,-0.026245 -0.176056,0 -0.03712,0.018558 -0.05091,0.06947 -0.08803,0.088028 -0.02624,0.013122 -0.06728,-0.020748 -0.08803,0 -0.02075,0.020748 0.02075,0.06728 0,0.088028 -0.02075,0.020748 -0.06728,-0.020748 -0.08803,0 -0.02075,0.020748 0.02075,0.06728 0,0.088028 -0.02075,0.020748 -0.06728,-0.020748 -0.08803,0 -0.02075,0.020748 0.02075,0.06728 0,0.088028 -0.02075,0.020749 -0.06728,-0.020748 -0.08803,0 -0.02075,0.020749 0.02075,0.06728 0,0.088028 -0.02075,0.020748 -0.06728,-0.020748 -0.08803,0 -0.02075,0.020748 0.01312,0.061783 0,0.088028 -0.01856,0.037116 -0.06947,0.050912 -0.08803,0.088028 -0.01312,0.026245 0.02075,0.06728 0,0.088028 -0.02075,0.020748 -0.06728,-0.020748 -0.08803,0 -0.02075,0.020748 0.01312,0.061783 0,0.088028 -0.01856,0.037116 -0.06947,0.050912 -0.08803,0.088028 -0.01312,0.026245 0.02075,0.06728 0,0.088028 -0.02075,0.020748 -0.06728,-0.020748 -0.08803,0 -0.02075,0.020748 0.01312,0.061783 0,0.088028 -0.01856,0.037116 -0.06947,0.050912 -0.08803,0.088028 -0.01312,0.026245 0.02075,0.06728 0,0.088028 -0.02075,0.020748 -0.06728,-0.020748 -0.08803,0 -0.0415,0.041497 0.02624,0.1235665 0,0.1760563 -0.03712,0.074232 -0.13894,0.1018245 -0.176056,0.1760564 -0.01312,0.026245 0.02075,0.06728 0,0.088028 -0.02075,0.020748 -0.06728,-0.020748 -0.08803,0 -0.0415,0.041497 0.0415,0.1345594 0,0.1760563 -0.02075,0.020748 -0.06728,-0.020748 -0.08803,0 -0.0415,0.041497 0.0415,0.1345595 0,0.1760563 -0.02075,0.020749 -0.06728,-0.020748 -0.08803,0 -0.0415,0.041497 0.0415,0.1345595 0,0.1760564 -0.02075,0.020748 -0.06728,-0.020748 -0.08803,0 -0.0415,0.041497 0.0415,0.1345594 0,0.1760563 -0.02075,0.020748 -0.06728,-0.020748 -0.08803,0 -0.0415,0.041497 0.0415,0.1345595 0,0.1760563 -0.02075,0.020749 -0.06728,-0.020748 -0.08803,0 -0.0028,0.00283 0,0.2427354 0,0.2640846 0,0.5575117 0,1.1150235 0,1.6725345 z"
     id="path819"
     inkscape:connector-curvature="0" />
  <path
     style="fill:#000000;stroke:#000000;stroke-width:1px;stroke-linecap:butt;stroke-linejoin:miter;stroke-opacity:1;fill-opacity:1"
     d="m 49.383803,27.42676 c -0.08476,-0.262449 -0.308916,0.06561 -0.440141,0 -0.03712,-0.01856 -0.05091,-0.06947 -0.08803,-0.08803 -0.05249,-0.02624 -0.13456,0.0415 -0.176057,0 -0.02075,-0.02075 0.02075,-0.06728 0,-0.08803 -0.04401,-0.04401 -0.22007,0.04401 -0.264084,0 -0.02075,-0.02075 0.02075,-0.06728 0,-0.08803 -0.0035,-0.0035 -0.319786,0 -0.352113,0 -0.04151,0 -0.436151,-0.004 -0.440141,0 -0.02075,0.02075 0.02075,0.06728 0,0.08803 -0.0415,0.0415 -0.134559,-0.0415 -0.176056,0 -0.0028,0.0028 0,0.242736 0,0.264085 0,0.04151 -0.004,0.436151 0,0.440141 0.02075,0.02075 0.06728,-0.02075 0.08803,0 0.0415,0.0415 -0.0415,0.134559 0,0.176056 0.02075,0.02075 0.06728,-0.02075 0.08803,0 0.02075,0.02075 -0.02075,0.06728 0,0.08803 0.02075,0.02075 0.06728,-0.02075 0.08803,0 0.02075,0.02075 -0.02075,0.06728 0,0.08803 0.0415,0.0415 0.123566,-0.02624 0.176056,0 0.03712,0.01856 0.05091,0.06947 0.08803,0.08803 0.234742,0 -0.02934,-0.02934 0.08803,0.08803 0.05854,0.05854 0.11752,-0.05854 0.176057,0 0.02075,0.02075 -0.02075,0.06728 0,0.08803 0.02075,0.02075 0.05868,0 0.08803,0 0.02934,0 0.05869,0 0.08803,0 0.264084,0 0.528169,0 0.792253,0 0.03233,0 0.348571,0.0035 0.352113,0 0.02075,-0.02075 -0.02075,-0.06728 0,-0.08803 0.02075,-0.02075 0.06728,0.02075 0.08803,0 0.02075,-0.02075 0,-0.05869 0,-0.08803 0,-0.146714 0,-0.293428 0,-0.440141 0,-0.02934 0,-0.05869 0,-0.08803 0,-0.02934 0.0151,-0.06287 0,-0.08803 -0.07548,-0.125805 -0.176056,-0.234741 -0.264084,-0.352112 z"
     id="path821"
     inkscape:connector-curvature="0" />
</svg>
