<?xml version="1.0" encoding="UTF-8" standalone="no"?>
<!-- Created with Inkscape (http://www.inkscape.org/) -->

<svg
   xmlns:dc="http://purl.org/dc/elements/1.1/"
   xmlns:cc="http://creativecommons.org/ns#"
   xmlns:rdf="http://www.w3.org/1999/02/22-rdf-syntax-ns#"
   xmlns:svg="http://www.w3.org/2000/svg"
   xmlns="http://www.w3.org/2000/svg"
   xmlns:sodipodi="http://sodipodi.sourceforge.net/DTD/sodipodi-0.dtd"
   xmlns:inkscape="http://www.inkscape.org/namespaces/inkscape"
   width="10.12299mm"
   height="101.42638mm"
   viewBox="0 0 10.12299 101.42639"
   version="1.1"
   id="svg8"
   inkscape:version="0.92.4 (5da689c313, 2019-01-14)"
   sodipodi:docname="old_joe.svg">
  <defs
     id="defs2">
    <marker
       inkscape:stockid="DotS"
       orient="auto"
       refY="0.0"
       refX="0.0"
       id="DotS"
       style="overflow:visible"
       inkscape:isstock="true">
      <path
         id="path893"
         d="M -2.5,-1.0 C -2.5,1.7600000 -4.7400000,4.0 -7.5,4.0 C -10.260000,4.0 -12.5,1.7600000 -12.5,-1.0 C -12.5,-3.7600000 -10.260000,-6.0 -7.5,-6.0 C -4.7400000,-6.0 -2.5,-3.7600000 -2.5,-1.0 z "
         style="fill-rule:evenodd;stroke:#000000;stroke-width:1pt;stroke-opacity:1;fill:#000000;fill-opacity:1"
         transform="scale(0.2) translate(7.4, 1)" />
    </marker>
    <marker
       inkscape:stockid="DiamondSend"
       orient="auto"
       refY="0.0"
       refX="0.0"
       id="DiamondSend"
       style="overflow:visible"
       inkscape:isstock="true">
      <path
         id="path929"
         d="M 0,-7.0710768 L -7.0710894,0 L 0,7.0710589 L 7.0710462,0 L 0,-7.0710768 z "
         style="fill-rule:evenodd;stroke:#000000;stroke-width:1pt;stroke-opacity:1;fill:#000000;fill-opacity:1"
         transform="scale(0.2) translate(-6,0)" />
    </marker>
    <marker
       inkscape:stockid="DotM"
       orient="auto"
       refY="0.0"
       refX="0.0"
       id="DotM"
       style="overflow:visible"
       inkscape:isstock="true">
      <path
         id="path890"
         d="M -2.5,-1.0 C -2.5,1.7600000 -4.7400000,4.0 -7.5,4.0 C -10.260000,4.0 -12.5,1.7600000 -12.5,-1.0 C -12.5,-3.7600000 -10.260000,-6.0 -7.5,-6.0 C -4.7400000,-6.0 -2.5,-3.7600000 -2.5,-1.0 z "
         style="fill-rule:evenodd;stroke:#000000;stroke-width:1pt;stroke-opacity:1;fill:#000000;fill-opacity:1"
         transform="scale(0.4) translate(7.4, 1)" />
    </marker>
    <clipPath
       id="clipPath1338"
       clipPathUnits="userSpaceOnUse">
      <rect
         y="8.3489103"
         x="-50.24667"
         height="277.9603"
         width="102.09695"
         id="rect1340"
         style="fill:#1b42ff;fill-opacity:0.5721925;stroke:none;stroke-width:1.05833328;stroke-miterlimit:4;stroke-dasharray:none;stroke-opacity:1;paint-order:markers stroke fill" />
    </clipPath>
    <clipPath
       clipPathUnits="userSpaceOnUse"
       id="clipPath1338-5">
      <rect
         style="fill:#1b42ff;fill-opacity:0.5721925;stroke:none;stroke-width:1.05833328;stroke-miterlimit:4;stroke-dasharray:none;stroke-opacity:1;paint-order:markers stroke fill"
         id="rect1340-0"
         width="102.09695"
         height="277.9603"
         x="-50.24667"
         y="8.3489103" />
    </clipPath>
  </defs>
  <sodipodi:namedview
     id="base"
     pagecolor="#ffffff"
     bordercolor="#666666"
     borderopacity="1.0"
     inkscape:pageopacity="0.0"
     inkscape:pageshadow="2"
     inkscape:zoom="22.627417"
     inkscape:cx="18.962676"
     inkscape:cy="337.03627"
     inkscape:document-units="mm"
     inkscape:current-layer="layer1-2"
     showgrid="false"
     inkscape:window-width="1920"
     inkscape:window-height="1001"
     inkscape:window-x="-9"
     inkscape:window-y="-9"
     inkscape:window-maximized="1" />
  <metadata
     id="metadata5">
    <rdf:RDF>
      <cc:Work
         rdf:about="">
        <dc:format>image/svg+xml</dc:format>
        <dc:type
           rdf:resource="http://purl.org/dc/dcmitype/StillImage" />
        <dc:title />
      </cc:Work>
    </rdf:RDF>
  </metadata>
  <g
     inkscape:label="Layer 1"
     inkscape:groupmode="layer"
     id="layer1"
     transform="translate(57.97816,-105.44702)">
    <g
       transform="translate(-173.4984,42.440536)"
       id="layer1-2"
       inkscape:label="Layer 1">
      <g
         transform="translate(19.777956)"
         id="g1288" />
      <path
         sodipodi:nodetypes="cccccccccccccccccccccc"
         inkscape:connector-curvature="0"
         id="path5124"
         d="m 124.41668,95.923557 1.22655,-6.496196 v -5.087966 h -1.43554 l -0.0545,-8.028978 0.76539,-0.09354 v -2.344049 l -4.33686,-10.866345 -4.33693,10.866345 v 2.344049 l 0.76538,0.09354 -0.0544,8.028978 h -1.43553 v 5.087966 l 1.22655,6.496196 -1.04799,68.509303 h 9.76585 m -4.89056,-67.615321 c 1.57577,-6e-6 2.8532,1.277381 2.85324,2.853148 1e-5,1.575803 -1.27744,2.853243 -2.85324,2.853243 -1.5758,0 -2.85325,-1.27744 -2.85324,-2.853243 4e-5,-1.575767 1.27747,-2.853154 2.85324,-2.853148 z"
         style="fill:#197bbd;fill-opacity:1;stroke:none;stroke-width:0.14122766;stroke-linecap:butt;stroke-linejoin:miter;stroke-miterlimit:4;stroke-dasharray:none;stroke-opacity:1" />
    </g>
  </g>
</svg>
