# Blender v2.80 (sub 75) OBJ File: '3Dlogo.blend'
# www.blender.org
mtllib Inner.mtl
o Inner_step-one
v 0.000120 1.675496 -0.058517
v 0.458035 1.457697 0.160094
v 0.333897 1.448730 -0.287586
v -0.351100 1.465262 0.185816
v 0.031026 1.611574 0.462105
v 0.458037 1.321037 0.636687
v -0.351102 1.341085 0.618878
v 0.000120 1.389897 0.937496
v 0.333901 1.076194 1.011596
v 0.000119 0.573403 1.575412
v 0.458036 0.298186 1.435826
v 0.333900 0.721186 1.288958
v -0.351102 0.276065 1.450968
v 0.031024 0.058510 1.675497
v 0.458036 -0.197308 1.453127
v -0.351103 -0.174171 1.466691
v 0.000119 -0.462112 1.611572
v 0.333900 -0.629524 1.336121
v 0.000118 -1.321119 1.032161
v 0.458033 -1.273407 0.727287
v 0.333898 -1.003016 1.084195
v -0.351100 -1.294648 0.710921
v 0.031025 -1.575412 0.573402
v 0.458034 -1.442977 0.261396
v -0.351100 -1.448729 0.287586
v 0.000118 -1.675496 0.058517
v 0.333898 -1.465262 -0.185816
v 0.000118 -1.389897 -0.937496
v 0.458034 -1.085200 -0.986332
v 0.333899 -1.341085 -0.618878
v -0.351104 -1.076194 -1.011596
v 0.031023 -1.032168 -1.321114
v 0.458035 -0.694508 -1.291576
v -0.351102 -0.721186 -1.288958
v 0.000119 -0.573403 -1.575412
v 0.333900 -0.276065 -1.450968
v 0.000119 0.462112 -1.611572
v 0.458034 0.602718 -1.336878
v 0.333900 0.174171 -1.466691
v -0.351103 0.629524 -1.336121
v 0.031022 0.937501 -1.389894
v 0.458033 1.013754 -1.059631
v -0.351101 1.003016 -1.084195
v 0.000120 1.321119 -1.032161
v 0.333897 1.294648 -0.710921
v -0.048463 1.032168 1.321114
v -0.475238 1.085200 0.986332
v -0.475239 0.694508 1.291576
v -0.048464 -0.937500 1.389894
v -0.475238 -0.602716 1.336878
v -0.475238 -1.013752 1.059631
v -0.048465 -1.611574 -0.462107
v -0.475238 -1.457697 -0.160098
v -0.475239 -1.321036 -0.636690
v -0.048464 -0.058509 -1.675497
v -0.475239 -0.298185 -1.435826
v -0.475239 0.197309 -1.453127
v -0.048463 1.575412 -0.573403
v -0.475236 1.273407 -0.727287
v -0.475236 1.442978 -0.261397
v 0.000001 1.447366 -0.050550
v 0.000001 1.392147 0.399186
v 0.000001 1.200653 0.809850
v 0.000000 0.495330 1.360909
v -0.000001 0.050544 1.447366
v -0.000000 -0.399192 1.392146
v -0.000001 -1.141239 0.891626
v 0.000000 -1.360909 0.495330
v -0.000001 -1.447366 0.050550
v -0.000001 -1.200653 -0.809850
v -0.000002 -0.891631 -1.141235
v -0.000000 -0.495330 -1.360908
v 0.000000 0.399192 -1.392146
v -0.000003 0.809854 -1.200650
v 0.000001 1.141239 -0.891626
v 0.000001 0.891631 1.141235
v -0.000000 -0.809853 1.200650
v -0.000001 -1.392147 -0.399188
v -0.000000 -0.050543 -1.447366
v 0.000001 1.360908 -0.495330
vn 0.4825 0.8628 -0.1511
vn -0.4380 0.8888 0.1351
vn 0.3928 0.9153 0.0891
vn 0.4761 0.8453 0.2424
vn -0.4935 0.8361 0.2397
vn -0.4380 0.8253 0.3564
vn 0.3928 0.8234 0.4095
vn 0.4825 0.6516 0.5853
vn 0.4825 0.4103 0.7739
vn -0.4380 0.1461 0.8870
vn 0.3928 0.1981 0.8980
vn 0.4761 0.0307 0.8789
vn -0.4935 0.0304 0.8692
vn -0.4380 -0.0839 0.8951
vn 0.3928 -0.1350 0.9096
vn 0.4825 -0.3553 0.8006
vn 0.4825 -0.6092 0.6293
vn -0.4380 -0.7985 0.4131
vn 0.3928 -0.7928 0.4659
vn 0.4761 -0.8264 0.3008
vn -0.4935 -0.8173 0.2975
vn -0.4380 -0.8772 0.1968
vn 0.3928 -0.9068 0.1527
vn 0.4825 -0.8712 -0.0905
vn 0.4825 -0.7868 -0.3849
vn -0.4380 -0.6396 -0.6317
vn 0.3928 -0.6881 -0.6100
vn 0.4761 -0.5414 -0.6930
vn -0.4935 -0.5355 -0.6854
vn -0.4380 -0.4582 -0.7734
vn 0.3928 -0.4255 -0.8153
vn 0.4825 -0.1831 -0.8565
vn 0.4825 0.1229 -0.8672
vn -0.4380 0.4032 -0.8035
vn 0.3928 0.3675 -0.8430
vn 0.4761 0.4918 -0.7291
vn -0.4935 0.4864 -0.7211
vn -0.4380 0.5940 -0.6748
vn 0.3928 0.6439 -0.6566
vn 0.4825 0.7580 -0.4389
vn 0.4460 0.6257 0.6400
vn -0.4671 0.7918 0.3936
vn 0.4932 0.5356 0.6855
vn 0.4460 0.4696 0.7620
vn -0.3859 0.6986 0.6026
vn -0.4763 0.5414 0.6929
vn -0.3859 0.4157 0.8236
vn -0.4671 0.1903 0.8635
vn 0.4460 -0.4153 0.7929
vn -0.4671 -0.1296 0.8747
vn 0.4932 -0.4864 0.7212
vn 0.4460 -0.5796 0.6821
vn -0.3859 -0.3572 0.8506
vn -0.4763 -0.4917 0.7290
vn -0.3859 -0.6548 0.6498
vn -0.4671 -0.7624 0.4479
vn 0.4460 -0.8824 -0.1500
vn -0.4671 -0.8719 0.1470
vn 0.4932 -0.8362 -0.2398
vn 0.4460 -0.8278 -0.3404
vn -0.3859 -0.9193 -0.0769
vn -0.4763 -0.8452 -0.2424
vn -0.3859 -0.8204 -0.4220
vn -0.4671 -0.6615 -0.5867
vn 0.4460 -0.1300 -0.8855
vn -0.4671 -0.4092 -0.7838
vn 0.4932 -0.0304 -0.8694
vn 0.4460 0.0680 -0.8924
vn -0.3859 -0.2110 -0.8981
vn -0.4763 -0.0307 -0.8788
vn -0.3859 0.1478 -0.9106
vn -0.4671 0.3536 -0.8105
vn 0.4460 0.8020 -0.3973
vn -0.4671 0.6190 -0.6314
vn 0.4932 0.8174 -0.2975
vn 0.4460 0.8698 -0.2111
vn -0.3859 0.7889 -0.4782
vn -0.4763 0.8263 -0.3007
vn -0.3859 0.9117 -0.1408
vn -0.4671 0.8800 0.0858
vn 0.0153 -0.9998 0.0158
vn -0.1315 -0.9839 -0.1208
vn 0.0782 -0.9895 -0.1215
vn -0.0063 -0.9612 -0.2756
vn -0.0327 -0.9607 -0.2755
vn -0.1315 -0.8984 -0.4189
vn 0.0782 -0.9035 -0.4213
vn 0.0153 -0.8395 -0.5432
vn 0.0153 -0.3240 -0.9459
vn -0.1315 -0.1892 -0.9731
vn 0.0782 -0.1902 -0.9786
vn -0.0063 -0.0349 -0.9994
vn -0.0327 -0.0349 -0.9989
vn -0.1315 0.1208 -0.9839
vn 0.0782 0.1215 -0.9895
vn 0.0153 0.2572 -0.9662
vn 0.0153 0.7995 -0.6004
vn -0.1315 0.8670 -0.4806
vn 0.0782 0.8719 -0.4833
vn -0.0063 0.9397 -0.3420
vn -0.0327 0.9392 -0.3418
vn -0.1315 0.9731 -0.1892
vn 0.0782 0.9786 -0.1902
vn 0.0153 0.9984 -0.0540
vn 0.0153 0.8181 0.5749
vn -0.1315 0.7250 0.6761
vn 0.0782 0.7291 0.6799
vn -0.0063 0.6157 0.7880
vn -0.0327 0.6153 0.7876
vn -0.1315 0.4806 0.8670
vn 0.0782 0.4833 0.8719
vn 0.0153 0.3599 0.9329
vn 0.0153 -0.2939 0.9557
vn -0.1315 -0.4190 0.8984
vn 0.0782 -0.4213 0.9035
vn -0.0063 -0.5592 0.8290
vn -0.0327 -0.5589 0.8286
vn -0.1315 -0.6761 0.7250
vn 0.0782 -0.6799 0.7291
vn 0.0153 -0.7760 0.6305
vn 0.1381 -0.7243 -0.6755
vn -0.0147 -0.8182 -0.5747
vn 0.0343 -0.6153 -0.7875
vn 0.1381 -0.4802 -0.8662
vn -0.0754 -0.7293 -0.6801
vn 0.0061 -0.6157 -0.7880
vn -0.0754 -0.4834 -0.8721
vn -0.0147 -0.3597 -0.9329
vn 0.1381 0.4186 -0.8976
vn -0.0147 0.2938 -0.9558
vn 0.0343 0.5589 -0.8285
vn 0.1381 0.6755 -0.7243
vn -0.0754 0.4214 -0.9037
vn 0.0061 0.5592 -0.8290
vn -0.0754 0.6801 -0.7293
vn -0.0147 0.7761 -0.6304
vn 0.1381 0.9830 0.1207
vn -0.0147 0.9998 -0.0160
vn 0.0343 0.9607 0.2755
vn 0.1381 0.8976 0.4186
vn -0.0754 0.9897 0.1215
vn 0.0061 0.9612 0.2756
vn -0.0754 0.9037 0.4214
vn -0.0147 0.8394 0.5433
vn 0.1381 0.1890 0.9722
vn -0.0147 0.3241 0.9459
vn 0.0343 0.0349 0.9988
vn 0.1381 -0.1207 0.9830
vn -0.0754 0.1903 0.9788
vn 0.0061 0.0349 0.9994
vn -0.0754 -0.1215 0.9897
vn -0.0147 -0.2574 0.9662
vn 0.1381 -0.8662 0.4802
vn -0.0147 -0.7994 0.6006
vn 0.0343 -0.9391 0.3418
vn 0.1381 -0.9722 0.1890
vn -0.0754 -0.8721 0.4834
vn 0.0061 -0.9397 0.3420
vn -0.0754 -0.9788 0.1903
vn -0.0147 -0.9984 0.0538
usemtl Default_OBJ
s off
f 1//1 2//1 3//1
f 4//2 5//2 1//2
f 1//3 5//3 2//3
f 5//4 6//4 2//4
f 4//5 7//5 5//5
f 7//6 8//6 5//6
f 5//7 8//7 6//7
f 8//8 9//8 6//8
f 10//9 11//9 12//9
f 13//10 14//10 10//10
f 10//11 14//11 11//11
f 14//12 15//12 11//12
f 13//13 16//13 14//13
f 16//14 17//14 14//14
f 14//15 17//15 15//15
f 17//16 18//16 15//16
f 19//17 20//17 21//17
f 22//18 23//18 19//18
f 19//19 23//19 20//19
f 23//20 24//20 20//20
f 22//21 25//21 23//21
f 25//22 26//22 23//22
f 23//23 26//23 24//23
f 26//24 27//24 24//24
f 28//25 29//25 30//25
f 31//26 32//26 28//26
f 28//27 32//27 29//27
f 32//28 33//28 29//28
f 31//29 34//29 32//29
f 34//30 35//30 32//30
f 32//31 35//31 33//31
f 35//32 36//32 33//32
f 37//33 38//33 39//33
f 40//34 41//34 37//34
f 37//35 41//35 38//35
f 41//36 42//36 38//36
f 40//37 43//37 41//37
f 43//38 44//38 41//38
f 41//39 44//39 42//39
f 44//40 45//40 42//40
f 8//41 46//41 9//41
f 7//42 47//42 8//42
f 9//43 46//43 12//43
f 46//44 10//44 12//44
f 8//45 47//45 46//45
f 47//46 48//46 46//46
f 46//47 48//47 10//47
f 48//48 13//48 10//48
f 17//49 49//49 18//49
f 16//50 50//50 17//50
f 18//51 49//51 21//51
f 49//52 19//52 21//52
f 17//53 50//53 49//53
f 50//54 51//54 49//54
f 49//55 51//55 19//55
f 51//56 22//56 19//56
f 26//57 52//57 27//57
f 25//58 53//58 26//58
f 27//59 52//59 30//59
f 52//60 28//60 30//60
f 26//61 53//61 52//61
f 53//62 54//62 52//62
f 52//63 54//63 28//63
f 54//64 31//64 28//64
f 35//65 55//65 36//65
f 34//66 56//66 35//66
f 36//67 55//67 39//67
f 55//68 37//68 39//68
f 35//69 56//69 55//69
f 56//70 57//70 55//70
f 55//71 57//71 37//71
f 57//72 40//72 37//72
f 44//73 58//73 45//73
f 43//74 59//74 44//74
f 45//75 58//75 3//75
f 58//76 1//76 3//76
f 44//77 59//77 58//77
f 59//78 60//78 58//78
f 58//79 60//79 1//79
f 60//80 4//80 1//80
f 61//81 3//81 2//81
f 61//82 62//82 4//82
f 62//83 61//83 2//83
f 2//84 6//84 62//84
f 7//85 4//85 62//85
f 63//86 7//86 62//86
f 6//87 63//87 62//87
f 9//88 63//88 6//88
f 12//89 11//89 64//89
f 13//90 64//90 65//90
f 11//91 65//91 64//91
f 11//92 15//92 65//92
f 16//93 13//93 65//93
f 66//94 16//94 65//94
f 15//95 66//95 65//95
f 18//96 66//96 15//96
f 21//97 20//97 67//97
f 22//98 67//98 68//98
f 20//99 68//99 67//99
f 20//100 24//100 68//100
f 25//101 22//101 68//101
f 69//102 25//102 68//102
f 24//103 69//103 68//103
f 27//104 69//104 24//104
f 30//105 29//105 70//105
f 31//106 70//106 71//106
f 29//107 71//107 70//107
f 29//108 33//108 71//108
f 34//109 31//109 71//109
f 72//110 34//110 71//110
f 33//111 72//111 71//111
f 36//112 72//112 33//112
f 39//113 38//113 73//113
f 40//114 73//114 74//114
f 38//115 74//115 73//115
f 38//116 42//116 74//116
f 43//117 40//117 74//117
f 75//118 43//118 74//118
f 42//119 75//119 74//119
f 45//120 75//120 42//120
f 63//121 9//121 76//121
f 7//122 63//122 47//122
f 12//123 76//123 9//123
f 12//124 64//124 76//124
f 76//125 47//125 63//125
f 76//126 48//126 47//126
f 48//127 76//127 64//127
f 13//128 48//128 64//128
f 66//129 18//129 77//129
f 16//130 66//130 50//130
f 21//131 77//131 18//131
f 21//132 67//132 77//132
f 77//133 50//133 66//133
f 77//134 51//134 50//134
f 51//135 77//135 67//135
f 22//136 51//136 67//136
f 69//137 27//137 78//137
f 25//138 69//138 53//138
f 30//139 78//139 27//139
f 30//140 70//140 78//140
f 78//141 53//141 69//141
f 78//142 54//142 53//142
f 54//143 78//143 70//143
f 31//144 54//144 70//144
f 72//145 36//145 79//145
f 34//146 72//146 56//146
f 39//147 79//147 36//147
f 39//148 73//148 79//148
f 79//149 56//149 72//149
f 79//150 57//150 56//150
f 57//151 79//151 73//151
f 40//152 57//152 73//152
f 75//153 45//153 80//153
f 43//154 75//154 59//154
f 3//155 80//155 45//155
f 3//156 61//156 80//156
f 80//157 59//157 75//157
f 80//158 60//158 59//158
f 80//159 61//159 60//159
f 4//160 60//160 61//160
